<svg version="1.1" id="prefix__bde73d41-a320-4095-b34e-88e478ed2899" xmlns="http://www.w3.org/2000/svg" x="0" y="0" viewBox="0 0 1097.1 790.9" xml:space="preserve"><style>.prefix__st0{fill:#7f5200}.prefix__st1{opacity:.1;enable-background:new}.prefix__st1,.prefix__st2{fill:#6c63ff}.prefix__st3{opacity:.1;enable-background:new}.prefix__st4{fill:#ffd037}.prefix__st5{fill:#a8a8a8}.prefix__st6{opacity:.2;enable-background:new}.prefix__st8{fill:#f8bdc5}.prefix__st9{fill:#474463}.prefix__st10{fill:#ffc1c8}.prefix__st15{opacity:.1}</style><switch><g><path class="prefix__st0" d="M599.5 697.5c-.3 2.2 2.1 7.2 4.4 11.4 1.9 3.6 3.8 6.5 3.8 6.5l10 21.8s-40.4 3.8-65.5-.2c-10.3-1.7-14.8-5.5-16.2-9.7-1.9-5.9 2.5-12.3 5.5-13.7 2.9-1.3 9.7-10.5 15.1-18.3 4.3-6.1 7.7-11.5 7.7-11.5s35.7 9.6 35.2 13.7z"/><path class="prefix__st1" d="M11.8 430C29.2 504.2 66 568.3 124 599.4c120.7 64.6 392.9 31.3 596.1-7 102.7-19.3 195.8-72.5 264.5-151.2L11.8 430zM1077.2 80.7H965.7c-5.3 0-9.6-4.3-9.6-9.6s4.3-9.6 9.6-9.6H985c-5.3-.2-9.5-4.6-9.3-9.9.2-5.1 4.2-9.2 9.3-9.3h-13.8c-5.3-.2-9.5-4.6-9.3-9.9.2-5.1 4.2-9.2 9.3-9.3h58.2c-12.9-6-28-10.3-45.4-12.5-158.6-20.4-215.3-6.9-235.3 7-24.7 17.1-52.2 29.7-81.5 35.7-97.9 20.2-280.9 44.5-446.8-7.8-82.5-26-143.7 17.9-180.5 91.3h1056.6c-1.4-21.3-5.5-41-13.1-58.2-1.7 1.3-3.9 2.1-6.2 2.1zM2.4 275.1c-4.3 43.2-2.8 86.7 4.3 129.4l978.7 35.8c27.2-31.3 50.1-66.2 68-103.7L2.4 275.1zm387.1 92.3h-19.3c5.3 0 9.6 4.3 9.6 9.6s-4.3 9.6-9.6 9.6H258.7c-5.3 0-9.6-4.3-9.6-9.6s4.3-9.6 9.6-9.6H278c-5.3-.2-9.5-4.6-9.3-9.9.2-5.1 4.2-9.2 9.3-9.3h-13.8c-5.3-.2-9.5-4.6-9.3-9.9.2-5.1 4.2-9.2 9.3-9.3h111.5c5.3.2 9.5 4.6 9.3 9.9-.2 5.1-4.2 9.2-9.3 9.3h13.8c5.3.2 9.5 4.6 9.3 9.9-.2 5.1-4.2 9.2-9.3 9.3zM1096.6 137.3l-1068.5 26c-13 33.4-21.6 71.2-25.6 110.3h1075.3c7-23 12.2-46.5 15.5-70.3 3.3-23 4.6-45.3 3.3-66zm-877.1 85.1h-19.3c5.3 0 9.6 4.3 9.6 9.6s-4.3 9.6-9.6 9.6H88.7c-5.3 0-9.6-4.3-9.6-9.6s4.3-9.6 9.6-9.6H108c-5.3-.2-9.5-4.6-9.3-9.9.2-5.1 4.2-9.2 9.3-9.3H94.2c-5.3-.2-9.5-4.6-9.3-9.9.2-5.1 4.2-9.2 9.3-9.3h111.5c5.3.2 9.5 4.6 9.3 9.9-.2 5.1-4.2 9.2-9.3 9.3h13.8c5.3.2 9.5 4.6 9.3 9.9-.2 5.1-4.2 9.2-9.3 9.3z"/><path class="prefix__st2" d="M853.2 633.2s5.5 7.2-2.5 18-14.7 20-12 26.8c0 0 12.1-20.2 22-20.4s3.3-12.3-7.5-24.4z"/><path class="prefix__st3" d="M853.2 633.2c.5.7.9 1.5 1.1 2.3 9.6 11.3 14.7 21.9 5.5 22.1-8.6.3-19 15.7-21.4 19.5l.3.9s12.1-20.2 22-20.4 3.3-12.3-7.5-24.4z"/><path class="prefix__st4" d="M863.4 642.3c0 2.5-.3 4.6-.6 4.6s-.6-2-.6-4.6.4-1.3.7-1.3.5-1.2.5 1.3z"/><path class="prefix__st4" d="M866.9 645.4c-2.2 1.2-4.2 1.9-4.3 1.6s1.5-1.5 3.7-2.8 1.3-.3 1.5 0 1.3 0-.9 1.2z"/><path class="prefix__st2" d="M824.2 633.2s-5.5 7.2 2.5 18 14.6 20 12 26.8c0 0-12.1-20.2-22-20.4s-3.4-12.3 7.5-24.4z"/><path class="prefix__st3" d="M824.2 633.2c-.5.7-.9 1.5-1.1 2.3-9.6 11.3-14.8 21.9-5.5 22.1 8.6.3 19 15.7 21.4 19.5l-.3.9s-12.1-20.2-22-20.4-3.4-12.3 7.5-24.4z"/><path class="prefix__st4" d="M814 642.3c0 2.5.3 4.6.6 4.6s.6-2 .6-4.6-.4-1.3-.7-1.3-.5-1.2-.5 1.3z"/><path class="prefix__st4" d="M810.5 645.4c2.2 1.2 4.2 1.9 4.3 1.6s-1.5-1.5-3.7-2.8-1.3-.3-1.5 0-1.3 0 .9 1.2z"/><path class="prefix__st5" d="M815.7 677s15.4-.5 20-3.8 23.6-7.2 24.8-2 23.1 26.3 5.7 26.4-40.3-2.7-44.9-5.5-5.6-15.1-5.6-15.1z"/><path class="prefix__st6" d="M866.5 695.9c-17.3.1-40.3-2.7-44.9-5.5-3.5-2.2-4.9-9.8-5.4-13.4h-.5s1 12.4 5.6 15.2 27.6 5.7 44.9 5.5c5 0 6.7-1.8 6.6-4.5-.6 1.7-2.5 2.7-6.3 2.7z"/><path class="prefix__st2" d="M269.2 682.7c1.8-1.5 3.2-3.5 3.8-5.8.5-2.3-.5-5-2.7-5.9-2.5-.9-5.1.8-7.1 2.5s-4.3 3.7-6.9 3.3c2.7-2.5 4-6.2 3.2-9.8-.1-.7-.4-1.4-.9-2-1.4-1.5-3.8-.8-5.5.3-5.2 3.7-6.6 10.7-6.7 17.1-.5-2.3-.1-4.7-.1-7s-.7-5-2.6-6.2c-1.2-.7-2.6-1-4-.9-2.3-.1-4.9.2-6.5 1.8-2 2.1-1.5 5.7.3 8s4.4 3.8 6.8 5.4c1.9 1.2 3.6 2.7 4.8 4.6.1.3.3.5.4.8h14.6c3.4-1.7 6.4-3.8 9.1-6.2z"/><path d="M152.8 698.4s-14.1-47.7 2.6-82.8c7.1-14.7 9.3-31.3 6.1-47.3-1.5-7.6-3.8-15-6.7-22.2" fill="none" stroke="#535461" stroke-width="2" stroke-miterlimit="10"/><path class="prefix__st2" d="M165.2 524c0 5.8-10.6 22.8-10.6 22.8S144 529.8 144 524c.2-5.8 5.1-10.4 10.9-10.3 5.6.2 10.1 4.7 10.3 10.3zM182.7 556.3c-3.2 4.9-21.3 13.4-21.3 13.4s.3-20 3.5-24.9c3.3-4.8 9.9-6 14.7-2.7 4.7 3.2 6 9.4 3.1 14.2zM181.9 611.7c-5.2 2.6-25.1.8-25.1.8s10.4-17.1 15.6-19.7c5.2-2.7 11.6-.8 14.3 4.4 2.7 5.2.8 11.6-4.4 14.3-.1.1-.2.1-.4.2zM171.9 653.4c-4.7 3.5-24.6 5-24.6 5s7.3-18.6 12-22.1c4.5-3.7 11.2-3 14.9 1.5 3.7 4.5 3 11.2-1.5 14.9-.2.3-.5.5-.8.7zM139.2 570.9c4.2 4.1 23.7 8.3 23.7 8.3s-4.8-19.4-9-23.5c-4.1-4.2-10.8-4.3-15-.2s-4.3 10.8-.2 15c.2.1.4.2.5.4zM128.1 619.8c5.2 2.6 25.1.8 25.1.8s-10.4-17.1-15.6-19.7c-5.3-2.5-11.6-.3-14.1 5-2.4 5.1-.4 11.3 4.6 13.9zM123.9 668.9c4.7 3.5 24.6 5 24.6 5s-7.3-18.6-12-22.1c-4.9-3.2-11.4-1.9-14.7 2.9-3 4.6-2.1 10.7 2.1 14.2z"/><path class="prefix__st2" d="M165.2 524c0 5.8-10.6 22.8-10.6 22.8S144 529.8 144 524c.2-5.8 5.1-10.4 10.9-10.3 5.6.2 10.1 4.7 10.3 10.3zM182.7 556.3c-3.2 4.9-21.3 13.4-21.3 13.4s.3-20 3.5-24.9c3.3-4.8 9.9-6 14.7-2.7 4.7 3.2 6 9.4 3.1 14.2zM181.9 611.7c-5.2 2.6-25.1.8-25.1.8s10.4-17.1 15.6-19.7c5.2-2.7 11.6-.8 14.3 4.4 2.7 5.2.8 11.6-4.4 14.3-.1.1-.2.1-.4.2zM171.9 653.4c-4.7 3.5-24.6 5-24.6 5s7.3-18.6 12-22.1c4.5-3.7 11.2-3 14.9 1.5 3.7 4.5 3 11.2-1.5 14.9-.2.3-.5.5-.8.7zM139.2 570.9c4.2 4.1 23.7 8.3 23.7 8.3s-4.8-19.4-9-23.5c-4.1-4.2-10.8-4.3-15-.2s-4.3 10.8-.2 15c.2.1.4.2.5.4zM128.1 619.8c5.2 2.6 25.1.8 25.1.8s-10.4-17.1-15.6-19.7c-5.3-2.5-11.6-.3-14.1 5-2.4 5.1-.4 11.3 4.6 13.9zM123.9 668.9c4.7 3.5 24.6 5 24.6 5s-7.3-18.6-12-22.1c-4.9-3.2-11.4-1.9-14.7 2.9-3 4.6-2.1 10.7 2.1 14.2z"/><path class="prefix__st5" d="M119.6 695.4s17.1-3.4 21.7-7.9 25.1-12.5 27.4-6.8 30.8 24.9 11.4 28.3-45.6 4.5-51.3 2.3-9.2-15.9-9.2-15.9z"/><path class="prefix__st6" d="M180 706.9c-19.4 3.4-45.6 4.5-51.3 2.3-4.3-1.7-7.4-10-8.6-13.9l-.6.1s3.4 13.6 9.1 15.8 31.9 1.1 51.3-2.3c5.6-1 7.2-3.3 6.6-6.2-.3 2-2.3 3.5-6.5 4.2z"/><path class="prefix__st2" d="M438.9 338.5s-3.4 27.5 23.2 30.3l4-19-8.4-11.3-12-4.1-6.8 4.1z"/><path class="prefix__st3" d="M445.8 334.4l-6.9 4s-3.4 27.5 23.2 30.3"/><path class="prefix__st8" d="M487.2 183.3s-17.9 1.1-35.9 4.1c-1.8.3-3.7.6-5.5 1-1.1.2-2.1.4-3.1.6-9.4 1.9-18 4.5-23 7.7-6 3.9-8-6.5-8.2-20.9-.1-5.1.1-10.6.4-16.3.4-6.5.9-13.1 1.4-19 1.2-13.1 2.6-23.3 2.6-23.3s6.3 0 14.7-.3l2.7-.1c2.6-.1 5.4-.2 8.2-.4 1.3-.1 2.7-.1 4-.3 5.3-.4 10.6-.9 15-1.6 4.7-.8 8.5-1.7 10.6-3 9.4-5.6 16.1 71.8 16.1 71.8z"/><path class="prefix__st9" d="M567 284.6l-3.5 23.2s-7.6 9.5-6.6 14.8 9.8 238.6 9.8 238.6S584 659.8 578 672.5s-.3 42.2-.3 42.2l35.9-5.6 12-430.8-58.6 6.3z"/><path class="prefix__st3" d="M567 284.6l-3.5 23.2s-7.6 9.5-6.6 14.8 9.8 238.6 9.8 238.6S584 659.8 578 672.5s-.3 42.2-.3 42.2l35.9-5.6 12-430.8-58.6 6.3z"/><path class="prefix__st0" d="M645.3 711.9c-.3 2.2 2.1 7.2 4.4 11.4 1.9 3.6 3.8 6.5 3.8 6.5l10 21.8s-40.4 3.8-65.5-.2c-10.3-1.7-14.8-5.5-16.2-9.7-1.9-5.9 2.5-12.3 5.5-13.7 2.9-1.3 9.7-10.5 15.1-18.3 4.3-6.1 7.7-11.5 7.7-11.5s35.7 9.6 35.2 13.7z"/><path class="prefix__st3" d="M646.2 720.7c-1.1 1.9-1 7.5-.7 12.2-8.5-4-34.9-29.6-37.4-32.1 6.4-3.8 11.8-7.2 11.8-7.2s28.4 23.6 26.3 27.1z"/><path class="prefix__st9" d="M725.1 300.8l-9.2 33.8s-5.3 10.2-6 15.1-5.6 12.3-5.6 12.3c-2.2 4.9-3.4 10.1-3.5 15.5-.3 9.5-7 53.5-14.4 60.9l-1.8 28.5s-7 4.9-2.1 12 3.2 25.3 3.2 25.3-6.7 5.3-2.5 10.6 1.4 20.8 1.4 20.8-3.9 4.9-2.1 7.7-1.7 75.3-1.7 75.3l-8.5 35.5s-3.9 29.6-6 38.4-2.1 19.7-2.1 19.7-9.2 19.4-15.8 18.3-39.1-32.7-39.1-32.7l4.6-107s3.9-45.4 1.4-54.2-4.2-52.8-4.2-52.8l-4.9-69.3-49.2-77.4s-3.6-22.5 6.6-29.2l1.8-12.2 1.7-11.1 58.4-6.3 89.4-23.2s6.9 4.3 10.5 14.9c2.4 7.1 3.4 17.2-.3 30.8z"/><path class="prefix__st10" d="M569.5 347.4s-41.5 51-39.8 36.8c1.1-9-4.6-19.9-9-26.8-2.6-4.1-4.8-6.8-4.8-6.8s25.3-46.5 26.8-40.1c.5 2 3.4 6.6 7.2 11.8 8 11 19.6 25.1 19.6 25.1z"/><path d="M646.2 759.4v5s-38.4-13.4-59.5-27.5c-8.7-5.8-11.2-11.2-10.7-15.5 11.7 5.9 33.3 17.2 39.9 22.2 5.6 4.3 20.1 11.1 30.3 15.8z" opacity=".3" fill="#fff"/><path class="prefix__st9" d="M596.5 750.7c-.1 1.5-.3 2.9-.5 4.4 0 0-38.9 1.4-59.1-1.6-5.6-.8-8.8-2.6-10.3-4.8-1.4-2.1-1.7-4.7-.7-7 .2-.7.5-1.3.8-1.9 1.5-2.6 3.8-4.5 5.1-4.3 3.5.7 9.6-6.5 9.6-6.5-.5-4.4 6.5-6 7.5-5.3.6.5 1.5.4 2-.3l.3-.6c.1-.3.1-1.9.1-3.8 0-3.1-.1-7-.1-7l39.1 4.8 1.5 7.5c1.4 6.7 3.4 15.8 4.3 18.9.4 2.5.6 5 .4 7.5z"/><path class="prefix__st9" d="M526.5 739.8c.1.7-.2 1.5-.8 1.9-4.9 3.8-28.5-.3-28.5-.3s-48.2-3-55.5-7.9c-.7-.4-1.2-1-1.6-1.7-3-5.4 7.9-14.5 8.8-14.5s13.9-1.8 14.8-1.9c6-1.2 12-4.9 13-3.9s6-1.4 8.4-1.8c.9-.1 1.3-1.4 1.5-3 .1-2.2.1-4.4-.2-6.5l38.5 10.4.3 6.1 1.1 20.4.1 2.5c.1 0 .1.1.1.2z"/><path class="prefix__st8" d="M466.8 352.2s-2.2 4-5.6 9.9c-8 14.1-22.4 39.1-28.6 47.1-8.8 11.3-8.1.7-17.6-22.9-7.1-17.5 14.7-37.6 26.3-46.7 4-3.2 6.8-5 6.8-5l18.7 17.6z"/><path class="prefix__st10" d="M509.3 389.3s-29.2 2.5-34.8 4.2-29.9.7-32 0-43.6 8.8-24.6 18.3 31 0 31 0 24.6-1.4 31 2.5 29.6 1.8 29.6 1.8l-.2-26.8z"/><path class="prefix__st3" d="M448.6 162.9c3.6 9.2 1.4 17.2-2.9 25.5-10.6 2-20.6 4.8-26.2 8.3-15.8 10.2-3.9-79.5-3.9-79.5s7.7 0 17.4-.4c-2.9 13.4 8.3 27.3 15.6 46.1z"/><path class="prefix__st8" d="M449.5 160.9c0 33.1-26.9 60-60.1 59.9-33.1 0-60-26.9-59.9-60.1 0-33.1 26.9-60 60.1-59.9 23 0 43.9 13.2 53.9 33.8 4 8.2 6.1 17.2 6 26.3z"/><path class="prefix__st3" d="M725.4 270c-1.9 2.8-4.7 4.7-8 5.5-13.7 3.9-110.5 27.1-116.8 25.7-5.6-1.2-29.6-4.7-35.1-5.5l1.7-11.1 58.4-6.3 89.4-23.2c-.1 0 6.8 4.2 10.4 14.9zM487.2 183.3c-11.4.7-22.8 2-34.1 3.8.2-.5.1-1.1-.1-1.6l23.4-2.9s-3.4-55-16-68.2c4.7-.8 8.5-1.7 10.6-3 9.5-5.5 16.2 71.9 16.2 71.9zM466.8 351.2s-2.2 4-5.6 9.9c-.5-18.4-13.4-21.9-19.9-22.5 4-3.2 6.8-5 6.8-5l18.7 17.6z"/><path class="prefix__st2" d="M449.5 217.8l1.7 9.5s6.7 8.1 6.7 10.6 7.7 9.5 9.9 13.4 9.5 4.6 6.7 11.3-19 57.7-19 57.7L439 338.6s27.4-2.5 23.2 30.3l35.5-31 27.8-50.6s-27.1-51.4-28.2-55.6-47.8-13.9-47.8-13.9z"/><path class="prefix__st3" d="M531.9 235.4s22.5-15.8 22.5-17.6-22.5 17.6-22.5 17.6zM569.5 255.1s12-2.8 13-9.1-13 9.1-13 9.1zM579.4 271.3s16.9-8.4 16.2-9.8-16.2 9.8-16.2 9.8zM669.8 217.7s-7 4.6-4.9 8.9 4.9-8.9 4.9-8.9zM690.5 219.5s-19.9 19-15.4 19.4 15.4-19.4 15.4-19.4zM645.2 514.1s25.7 4.9 26.4 6.7-26.4-6.7-26.4-6.7zM654.3 531s13.7 8.5 14.1 10.9-14.1-10.9-14.1-10.9zM651.2 550s2.1 9.5 5.6 10.9-5.6-10.9-5.6-10.9zM443.6 134.3v.3c-.5 3.1-1.8 6.5-4.7 7.6-1.8.5-3.7.3-5.3-.5-5-2.2-9.5-7.4-14.8-6.2-2.5.6-4.3 2.5-5.6 4.9-.9 1.7-1.5 3.5-2 5.4-1 3.9-1.8 8.2-.3 11.9l.9 1.8c1.4 2.3 3.4 4.2 4.8 6.5 1.7 2.9 2.2 7.1-.5 9.1-1.4.9-3.1 1.1-4.7.6-2-.6-3.9-1.5-5.7-2.5-3.5-1.9-8-3-11.4-.9-1.2.7-2.1 1.8-3.2 2.5-2.3 1.4-5 2-7.7 1.6-6.4-.6-8.7-4.7-13.6-7.8-3.6-2.3-11-3.3-13.1 1.4-1.4 3 .7 6.8-.7 9.8s-5.6 4-7.5 6.8c-2.6 3.7-.2 9.1-2.1 13.3-.3.6-.7 1.2-1.1 1.8-22.6-24.4-21.2-62.4 3.2-85 23.1-21.4 58.8-21.4 81.9 0l2.7-.1c2.6-.1 5.4-.2 8.2-.4.7 1.4 1.2 2.9 1.5 4.4 1.2 4.6 1.4 9.2.8 13.7z"/><path class="prefix__st9" d="M355.3 168.7c-1.4 3 .6 6.8-.7 9.8s-5.6 4-7.5 6.8c-2.6 3.8-.2 9.2-2.1 13.3-2.2 4.7-8.7 5.5-13.7 4.1-8.7-2.5-15.6-9-18.7-17.4-3.4-9.6-1.2-20.3-2.1-30.5-.4-4.4-1.3-8.7-2.8-12.8-1.5-4-3.4-7.9-3.9-12.2-.7-7.4 3.2-14.4 9.8-17.8 4.1-2 9.2-2.6 12.2-6 2.3-2.7 2.8-6.4 3.9-9.7 2.9-9 11.5-16.3 21-16.3 7.6.1 15 4.5 22.4 2.8 4.2-1 8-4 12.3-3.6 2.1.3 4.1 1.1 5.8 2.2 11.5 6.2 22.4 13.4 32.7 21.5 2.1 1.8 4.4 3.4 6.9 4.7 1.6.6 3.2 1.3 4.7 2.1 3.2 2 4.9 5.8 5.8 9.5 1.1 4.5 1.4 9.1.7 13.6-.4 3.2-1.7 6.8-4.8 7.9-1.8.5-3.7.3-5.3-.5-5-2.2-9.4-7.4-14.8-6.2-4.4 1-6.5 5.9-7.6 10.3-1 3.9-1.8 8.2-.3 11.9 1.3 3.1 4 5.4 5.7 8.2s2.2 7.2-.5 9.1c-3 2.2-7.1-.1-10.4-1.9-3.5-1.9-8-3-11.4-.9-1.1.7-2.1 1.8-3.2 2.5-2.3 1.4-5 2-7.7 1.6-6.4-.6-8.8-4.7-13.6-7.8-3.3-2-10.7-3-12.8 1.7z"/><path class="prefix__st3" d="M549.9 311.3c-.3 1.5-2.3 1.7-2.8 3.1-4 14.1-12.8 26.8-26.4 32-2.6-4.1-4.8-6.8-4.8-6.8s25.3-46.5 26.8-40.1c.5 1.9 3.4 6.5 7.2 11.8z"/><path class="prefix__st10" d="M550.7 312.5c0 25.7-20.8 46.5-46.5 46.5s-46.5-20.8-46.5-46.5 20.8-46.5 46.5-46.5c25.6-.1 46.4 20.6 46.5 46.1v.4z"/><path class="prefix__st3" d="M525 701.5l.3 6.1c-4.1.9-11.8 2.1-16.3-.7-5.8-3.6-14.4-4.4-22.3-9.3.1-2.2.1-4.4-.2-6.5l38.5 10.4zM591.7 715.3c-.3 1.4-.5 2.2-.5 2.2s-31-3.2-40-7.5c0-3.1-.1-7-.1-7l39.1 4.8 1.5 7.5z"/><path d="M584.6 586.7c-2.1 5.6-3.2 6.7-1 9.5s1 17.6-2.3 19-16 9.8-16 9.8 7 9.2 7.2 13c.2 2.5 1.1 4.8 2.7 6.7 0 0 10.8 23.2 13 30.6s4.1 19 4.1 19-3.8 10.6-1.2 16.5 0 14.8 0 14.8-37.8-3.9-42-8.8-1.4-16.2-1.4-16.2c-.9-5-2.7-9.8-5.3-14.1-4.2-6.7 1-13.7 0-14.1s-4.2-4.2-7.4-10.5-5.2-3.9-5.2-3.9 4.1 35.5 0 38.7-4.7 1.8-3.6 6c.8 4.1 1.4 8.2 1.8 12.3 0 0-12.7 3.9-19 0s-15.9-4.6-24.2-10.6 3.8-16.2 5.9-17.6-.7-21.8-.7-21.8l-2.8-20.1s9.5 2.1 6.4-5.6-6.7-34.5-8.5-38.7 6-9.9 4.9-12.7 4.6-19 4.6-19 .4-13.4 3.9-15.9c1.3-.9 2.2-3.9 2.8-7.1.6-3.8 1-7.7 1.1-11.5 0 0 80.6-5.6 93.6 2.1 5.9 3.5 5.5 9.9 3 16.4-3 7.9-9.2 16-10.7 18.9-2.9 5.6-1.5 9.3-3.7 14.9z" fill="#575988"/><path class="prefix__st3" d="M598.9 542.1c-10 2.8-23.3 6.9-25.5 9.3-3.5 3.9-15.5-21.8-15.5-21.8s.7 19.3-15.1 11.2c-13.7-7-35.8-6.1-41.6-5.7.6-3.8 1-7.7 1.1-11.5 0 0 80.6-5.6 93.6 2.1 5.9 3.5 5.5 9.9 3 16.4z"/><path d="M557.9 340.4s7-8.5 8.5-5.3 9.7 9.5 9.7 9.5 2.4 7.4 6.5 8.5 35.5 43.3 35.5 43.3l-11.3 22.9-9.2 55.6s.4 8.8-2.1 12-12 2.5-7.6 6.3 10.7 7.4 14.3 25 7.7 27.8 7.7 27.8-33.1 8.5-36.6 12.3-15.5-21.8-15.5-21.8.7 19.3-15.1 11.2-42.9-5.6-42.9-5.6v-20.8s5.3-8.1 2.5-13.7 1.9-16.2 1.9-16.2-1.6-10.9-4.4-17.2-1.8-36.3-1.8-36.3-2.1-19.4-.2-29.2c1.7-8.5 4.6-16.8 8.7-24.5 3.9-7.5 6.3-14.6 5.3-17.4s9.3-8.9 9.3-8.9l5.7 9.3 1.5 5.5c0-.1 30.3-21.8 29.6-32.3z" fill="#dce6f2"/><path class="prefix__st10" d="M608.5 389.3s19.7 19.4 21.8 22.5 9.2 19.7 0 24.7-45 12.7-48.6 10-25 3-25 3-35.9 8.8-28.1-5.6 26-12 26-12 29.6 0 32.7-3 27-9.3 21.6-22.3-.4-17.3-.4-17.3z"/><path class="prefix__st3" d="M550.7 464.8s-45.9 39.8-41.3 39.8 41.3-39.8 41.3-39.8zM581.3 481s-14.6 3.5-11.8 5.6 11.8-5.6 11.8-5.6zM529.8 384.6s18.2 1.6 15 7.3-15-7.3-15-7.3zM518.5 555.5s-2.5 7.2 0 11 0 13 0 13v32s-.3 23.2 8.1 31.3l-8.1-87.3zM494.4 655.3s4.9 7.2 5.6 9.8-5.6-9.8-5.6-9.8zM495.6 640.8s11.4-2.1 13.2-.9-13.2.9-13.2.9zM492.3 683.9s-3.3.3 3.3 4 19.7 8.3 19.9 6.7-23.2-10.7-23.2-10.7zM541.2 648.9c1.2 0 15.9-.9 15.1 1.4s-15.1-1.4-15.1-1.4zM561.3 628.3s3.3-5.8 4.6-3.3-4.6 3.3-4.6 3.3zM550.7 301.5c0 4.3-.6 8.6-1.8 12.8-1.9 1.8-5.3 1.8-7.7.5-2.8-1.5-4.6-4.3-6.5-7s-3.9-5.3-6.9-6.5c-3.8-1.4-8.1 0-11.3 2.4s-5.9 5.5-9 8-7 4.6-11 3.9c-2.5-.4-4.8-1.8-7-3.2-3-1.9-6.2-4.8-9.5-6.1s-6 1-9.1 1c-2.5.9-5.2 3-4.7 5.5.3 1 .7 1.9 1.3 2.7 2.1 4 1.5 8.9-1.5 12.4-14.6-21.1-9.3-50 11.8-64.6s50-9.3 64.6 11.8c5.4 7.7 8.3 16.9 8.3 26.4z"/><path d="M470.9 317c-2.5.9-5.2 3-4.7 5.5.3 1 .7 1.9 1.3 2.7 2.9 5.2.5 12.7-5 15.1-.9.4-1.8.6-2.8.4-.8-.2-1.4-.6-2-1.2-2.9-2.6-5-6.1-5.8-10-.9-4-.3-8.2-.8-12.4s-1.9-8.2-2.3-12.3c-.3-2-.1-4.1.6-6.1.7-1.3 1.5-2.4 2.5-3.5 2.8-3.1 5.7-6.3 7.1-10.3 2.2-6.3.6-14.4 5.5-19 2.3-2.1 5.4-2.9 8.2-4.3 2.6-1.4 5.2-3 7.5-4.8 9-6.2 20-11 30.8-8.8 4.3 1 8.4 2.7 12.2 5 7 3.9 13.7 8.4 20 13.4 2.7 2 5.1 4.4 7 7.2 1.4 2.4 2.5 4.9 3.1 7.6 1.4 5.9 1.6 12 .6 18-1 5.9-3.3 11.5-3.4 17.5 0 2 .2 4.2-.9 5.9-1.7 2.7-5.7 3-8.5 1.5s-4.6-4.3-6.4-7-3.9-5.3-6.9-6.5c-3.8-1.4-8.1 0-11.3 2.4s-5.9 5.5-9 8-7 4.6-11 3.9c-2.5-.4-4.8-1.8-7-3.2-3-1.9-6.2-4.8-9.5-6.1s-6 1.4-9.1 1.4z" fill="#794f6a"/><path class="prefix__st8" d="M577.6 378.3s-51.7 47.9-41.2 71.8 57-18.3 57-18.3l16.6-38.3-32.4-15.2z"/><g class="prefix__st15"><path d="M462.5 326.4c-.9.4-1.8.6-2.8.4-.8-.2-1.4-.6-2-1.2-2.9-2.6-5-6.1-5.8-9.9-.9-4-.3-8.3-.8-12.4s-1.9-8.1-2.3-12.3v-.6c-.1 1.1-.1 2.3 0 3.4.5 4.1 1.9 8.1 2.3 12.3s-.1 8.3.8 12.4c.8 3.8 2.8 7.3 5.8 10 .6.6 1.2 1 2 1.2.9.2 1.9 0 2.8-.4 4.3-1.9 6.7-6.9 6.2-11.5-.5 3.7-2.8 7-6.2 8.6zM554 285.7c-1 5.9-3.3 11.5-3.3 17.5 0 2 .2 4.2-.9 5.9-1.6 2.7-5.7 3-8.5 1.5s-4.6-4.3-6.5-7-3.9-5.3-6.9-6.5c-3.8-1.4-8.1 0-11.3 2.4s-5.9 5.5-9 8-7 4.6-11 4c-2.5-.4-4.8-1.8-7-3.2-3-1.9-6.2-4.8-9.5-6.1s-6 1-9.1 1c-2.5.9-5.2 3-4.7 5.6.1.3.2.6.3.8 1-1.7 2.6-3 4.5-3.6 3.1 0 5.9-2.2 9.1-1s6.5 4.2 9.5 6.1c2.2 1.4 4.4 2.8 7 3.2 4 .6 7.9-1.4 11-3.9s5.7-5.7 9-8 7.6-3.8 11.3-2.4c3 1.1 5.1 3.8 6.9 6.5s3.7 5.4 6.5 7 6.9 1.3 8.5-1.5c1-1.7.8-3.9.9-5.9.1-6 2.3-11.6 3.3-17.5.5-3 .7-6.1.6-9.1-.2 2-.4 4.1-.7 6.2z"/></g><path class="prefix__st3" d="M515.7 134.7s-19 34.5 7 52.1 28.5 15.8 28.5 15.8-.4 4.2 0 5.3 7 3.5 7 3.5 8.1 13 19.7 18.7 13.7 19 13.7 19 0 4.6 6 8.8 10.6 16.5 10.6 16.5v11.3c0 1.8 2.1 7-2.5 7.6s-.7 11.1-.7 11.1-4.9 6-3.9 8.8-2.1 8.4-2.1 8.4-3.9 5.6-3.5 6.7-4.2 4.9-3.2 7.4-5.3 5.6-4.2 8.5-4.5 4.2-4.5 4.2l-15.2 35.2s32 7 40.3 24.6l40.3-73.9s22.5-55.3 23.2-58.8-4.9-16.2-4.9-16.2l-27.5-50-41.2-58.1c.1 0-32.6-69.6-82.9-16.5z"/><path class="prefix__st3" d="M556.3 149.3s-49.4 17.4-23.4 34.9 28.5 15.8 28.5 15.8-.3 4.2 0 5.3 7 3.5 7 3.5 8.1 13 19.7 18.7 13.7 19 13.7 19 0 4.6 6 8.8 10.6 16.5 10.6 16.5v11.3c0 1.8 2.1 7-2.5 7.6s-.7 11.1-.7 11.1-4.9 6-3.9 8.8-2.1 8.5-2.1 8.5-3.9 5.6-3.5 6.7-4.2 4.9-3.2 7.4-5.3 5.6-4.2 8.5-4.5 4.2-4.5 4.2L578.6 381s26.4 1.4 34.7 19l45.9-68.2s22.5-55.3 23.2-58.8-4.9-16.2-4.9-16.2l-27.5-50-62.6-36.1c.1-.1 19.2-74.6-31.1-21.4z"/><path class="prefix__st2" d="M518.5 134.7s-19 34.5 7 52.1 28.5 15.8 28.5 15.8-.3 4.2 0 5.3 7 3.5 7 3.5 8.1 13 19.7 18.7 13.7 19 13.7 19 0 4.6 6 8.8 10.6 16.5 10.6 16.5v11.3c0 1.8 2.1 7-2.5 7.6s-.7 11.1-.7 11.1-4.9 6-3.9 8.8-2.1 8.4-2.1 8.4-3.9 5.6-3.5 6.7-4.2 4.9-3.2 7.4-5.3 5.6-4.2 8.5-4.5 4.2-4.5 4.2l-15.2 35.2s31.9 7 40.3 24.6l40.3-73.9s22.5-55.3 23.2-58.8-4.9-16.2-4.9-16.2l-27.5-50-41.2-58.1c.1.1-32.6-69.6-82.9-16.5z"/><g class="prefix__st15"><path d="M310.6 152c-.4-4.4-1.3-8.7-2.8-12.8-1.5-4-3.4-7.9-3.9-12.2v-.4c-.1 1.1-.1 2.1 0 3.2.5 4.3 2.5 8.2 3.9 12.2 1.5 4.1 2.4 8.4 2.8 12.8.1 1.6.2 3.3.2 5 .1-2.6 0-5.2-.2-7.8zM345 195.9c-2.1 4.7-8.7 5.5-13.7 4.1-8.7-2.5-15.6-9-18.7-17.4-1.4-4.3-2.1-8.8-2-13.3-.1 5.5.1 10.9 2 16.1 3.1 8.5 10 15 18.7 17.5 5 1.4 11.5.6 13.7-4.1.9-2 .8-4.3.8-6.6 0 1.2-.3 2.5-.8 3.7zM442.2 130.1c-.4 3.2-1.7 6.8-4.8 7.9-1.8.5-3.7.3-5.3-.5-5-2.2-9.5-7.4-14.8-6.2-4.4 1-6.5 5.9-7.6 10.3-.8 2.7-1.2 5.6-1.1 8.5.2-1.9.5-3.8 1.1-5.7 1.1-4.3 3.2-9.2 7.6-10.3 5.3-1.3 9.8 4 14.8 6.2 1.7.8 3.6 1 5.3.5 3-1.1 4.3-4.7 4.8-7.9.3-2 .4-4.1.3-6.2-.1 1.2-.2 2.3-.3 3.4zM414.6 170.9c-3 2.2-7.1-.1-10.4-1.9-3.5-1.9-8-3-11.4-.9-1.1.7-2.1 1.8-3.2 2.5-2.3 1.4-5 2-7.7 1.6-6.4-.6-8.8-4.7-13.6-7.8-3.6-2.3-11-3.3-13.1 1.4-.5 1.4-.6 2.9-.4 4.3.1-.5.2-1 .4-1.5 2.1-4.7 9.6-3.7 13.1-1.4 4.9 3.1 7.2 7.1 13.6 7.8 2.7.4 5.4-.2 7.7-1.6 1.1-.8 2-1.8 3.2-2.5 3.4-2.1 7.8-1 11.4.9 3.3 1.7 7.3 4 10.4 1.9 1.8-1.3 2.2-3.5 1.8-5.7-.2 1.1-.8 2.2-1.8 2.9zM354.6 175.7c-1.4 3.1-5.6 4-7.5 6.8-1.5 2.1-1.3 4.7-1.3 7.4 0-1.6.4-3.2 1.3-4.5 1.9-2.8 6.1-3.7 7.5-6.8.5-1.4.6-2.8.4-4.3-.1.5-.2 1-.4 1.4z"/></g></g></switch></svg>