<svg height="512" viewBox="0 0 60 60" width="512" xmlns="http://www.w3.org/2000/svg"><g id="018---Gender-Equality-Symbol" fill="none"><g id="Icons_copy" transform="translate(1 1)"><path id="Shape" d="m31.72 33.49c-.8099308 1.3943451-1.8132233 2.6669779-2.98 3.78-1.3507485-.4642775-2.614716-1.1503347-3.74-2.03 1.0201328-.7967884 1.9165387-1.7403736 2.66-2.8.1822715-.2697833.4844708-.433941.81-.44h2.37c.3566867-.0029595.6879447.1842984.8693385.491431.1813937.3071326.1854563.6876334.0106615.998569z" fill="#fff"/><path id="Shape" d="m25 14.76c-.4177455.3253598-.8151572.6760172-1.19 1.05-.5414313.5381224-1.0334098 1.1238111-1.47 1.75-.1849916.2718722-.4911814.4361691-.82.44h-2.37c-.3566867.0029595-.6879447-.1842984-.8693385-.491431-.1813937-.3071326-.1854563-.6876334-.0106615-.998569.7458803-1.2895768 1.6569106-2.4762694 2.71-3.53.09-.09.18-.18.27-.26 1.3539471.4685445 2.6210539 1.1578507 3.75 2.04z" fill="#e8edfc"/><path id="Shape" d="m30.83 18h-2.36c-.3255292-.006059-.6277285-.1702167-.81-.44-.7460973-1.0574665-1.6421593-2.0006897-2.66-2.8-4.3557059-3.4013708-10.3857883-3.677125-15.03375331-.6874897-4.64796497 2.9896352-6.89773572 8.5911052-5.60896118 13.9651686s5.83435949 9.3459134 11.33271449 9.9023211c1.8793207.1919142 3.7778352-.033449 5.56-.66 1.1277511 1.0614532 2.3882369 1.9723642 3.75 2.71-1.8624993 1.0037244-3.8984838 1.6450595-6 1.89v7.12h5c.5522847 0 1 .4477153 1 1v2c0 .5522847-.4477153 1-1 1h-5v4c0 .5522847-.4477153 1-1 1h-2c-.5522847 0-1-.4477153-1-1v-4h-5c-.55228475 0-1-.4477153-1-1v-2c0-.5522847.44771525-1 1-1h5v-7.12c-7.91399348-.9590269-14.09355774-7.2973284-14.85159607-15.2330957-.75803832-7.9357674 4.10983346-15.3293392 11.69915267-17.76926956 7.5893191-2.43993032 15.8538346.73164099 19.8624434 7.62236526.1739414.3122703.1696856.6932629-.0111878 1.0015698s-.5113656.4979075-.8688122.4984302z" fill="#fff"/><path id="Shape" d="m58 1v10c0 .5522847-.4477153 1-1 1h-2c-.5522847 0-1-.4477153-1-1v-4.17l-7.65 7.65c4.9799417 6.3163569 4.8493013 15.2590232-.3130231 21.427215-5.1623245 6.1681919-13.9421245 7.8721456-21.0369769 4.082785-1.3617631-.7376358-2.6222489-1.6485468-3.75-2.71-.09-.08-.18-.17-.27-.26-1.0530894-1.0537306-1.9641197-2.2404232-2.71-3.53-.1747948-.3109356-.1707322-.6914364.0106615-.998569.1813938-.3071326.5126518-.4943905.8693385-.491431h2.37c.3288186.0038309.6350084.1681278.82.44.4365902.6261889.9285687 1.2118776 1.47 1.75 4.543626 4.55117 11.7321305 5.0962081 16.9100162 1.2821307 5.1778857-3.8140773 6.7888832-10.8409081 3.7896609-16.5296998-2.9992223-5.6887918-9.7072158-8.329717-15.7796771-6.2124309-1.1167174-1.0730699-2.3750638-1.9882309-3.74-2.72 5.9554293-3.17600036 13.2249603-2.5326096 18.53 1.64l7.65-7.65h-4.17c-.5522847 0-1-.44771525-1-1v-2c0-.55228475.4477153-1 1-1h10c.5522847 0 1 .44771525 1 1z" fill="#e8edfc"/><path id="Shape" d="m57.5.14c-.1507665-.09142365-.3236799-.1398394-.5-.14h-3c.1763201.0001606.3492335.04857635.5.14.3099688.1751092.5011791.50399085.5.86v1.83l-1 1-10.65 10.65c3.8754057 4.9003122 4.7440992 11.5339814 2.261143 17.2669351-2.4829562 5.7329536-7.9157481 9.6374341-14.141143 10.1630649 6.7610403.6225737 13.2428683-2.8427857 16.4803754-8.8108517 3.2375072-5.968066 2.6080702-13.2910858-1.6003754-18.6191483l7.65-7.65v4.17c-.0020148.4516135.3027512.8469856.74.96.0836131.0286292.1716481.042173.26.04h2c.0880369-.0019759.1754403-.0154226.26-.04.4372488-.1130144.7420148-.5083865.74-.96v-10c.0011791-.35600915-.1900312-.6848908-.5-.86z" fill="#cad9fc"/></g><g id="Icons" fill="#fff" transform="translate(18 11)"><path id="Shape" d="m4.072 2.89-.092.09z"/><path id="Shape" d="m4.087 2.876.161-.157c1.35641135.4647992 2.62482744 1.1547878 3.752 2.041l-2.8-2.572c-.09-.016-.313-.041-.354-.047-.685.653-.57.592-.67.557.092.031.107-.013-.089.178z"/><path id="Shape" d="m2.184 2.184c-.033-.006-.067-.008-.1-.013.033.005.067.007.1.013z"/><path id="Shape" d="m0 2c.69781954.00047014 1.39444643.05765842 2.083.171-.68855357-.11334158-1.38518046-.17052986-2.083-.171z"/><path id="Shape" d="m4.087 2.876-.015.014z"/><path id="Shape" d="m7.99.01 3.74 2.72c-1.1122214-1.07842656-2.37135298-1.99415859-3.74-2.72z"/><path id="Shape" d="m3.042 2.368c.063.015.128.025.191.041-.063-.016-.128-.026-.191-.041z"/><path id="Shape" d="m3.233 2.409c.321.083.636.182.947.289-.311-.107-.626-.206-.947-.289z"/><path id="Shape" d="m2.184 2.184c.29.049.574.115.858.184-.284-.068-.568-.135-.858-.184z"/><path id="Shape" d="m5.2 2.188-.2-.188-.15.141c.1.014.25.028.35.047z"/></g><g id="Layer_11" transform="translate(-1)"><path id="Shape" d="m3.663 16.64 1.7 1.048c-1.32246574 2.1437073-2.11788179 4.5703946-2.321 7.081l-1.994-.15c.22833227-2.8290556 1.12453561-5.5635896 2.615-7.979z" fill="#fff"/><g fill="#428dff"><path id="Shape" d="m2.852 21.772c-.55228475 0-1-.4477153-1-1s.44771525-1 1-1 1 .4477153 1 1c0 .2652165-.10535684.5195704-.29289322.7071068s-.44189029.2928932-.70710678.2928932z"/><path id="Shape" d="m59 0h-10c-1.1045695 0-2 .8954305-2 2v2c0 1.1045695.8954305 2 2 2h1.756l-5.329 5.329c-5.4083249-3.84663128-12.4974698-4.39618038-18.434-1.429-3.0532668-1.55434216-6.4950138-2.18011435-9.9-1.8-5.5551833.62020591-10.51216562 3.7723004-13.43 8.54-.15130584.2272735-.19936786.5079623-.13229626.7726284.06707159.264666.24301198.4885882.48429626.6163716.47158951.2485357 1.05469414.1014657 1.352-.341 2.92122036-4.8300857 8.1787442-7.75541312 13.8231349-7.69130034 5.6443907.06411274 10.834111 3.10810694 13.6448651 8.00330034l-2.358-.009c-4.0898923-5.8770784-11.9551102-7.7210269-18.2309481-4.2741257-6.27583793 3.4469012-8.9394404 11.0736318-6.17401821 17.6781537s10.06850611 10.0580367 16.92796631 8.004972c.5905242.5301617 1.2155627 1.0205715 1.871 1.468-1.2790641.5136253-2.6203044.8562484-3.989 1.019-.5030963.059783-.8819931.4863642-.882.993v7.12c0 .5522847.4477153 1 1 1h5v2h-5c-.5522847 0-1 .4477153-1 1v4h-2v-4c0-.5522847-.4477153-1-1-1h-5v-2h5c.5522847 0 1-.4477153 1-1v-7.12c-.0001264-.5073142-.3801105-.9341516-.884-.993-8.53035966-.9936169-14.7467518-8.5566731-14.07-17.118.03046829-.5439752-.38012858-1.0122357-.92342137-1.0531053-.54329279-.0408695-1.01932274.3606938-1.07057863.9031053-.73158979 9.2878205 5.75880192 17.593594 14.948 19.129v5.252h-4c-1.1045695 0-2 .8954305-2 2v2c0 1.1045695.8954305 2 2 2h4v3c0 1.1045695.8954305 2 2 2h2c1.1045695 0 2-.8954305 2-2v-3h4c1.1045695 0 2-.8954305 2-2v-2c0-1.1045695-.8954305-2-2-2h-4v-5.252c1.7397733-.2959149 3.425238-.8514441 5-1.648 7.384903 3.6475048 16.3034603 1.8171024 21.6547045-4.4443088 5.3512441-6.2614112 5.7698086-15.3562362 1.0162955-22.0826912l5.329-5.329v1.756c0 1.1045695.8954305 2 2 2h2c1.1045695 0 2-.8954305 2-2v-10c0-1.1045695-.8954305-2-2-2zm-35.5 14.89c.65738.2627608 1.2893464.5851038 1.888.963-.091.086-.2.162-.283.25-.5860372.581247-1.1160431 1.2163834-1.583 1.897l-2.381.006c.6552029-1.1317232 1.4475201-2.178294 2.359-3.116zm-13.508 3.189c2.831165-3.2277156 7.1752105-4.6902338 11.382-3.832-.7418543.8557834-1.4004961 1.7802929-1.967 2.761-.3542487.6201543-.3509157 1.3821494.0087445 1.999181.3596601.6170316 1.0210591.9954482 1.7352555.992819h2.371c.6557606-.0034479 1.2681713-.3281489 1.639-.869.517889-.7552362 1.1332035-1.4388069 1.83-2.033.691902.6068781 1.3116475 1.2913832 1.847 2.04.3719848.537615.9832444.8594878 1.637.862h2.36c.7144709-.0006019 1.3746404-.381358 1.7329493-.9994872.3583089-.6181293.3606139-1.3802274.0060507-2.0005128-.5672489-.9729839-1.2262488-1.8894894-1.968-2.737 4.7664248-.9787958 9.6516009 1.0211435 12.3632805 5.0613961 2.7116796 4.0402525 2.7116796 9.3189553 0 13.3592078-2.7116796 4.0402526-7.5968557 6.0401919-12.3632805 5.0613961.7445329-.8532427 1.4061818-1.7753992 1.976-2.754.3533792-.6194696.3501546-1.3802432-.0084633-1.9966949-.3586178-.6164517-1.0183617-.9952983-1.7315367-.9943051h-2.367c-.6537556.0025122-1.2650152.324385-1.637.862-.535089.7488291-1.1548607 1.4333631-1.847 2.04-.157-.141-.327-.272-.474-.419-.4985674-.4964562-.9520184-1.036247-1.355-1.613-.3708061-.5415206-.9836994-.8666529-1.64-.87h-2.371c-.7140673-.0027823-1.3754487.3753565-1.7352877.992135-.3598391.6167786-.3635408 1.3786188-.0097123 1.998865.5664543.9801812 1.2247448 1.9043328 1.966 2.76-11.32 2.303-18.893-11.138-11.38-19.672zm18.63 18.073c.6899817-.6517463 1.3109311-1.372892 1.853-2.152l2.379-.013c-.6587259 1.1308226-1.4540292 2.1763374-2.368 3.113-.6487279-.2589704-1.2726191-.5762713-1.864-.948zm30.378-24.152h-2v-4.17c-.0000863-.4043959-.2437275-.76893405-.6173454-.92367798-.373618-.15474393-.8036603-.06922994-1.0896546.21667798l-7.65 7.65c-.3593624.3586756-.3929027.9297215-.078 1.328 3.7075536 4.7039415 4.4764321 11.085056 1.9923543 16.5350447-2.4840778 5.4499886-7.8048065 9.0554904-13.787323 9.342746s-11.6242135-2.7918759-14.6190313-7.9787907l2.368.009c4.0894868 5.8808291 11.9583058 7.7262829 18.2359969 4.2768413s8.9391118-11.081011 6.1678455-17.6861708c-2.7712664-6.6051598-10.0812272-10.0531281-16.9408424-7.9906705-.5887385-.5333948-1.2135534-1.0255619-1.87-1.473 5.2946688-2.11160304 11.3139755-1.23459775 15.786 2.3.3982065.3157681.9699257.2826436 1.329-.077l7.65-7.65c.2873421-.2858042.3737691-.71677759.2188429-1.0912738-.1549262-.37449622-.5205664-.61845292-.9258429-.6177262h-4.17v-2h10z"/><path id="Shape" d="m21 25h12c.5522847 0 1-.4477153 1-1s-.4477153-1-1-1h-12c-.5522847 0-1 .4477153-1 1s.4477153 1 1 1z"/><path id="Shape" d="m21 29h12c.5522847 0 1-.4477153 1-1s-.4477153-1-1-1h-12c-.5522847 0-1 .4477153-1 1s.4477153 1 1 1z"/></g></g></g></svg>