<svg height="512pt" viewBox="-27 0 512 512" width="512pt" xmlns="http://www.w3.org/2000/svg"><g fill="#a7c7d3"><path d="m404.664062 285.445312h-61.199218c-10 0-18.101563 8.105469-18.101563 18.101563v73.226563c0-9.996094-8.105469-18.101563-18.101562-18.101563h-61.203125c-10 0-18.101563 8.101563-18.101563 18.101563v48.277343c0-9.996093-8.105469-18.101562-18.101562-18.101562h-61.203125c-10 0-18.101563 8.105469-18.101563 18.101562v44.941407c0-9.996094-8.105469-18.101563-18.105469-18.101563h-61.199218c-9.996094 0-18.101563 8.101563-18.101563 18.101563v34.363281h389.625v-200.808594c0-9.996094-8.105469-18.101563-18.105469-18.101563zm0 0"/><path d="m351.804688 293.089844c-4.226563 0-7.648438-3.421875-7.648438-7.644532v-277.800781c0-4.222656 3.421875-7.644531 7.648438-7.644531 4.222656 0 7.644531 3.421875 7.644531 7.644531v277.800781c0 4.222657-3.425781 7.644532-7.644531 7.644532zm0 0"/><path d="m130.550781 504.355469h-97.40625v-34.363281c0-9.996094 8.105469-18.101563 18.101563-18.101563h61.203125c9.996093 0 18.101562 8.101563 18.101562 18.101563zm0 0"/></g><path d="m227.957031 504.355469h-97.40625v-79.304688c0-9.996093 8.105469-18.101562 18.101563-18.101562h61.203125c9.996093 0 18.101562 8.105469 18.101562 18.101562zm0 0" fill="#89b4c9"/><path d="m325.363281 504.355469h-97.40625v-127.582031c0-9.996094 8.101563-18.101563 18.101563-18.101563h61.203125c9.996093 0 18.101562 8.101563 18.101562 18.101563zm0 0" fill="#6c96b3"/><path d="m422.769531 504.355469h-97.40625v-200.808594c0-9.996094 8.101563-18.101563 18.101563-18.101563h61.199218c10 0 18.105469 8.105469 18.105469 18.101563zm0 0" fill="#618aaa"/><path d="m449.765625 512h-442.121094c-4.222656 0-7.644531-3.421875-7.644531-7.644531 0-4.222657 3.421875-7.644531 7.644531-7.644531h442.121094c4.222656 0 7.644531 3.421874 7.644531 7.644531 0 4.222656-3.421875 7.644531-7.644531 7.644531zm0 0" fill="#2f5066"/><path d="m351.804688 80.328125h97.972656c3.035156 0 4.453125-3.757813 2.175781-5.761719l-25.449219-22.414062c-1.492187-1.308594-1.492187-3.628906 0-4.941406l25.449219-22.410157c2.277344-2.007812.859375-5.765625-2.175781-5.765625h-97.972656zm0 0" fill="#fdb659"/><path d="m359.605469 109.011719-106.132813 57.644531c-9.46875 5.144531-12.058594 14.183594-15.363281 25.828125l-21.105469 74.644531 27.875 9.574219 23.847656-30.773437 20.074219-60.691407 53.410157-32.453125c14.925781-9.066406 22.023437-26.933594 17.394531-43.773437zm0 0" fill="#83d9ff"/><path d="m359.605469 109.011719-12.246094 6.652343c-2.0625 10.539063-8.429687 20.058594-18.058594 25.910157l-48.667969 29.570312c-3.0625 1.859375-5.363281 4.753907-6.492187 8.15625l-6.949219 21.011719c-7.222656 21.835938-23.628906 39.425781-44.910156 48.148438l-5.277344 18.667968 51.722656-21.195312 20.074219-60.691406 53.410157-32.457032c14.925781-9.066406 22.023437-26.933594 17.394531-43.773437zm0 0" fill="#5fc9ed"/><path d="m268.726562 245.929688 30.5625 36.125c5.066407 6.707031 9.472657 11.421874 8.558594 18.800781l-7.148437 57.785156h-18.652344l-4.875-49.675781c-.296875-3.007813-2.199219-5.613282-4.972656-6.808594l-55.195313-35.027344zm0 0" fill="#38627c"/><path d="m217.003906 267.128906-2.980468 54.769532c-.195313 4.542968.441406 7.613281-1.335938 10.992187l-35.195312 74.058594h19.785156l52.917968-70.304688c3.09375-3.601562 3.453126-8.492187 4.496094-12.992187l14.03125-77.722656zm0 0" fill="#4f7693"/><path d="m264.933594 120.835938 8.679687 16.945312c4.078125 7.960938.929688 17.726562-7.035156 21.804688l-6.707031 3.433593c-7.964844 4.078125-17.726563.929688-21.804688-7.035156l-8.679687-16.945313c-4.078125-7.964843-.929688-17.726562 7.035156-21.804687l6.707031-3.433594c7.960938-4.078125 17.722656-.929687 21.804688 7.035157zm0 0" fill="#fecbaa"/></svg>