<svg id="Capa_1" enable-background="new 0 0 512 512" height="512" viewBox="0 0 512 512" width="512" xmlns="http://www.w3.org/2000/svg"><g><g><path d="m372.261 272.658-122.132-122.132 34.933-34.933-56.93-19.716c-11.318-3.92-23.721-3.254-34.555 1.853l-32.583 15.361c-1.999.943-4.375.529-5.938-1.034l-56.338-56.337c-4.091-4.091-10.725-4.091-14.816 0l-80.834 80.834c-4.091 4.091-4.091 10.725 0 14.816l62.844 62.844c.806.806 1.327 1.852 1.484 2.981l3.884 27.873c2.876 20.639 12.404 39.777 27.139 54.512l123.65 123.65c2.679-2.684 102.788-103.083 150.192-150.572z" fill="#fdb0a0"/><g><path d="m192.38 213.175c-7.417 0-14.891-1.011-22.22-3.086-4.176-1.182-6.602-5.525-5.42-9.7 1.182-4.176 5.526-6.6 9.7-5.42 22.964 6.501 47.701.069 64.556-16.787 3.068-3.068 8.044-3.068 11.112 0 3.069 3.068 3.069 8.044 0 11.112-15.497 15.496-36.37 23.881-57.728 23.881z" fill="#f9a08f"/></g><g><g><path d="m283.868 95.878-72.868 35.654 34.933 34.933-140.565 140.564c-10.382 10.382-10.382 27.214 0 37.595 10.382 10.382 27.214 10.382 37.595 0l-34.252 34.252c-10.382 10.382-10.382 27.214 0 37.595 10.382 10.382 27.214 10.382 37.595 0l17.947-17.947c-10.381 10.382-10.38 27.213.001 37.594 10.382 10.382 27.214 10.382 37.595 0l22.193-22.193c-10.382 10.382-10.382 27.214 0 37.595 10.382 10.382 27.214 10.382 37.595 0l151.943-151.941c14.735-14.735 24.263-33.873 27.139-54.512l3.884-27.873c.157-1.129.678-2.175 1.484-2.981l62.844-62.844c4.091-4.091 4.091-10.725 0-14.816l-80.833-80.833c-4.091-4.091-10.725-4.091-14.816 0l-56.339 56.339c-1.563 1.563-3.939 1.977-5.938 1.034l-32.582-15.361c-10.834-5.108-23.237-5.773-34.555-1.854z" fill="#a34f41"/><path d="m352.666 227.607c0 3.761-1.435 7.512-4.295 10.372-17.359 17.359-45.51 17.359-62.869 0l-29.351-29.359c-4.294-4.296-11.259-4.294-15.551.004-15.201 15.201-35.934 21.498-55.714 18.889l61.046-61.046-34.928-34.939 13.557-6.632c1.205.314 2.389.671 3.573 1.079l56.929 19.717 63.917 72.193c2.46 2.787 3.686 6.254 3.686 9.722z" fill="#873f30"/><path d="m508.932 151.371-62.842 62.842c-.806.806-1.327 1.852-1.484 2.981l-3.885 27.878c-2.881 20.639-12.404 39.769-27.144 54.509l-151.94 151.94c-5.196 5.196-11.996 7.784-18.795 7.784s-13.598-2.588-18.795-7.784c-4.547-4.547-7.103-10.33-7.658-16.259.838.084 1.687.126 2.525.126 6.81 0 13.619-2.598 18.805-7.784l151.94-151.94c14.74-14.74 24.263-33.881 27.144-54.519l3.885-27.867c.157-1.129.678-2.175 1.484-2.981l70.25-70.25 16.51 16.51c4.091 4.09 4.091 10.723 0 14.814z" fill="#873f30"/><g><path d="m247.566 239.614-107.572 107.561c-4.693 3.489-10.256 5.228-15.83 5.228-3.321 0-6.632-.618-9.764-1.854l122.051-122.051c3.07-3.07 8.046-3.07 11.115 0 3.07 3.07 3.07 8.046 0 11.116z" fill="#873f30"/></g><g><path d="m283.343 279.016-140.028 140.038-.01.01c-4.683 3.457-10.225 5.186-15.788 5.186-3.321 0-6.642-.618-9.774-1.854l154.496-154.486c3.059-3.07 8.035-3.07 11.105 0 3.069 3.07 3.069 8.046-.001 11.106z" fill="#873f30"/></g><g><path d="m318.356 319.203-119.494 119.494c-4.673 3.478-10.246 5.207-15.809 5.207-3.321 0-6.642-.618-9.775-1.854l133.962-133.952c3.07-3.07 8.046-3.07 11.116 0 3.059 3.059 3.059 8.036 0 11.105z" fill="#873f30"/></g></g><g><path d="m416 304.656-6.647-6.647c-9.392-9.392-24.621-9.392-34.013 0l-3.582 3.582c-9.392 9.392-9.392 24.621 0 34.013l6.61 6.61c5.866 5.866 15.371 5.874 21.249.02 5.451-5.428 10.903-10.854 16.356-16.28 5.899-5.87 5.912-15.413.027-21.298z" fill="#fdb0a0"/><g><path d="m415.975 325.95c-5.458 5.427-10.906 10.853-16.354 16.28-5.888 5.856-15.39 5.846-21.257-.021l-.042-.042-6.569-6.558c-2.053-2.053-3.656-4.39-4.809-6.883 5.28 1.854 11.398.681 15.631-3.531 5.448-5.437 10.895-10.864 16.354-16.28 4.264-4.243 5.448-10.403 3.573-15.704 2.483 1.152 4.809 2.755 6.852 4.798l6.642 6.642c5.888 5.888 5.877 15.432-.021 21.299z" fill="#f9a08f"/></g><path d="m378.32 342.166-6.562-6.562c-9.392-9.392-24.621-9.392-34.013 0l-3.582 3.582c-9.392 9.392-9.392 24.621 0 34.013l6.53 6.53c5.868 5.868 15.376 5.872 21.255.015 5.448-5.427 10.9-10.851 16.35-16.276 5.898-5.87 5.907-15.417.022-21.302z" fill="#fdb0a0"/><path d="m378.302 363.466c-5.458 5.427-10.906 10.854-16.354 16.28-5.877 5.856-15.39 5.856-21.257-.021l-.01-.01-6.516-6.516c-2.074-2.064-3.688-4.421-4.84-6.935 5.27 1.823 11.356.639 15.578-3.562 5.448-5.427 10.906-10.853 16.354-16.28 4.243-4.222 5.437-10.351 3.583-15.652 2.504 1.163 4.851 2.776 6.914 4.84l6.569 6.558.042.042c5.835 5.887 5.825 15.399-.063 21.256z" fill="#f9a08f"/><path d="m340.678 379.715-6.516-6.516c-9.392-9.392-24.621-9.392-34.013 0l-3.582 3.582c-9.392 9.392-9.392 24.621 0 34.013l6.526 6.526c5.879 5.879 15.415 5.878 21.288-.007 5.432-5.443 10.863-10.888 16.297-16.329 5.871-5.877 5.874-15.395 0-21.269z" fill="#fdb0a0"/><path d="m340.681 400.982c-5.437 5.448-10.864 10.885-16.301 16.333-5.835 5.856-15.296 5.888-21.183.105-.031-.031-.052-.052-.084-.084l-6.548-6.537c-2.074-2.074-3.688-4.432-4.84-6.946 5.291 1.833 11.398.639 15.61-3.583 5.437-5.448 10.864-10.885 16.301-16.333 4.212-4.212 5.406-10.309 3.572-15.578 2.514 1.152 4.882 2.766 6.956 4.84l6.516 6.516.01.01c5.858 5.877 5.858 15.379-.009 21.257z" fill="#f9a08f"/><path d="m303.109 417.337-6.542-6.542c-9.392-9.392-24.621-9.392-34.013 0l-3.582 3.582c-9.392 9.392-9.392 24.621 0 34.013l6.552 6.552c5.878 5.878 15.407 5.872 21.28-.011 5.435-5.444 10.871-10.886 16.308-16.328 5.871-5.874 5.87-15.393-.003-21.266z" fill="#fdb0a0"/><path d="m303.113 438.603c-5.437 5.448-10.874 10.885-16.312 16.333-5.867 5.877-15.4 5.888-21.278.01l-6.548-6.558c-2.064-2.064-3.677-4.421-4.84-6.925 5.291 1.844 11.398.65 15.62-3.573 5.437-5.448 10.875-10.885 16.312-16.333 4.211-4.222 5.406-10.319 3.562-15.599 2.514 1.153 4.872 2.766 6.935 4.84l6.548 6.537.084.084c5.783 5.878 5.752 15.338-.083 21.184z" fill="#f9a08f"/></g></g></g><g><path d="m348.984 187.787-63.921-72.193-56.929-19.716c-11.318-3.92-23.721-3.254-34.555 1.853l-35.915 16.933-37.452 37.452 26.409 26.409c25.951 25.951 68.025 25.951 93.976 0l4.072-4.072c2.046-2.046 5.362-2.046 7.408 0l33.428 33.428c17.361 17.361 45.51 17.361 62.871 0 5.481-5.483 5.748-14.288.608-20.094z" fill="#fdb0a0"/><path d="m352.666 197.508c0 3.761-1.435 7.522-4.295 10.372-4.945 4.934-10.759 8.475-16.951 10.602.01-.23.021-.471.021-.702 0-3.468-1.215-6.936-3.677-9.722l-74.812-83.078-56.929-19.717c-4.274-1.477-8.716-2.305-13.158-2.483l10.717-5.05c10.833-5.102 23.237-5.773 34.551-1.854l56.929 19.717 63.917 72.193c2.461 2.787 3.687 6.255 3.687 9.722z" fill="#f9a08f"/><g><path d="m159.418 113.551-36.793 36.793c-1.54 1.53-3.552 2.294-5.552 2.294-2.012 0-4.023-.765-5.563-2.294-3.07-3.07-3.07-8.046 0-11.115l35.358-35.358 8.193 8.193c1.161 1.162 2.775 1.686 4.357 1.487z" fill="#f9a08f"/></g></g><g><path d="m250.657 173.455c-1.959-.964-4.379-.618-5.993.995l-4.065 4.075c-1.194 1.194-2.42 2.326-3.677 3.415l-16.218-16.218c-3.07-3.07-3.07-8.046 0-11.115 3.07-3.07 8.046-3.07 11.115 0z" fill="#f9a08f"/></g></g></svg>