<svg version="1.1" id="prefix__b0225cde-a2d2-4693-8ce5-502a1e8a6144" xmlns="http://www.w3.org/2000/svg" x="0" y="0" viewBox="0 0 1077.4 752.9" xml:space="preserve"><style>.prefix__st2{fill:none;stroke:#3f3d56;stroke-width:2;stroke-miterlimit:10}</style><switch><g><path d="M139.6 0v676h581V0h-581zm31 620c-5.5 0-10-4.5-10-10s4.5-10 10-10 10 4.5 10 10-4.5 10-10 10zm0-49c-5.5 0-10-4.5-10-10s4.5-10 10-10 10 4.5 10 10-4.5 10-10 10zm0-48c-5.5 0-10-4.5-10-10s4.5-10 10-10 10 4.5 10 10-4.5 10-10 10zm0-49c-5.5 0-10-4.5-10-10s4.5-10 10-10 10 4.5 10 10-4.5 10-10 10zm0-49c-5.5 0-10-4.5-10-10s4.5-10 10-10 10 4.5 10 10-4.5 10-10 10zm0-48c-5.5 0-10-4.5-10-10s4.5-10 10-10 10 4.5 10 10-4.5 10-10 10zm0-49c-5.5 0-10-4.5-10-10s4.5-10 10-10 10 4.5 10 10-4.5 10-10 10zm0-49c-5.5 0-10-4.5-10-10s4.5-10 10-10 10 4.5 10 10-4.5 10-10 10zm0-48c-5.5 0-10-4.5-10-10s4.5-10 10-10 10 4.5 10 10-4.5 10-10 10zm0-49c-5.5 0-10-4.5-10-10s4.5-10 10-10 10 4.5 10 10-4.5 10-10 10zm0-49c-5.5 0-10-4.5-10-10s4.5-10 10-10 10 4.5 10 10-4.5 10-10 10zm0-47c-5.5 0-10-4.5-10-10s4.5-10 10-10 10 4.5 10 10-4.5 10-10 10z" fill="#f2f2f2"/><path opacity=".3" fill="#3f3d56" d="M720.6 51.3v-2H208.4V0h-2v49.3h-66.8v2h66.8V98h-66.8v2h66.8v46.7h-66.8v2h66.8v46.6h-66.8v2h66.8V244h-66.8v2h66.8v46.6h-66.8v2h66.8v46.7h-66.8v2h66.8V390h-66.8v2h66.8v46.6h-66.8v2h66.8v46.7h-66.8v2h66.8V536h-66.8v2h66.8v46.6h-66.8v2h66.8v46.7h-66.8v2h66.8V676h2v-40.7h512.2v-2H208.4v-46.7h512.2v-2H208.4V538h512.2v-2H208.4v-46.7h512.2v-2H208.4v-46.7h512.2v-2H208.4V392h512.2v-2H208.4v-46.7h512.2v-2H208.4v-46.7h512.2v-2H208.4V246h512.2v-2H208.4v-46.7h512.2v-2H208.4v-46.6h512.2v-2H208.4V100h512.2v-2H208.4V51.3z"/><path class="prefix__st2" d="M269.4 173.2c-6 4.7-12.5 8.7-19.4 12.1-4.4 2.2-9.3 4.1-14.2 3.2s-9.2-5.9-7.7-10.6c1-2.8 3.5-4.8 6.5-5.3 2.9-.4 5.9 0 8.6 1.2 4.9 2.1 9 5.7 11.6 10.3 1.4 2.4 2.4 5.1 4.7 6.6 1.8 1 3.8 1.6 5.9 1.7 4.9.6 9.9 1.2 14.7.1s9.4-4.5 10.6-9.3M306.5 150.4c.4 14.7.2 29.4-.6 44.1l10.4-2c3.8-.7 8.2-1.8 9.9-5.3 1.6-3.3.1-7.4-2.6-9.8s-6.3-3.6-9.8-4.7l-5.7-1.8M362.6 166.6c-3.8-.5-7.7-1-11.5-.4s-7.5 2.7-9.3 6.2c-3.2 6.3 1.7 14.1 8 17.5 5.2 2.8 11.2 3.7 17 2.6"/><path d="M279 116.3c-9.6 9-19.1 9-28.7 0-7.8-7.5-12.2-18-12.1-28.8V0h53v87.4c0 10.9-4.4 21.3-12.2 28.9z" fill="#6c63ff"/></g></switch></svg>