<svg version="1.1" id="prefix__ab52c5b6-5573-49f0-a2fe-42cb4f9f7e33" xmlns="http://www.w3.org/2000/svg" x="0" y="0" viewBox="0 0 642 598" xml:space="preserve"><style>.prefix__st0{fill:#e6e6e6}.prefix__st1{fill:#2f2e41}.prefix__st2{fill:#6c63ff}.prefix__st3{fill:#ccc}.prefix__st4{fill:#3f3d56}</style><switch><g><path class="prefix__st0" d="M328.6 591.7c-3.1 0-6.3 0-9.4-.1l.1-2.2c4.4.1 9 .2 13.4.1v2.2c-1.3-.1-2.7 0-4.1 0zm17.7-.6l-.1-2.2c4.4-.3 9-.6 13.4-1.1l.2 2.2c-4.4.5-9 .9-13.5 1.1zm-40.6-.3c-4.5-.3-9-.8-13.5-1.3l.3-2.2c4.4.5 8.9 1 13.4 1.3l-.2 2.2zm67.6-2.5l-.3-2.2c4.4-.7 8.9-1.4 13.2-2.3l.4 2.2c-4.4.9-8.9 1.6-13.3 2.3zm-94.4-.8c-4.4-.8-8.9-1.6-13.3-2.6l.5-2.2c4.4.9 8.8 1.8 13.2 2.5l-.4 2.3zm120.9-4.5l-.5-2.2c4.3-1.1 8.7-2.3 13-3.5l.6 2.2c-4.3 1.3-8.7 2.5-13.1 3.5zm-147.4-1.3c-4.3-1.2-8.7-2.4-13-3.8l.7-2.1c4.2 1.3 8.6 2.6 12.9 3.8l-.6 2.1zm173.4-6.4l-.7-2.1c4.2-1.5 8.4-3 12.6-4.7l.8 2.1c-4.2 1.7-8.5 3.3-12.7 4.7zm-199.3-1.7c-4.2-1.6-8.5-3.2-12.6-5l.9-2.1c4.1 1.7 8.3 3.4 12.5 4.9l-.8 2.2zm224.4-8.3l-.9-2c4-1.8 8.1-3.8 12.1-5.8l1 2c-4 2-8.1 3.9-12.2 5.8zM201.5 563c-4.1-1.9-8.1-4-12.1-6.1l1.1-2c3.9 2.1 8 4.2 12 6.1l-1 2zM475 553l-1.1-2c3.9-2.2 7.8-4.5 11.5-6.9l1.2 1.9c-3.8 2.4-7.7 4.7-11.6 7zm-297.4-2.7c-3.9-2.3-7.7-4.7-11.5-7.2l1.2-1.9c3.7 2.5 7.6 4.9 11.4 7.1l-1.1 2zm320.2-11.8l-1.3-1.8c3.7-2.6 7.3-5.2 10.8-7.9l1.4 1.8c-3.5 2.7-7.2 5.3-10.9 7.9zM155 535.3c-3.6-2.6-7.3-5.4-10.8-8.2l1.4-1.8c3.5 2.8 7.1 5.5 10.7 8.1l-1.3 1.9zM519.3 522l-1.4-1.7c3.4-2.9 6.8-5.9 10.1-8.9l1.5 1.7c-3.4 3-6.8 6-10.2 8.9zm-385.5-3.6c-3.4-3-6.7-6-10-9.2l1.6-1.6c3.2 3.1 6.6 6.1 9.9 9.1l-1.5 1.7zm405.4-14.8l-1.6-1.6c3.1-3.2 6.2-6.5 9.2-9.8l1.7 1.5c-3 3.4-6.2 6.7-9.3 9.9zm-425-3.9c-3.1-3.3-6.2-6.6-9.1-10l1.7-1.5c2.9 3.4 6 6.7 9 9.9l-1.6 1.6zm443.1-16.2l-1.7-1.4c2.8-3.5 5.6-7 8.3-10.6l1.8 1.3c-2.7 3.6-5.5 7.2-8.4 10.7zm-460.8-4.3c-2.8-3.5-5.5-7.2-8.2-10.8l1.8-1.3c2.6 3.6 5.3 7.2 8.1 10.7l-1.7 1.4zm477-17.4l-1.9-1.3c2.5-3.7 5-7.5 7.3-11.3l1.9 1.2c-2.3 3.9-4.7 7.7-7.3 11.4zm-492.8-4.5c-2.5-3.8-4.9-7.6-7.1-11.5l1.9-1.1c2.3 3.8 4.6 7.7 7.1 11.4l-1.9 1.2zm507-18.6l-2-1.1c2.2-3.9 4.3-7.9 6.2-11.9l2 1c-1.9 4-4 8.1-6.2 12zM67 434c-2.1-4-4.1-8-6-12.1l2-1c1.9 4 3.9 8.1 6 12l-2 1.1zm532.7-19.6l-2.1-.9c1.8-4.1 3.5-8.3 5.1-12.5l2.1.8c-1.5 4.2-3.3 8.5-5.1 12.6zm-544.3-4.9c-1.7-4.1-3.4-8.4-4.9-12.6l2.1-.8c1.5 4.2 3.2 8.4 4.9 12.5l-2.1.9zM609.5 389l-2.1-.7c1.4-4.2 2.7-8.6 3.9-12.9l2.2.6c-1.3 4.4-2.6 8.8-4 13zm-563.3-4.9c-1.3-4.3-2.6-8.7-3.7-13l2.2-.6c1.1 4.3 2.4 8.7 3.7 12.9l-2.2.7zM616.8 363l-2.2-.5c1-4.3 1.9-8.8 2.7-13.2l2.2.4c-.8 4.4-1.7 8.9-2.7 13.3zm-577.5-5.1c-.9-4.4-1.8-8.9-2.5-13.3l2.2-.4c.7 4.4 1.6 8.8 2.5 13.2l-2.2.5zm582.4-21.6l-2.2-.3c.6-4.4 1.1-8.9 1.5-13.4l2.2.2c-.4 4.6-.9 9.1-1.5 13.5zm-586.8-5.1c-.5-4.5-1-9-1.3-13.5l2.2-.2c.3 4.5.8 9 1.3 13.4l-2.2.3zm589.2-21.8l-2.2-.1c.2-4.5.3-9 .3-13.4h2.2c.1 4.4-.1 9-.3 13.5zm-591.2-5.2c-.1-2.8-.1-5.6-.1-8.4v-5.2H35v5.1c0 2.8 0 5.6.1 8.3l-2.2.2zm589.3-11.5c0-4.5-.2-9-.4-13.4l2.2-.1c.2 4.5.4 9 .4 13.5h-2.2zM35.6 277.3l-2.2-.1c.3-4.5.7-9 1.2-13.5l2.2.2c-.5 4.4-.9 8.9-1.2 13.4zm585.1-11.4c-.4-4.4-1-8.9-1.7-13.3l2.2-.3c.7 4.4 1.2 9 1.7 13.4l-2.2.2zM38.5 250.5l-2.2-.3c.7-4.5 1.5-8.9 2.4-13.3l2.2.4c-.9 4.4-1.7 8.8-2.4 13.2zm578.3-11.2c-.9-4.4-1.8-8.8-2.9-13.1l2.2-.5c1.1 4.4 2 8.8 2.9 13.2l-2.2.4zm-573-15.1l-2.2-.5c1.1-4.4 2.3-8.8 3.6-13.1l2.2.6c-1.3 4.3-2.5 8.7-3.6 13zm566.6-11c-1.3-4.3-2.6-8.6-4.1-12.8l2.1-.7c1.5 4.2 2.8 8.6 4.1 12.9l-2.1.6zM51.6 198.4l-2.1-.7c1.5-4.3 3.1-8.5 4.8-12.7l2.1.8c-1.7 4.2-3.3 8.4-4.8 12.6zm550.1-10.7c-1.6-4.1-3.4-8.3-5.2-12.4l2.1-.9c1.8 4.1 3.6 8.3 5.3 12.4l-2.2.9zm-540-14.2l-2-.9c1.9-4.1 3.9-8.2 5.9-12.2l2 1c-2.1 3.9-4 8-5.9 12.1zm529-10.2c-2-4-4.1-8-6.3-11.8l2-1.1c2.2 3.9 4.4 7.9 6.4 11.9l-2.1 1zM74 149.5l-1.9-1.1c2.2-3.9 4.6-7.8 7-11.6L81 138c-2.4 3.8-4.7 7.7-7 11.5zm503.4-9.6c-2.4-3.8-4.9-7.6-7.4-11.2l1.8-1.3c2.6 3.7 5.1 7.5 7.5 11.3l-1.9 1.2zm-488.9-13l-1.8-1.3c2.6-3.7 5.3-7.3 8.1-10.9l1.8 1.4c-2.8 3.5-5.5 7.1-8.1 10.8zm473.6-9c-2.7-3.6-5.5-7.1-8.4-10.5l1.7-1.4c2.9 3.4 5.7 7 8.5 10.6l-1.8 1.3zM105 105.6l-1.7-1.5c2.9-3.4 5.9-6.8 9-10.1l1.6 1.5c-3 3.3-6 6.7-8.9 10.1zm439.9-8.3c-3-3.3-6.2-6.5-9.3-9.7l1.6-1.6c3.2 3.2 6.3 6.4 9.4 9.8l-1.7 1.5zM123.3 86l-1.6-1.6c3.2-3.1 6.5-6.3 9.9-9.2l1.5 1.7c-3.3 2.8-6.6 5.9-9.8 9.1zm402.5-7.7c-3.3-3-6.7-6-10.2-8.8l1.4-1.7c3.5 2.9 6.9 5.8 10.2 8.9l-1.4 1.6zM143.4 68.1l-1.4-1.7c3.5-2.8 7.1-5.6 10.7-8.3l1.3 1.8c-3.6 2.6-7.2 5.3-10.6 8.2zm361.7-6.9c-3.6-2.7-7.2-5.3-10.9-7.8l1.3-1.9c3.7 2.5 7.4 5.2 11 7.9l-1.4 1.8zM165 52.1l-1.3-1.9c3.7-2.5 7.6-5 11.4-7.3l1.2 1.9c-3.8 2.3-7.6 4.8-11.3 7.3zM482.9 46c-3.8-2.4-7.7-4.6-11.6-6.8l1.1-2c3.9 2.2 7.9 4.5 11.7 6.9l-1.2 1.9zm-295-7.9l-1.1-2c3.9-2.2 8-4.2 12-6.2l1 2c-4 2-8 4.1-11.9 6.2zm271.5-5.2c-4-2-8.1-3.9-12.2-5.7l.9-2.1c4.1 1.8 8.2 3.8 12.3 5.8l-1 2zM212 26.3l-.9-2.1c4.1-1.8 8.3-3.5 12.5-5.1l.8 2.1c-4.2 1.7-8.3 3.4-12.4 5.1zM434.8 22c-4.2-1.6-8.4-3.2-12.7-4.6l.7-2.1c4.3 1.4 8.6 3 12.8 4.6l-.8 2.1zm-197.7-5.2l-.7-2.1c4.3-1.4 8.6-2.7 13-3.9l.6 2.2c-4.4 1.1-8.7 2.4-12.9 3.8zm172.1-3.3c-4.3-1.2-8.7-2.4-13-3.4l.5-2.2c4.4 1 8.8 2.2 13.1 3.4l-.6 2.2zM263 9.6l-.5-2.2c4.4-1 8.8-1.9 13.3-2.7l.4 2.2c-4.4.8-8.9 1.7-13.2 2.7zm120.1-2.3c-4.4-.8-8.8-1.6-13.3-2.2l.3-2.2c4.5.6 9 1.4 13.4 2.2l-.4 2.2zm-93.7-2.5l-.3-2.2c4.5-.6 9-1.1 13.5-1.5l.2 2.2c-4.5.5-9 1-13.4 1.5zm67.1-1.2c-4.4-.4-8.9-.7-13.4-1l.1-2.2c4.5.2 9 .5 13.5 1l-.2 2.2zm-40.3-1.1l-.1-2.2c4.1-.2 8.3-.3 12.5-.3h1v2.2h-1c-4.1.1-8.3.1-12.4.3z"/><path class="prefix__st1" d="M329.3 590.1v-123c0-3.6 2.9-6.5 6.5-6.5h14.8c3.6 0 6.5 2.9 6.5 6.5v123c0 3.6-2.9 6.5-6.5 6.5h-14.8c-3.6 0-6.5-2.9-6.5-6.5zM300.1 590.1v-123c0-3.6 2.9-6.5 6.5-6.5h14.8c3.6 0 6.5 2.9 6.5 6.5v123c0 3.6-2.9 6.5-6.5 6.5h-14.8c-3.6 0-6.5-2.9-6.5-6.5z"/><path class="prefix__st1" d="M298.7 426.5h59.8c3.3 0 6 2.7 6 6V500c0 3.3-2.7 6-6 6h-59.8c-3.3 0-6-2.7-6-6v-67.5c0-3.3 2.7-6 6-6z"/><path class="prefix__st0" d="M228.1 233.2s-30.2 14-55.7 23.3c-15.8-35.8-38.7-34.4-38.7-34.4l-13.8 9.5 2.5 14.3-.7 23.4-3.6 12.2 5.2.9 2.9.5.4-.4c-.7 2.9-1 5.9-.9 8.9L256.5 271c.2.1-4.3-21-28.4-37.8z"/><path class="prefix__st2" d="M198.3 429l-8.8-11.9c-2-2.7-1.4-6.4 1.3-8.4l98.9-73.1c2.7-2 6.4-1.4 8.4 1.3l8.8 11.9c2 2.7 1.4 6.4-1.3 8.4l-98.9 73.1c-2.7 1.9-6.4 1.3-8.4-1.3zM345 339.7l13-6.9c2.9-1.6 6.6-.4 8.1 2.5L423.9 444c1.6 2.9.4 6.6-2.5 8.1l-13 6.9c-2.9 1.6-6.6.4-8.1-2.5l-57.7-108.7c-1.6-2.9-.5-6.5 2.4-8.1z"/><path class="prefix__st3" d="M394.6 381.1l-21.3 14.1c-3.3 1.7-7.2.8-8.7-2.2l-23.5-44.3c-1.6-2.9-.2-6.7 3.1-8.4l14.5-7.7c3.3-1.7 7.2-.8 8.7 2.2l30.3 37.9c1.6 2.9.2 6.6-3.1 8.4zM249.5 368.1l13.8 18.4c2.3 2.4 6.1 2.5 8.5.3l36.6-34.3c2.4-2.3 2.5-6.1.3-8.5l-10.1-10.8c-2.3-2.4-6.1-2.5-8.5-.3l-40.3 26.7c-2.4 2.3-2.5 6.1-.3 8.5z"/><path class="prefix__st3" d="M295.1 331.1h67.1c3.3 0 6 2.7 6 6v142.5c0 3.3-2.7 6-6 6h-67.1c-3.3 0-6-2.7-6-6V337.1c0-3.4 2.7-6 6-6z"/><circle class="prefix__st2" cx="328.2" cy="268.2" r="53.5"/><path class="prefix__st3" d="M126.2 281.2l6.3-2c.7-1.3-.6-.5 0-1.7 16.1-34.3 1.2-55.3 1.2-55.3l-11.5 7.9c0-.1-.1-.1-.1-.2 0 0-2-4.5-5.2-1.1 0 0 10 24.3-1.1 54.4l12.9 5.9 5-5.9.1-.6-8.9-.8 1.3-.6z"/><path class="prefix__st4" d="M307.3 408.5c-51-11.3-98.5 12.1-98.5 12.1l-.1-.1-18.9-16.9-74-120.6 18 .1c50.1-29.9 120.6-25.9 120.6-25.9 30.4 34.5 52.9 151.3 52.9 151.3z"/><path d="M208.6 420.5l-18.9-16.9L115.8 283l18 .1s71.9 94.9 74.8 137.4z" opacity=".1"/><ellipse transform="rotate(-17.05 211.513 308.661)" class="prefix__st2" cx="211.5" cy="308.6" rx="29.3" ry="18.6"/><path class="prefix__st3" d="M59 224.5c-4.1 15.1-18 24.4-18 24.4s-7.3-15.1-3.3-30.1 18-24.4 18-24.4 7.4 15 3.3 30.1z"/><path class="prefix__st3" d="M22 224.5c4.1 15.1 18 24.4 18 24.4s7.3-15.1 3.3-30.1-18-24.4-18-24.4-7.4 15-3.3 30.1z"/><path class="prefix__st4" d="M27.9 221.3c11.2 10.9 12.5 27.6 12.5 27.6s-16.8-.9-27.9-11.8S0 209.5 0 209.5s16.8.9 27.9 11.8zM53 221.3c-11.2 10.9-12.5 27.6-12.5 27.6s16.8-.9 27.9-11.8S81 209.5 81 209.5s-16.8.9-28 11.8z"/><path class="prefix__st3" d="M620 394.5c-4.1 15.1-18 24.4-18 24.4s-7.3-15.1-3.3-30.1 18-24.4 18-24.4 7.4 15 3.3 30.1z"/><path class="prefix__st3" d="M583 394.5c4.1 15.1 18 24.4 18 24.4s7.3-15.1 3.3-30.1c-4.1-15.1-18-24.4-18-24.4s-7.4 15-3.3 30.1z"/><path class="prefix__st4" d="M588.9 391.3c11.2 10.9 12.5 27.6 12.5 27.6s-16.8-.9-27.9-11.8c-11.2-10.9-12.5-27.6-12.5-27.6s16.8.9 27.9 11.8zM614 391.3c-11.2 10.9-12.5 27.6-12.5 27.6s16.8-.9 27.9-11.8c11.2-10.9 12.5-27.6 12.5-27.6s-16.7.9-27.9 11.8zM214 596h232v2H214z"/></g></switch></svg>