<svg enable-background="new 0 0 36 36" height="512" viewBox="0 0 36 36" width="512" xmlns="http://www.w3.org/2000/svg"><g id="BG"><g><path d="m34.904 20.355c-3.782-5.791-3.38-11.727-5.203-14.518s-7.256-7.603-20.093.782-9.572 17.5-7.566 20.569c9.388 14.372 39.561 3.423 32.862-6.833z" fill="#efefef"/></g></g><g id="effect"><g><g><path d="m8.328 2.26h1v2h-1z" fill="#a4afc1" transform="matrix(.707 -.707 .707 .707 .281 7.197)"/></g><g><path d="m7.652 6.826h2v1h-2z" fill="#a4afc1" transform="matrix(.707 -.707 .707 .707 -2.646 8.263)"/></g><g><path d="m11.717 2.76h2v1h-2z" fill="#a4afc1" transform="matrix(.707 -.707 .707 .707 1.42 9.948)"/></g></g><g><path d="m28.114 20.156c-.827 0-1.5-.673-1.5-1.5s.673-1.5 1.5-1.5 1.5.673 1.5 1.5-.673 1.5-1.5 1.5zm0-2c-.276 0-.5.224-.5.5s.224.5.5.5.5-.224.5-.5-.224-.5-.5-.5z" fill="#a4afc1"/></g></g><g id="color"><g><path d="m23 27.115-3.863 2.135.738-4.523-3.125-3.202 4.319-.66 1.931-4.115 1.931 4.115 4.319.66-3.125 3.202.738 4.523z" fill="#f3f3f1"/></g><g><path d="m13 17.115-3.863 2.135.738-4.523-3.125-3.202 4.319-.66 1.931-4.115 1.931 4.115 4.319.66-3.125 3.202.738 4.523z" fill="#2fdf84"/></g></g><g id="shadow"><g><g><path d="m21.61 27.883.515-3.156-3.125-3.202 4.319-.66.806-1.718-1.125-2.397-1.931 4.115-4.319.66 3.125 3.202-.738 4.523z" fill="#d5dbe1"/></g><g><path d="m25.25 27.115-1.125.622 2.738 1.513-.223-1.367z" fill="#d5dbe1"/></g></g><g><g><path d="m11.61 17.883.515-3.156-3.125-3.202 4.319-.66.806-1.718-1.125-2.397-1.931 4.115-4.319.66 3.125 3.202-.738 4.523z" fill="#00b871"/></g><g><path d="m15.25 17.115-1.125.622 2.738 1.513-.223-1.367z" fill="#00b871"/></g></g></g><g id="_x31_.5"><g><g><path d="m26.863 30c-.125 0-.25-.031-.363-.094l-3.5-1.934-3.5 1.935c-.251.14-.56.122-.795-.043-.235-.166-.354-.451-.308-.734l.677-4.149-2.86-2.932c-.196-.201-.264-.496-.175-.762.089-.267.32-.46.598-.503l3.923-.6 1.761-3.752c.247-.526 1.11-.526 1.357 0l1.761 3.752 3.923.6c.278.042.509.236.598.503s.021.561-.175.762l-2.86 2.932.677 4.149c.046.283-.073.568-.308.734-.128.09-.279.136-.431.136zm-3.863-3.635c.125 0 .25.031.363.094l2.511 1.388-.489-2.998c-.038-.235.037-.474.204-.645l2.105-2.158-2.876-.439c-.247-.038-.459-.196-.565-.422l-1.253-2.67-1.252 2.668c-.106.226-.318.385-.565.422l-2.876.439 2.105 2.158c.167.17.242.41.204.645l-.489 2.998 2.511-1.388c.112-.061.237-.092.362-.092z"/></g></g><g><g><path d="m16.863 20c-.125 0-.25-.031-.363-.094l-3.5-1.934-3.5 1.935c-.251.14-.56.123-.795-.043s-.354-.451-.308-.734l.677-4.149-2.86-2.932c-.196-.201-.264-.496-.175-.762.089-.267.32-.46.598-.503l3.923-.6 1.761-3.752c.247-.526 1.11-.526 1.357 0l1.761 3.752 3.923.6c.278.042.509.236.598.503s.021.561-.175.762l-2.86 2.932.677 4.149c.046.283-.073.568-.308.734-.128.09-.279.136-.431.136zm-3.863-3.635c.125 0 .25.031.363.094l2.511 1.388-.489-2.998c-.038-.235.037-.474.204-.645l2.105-2.158-2.876-.439c-.247-.038-.459-.196-.565-.422l-1.253-2.67-1.252 2.668c-.106.226-.318.385-.565.422l-2.876.439 2.105 2.158c.167.17.242.41.204.645l-.489 2.998 2.511-1.388c.112-.061.237-.092.362-.092z"/></g></g></g></svg>