<svg version="1.1" id="prefix__b0225cde-a2d2-4693-8ce5-502a1e8a6144" xmlns="http://www.w3.org/2000/svg" x="0" y="0" viewBox="0 0 1077.4 752.9" xml:space="preserve"><style>.prefix__st2{fill:none;stroke:#3f3d56;stroke-width:2;stroke-miterlimit:10}.prefix__st3{fill:#6c63ff}.prefix__st4{fill:#2f2e41}.prefix__st6{fill:#ccc}.prefix__st7{fill:#3f3d56}</style><switch><g><path d="M139.6 0v676h581V0h-581zm31 620c-5.5 0-10-4.5-10-10s4.5-10 10-10 10 4.5 10 10-4.5 10-10 10zm0-49c-5.5 0-10-4.5-10-10s4.5-10 10-10 10 4.5 10 10-4.5 10-10 10zm0-48c-5.5 0-10-4.5-10-10s4.5-10 10-10 10 4.5 10 10-4.5 10-10 10zm0-49c-5.5 0-10-4.5-10-10s4.5-10 10-10 10 4.5 10 10-4.5 10-10 10zm0-49c-5.5 0-10-4.5-10-10s4.5-10 10-10 10 4.5 10 10-4.5 10-10 10zm0-48c-5.5 0-10-4.5-10-10s4.5-10 10-10 10 4.5 10 10-4.5 10-10 10zm0-49c-5.5 0-10-4.5-10-10s4.5-10 10-10 10 4.5 10 10-4.5 10-10 10zm0-49c-5.5 0-10-4.5-10-10s4.5-10 10-10 10 4.5 10 10-4.5 10-10 10zm0-48c-5.5 0-10-4.5-10-10s4.5-10 10-10 10 4.5 10 10-4.5 10-10 10zm0-49c-5.5 0-10-4.5-10-10s4.5-10 10-10 10 4.5 10 10-4.5 10-10 10zm0-49c-5.5 0-10-4.5-10-10s4.5-10 10-10 10 4.5 10 10-4.5 10-10 10zm0-47c-5.5 0-10-4.5-10-10s4.5-10 10-10 10 4.5 10 10-4.5 10-10 10z" fill="#f2f2f2"/><path opacity=".3" fill="#3f3d56" d="M720.6 51.3v-2H208.4V0h-2v49.3h-66.8v2h66.8V98h-66.8v2h66.8v46.7h-66.8v2h66.8v46.6h-66.8v2h66.8V244h-66.8v2h66.8v46.6h-66.8v2h66.8v46.7h-66.8v2h66.8V390h-66.8v2h66.8v46.6h-66.8v2h66.8v46.7h-66.8v2h66.8V536h-66.8v2h66.8v46.6h-66.8v2h66.8v46.7h-66.8v2h66.8V676h2v-40.7h512.2v-2H208.4v-46.7h512.2v-2H208.4V538h512.2v-2H208.4v-46.7h512.2v-2H208.4v-46.7h512.2v-2H208.4V392h512.2v-2H208.4v-46.7h512.2v-2H208.4v-46.7h512.2v-2H208.4V246h512.2v-2H208.4v-46.7h512.2v-2H208.4v-46.6h512.2v-2H208.4V100h512.2v-2H208.4V51.3z"/><path class="prefix__st2" d="M269.4 173.2c-6 4.7-12.5 8.7-19.4 12.1-4.4 2.2-9.3 4.1-14.2 3.2s-9.2-5.9-7.7-10.6c1-2.8 3.5-4.8 6.5-5.3 2.9-.4 5.9 0 8.6 1.2 4.9 2.1 9 5.7 11.6 10.3 1.4 2.4 2.4 5.1 4.7 6.6 1.8 1 3.8 1.6 5.9 1.7 4.9.6 9.9 1.2 14.7.1s9.4-4.5 10.6-9.3M306.5 150.4c.4 14.7.2 29.4-.6 44.1l10.4-2c3.8-.7 8.2-1.8 9.9-5.3 1.6-3.3.1-7.4-2.6-9.8s-6.3-3.6-9.8-4.7l-5.7-1.8M362.6 166.6c-3.8-.5-7.7-1-11.5-.4s-7.5 2.7-9.3 6.2c-3.2 6.3 1.7 14.1 8 17.5 5.2 2.8 11.2 3.7 17 2.6"/><path class="prefix__st3" d="M279 116.3c-9.6 9-19.1 9-28.7 0-7.8-7.5-12.2-18-12.1-28.8V0h53v87.4c0 10.9-4.4 21.3-12.2 28.9z"/><path class="prefix__st4" d="M465.2 531.5v-85.2c0-2.5 2-4.5 4.5-4.5h10.2c2.5 0 4.5 2 4.5 4.5v85.2c0 2.5-2 4.5-4.5 4.5h-10.2c-2.5 0-4.5-2-4.5-4.5zM445 531.5v-85.2c0-2.5 2-4.5 4.5-4.5h10.2c2.5 0 4.5 2 4.5 4.5v85.2c0 2.5-2 4.5-4.5 4.5h-10.2c-2.5 0-4.5-2-4.5-4.5z"/><path class="prefix__st4" d="M444 418.1h41.4c2.3 0 4.2 1.9 4.2 4.2v46.8c0 2.3-1.9 4.2-4.2 4.2H444c-2.3 0-4.2-1.9-4.2-4.2v-46.8c0-2.3 1.9-4.2 4.2-4.2z"/><path d="M395.1 284.2s-20.9 9.7-38.6 16.1c-11-24.8-26.8-23.8-26.8-23.8l-9.6 6.6 1.7 9.9-.5 16.2-2.5 8.5 3.6.7 2 .4.3-.3c-.5 2-.7 4.1-.6 6.2l90.7-14.1c.1-.2-3.1-14.8-19.7-26.4z" fill="#e6e6e6"/><path class="prefix__st3" d="M374.4 419.8l-6.1-8.2c-1.4-1.8-1-4.4.9-5.8l68.6-50.7c1.8-1.4 4.5-1 5.8.9l6.1 8.2c1.4 1.8 1 4.4-.9 5.8l-68.6 50.7c-1.8 1.4-4.4 1-5.8-.9zM476.1 358l9-4.8c2-1.1 4.5-.3 5.6 1.7l40 75.3c1.1 2 .3 4.5-1.7 5.6l-9 4.8c-2 1.1-4.5.3-5.6-1.7l-40-75.3c-1.1-2-.3-4.5 1.7-5.6z"/><path class="prefix__st6" d="M510.4 386.6l-14.8 9.8c-2.3 1.2-5 .5-6-1.5l-16.3-30.7c-1.1-2-.1-4.6 2.1-5.8l10-5.3c2.3-1.2 5-.5 6 1.5l21 26.3c1.3 1.9.3 4.5-2 5.7zM409.9 377.6l9.6 12.7c1.6 1.7 4.2 1.8 5.9.2l25.3-23.8c1.7-1.6 1.8-4.2.2-5.9l-7-7.5c-1.6-1.7-4.2-1.8-5.9-.2l-27.9 18.5c-1.7 1.7-1.8 4.4-.2 6z"/><path class="prefix__st6" d="M441.5 352H488c2.3 0 4.2 1.9 4.2 4.2v98.7c0 2.3-1.9 4.2-4.2 4.2h-46.5c-2.3 0-4.2-1.9-4.2-4.2v-98.7c0-2.3 1.9-4.2 4.2-4.2z"/><circle class="prefix__st3" cx="464.4" cy="308.5" r="37.1"/><path class="prefix__st6" d="M324.5 317.4l4.4-1.4c.5-.9-.4-.3 0-1.2 11.1-23.7.8-38.3.8-38.3l-8 5.5s0-.1-.1-.1c0 0-1.4-3.1-3.6-.8 0 0 6.9 16.8-.8 37.7l9 4.1 3.5-4.1.1-.4-6.2-.6.9-.4z"/><path class="prefix__st7" d="M449.9 405.7c-35.4-7.9-68.3 8.4-68.3 8.4l-.1-.1-13.1-11.7-51.2-83.6 12.5.1c34.7-20.7 83.6-17.9 83.6-17.9 21.1 23.8 36.6 104.8 36.6 104.8z"/><path d="M381.6 414l-13.1-11.7-51.2-83.6 12.5.1c-.1 0 49.7 65.7 51.8 95.2z" opacity=".1"/><ellipse transform="rotate(-17.05 383.588 336.49)" class="prefix__st3" cx="383.5" cy="336.5" rx="20.3" ry="12.9"/><path class="prefix__st6" d="M277.9 278.2c-2.8 10.4-12.5 16.9-12.5 16.9s-5.1-10.5-2.3-20.9c2.8-10.4 12.5-16.9 12.5-16.9s5.1 10.4 2.3 20.9z"/><path class="prefix__st6" d="M252.2 278.2c2.8 10.4 12.5 16.9 12.5 16.9s5.1-10.5 2.3-20.9-12.5-16.9-12.5-16.9-5.1 10.4-2.3 20.9z"/><path class="prefix__st7" d="M256.3 275.9c7.7 7.5 8.7 19.1 8.7 19.1s-11.6-.6-19.4-8.2c-7.7-7.5-8.7-19.1-8.7-19.1s11.7.7 19.4 8.2zM273.7 275.9C266 283.4 265 295 265 295s11.6-.6 19.4-8.2c7.7-7.5 8.7-19.1 8.7-19.1s-11.6.7-19.4 8.2z"/><path class="prefix__st6" d="M623.6 424c-2.8 10.4-12.5 16.9-12.5 16.9s-5.1-10.5-2.3-20.9 12.5-16.9 12.5-16.9 5.1 10.4 2.3 20.9z"/><path class="prefix__st6" d="M597.9 424c2.8 10.4 12.5 16.9 12.5 16.9s5.1-10.5 2.3-20.9-12.5-16.9-12.5-16.9-5.1 10.4-2.3 20.9z"/><path class="prefix__st7" d="M602.1 421.7c7.7 7.5 8.7 19.1 8.7 19.1s-11.6-.6-19.4-8.2c-7.7-7.5-8.7-19.1-8.7-19.1s11.6.7 19.4 8.2z"/><path class="prefix__st7" d="M619.5 421.7c-7.7 7.5-8.7 19.1-8.7 19.1s11.6-.6 19.4-8.2c7.7-7.5 8.7-19.1 8.7-19.1s-11.7.7-19.4 8.2zM385.3 535.6h160.8v1.4H385.3z"/></g></switch></svg>