<?xml version="1.0" encoding="utf-8"?>
<!-- Generator: Adobe Illustrator 23.0.0, SVG Export Plug-In . SVG Version: 6.00 Build 0)  -->
<svg version="1.1" id="a32ce171-bbc1-492b-a350-fb900c0b71cd"
	 xmlns="http://www.w3.org/2000/svg" xmlns:xlink="http://www.w3.org/1999/xlink" x="0px" y="0px" viewBox="0 0 498.1 646.5"
	 style="enable-background:new 0 0 498.1 646.5;" xml:space="preserve">
<style type="text/css">
	.st0{fill:#6C63FF;}
	.st1{fill:#E6E6E6;}
	.st2{fill:#3F3D56;}
	.st3{fill:#2F2E41;}
</style>
<path class="st0" d="M146.9,242.6l-139-30l-1.8-0.4c-2.7-0.6-5.4,1.1-5.9,3.8c-0.2,1.1-0.1,2.3,0.4,3.3l55.2,112.1
	c0.7,1.5,2.1,2.5,3.7,2.7c1.6,0.3,3.3-0.3,4.4-1.5l38.3-40.4c0.6-0.6,1.3-0.9,2.1-0.9c1.1,0,2.1,0.6,2.7,1.6l7.9,14.5
	c1,2,3.3,3,5.5,2.5l0,0c2.2-0.5,3.8-2.4,3.9-4.6l1.6-33.5c0-0.4,0.1-0.8,0.3-1.2c0.2-0.4,0.5-0.7,0.8-1l22.1-18.2
	c2.1-1.8,2.4-4.9,0.7-7C149,243.5,148,242.9,146.9,242.6L146.9,242.6z M147.8,249.8L125.6,268c-0.3,0.2-0.5,0.5-0.8,0.8L7.6,215.6
	c-0.1,0-0.2-0.1-0.3-0.1c-1.1-0.3-2.2,0.4-2.4,1.4c-0.2,0.8,0.1,1.6,0.8,2.1l96.4,70.8c-0.5,0.3-0.9,0.6-1.3,1l-38.3,40.4
	c-1.1,1.2-3,1.2-4.2,0.1c-0.3-0.2-0.5-0.5-0.6-0.8L2.3,218.5c-0.7-1.5-0.1-3.3,1.4-4c0.6-0.3,1.3-0.4,1.9-0.2l1.8,0.4l139,30
	c1.6,0.4,2.7,2,2.3,3.6C148.6,248.8,148.3,249.4,147.8,249.8L147.8,249.8z"/>
<path class="st1" d="M176.5,642.5c-12.5-3.4-27.6-17.4-24.4-36.6c1.6-9.5,7.8-15.7,14.2-19.7c8.9-5.5,19-7.6,28.7-8.1
	c11.2-0.6,22.4,0.9,33.6,2.5c11,1.6,22,3,33.1,3.9c43.2,3.4,86.8,0.2,129-9.6c10.4-2.4,20.8-5.2,31.1-8.5
	c9.8-2.9,19.3-6.4,28.6-10.7c12.3-5.9,32.2-17.3,30.6-38.5c-0.9-11.2-7.5-20.2-14.2-26.5c-8.1-7.6-17.4-12.5-26.6-17.4
	c-42.6-22.5-85.2-44.7-127.8-67c-9.9-5.2-20-10.3-29.6-16.4c-9-5.7-18-12.4-25.3-21.6c-6.4-8-12-18.8-11.8-30.8
	c0.2-10,4.7-18.5,10.3-24.8c13.8-15.7,33.3-22,50.9-25.4c21.9-4.1,44.1-4.1,66-8.1c17.7-3.2,36.6-9.5,51-24.1
	c6.1-5.9,10.4-13.5,12.4-21.7c1.8-8.6,0.9-17.7-2.6-25.8c-3.9-9.3-10.1-16.7-16.7-22.8c-7.5-6.9-16-12.6-25.3-16.9
	c-19.4-9.3-39.9-14.1-59.8-21.2c-9.8-3.5-19.6-7.3-28.7-13.3c-7.7-5.1-16-11.9-20.3-22.1c-8.8-21,12.2-33.5,24.1-38.2
	c8.1-3.1,16.4-5.5,24.9-7.1c1.8-0.4,1-4-0.8-3.6c-8.9,1.7-17.7,4.3-26.2,7.6c-7.2,3-14.6,6.9-20.2,13.7c-5.2,6.2-7.5,14.2-6.4,22.2
	c1.5,10.1,8,17.8,14.1,23.4c8.1,7.4,17.3,12.3,26.6,16.2c9.8,4.2,19.9,7.4,29.9,10.6c20,6.4,41,12,59.1,25.6
	c12.7,9.5,29.9,27.2,25.6,49.2c-1.9,9.8-7.5,17.4-13.7,23c-7.2,6.4-15.5,11.4-24.5,14.9c-40.1,16.1-84.2,4.6-123.3,26.5
	c-13.3,7.5-29.4,21-29.5,42.4c-0.1,11.1,4.4,21.3,9.9,29.3c6.6,9.6,15.1,16.8,23.8,22.7c9.1,6,18.6,11.5,28.4,16.4
	c10.7,5.6,21.4,11.2,32.1,16.8l64.9,34l32.2,16.9c9.8,5.2,19.9,10.1,28.9,17.7c7.3,6.2,16,16.4,15.2,29c-0.6,10-7.3,17.3-13.3,22.1
	c-7.9,6.3-16.7,10.3-25.6,13.7c-10.2,3.9-20.5,7.1-30.9,10c-21.2,5.9-42.9,10.2-64.7,12.7c-21.8,2.5-43.8,3.3-65.8,2.5
	c-11.1-0.4-22.2-1.3-33.2-2.7c-11.4-1.4-22.7-3.5-34.2-4.4c-10.3-0.8-20.8-0.7-31,2.1c-8.5,2.3-17.5,6.3-23.9,14.3
	c-4.8,6-7.1,13.6-6.7,21.3c0.4,7.7,3.2,15,7.8,21.1c4.7,6.2,11.4,10.7,19,12.7C177.6,646.6,178.3,643,176.5,642.5L176.5,642.5z"/>
<rect x="174.1" y="644.2" class="st2" width="324" height="2.2"/>
<circle class="st1" cx="472.1" cy="517.5" r="21.2"/>
<circle class="st1" cx="433.5" cy="219.1" r="21.2"/>
<circle class="st0" cx="319.7" cy="311.5" r="53.5"/>
<path class="st3" d="M311.3,644.9h-14.8c-3.6,0-6.5-2.9-6.5-6.5v-123c0-3.6,2.9-6.5,6.5-6.5h14.8c3.6,0,6.5,2.9,6.5,6.5v123
	C317.8,642,314.9,644.9,311.3,644.9z"/>
<path class="st3" d="M340.5,644.9h-14.8c-3.6,0-6.5-2.9-6.5-6.5v-123c0-3.6,2.9-6.5,6.5-6.5h14.8c3.6,0,6.5,2.9,6.5,6.5v123
	C347,642,344.1,644.9,340.5,644.9z"/>
<path class="st0" d="M401.7,502.5c-0.6,0-1.3-0.1-1.9-0.3c-1.7-0.5-3-1.6-3.8-3.2l-57.7-108.7c-1.7-3.2-0.5-7.1,2.7-8.8c0,0,0,0,0,0
	l13-6.9c3.2-1.7,7.1-0.5,8.8,2.7c0,0,0,0,0,0L420.4,486c1.7,3.2,0.5,7.1-2.7,8.8c0,0,0,0,0,0l-13,6.9
	C403.8,502.2,402.7,502.5,401.7,502.5z"/>
<path class="st0" d="M281.6,402.3c-0.8,0-1.6-0.1-2.3-0.4h0l-115.1-43.5c-3.4-1.3-5-5-3.8-8.4c0,0,0,0,0,0l5.2-13.8
	c1.3-3.4,5-5,8.4-3.8L289.1,376c3.4,1.3,5,5,3.8,8.4l-5.2,13.8C286.7,400.7,284.3,402.3,281.6,402.3z"/>
<path class="st3" d="M285.6,374.4h67.1c3.3,0,6,2.7,6,6v142.5c0,3.3-2.7,6-6,6h-67.1c-3.3,0-6-2.7-6-6V380.4
	C279.6,377,282.3,374.4,285.6,374.4z"/>
<path class="st3" d="M279.5,401.5L232.2,387c-3.1-0.9-4.9-4.1-4.1-7.2l5.5-21.8c0.8-3.2,4.1-5.2,7.3-4.3c0.4,0.1,0.7,0.2,1.1,0.4
	l46.9,22.3c3.1,1.2,4.7,4.6,3.5,7.7l-5.2,13.8C286.1,401.1,282.6,402.6,279.5,401.5z"/>
<path class="st3" d="M339.1,389.2l20.3,45.1c1.3,2.9,4.7,4.3,7.7,3.1l20.9-8.2c3.1-1.2,4.6-4.7,3.4-7.8c-0.1-0.4-0.3-0.7-0.5-1
	l-28-43.7c-1.6-2.9-5.2-4-8.1-2.5l-13,6.9C338.7,382.6,337.5,386.2,339.1,389.2z"/>
<path class="st2" d="M146.9,242.6l-139-30l-1.8-0.4c-2.7-0.6-5.4,1.1-5.9,3.8c-0.2,1.1-0.1,2.3,0.4,3.3l55.2,112.1
	c0.7,1.5,2.1,2.5,3.7,2.7c1.6,0.3,3.3-0.3,4.4-1.5l38.3-40.4c0.6-0.6,1.3-0.9,2.1-0.9c1.1,0,2.1,0.6,2.7,1.6l7.9,14.5
	c1,2,3.3,3,5.5,2.5l0,0c2.2-0.5,3.8-2.4,3.9-4.6l1.6-33.5c0-0.4,0.1-0.8,0.3-1.2c0.2-0.4,0.5-0.7,0.8-1l22.1-18.2
	c2.1-1.8,2.4-4.9,0.7-7C149,243.5,148,242.9,146.9,242.6L146.9,242.6z M147.8,249.8L125.6,268c-0.3,0.2-0.5,0.5-0.8,0.8
	c-0.2,0.3-0.4,0.5-0.5,0.8c-0.2,0.3-0.3,0.6-0.4,1l0,0c-0.1,0.3-0.1,0.7-0.2,1l-1.6,33.5c0,1.4-1,2.5-2.3,2.8l0,0
	c-1.3,0.3-2.7-0.3-3.3-1.5l-7.9-14.5c-0.8-1.5-2.4-2.5-4.1-2.6l0,0c-0.1,0-0.2,0-0.3,0c-0.8,0-1.6,0.2-2.3,0.6
	c-0.5,0.3-0.9,0.6-1.3,1l-38.3,40.4c-1.1,1.2-3,1.2-4.2,0.1c-0.3-0.2-0.5-0.5-0.6-0.8L2.3,218.5c-0.7-1.5-0.1-3.3,1.4-4
	c0.6-0.3,1.3-0.4,1.9-0.2l1.8,0.4l139,30c1.6,0.4,2.7,2,2.3,3.6C148.6,248.8,148.3,249.4,147.8,249.8L147.8,249.8z"/>
<path class="st2" d="M125.3,269l-0.8,1.8l-0.5-0.2l0,0L6.8,217.5l97.8,71.9l0,0l0.3,0.2l-1.2,1.6l-1.7-1.3L5.6,219.1
	c-0.9-0.6-1.1-1.9-0.5-2.8c0.5-0.7,1.3-1,2.1-0.8c0.1,0,0.2,0.1,0.3,0.1l117.2,53.2L125.3,269z"/>
</svg>
