<svg version="1.1" id="prefix__a32ce171-bbc1-492b-a350-fb900c0b71cd" xmlns="http://www.w3.org/2000/svg" x="0" y="0" viewBox="0 0 498.1 646.5" xml:space="preserve"><style>.prefix__st0{fill:#6c63ff}.prefix__st1{fill:#e6e6e6}.prefix__st2{fill:#3f3d56}.prefix__st3{fill:#2f2e41}</style><path class="prefix__st0" d="M146.9 242.6l-139-30-1.8-.4c-2.7-.6-5.4 1.1-5.9 3.8-.2 1.1-.1 2.3.4 3.3l55.2 112.1c.7 1.5 2.1 2.5 3.7 2.7 1.6.3 3.3-.3 4.4-1.5l38.3-40.4c.6-.6 1.3-.9 2.1-.9 1.1 0 2.1.6 2.7 1.6l7.9 14.5c1 2 3.3 3 5.5 2.5s3.8-2.4 3.9-4.6l1.6-33.5c0-.4.1-.8.3-1.2.2-.4.5-.7.8-1l22.1-18.2c2.1-1.8 2.4-4.9.7-7-.8-.9-1.8-1.5-2.9-1.8zm.9 7.2L125.6 268c-.3.2-.5.5-.8.8L7.6 215.6c-.1 0-.2-.1-.3-.1-1.1-.3-2.2.4-2.4 1.4-.2.8.1 1.6.8 2.1l96.4 70.8c-.5.3-.9.6-1.3 1l-38.3 40.4c-1.1 1.2-3 1.2-4.2.1-.3-.2-.5-.5-.6-.8l-55.4-112c-.7-1.5-.1-3.3 1.4-4 .6-.3 1.3-.4 1.9-.2l1.8.4 139 30c1.6.4 2.7 2 2.3 3.6-.1.5-.4 1.1-.9 1.5z"/><path class="prefix__st1" d="M176.5 642.5c-12.5-3.4-27.6-17.4-24.4-36.6 1.6-9.5 7.8-15.7 14.2-19.7 8.9-5.5 19-7.6 28.7-8.1 11.2-.6 22.4.9 33.6 2.5 11 1.6 22 3 33.1 3.9 43.2 3.4 86.8.2 129-9.6 10.4-2.4 20.8-5.2 31.1-8.5 9.8-2.9 19.3-6.4 28.6-10.7 12.3-5.9 32.2-17.3 30.6-38.5-.9-11.2-7.5-20.2-14.2-26.5-8.1-7.6-17.4-12.5-26.6-17.4-42.6-22.5-85.2-44.7-127.8-67-9.9-5.2-20-10.3-29.6-16.4-9-5.7-18-12.4-25.3-21.6-6.4-8-12-18.8-11.8-30.8.2-10 4.7-18.5 10.3-24.8 13.8-15.7 33.3-22 50.9-25.4 21.9-4.1 44.1-4.1 66-8.1 17.7-3.2 36.6-9.5 51-24.1 6.1-5.9 10.4-13.5 12.4-21.7 1.8-8.6.9-17.7-2.6-25.8-3.9-9.3-10.1-16.7-16.7-22.8-7.5-6.9-16-12.6-25.3-16.9-19.4-9.3-39.9-14.1-59.8-21.2-9.8-3.5-19.6-7.3-28.7-13.3-7.7-5.1-16-11.9-20.3-22.1-8.8-21 12.2-33.5 24.1-38.2 8.1-3.1 16.4-5.5 24.9-7.1 1.8-.4 1-4-.8-3.6-8.9 1.7-17.7 4.3-26.2 7.6-7.2 3-14.6 6.9-20.2 13.7-5.2 6.2-7.5 14.2-6.4 22.2 1.5 10.1 8 17.8 14.1 23.4 8.1 7.4 17.3 12.3 26.6 16.2 9.8 4.2 19.9 7.4 29.9 10.6 20 6.4 41 12 59.1 25.6 12.7 9.5 29.9 27.2 25.6 49.2-1.9 9.8-7.5 17.4-13.7 23-7.2 6.4-15.5 11.4-24.5 14.9-40.1 16.1-84.2 4.6-123.3 26.5-13.3 7.5-29.4 21-29.5 42.4-.1 11.1 4.4 21.3 9.9 29.3 6.6 9.6 15.1 16.8 23.8 22.7 9.1 6 18.6 11.5 28.4 16.4l32.1 16.8 64.9 34 32.2 16.9c9.8 5.2 19.9 10.1 28.9 17.7 7.3 6.2 16 16.4 15.2 29-.6 10-7.3 17.3-13.3 22.1-7.9 6.3-16.7 10.3-25.6 13.7-10.2 3.9-20.5 7.1-30.9 10-21.2 5.9-42.9 10.2-64.7 12.7-21.8 2.5-43.8 3.3-65.8 2.5-11.1-.4-22.2-1.3-33.2-2.7-11.4-1.4-22.7-3.5-34.2-4.4-10.3-.8-20.8-.7-31 2.1-8.5 2.3-17.5 6.3-23.9 14.3-4.8 6-7.1 13.6-6.7 21.3.4 7.7 3.2 15 7.8 21.1 4.7 6.2 11.4 10.7 19 12.7 2.1.7 2.8-2.9 1-3.4z"/><path class="prefix__st2" d="M174.1 644.2h324v2.2h-324z"/><circle class="prefix__st1" cx="472.1" cy="517.5" r="21.2"/><circle class="prefix__st1" cx="433.5" cy="219.1" r="21.2"/><circle class="prefix__st0" cx="319.7" cy="311.5" r="53.5"/><path class="prefix__st3" d="M311.3 644.9h-14.8c-3.6 0-6.5-2.9-6.5-6.5v-123c0-3.6 2.9-6.5 6.5-6.5h14.8c3.6 0 6.5 2.9 6.5 6.5v123c0 3.6-2.9 6.5-6.5 6.5zM340.5 644.9h-14.8c-3.6 0-6.5-2.9-6.5-6.5v-123c0-3.6 2.9-6.5 6.5-6.5h14.8c3.6 0 6.5 2.9 6.5 6.5v123c0 3.6-2.9 6.5-6.5 6.5z"/><path class="prefix__st0" d="M401.7 502.5c-.6 0-1.3-.1-1.9-.3-1.7-.5-3-1.6-3.8-3.2l-57.7-108.7c-1.7-3.2-.5-7.1 2.7-8.8l13-6.9c3.2-1.7 7.1-.5 8.8 2.7L420.4 486c1.7 3.2.5 7.1-2.7 8.8l-13 6.9c-.9.5-2 .8-3 .8zM281.6 402.3c-.8 0-1.6-.1-2.3-.4l-115.1-43.5c-3.4-1.3-5-5-3.8-8.4l5.2-13.8c1.3-3.4 5-5 8.4-3.8L289.1 376c3.4 1.3 5 5 3.8 8.4l-5.2 13.8c-1 2.5-3.4 4.1-6.1 4.1z"/><path class="prefix__st3" d="M285.6 374.4h67.1c3.3 0 6 2.7 6 6v142.5c0 3.3-2.7 6-6 6h-67.1c-3.3 0-6-2.7-6-6V380.4c0-3.4 2.7-6 6-6z"/><path class="prefix__st3" d="M279.5 401.5L232.2 387c-3.1-.9-4.9-4.1-4.1-7.2l5.5-21.8c.8-3.2 4.1-5.2 7.3-4.3.4.1.7.2 1.1.4l46.9 22.3c3.1 1.2 4.7 4.6 3.5 7.7l-5.2 13.8c-1.1 3.2-4.6 4.7-7.7 3.6zM339.1 389.2l20.3 45.1c1.3 2.9 4.7 4.3 7.7 3.1l20.9-8.2c3.1-1.2 4.6-4.7 3.4-7.8-.1-.4-.3-.7-.5-1l-28-43.7c-1.6-2.9-5.2-4-8.1-2.5l-13 6.9c-3.1 1.5-4.3 5.1-2.7 8.1z"/><path class="prefix__st2" d="M146.9 242.6l-139-30-1.8-.4c-2.7-.6-5.4 1.1-5.9 3.8-.2 1.1-.1 2.3.4 3.3l55.2 112.1c.7 1.5 2.1 2.5 3.7 2.7 1.6.3 3.3-.3 4.4-1.5l38.3-40.4c.6-.6 1.3-.9 2.1-.9 1.1 0 2.1.6 2.7 1.6l7.9 14.5c1 2 3.3 3 5.5 2.5s3.8-2.4 3.9-4.6l1.6-33.5c0-.4.1-.8.3-1.2.2-.4.5-.7.8-1l22.1-18.2c2.1-1.8 2.4-4.9.7-7-.8-.9-1.8-1.5-2.9-1.8zm.9 7.2L125.6 268c-.3.2-.5.5-.8.8-.2.3-.4.5-.5.8-.2.3-.3.6-.4 1-.1.3-.1.7-.2 1l-1.6 33.5c0 1.4-1 2.5-2.3 2.8-1.3.3-2.7-.3-3.3-1.5l-7.9-14.5c-.8-1.5-2.4-2.5-4.1-2.6h-.3c-.8 0-1.6.2-2.3.6-.5.3-.9.6-1.3 1l-38.3 40.4c-1.1 1.2-3 1.2-4.2.1-.3-.2-.5-.5-.6-.8L2.3 218.5c-.7-1.5-.1-3.3 1.4-4 .6-.3 1.3-.4 1.9-.2l1.8.4 139 30c1.6.4 2.7 2 2.3 3.6-.1.5-.4 1.1-.9 1.5z"/><path class="prefix__st2" d="M125.3 269l-.8 1.8-.5-.2L6.8 217.5l97.8 71.9.3.2-1.2 1.6-1.7-1.3-96.4-70.8c-.9-.6-1.1-1.9-.5-2.8.5-.7 1.3-1 2.1-.8.1 0 .2.1.3.1l117.2 53.2.6.2z"/></svg>