<svg data-name="Layer 1" xmlns="http://www.w3.org/2000/svg" viewBox="0 0 1920 1080"><g opacity=".6" stroke-miterlimit="10" fill="none" stroke-width=".6
"><path d="M8.27 872.34S643.77 400.88 549 749.49c-45.7 168 425.59 116.43 468.52 6.66 83.28-213 538.33-329.34 902.74-369.31" stroke="#f33" stroke-linecap="round"/><path d="M8.19 867.15c0-4.91 641.2-465.14 550.6-119.36-43.51 166.05 423.38 117.21 464.68 9.45 80.59-210.15 536-324 896.75-363.53" stroke="#ff3434"/><path d="M8.1 862c0-9.82 646.88-458.81 560.51-115.87-41.33 164.05 421.15 117.87 460.84 12.21C1107.33 551 1563 439.74 1920.22 400.57" stroke="#ff3636"/><path d="M8 856.76C8 842 660.55 404.33 578.43 744.39c-39.16 162.17 418.93 118.66 457 15 75.16-204.52 531.2-313.22 884.78-352" stroke="#ff3737"/><path d="M7.94 851.57c0-19.63 658.14-446 580.31-108.87-37 160.27 416.7 119.4 453.16 17.83 72.42-201.71 528.82-307.85 878.8-346.24" stroke="#ff3939"/><path d="M7.85 846.38c0-24.54 663.74-439.63 590.22-105.38-34.84 158.41 414.46 120.16 449.32 20.63 69.67-198.89 526.45-302.49 872.82-340.47" stroke="#ff3a3a"/><path d="M7.77 841.19c0-29.45 669.31-433.19 600.12-101.89-32.7 156.6 412.22 120.92 445.48 23.42 66.9-196.06 524.07-297.11 866.83-334.7" stroke="#ff3c3c"/><path d="M7.68 836c0-34.35 674.86-426.69 610-98.39-30.57 154.81 410 121.68 441.63 26.22 64.16-193.25 521.69-291.75 860.89-328.95" stroke="#ff3d3d"/><path d="M7.6 830.8c0-39.26 680.38-420.17 619.94-94.89-28.45 153.06 407.71 122.44 437.8 29 61.31-190.41 519.31-286.36 854.85-323.16" stroke="#ff3f3f"/><path d="M7.51 825.61c0-44.16 685.89-413.62 629.85-91.4-26.33 151.36 405.45 123.21 434 31.8 58.48-187.58 516.93-281 848.87-317.4" stroke="#ff4040"/><path d="M7.43 820.41c0-49.06 691.37-407 639.75-87.9-24.22 149.7 403.19 124 430.12 34.59 55.64-184.74 514.56-275.62 842.88-311.63" stroke="#ff4242"/><path d="M7.35 815.22c0-54 696.84-400.38 649.65-84.41-22.12 148.09 400.92 124.78 426.28 37.39 52.78-181.9 512.18-270.25 836.9-305.86" stroke="#ff4343"/><path d="M7.26 810c0-58.88 702.31-393.7 659.56-80.91-20 146.51 398.64 125.56 422.44 40.18 49.9-179.06 509.8-264.89 830.91-300.1" stroke="#ff4545"/><path d="M7.18 804.84c0-63.79 707.75-387 669.46-77.42-17.94 145 396.36 126.36 418.6 43 47-176.19 507.43-259.51 824.93-294.33" stroke="#ff4646"/><path d="M7.09 799.64c0-68.69 713.21-380.19 679.37-73.92-15.85 143.53 394.07 127.17 414.76 45.77 44-173.33 505.05-254.14 818.94-288.57" stroke="#ff4848"/><path d="M7 794.45c0-73.6 718.66-373.36 689.28-70.45-13.78 142.12 391.77 128 410.92 48.56 41.09-170.45 502.67-248.76 813-282.79" stroke="#ff4949"/><path d="M6.93 789.26c0-78.51 724.1-366.48 699.17-66.93-11.71 140.75 389.46 128.81 407.08 51.35 38.1-167.57 500.3-243.4 807-277" stroke="#ff4b4b"/><path d="M6.84 784.07c0-83.42 729.57-359.55 709.09-63.44-9.65 139.44 387.14 129.66 403.23 54.14 35.08-164.66 497.92-238 801-271.26" stroke="#ff4c4c"/><path d="M6.76 778.87c0-88.32 735-352.55 719-59.94-7.58 138.2 384.82 130.52 399.39 56.94 32-161.74 495.54-232.65 795-265.49" stroke="#ff4e4e"/><path d="M6.67 773.68c0-93.23 740.54-345.5 728.9-56.45-5.52 137 382.49 131.39 395.55 59.74 29-158.81 493.17-227.28 789-259.73" stroke="#ff4f4f"/><path d="M6.59 768.49c0-98.14 797.51-332.38 738.8-53 21.15 134.27 380.15 132.27 391.71 62.52 25.84-155.85 490.79-221.91 783-254" stroke="#ff5151"/><path d="M6.51 763.3c0-103 805.61-325.43 748.7-49.46C779.7 846.42 1133 847 1143.08 779.16c22.68-152.87 488.41-216.54 777.05-248.2" stroke="#ff5252"/><path d="M6.42 758.1c0-108 813.72-318.47 758.61-46 27.83 130.89 375.44 134.12 384 68.11 19.5-149.86 486-211.16 771.07-242.42" stroke="#ff5454"/><path d="M6.34 752.91c0-112.86 821.81-311.52 768.51-42.47C806 839.65 1147.93 845.52 1155 781.35c16.27-146.82 483.66-205.8 765.08-236.66" stroke="#f55"/><path d="M6.25 747.72c0-117.77 829.92-304.57 778.42-39 34.52 127.51 370.71 136 376.35 73.69C1174 638.7 1642.3 582 1920.12 551.55" stroke="#ff5757"/><path d="M6.17 742.53c0-122.68 838-297.62 788.32-35.48 37.86 125.83 368.33 137.07 372.51 76.49 9.72-140.62 478.91-195 753.11-225.12" stroke="#ff5858"/><path d="M6.08 737.33c0-127.58 846.12-290.65 798.24-32 41.2 124.14 365.93 138.12 368.66 79.29 6.39-137.46 476.53-189.68 747.13-219.36" stroke="#ff5a5a"/><path d="M6 732.14c0-132.49 854.22-283.7 808.14-28.49 44.54 122.46 363.54 139.21 364.82 82.08 3-134.24 474.15-184.31 741.15-213.59" stroke="#ff5b5b"/><path d="M5.92 727c0-137.4 862.32-276.75 818-25 47.89 120.77 361.14 140.33 361 84.88-.35-131 471.78-178.94 735.16-207.82" stroke="#ff5d5d"/><path d="M5.83 721.76c0-142.31 870.42-269.8 828-21.5 51.23 119.08 358.74 141.5 357.15 87.66-3.77-127.62 469.39-173.56 729.17-202" stroke="#ff5e5e"/><path d="M5.75 716.56c0-147.2 878.52-262.84 837.85-18C898.17 816 1209.52 839.82 1196.91 789c15.84-123.41 467-168.19 723.18-196.29" stroke="#ff6060"/><path d="M5.66 711.37c0-152.11 886.62-255.89 847.76-14.51 57.92 115.7 363.93 142.09 349.47 93.25 13.6-120.42 464.64-162.82 717.2-190.52" stroke="#ff6161"/><path d="M5.58 706.18c0-157 894.72-248.94 857.66-11 61.26 114 362 142.92 345.63 96.05 11.35-117.43 462.26-157.45 711.21-184.75" stroke="#ff6363"/><path d="M5.5 701c0-161.92 902.82-242 867.56-7.51 64.6 112.32 360 143.74 341.79 98.84 9.1-114.45 459.89-152.08 705.23-179" stroke="#ff6464"/><path d="M5.41 695.79c0-166.83 910.92-235 877.47-4 68 110.64 358 144.57 337.95 101.63 6.85-111.46 457.51-146.71 699.24-173.22" stroke="#f66"/><path d="M5.33 690.6c0-171.74 919-228.07 887.37-.53C964 799 1248.68 835.47 1226.81 794.5c4.61-108.48 455.13-141.34 693.26-167.45" stroke="#ff6767"/><path d="M5.24 685.41c0-176.65 927.13-221.12 897.29 3 74.62 107.27 354 146.23 330.26 107.22 2.36-105.49 452.76-136 687.28-161.68" stroke="#ff6969"/><path d="M5.16 680.21c0-181.55 935.22-214.16 907.19 6.47 78 105.57 352 147.05 326.42 110 .11-102.51 450.38-130.59 681.29-155.92" stroke="#ff6a6a"/><path d="M5.07 675c0-186.46 943.33-207.21 917.1 10 81.31 103.88 350 147.88 322.58 112.8-2.14-99.52 448-125.22 675.31-150.15" stroke="#ff6c6c"/><path d="M5 669.83c0-191.37 951.43-200.26 927 13.45 84.65 102.2 348 148.71 318.74 115.6-4.38-96.54 445.63-119.85 669.32-144.38" stroke="#ff6d6d"/><path d="M4.91 664.64c0-196.28 959.52-193.31 936.9 16.94 88 100.51 346 149.54 314.9 118.4-6.63-93.56 443.25-114.48 663.34-138.62" stroke="#ff6f6f"/><path d="M4.82 659.44c0-201.18 967.63-186.34 946.81 20.45 91.34 98.82 344 150.36 311.06 121.18C1253.81 710.5 1703.56 692 1920 668.22" stroke="#ff7070"/><path d="M4.74 654.25c0-206.09 975.73-179.39 956.71 23.94 94.68 97.13 342.06 151.19 307.22 124-11.13-87.58 438.5-103.74 651.37-127.08" stroke="#ff7272"/><path d="M4.65 649.06c0-211 983.83-172.44 966.62 27.43 98 95.45 340.07 152 303.38 126.77C1261.28 718.67 1710.77 704.9 1920 682" stroke="#ff7373"/><path d="M4.57 643.87c0-215.87 991.93-165.49 976.52 30.92 101.37 93.76 338.08 152.85 299.54 129.57-15.62-81.61 433.74-93 639.4-115.55" stroke="#ff7575"/><path d="M4.49 638.67c0-220.81 1000-158.53 986.43 34.43 104.7 92.06 336.08 153.67 295.69 132.35-17.87-78.62 431.39-87.62 633.39-109.77" stroke="#ff7676"/><path d="M4.4 633.48c0-225.72 1008.13-151.58 996.34 37.92 108 90.38 334.09 154.5 291.85 135.15-20.11-75.64 429-82.25 627.43-104" stroke="#ff7878"/><path d="M4.32 628.29c0-230.63 1016.23-144.63 1006.24 41.41 111.39 88.69 332.11 155.33 288 137.95-22.35-72.65 426.62-76.88 621.44-98.25" stroke="#ff7979"/><path d="M4.23 623.1c0-235.54 1024.34-137.68 1016.15 44.9 114.73 87 330.12 156.17 284.17 140.74-24.61-69.67 424.24-71.5 615.46-92.48" stroke="#ff7b7b"/><path d="M4.15 617.9c0-240.44 1032.43-130.71 1026.05 48.41 118.08 85.31 328.13 157 280.33 143.53-26.86-66.69 421.86-66.14 609.48-86.71" stroke="#ff7c7c"/><path d="M4.06 612.71c0-245.35 1040.54-123.76 1036 51.9 121.42 83.63 326.14 157.82 276.49 146.32C1287.41 747.23 1736 750.17 1920 730" stroke="#ff7e7e"/><path d="M4 607.52c0-250.25 1048.64-116.81 1045.86 55.39C1174.6 744.85 1374 821.56 1322.5 812c-31.36-60.72 417.1-55.39 597.5-75.18" stroke="#ff7f7f"/><path d="M3.9 602.33c0-255.16 1056.73-109.86 1055.76 58.88 128.11 80.26 322.17 159.48 268.82 151.91-33.61-57.72 414.72-50 591.51-69.4" stroke="#ff8181"/><path d="M3.81 597.13c0-260.06 1064.84-102.9 1065.67 62.39 131.45 78.56 320.18 160.3 265 154.7-35.86-54.74 412.35-44.65 585.53-63.64" stroke="#ff8282"/><path d="M3.73 591.94c0-265 1072.93-96 1075.57 65.88 134.79 76.87 318.19 161.13 261.14 157.5-38.1-51.76 410-39.28 579.54-57.88" stroke="#ff8484"/><path d="M3.64 586.75c0-269.88 1081-89 1085.49 69.37 138.13 75.19 316.19 162 257.29 160.29-40.35-48.77 407.58-33.9 573.58-52.11" stroke="#ff8585"/><path d="M3.56 581.55c0-274.78 1089.14-82 1095.39 72.87 141.47 73.5 314.2 162.79 253.45 163.09-42.6-45.79 405.22-28.51 567.6-46.34" stroke="#ff8787"/><path d="M3.48 576.36c0-279.69 1097.23-75.08 1105.29 76.37 144.81 71.81 312.23 163.61 249.61 165.87-44.85-42.8 402.84-23.16 561.62-40.6" stroke="#f88"/><path d="M3.39 571.17c0-284.6 1105.34-68.13 1115.2 79.86 148.16 70.12 310.23 164.44 245.77 168.67-47.09-39.82 400.46-17.79 555.61-34.81" stroke="#ff8a8a"/><path d="M3.31 566c0-289.51 1113.44-61.18 1125.1 83.35 151.5 68.44 308.24 165.27 241.93 171.46C1321 784 1768.43 808.38 1920 791.76" stroke="#ff8b8b"/><path d="M3.22 560.78c0-294.41 1121.54-54.22 1135 86.85 154.84 66.75 306.25 166.1 238.09 174.26-51.59-33.85 395.71-7 543.64-23.27" stroke="#ff8d8d"/><path d="M3.14 555.59c0-299.32 1129.64-47.27 1144.91 90.35 158.19 65 304.26 166.92 234.25 177-53.83-30.87 393.33-1.68 537.65-17.51" stroke="#ff8e8e"/><path d="M3.05 550.4c0-304.23 1137.75-40.32 1154.82 93.84 161.53 63.37 302.27 167.76 230.41 179.84-56.08-27.87 391 3.7 531.67-11.73" stroke="#ff9090"/><path d="M3 545.21c0-309.14 1145.84-33.37 1164.72 97.33 164.87 61.68 300.29 168.58 226.57 182.64-58.33-24.89 388.58 9.06 525.68-6" stroke="#ff9191"/><path d="M2.89 540c0-314 1153.94-26.41 1174.63 100.83 168.21 60 298.29 169.41 222.72 185.43-60.58-21.9 386.2 14.44 519.7-.2" stroke="#ff9393"/><path d="M2.8 534.82c0-319 1162.05-19.45 1184.54 104.33 171.55 58.3 296.3 170.23 218.88 188.22-62.82-18.92 383.83 19.81 513.71 5.56" stroke="#ff9494"/><path d="M2.72 529.63c0-323.86 1170.14-12.5 1194.44 107.82 174.89 56.62 294.31 171.06 215 191-65.07-15.93 381.45 25.19 507.73 11.34" stroke="#ff9696"/><path d="M2.63 524.44c0-328.77 1178.25-5.55 1204.35 111.31 178.24 54.93 292.32 171.89 211.2 193.81-67.32-12.95 379.07 30.55 501.75 17.1" stroke="#ff9797"/><path d="M2.55 519.24c0-333.67 1186.35 1.41 1214.25 114.81 181.58 53.25 290.34 172.72 207.36 196.61-69.57-10 376.7 35.92 495.76 22.86" stroke="#f99"/><path d="M2.47 514.05c0-338.58 1194.44 8.36 1224.15 118.31 184.92 51.55 288.38 173.54 203.52 199.39-71.81-7 374.32 41.3 489.78 28.64" stroke="#ff9a9a"/><path d="M2.38 508.86c0-343.49 1202.55 15.31 1234.06 121.8 188.27 49.86 286.36 174.34 199.68 202.19-74.06-4 371.94 46.67 483.79 34.4" stroke="#ff9c9c"/><path d="M2.3 503.67c0-348.4 1210.65 22.26 1244 125.29 191.61 48.18 288.12 190.5 195.84 205-75.39 11.83 369.57 52 477.81 40.17" stroke="#ff9d9d"/><path d="M2.21 498.47c0-353.29 1218.79 29.23 1253.87 128.79 195 46.49 286.23 190.49 192 207.78-77.3 14.18 367.18 57.41 471.81 45.93" stroke="#ff9f9f"/><path d="M2.13 493.28c0-358.2 1226.85 36.18 1263.78 132.29 198.29 44.8 284.28 190.49 188.16 210.56-79.25 16.56 364.8 62.79 465.83 51.71" stroke="#ffa0a0"/><path d="M2 488.09C2 125 1237 531.22 1275.73 623.87 1477.36 667 1558 814.39 1460.05 837.23c-81.26 18.94 362.43 68.15 459.84 57.47" stroke="#ffa2a2"/><path d="M2 482.9C2 114.88 1245 533 1285.55 622.17c205 41.43 280.31 190.59 180.48 216.16-83.32 21.33 360 73.52 453.86 63.23" stroke="#ffa3a3"/><path d="M1.88 477.7c0-372.92 1251.15 57 1293.49 142.77 208.32 39.74 278.28 190.68 176.64 218.95-85.41 23.76 357.68 78.9 447.88 69" stroke="#ffa5a5"/><path d="M1.79 472.51c0-377.83 1259.25 64 1303.4 146.27 211.66 38 276.23 190.79 172.8 221.74-87.55 26.19 355.3 84.27 441.89 74.77" stroke="#ffa6a6"/><path d="M1.71 467.32c0-382.74 1267.35 70.94 1313.3 149.76 215 36.36 274.16 190.94 169 224.53-89.71 28.64 352.92 89.64 435.91 80.54" stroke="#ffa8a8"/><path d="M1.62 462.13c0-387.65 1275.46 77.87 1323.21 153.25C1543.18 650.05 1596.9 806.5 1490 842.71c-91.91 31.11 350.55 95 429.92 86.31" stroke="#ffa9a9"/><path d="M1.54 456.93c0-392.55 1283.55 84.86 1333.11 156.75 221.69 33 270 191.33 161.28 230.12-94.13 33.6 348.17 100.39 423.94 92.08" stroke="#ffabab"/><path d="M1.46 451.74c0-397.46 1291.65 91.81 1343 160.24 225 31.3 267.86 191.56 157.44 232.92-96.38 36.1 345.79 105.75 417.95 97.84" stroke="#ffacac"/><path d="M1.37 446.55c0-402.37 1299.76 98.76 1352.92 163.74C1582.67 639.9 1620 802.1 1507.89 846c-98.64 38.61 343.42 111.12 412 103.6" stroke="#ffaeae"/><path d="M1.29 441.35c0-407.27 1307.85 105.72 1362.83 167.24 231.71 27.92 263.59 192.09 149.75 238.5-100.93 41.15 341 116.5 406 109.38" stroke="#ffafaf"/><path d="M1.2 436.16c0-412.18 1316 112.67 1372.74 170.73 235 26.23 261.45 192.4 145.91 241.3-103.23 43.69 338.66 121.87 400 115.14" stroke="#ffb1b1"/><path d="M1.12 431c0-417.09 1324.06 119.62 1382.64 174.22 238.4 24.55 259.3 192.73 142.07 244.09-105.55 46.25 336.29 127.24 394 120.91" stroke="#ffb2b2"/><path d="M1 425.78c0-422 1332.19 126.57 1392.58 177.72 241.74 22.85 257.15 193.06 138.23 246.88-107.88 48.82 333.91 132.61 388 126.68" stroke="#ffb4b4"/><path d="M1 420.58C1-6.32 1341.21 554.11 1403.4 601.8c245.08 21.17 255 193.43 134.39 249.67-110.22 51.41 331.53 138 382 132.45" stroke="#ffb5b5"/><path d="M.87 415.39c0-431.81 1348.36 140.49 1412.35 184.71 248.43 19.48 252.84 193.81 130.55 252.47-112.58 54 329.16 143.36 376.06 138.21" stroke="#ffb7b7"/><path d="M.78 410.2C.78-26.52 1357.24 557.64 1423 598.4c251.77 17.8 250.68 194.22 126.71 255.27-114.94 56.6 326.78 148.72 370.08 144" stroke="#ffb8b8"/><path d="M.7 405c0-441.62 1364.56 154.4 1432.16 191.71 255.12 16.1 248.52 194.62 122.87 258-117.31 59.22 324.4 154.1 364.09 149.75" stroke="#ffbaba"/><path d="M.61 399.81C.61-46.72 1373.28 561.16 1442.68 595c258.46 14.42 246.35 195.06 119 260.85-119.69 61.84 322 159.47 358.11 155.51" stroke="#fbb"/><path d="M.53 394.62c0-451.44 1380.76 168.3 1452 198.69C1714.3 606 1696.69 788.82 1567.69 857c-122.07 64.49 319.65 164.84 352.12 161.28" stroke="#ffbdbd"/><path d="M.45 389.43C.45-66.91 1386 576.34 1462.33 591.61c260.21 52.07 242 196 111.35 266.44-124.47 67.13 317.26 170.21 346.13 167" stroke="#ffbebe"/><path d="M.36 384.24C.36-77 1394.85 576.7 1472.15 589.92 1737 635.21 1712 786.35 1579.66 859.14c-126.87 69.78 314.89 175.59 340.14 172.82" stroke="#ffc0c0"/><path d="M.28 379C.28-87.11 1403.57 577 1482 588.22c269.2 38.44 237.68 196.92 103.67 272-129.27 72.44 312.51 181 334.16 178.58" stroke="#ffc1c1"/><path d="M.19 373.85c0-471.06 1412 203.48 1491.6 212.67 273.42 31.55 235.52 197.41 99.83 274.82-131.68 75.1 310.13 186.32 328.17 184.35" stroke="#ffc3c3"/><path d="M.11 368.66c0-476 1420.52 209 1501.5 216.16 277.45 24.65 233.35 197.92 96 277.61-134.08 77.79 307.76 191.7 322.19 190.12" stroke="#ffc4c4"/><path d="M0 363.47c0-480.88 1429 214.45 1511.43 219.66 281.3 17.77 231.19 198.43 92.15 280.4-136.5 80.47 305.42 197.07 316.21 195.88" stroke="#ffc6c6"/><path d="M-.06 358.27c0-485.78 1437.3 219.93 1521.31 223.16 285 10.94 229 199 88.31 283.19-138.91 83.16 303 202.45 310.22 201.65" stroke="#ffc7c7"/><path d="M-.14 353.08c0-490.69 1445.54 228.36 1531.21 226.65 288.48-5.74 226.86 199.49 84.47 286-141.33 85.85 300.63 207.81 304.24 207.42" stroke="#ffc9c9"/><path d="M1919.77 1080s-442-124.64-298.25-213.19c144.07-88.75 211.25-291.24-80.63-288.78C1453.44 578.77-.23-147.71-.23 347.89" stroke="#ffcaca"/></g></svg>