<svg id="Layer_1" data-name="Layer 1" xmlns="http://www.w3.org/2000/svg" xmlns:xlink="http://www.w3.org/1999/xlink" viewBox="0 0 1920 1080"><defs><style>.cls-1{opacity:.54}</style><linearGradient id="linear-gradient" x1="-.25" y1="229.84" x2="1026.86" y2="229.84" gradientTransform="matrix(-1 0 0 1 1920 0)" gradientUnits="userSpaceOnUse"><stop offset="0" stop-color="#ea334a"/><stop offset="1" stop-color="#f05d44"/></linearGradient><linearGradient id="linear-gradient-2" x1="13.94" y1="233.49" x2="1026.13" y2="233.49" xlink:href="#linear-gradient"/><linearGradient id="linear-gradient-3" x1="28.05" y1="237.11" x2="1025.4" y2="237.11" xlink:href="#linear-gradient"/><linearGradient id="linear-gradient-4" x1="42.04" y1="240.7" x2="1024.67" y2="240.7" xlink:href="#linear-gradient"/><linearGradient id="linear-gradient-5" x1="55.96" y1="244.25" x2="1023.94" y2="244.25" xlink:href="#linear-gradient"/><linearGradient id="linear-gradient-6" x1="69.79" y1="247.77" x2="1023.21" y2="247.77" xlink:href="#linear-gradient"/><linearGradient id="linear-gradient-7" x1="83.53" y1="251.25" x2="1022.48" y2="251.25" xlink:href="#linear-gradient"/><linearGradient id="linear-gradient-8" x1="97.17" y1="254.69" x2="1021.76" y2="254.69" xlink:href="#linear-gradient"/><linearGradient id="linear-gradient-9" x1="110.72" y1="258.09" x2="1021.03" y2="258.09" xlink:href="#linear-gradient"/><linearGradient id="linear-gradient-10" x1="124.17" y1="261.46" x2="1020.3" y2="261.46" xlink:href="#linear-gradient"/><linearGradient id="linear-gradient-11" x1="137.52" y1="264.78" x2="1019.57" y2="264.78" xlink:href="#linear-gradient"/><linearGradient id="linear-gradient-12" x1="150.77" y1="268.05" x2="1018.84" y2="268.05" xlink:href="#linear-gradient"/><linearGradient id="linear-gradient-13" x1="163.91" y1="271.29" x2="1018.11" y2="271.29" xlink:href="#linear-gradient"/><linearGradient id="linear-gradient-14" x1="176.95" y1="274.47" x2="1017.39" y2="274.47" xlink:href="#linear-gradient"/><linearGradient id="linear-gradient-15" x1="189.88" y1="277.61" x2="1016.66" y2="277.61" xlink:href="#linear-gradient"/><linearGradient id="linear-gradient-16" x1="202.7" y1="280.7" x2="1015.93" y2="280.7" xlink:href="#linear-gradient"/><linearGradient id="linear-gradient-17" x1="215.4" y1="283.74" x2="1015.2" y2="283.74" xlink:href="#linear-gradient"/><linearGradient id="linear-gradient-18" x1="228" y1="286.73" x2="1014.47" y2="286.73" xlink:href="#linear-gradient"/><linearGradient id="linear-gradient-19" x1="240.48" y1="289.66" x2="1013.74" y2="289.66" xlink:href="#linear-gradient"/><linearGradient id="linear-gradient-20" x1="252.83" y1="292.53" x2="1013.02" y2="292.53" xlink:href="#linear-gradient"/><linearGradient id="linear-gradient-21" x1="265.07" y1="295.35" x2="1012.29" y2="295.35" xlink:href="#linear-gradient"/><linearGradient id="linear-gradient-22" x1="277.19" y1="298.11" x2="1011.56" y2="298.11" xlink:href="#linear-gradient"/><linearGradient id="linear-gradient-23" x1="289.18" y1="300.81" x2="1010.83" y2="300.81" xlink:href="#linear-gradient"/><linearGradient id="linear-gradient-24" x1="301.04" y1="303.45" x2="1010.1" y2="303.45" xlink:href="#linear-gradient"/><linearGradient id="linear-gradient-25" x1="312.78" y1="306.02" x2="1009.37" y2="306.02" xlink:href="#linear-gradient"/><linearGradient id="linear-gradient-26" x1="324.38" y1="308.53" x2="1008.65" y2="308.53" xlink:href="#linear-gradient"/><linearGradient id="linear-gradient-27" x1="335.85" y1="310.97" x2="1007.92" y2="310.97" xlink:href="#linear-gradient"/><linearGradient id="linear-gradient-28" x1="347.18" y1="313.34" x2="1007.19" y2="313.34" xlink:href="#linear-gradient"/><linearGradient id="linear-gradient-29" x1="358.38" y1="315.64" x2="1006.46" y2="315.64" xlink:href="#linear-gradient"/><linearGradient id="linear-gradient-30" x1="369.44" y1="317.86" x2="1005.73" y2="317.86" xlink:href="#linear-gradient"/><linearGradient id="linear-gradient-31" x1="380.35" y1="320.01" x2="1005" y2="320.01" xlink:href="#linear-gradient"/><linearGradient id="linear-gradient-32" x1="391.12" y1="322.08" x2="1004.28" y2="322.08" xlink:href="#linear-gradient"/><linearGradient id="linear-gradient-33" x1="401.74" y1="324.08" x2="1003.55" y2="324.08" xlink:href="#linear-gradient"/><linearGradient id="linear-gradient-34" x1="412.22" y1="326" x2="1002.82" y2="326" xlink:href="#linear-gradient"/><linearGradient id="linear-gradient-35" x1="422.54" y1="327.83" x2="1002.09" y2="327.83" xlink:href="#linear-gradient"/><linearGradient id="linear-gradient-36" x1="432.71" y1="329.58" x2="1001.36" y2="329.58" xlink:href="#linear-gradient"/><linearGradient id="linear-gradient-37" x1="442.72" y1="331.25" x2="1000.63" y2="331.25" xlink:href="#linear-gradient"/><linearGradient id="linear-gradient-38" x1="452.58" y1="332.84" x2="999.9" y2="332.84" xlink:href="#linear-gradient"/><linearGradient id="linear-gradient-39" x1="462.28" y1="334.33" x2="999.18" y2="334.33" xlink:href="#linear-gradient"/><linearGradient id="linear-gradient-40" x1="471.82" y1="335.74" x2="998.45" y2="335.74" xlink:href="#linear-gradient"/><linearGradient id="linear-gradient-41" x1="481.2" y1="337.06" x2="997.72" y2="337.06" xlink:href="#linear-gradient"/><linearGradient id="linear-gradient-42" x1="490.41" y1="338.3" x2="996.99" y2="338.3" xlink:href="#linear-gradient"/><linearGradient id="linear-gradient-43" x1="499.46" y1="339.44" x2="996.26" y2="339.44" xlink:href="#linear-gradient"/><linearGradient id="linear-gradient-44" x1="508.35" y1="340.49" x2="995.53" y2="340.49" xlink:href="#linear-gradient"/><linearGradient id="linear-gradient-45" x1="517.07" y1="341.45" x2="994.81" y2="341.45" xlink:href="#linear-gradient"/><linearGradient id="linear-gradient-46" x1="525.63" y1="342.32" x2="994.08" y2="342.32" xlink:href="#linear-gradient"/><linearGradient id="linear-gradient-47" x1="534.01" y1="343.09" x2="993.35" y2="343.09" xlink:href="#linear-gradient"/><linearGradient id="linear-gradient-48" x1="542.23" y1="343.78" x2="992.62" y2="343.78" xlink:href="#linear-gradient"/><linearGradient id="linear-gradient-49" x1="550.29" y1="344.37" x2="991.89" y2="344.37" xlink:href="#linear-gradient"/><linearGradient id="linear-gradient-50" x1="558.18" y1="352.87" x2="1009.02" y2="352.87" xlink:href="#linear-gradient"/><linearGradient id="linear-gradient-51" x1="565.9" y1="361.46" x2="1026.54" y2="361.46" xlink:href="#linear-gradient"/><linearGradient id="linear-gradient-52" x1="573.46" y1="369.96" x2="1044.06" y2="369.96" xlink:href="#linear-gradient"/><linearGradient id="linear-gradient-53" x1="580.85" y1="378.37" x2="1061.59" y2="378.37" xlink:href="#linear-gradient"/><linearGradient id="linear-gradient-54" x1="588.08" y1="386.68" x2="1079.11" y2="386.68" xlink:href="#linear-gradient"/><linearGradient id="linear-gradient-55" x1="595.15" y1="394.91" x2="1096.63" y2="394.91" xlink:href="#linear-gradient"/><linearGradient id="linear-gradient-56" x1="602.06" y1="403.05" x2="1114.15" y2="403.05" xlink:href="#linear-gradient"/><linearGradient id="linear-gradient-57" x1="608.82" y1="411.11" x2="1131.68" y2="411.11" xlink:href="#linear-gradient"/><linearGradient id="linear-gradient-58" x1="615.41" y1="419.08" x2="1149.2" y2="419.08" xlink:href="#linear-gradient"/><linearGradient id="linear-gradient-59" x1="621.86" y1="426.96" x2="1166.72" y2="426.96" xlink:href="#linear-gradient"/><linearGradient id="linear-gradient-60" x1="628.15" y1="434.76" x2="1184.24" y2="434.76" xlink:href="#linear-gradient"/><linearGradient id="linear-gradient-61" x1="634.29" y1="442.48" x2="1201.77" y2="442.48" xlink:href="#linear-gradient"/><linearGradient id="linear-gradient-62" x1="640.29" y1="450.13" x2="1219.29" y2="450.13" xlink:href="#linear-gradient"/><linearGradient id="linear-gradient-63" x1="646.14" y1="457.69" x2="1236.81" y2="457.69" xlink:href="#linear-gradient"/><linearGradient id="linear-gradient-64" x1="651.85" y1="465.17" x2="1254.33" y2="465.17" xlink:href="#linear-gradient"/><linearGradient id="linear-gradient-65" x1="657.42" y1="472.59" x2="1271.86" y2="472.59" xlink:href="#linear-gradient"/><linearGradient id="linear-gradient-66" x1="662.86" y1="479.92" x2="1289.38" y2="479.92" xlink:href="#linear-gradient"/><linearGradient id="linear-gradient-67" x1="668.16" y1="487.19" x2="1306.9" y2="487.19" xlink:href="#linear-gradient"/><linearGradient id="linear-gradient-68" x1="673.33" y1="494.38" x2="1324.42" y2="494.38" xlink:href="#linear-gradient"/><linearGradient id="linear-gradient-69" x1="678.36" y1="501.51" x2="1341.95" y2="501.51" xlink:href="#linear-gradient"/><linearGradient id="linear-gradient-70" x1="683.28" y1="508.57" x2="1359.47" y2="508.57" xlink:href="#linear-gradient"/><linearGradient id="linear-gradient-71" x1="688.07" y1="515.57" x2="1376.99" y2="515.57" xlink:href="#linear-gradient"/><linearGradient id="linear-gradient-72" x1="692.73" y1="522.51" x2="1394.51" y2="522.51" xlink:href="#linear-gradient"/><linearGradient id="linear-gradient-73" x1="697.28" y1="529.38" x2="1412.04" y2="529.38" xlink:href="#linear-gradient"/><linearGradient id="linear-gradient-74" x1="701.71" y1="536.19" x2="1429.56" y2="536.19" xlink:href="#linear-gradient"/><linearGradient id="linear-gradient-75" x1="706.03" y1="542.95" x2="1447.08" y2="542.95" xlink:href="#linear-gradient"/><linearGradient id="linear-gradient-76" x1="710.24" y1="549.65" x2="1464.6" y2="549.65" xlink:href="#linear-gradient"/><linearGradient id="linear-gradient-77" x1="714.33" y1="556.3" x2="1482.13" y2="556.3" xlink:href="#linear-gradient"/><linearGradient id="linear-gradient-78" x1="718.32" y1="562.89" x2="1499.65" y2="562.89" xlink:href="#linear-gradient"/><linearGradient id="linear-gradient-79" x1="722.2" y1="569.43" x2="1517.17" y2="569.43" xlink:href="#linear-gradient"/><linearGradient id="linear-gradient-80" x1="725.98" y1="575.93" x2="1534.69" y2="575.93" xlink:href="#linear-gradient"/><linearGradient id="linear-gradient-81" x1="729.66" y1="582.37" x2="1552.22" y2="582.37" xlink:href="#linear-gradient"/><linearGradient id="linear-gradient-82" x1="733.24" y1="588.77" x2="1569.74" y2="588.77" xlink:href="#linear-gradient"/><linearGradient id="linear-gradient-83" x1="736.73" y1="595.13" x2="1587.26" y2="595.13" xlink:href="#linear-gradient"/><linearGradient id="linear-gradient-84" x1="740.12" y1="601.44" x2="1604.78" y2="601.44" xlink:href="#linear-gradient"/><linearGradient id="linear-gradient-85" x1="743.42" y1="607.71" x2="1622.3" y2="607.71" xlink:href="#linear-gradient"/><linearGradient id="linear-gradient-86" x1="746.62" y1="613.94" x2="1639.83" y2="613.94" xlink:href="#linear-gradient"/><linearGradient id="linear-gradient-87" x1="749.74" y1="620.13" x2="1657.35" y2="620.13" xlink:href="#linear-gradient"/><linearGradient id="linear-gradient-88" x1="752.77" y1="626.28" x2="1674.87" y2="626.28" xlink:href="#linear-gradient"/><linearGradient id="linear-gradient-89" x1="755.72" y1="632.39" x2="1692.39" y2="632.39" xlink:href="#linear-gradient"/><linearGradient id="linear-gradient-90" x1="758.58" y1="638.47" x2="1709.92" y2="638.47" xlink:href="#linear-gradient"/><linearGradient id="linear-gradient-91" x1="761.37" y1="644.52" x2="1727.44" y2="644.52" xlink:href="#linear-gradient"/><linearGradient id="linear-gradient-92" x1="764.07" y1="650.53" x2="1744.96" y2="650.53" xlink:href="#linear-gradient"/><linearGradient id="linear-gradient-93" x1="766.7" y1="656.5" x2="1762.48" y2="656.5" xlink:href="#linear-gradient"/><linearGradient id="linear-gradient-94" x1="769.25" y1="662.45" x2="1780.01" y2="662.45" xlink:href="#linear-gradient"/><linearGradient id="linear-gradient-95" x1="771.72" y1="668.37" x2="1797.53" y2="668.37" xlink:href="#linear-gradient"/><linearGradient id="linear-gradient-96" x1="774.13" y1="674.26" x2="1815.05" y2="674.26" xlink:href="#linear-gradient"/><linearGradient id="linear-gradient-97" x1="776.46" y1="680.12" x2="1832.57" y2="680.12" xlink:href="#linear-gradient"/><linearGradient id="linear-gradient-98" x1="778.72" y1="685.95" x2="1850.1" y2="685.95" xlink:href="#linear-gradient"/><linearGradient id="linear-gradient-99" x1="780.92" y1="691.74" x2="1867.62" y2="691.74" xlink:href="#linear-gradient"/><linearGradient id="linear-gradient-100" x1="783.06" y1="697.53" x2="1885.14" y2="697.53" xlink:href="#linear-gradient"/><linearGradient id="linear-gradient-101" x1="785.11" y1="703.29" x2="1902.66" y2="703.29" xlink:href="#linear-gradient"/><linearGradient id="linear-gradient-102" x1="787.11" y1="709.02" x2="1920.19" y2="709.02" xlink:href="#linear-gradient"/><linearGradient id="linear-gradient-103" x1="-.25" y1="221.15" x2="801.99" y2="221.15" xlink:href="#linear-gradient"/><linearGradient id="linear-gradient-104" x1="15.35" y1="226.69" x2="806.28" y2="226.69" xlink:href="#linear-gradient"/><linearGradient id="linear-gradient-105" x1="30.9" y1="232.2" x2="810.58" y2="232.2" xlink:href="#linear-gradient"/><linearGradient id="linear-gradient-106" x1="46.37" y1="237.71" x2="814.87" y2="237.71" xlink:href="#linear-gradient"/><linearGradient id="linear-gradient-107" x1="61.8" y1="243.19" x2="819.17" y2="243.19" xlink:href="#linear-gradient"/><linearGradient id="linear-gradient-108" x1="77.16" y1="248.64" x2="823.46" y2="248.64" xlink:href="#linear-gradient"/><linearGradient id="linear-gradient-109" x1="92.47" y1="254.07" x2="827.75" y2="254.07" xlink:href="#linear-gradient"/><linearGradient id="linear-gradient-110" x1="107.72" y1="259.48" x2="832.05" y2="259.48" xlink:href="#linear-gradient"/><linearGradient id="linear-gradient-111" x1="122.91" y1="264.86" x2="836.34" y2="264.86" xlink:href="#linear-gradient"/><linearGradient id="linear-gradient-112" x1="138.03" y1="270.21" x2="840.64" y2="270.21" xlink:href="#linear-gradient"/><linearGradient id="linear-gradient-113" x1="153.09" y1="275.54" x2="844.93" y2="275.54" xlink:href="#linear-gradient"/><linearGradient id="linear-gradient-114" x1="168.08" y1="280.84" x2="849.23" y2="280.84" xlink:href="#linear-gradient"/><linearGradient id="linear-gradient-115" x1="183.01" y1="286.11" x2="853.52" y2="286.11" xlink:href="#linear-gradient"/><linearGradient id="linear-gradient-116" x1="197.86" y1="291.35" x2="857.81" y2="291.35" xlink:href="#linear-gradient"/><linearGradient id="linear-gradient-117" x1="212.65" y1="296.57" x2="862.11" y2="296.57" xlink:href="#linear-gradient"/><linearGradient id="linear-gradient-118" x1="227.36" y1="301.75" x2="866.4" y2="301.75" xlink:href="#linear-gradient"/><linearGradient id="linear-gradient-119" x1="242" y1="306.89" x2="870.7" y2="306.89" xlink:href="#linear-gradient"/><linearGradient id="linear-gradient-120" x1="256.56" y1="312.01" x2="874.99" y2="312.01" xlink:href="#linear-gradient"/><linearGradient id="linear-gradient-121" x1="271.05" y1="317.08" x2="879.29" y2="317.08" xlink:href="#linear-gradient"/><linearGradient id="linear-gradient-122" x1="285.46" y1="322.13" x2="883.58" y2="322.13" xlink:href="#linear-gradient"/><linearGradient id="linear-gradient-123" x1="299.79" y1="327.13" x2="887.87" y2="327.13" xlink:href="#linear-gradient"/><linearGradient id="linear-gradient-124" x1="314.04" y1="332.1" x2="892.17" y2="332.1" xlink:href="#linear-gradient"/><linearGradient id="linear-gradient-125" x1="328.21" y1="337.03" x2="896.46" y2="337.03" xlink:href="#linear-gradient"/><linearGradient id="linear-gradient-126" x1="342.29" y1="341.91" x2="900.76" y2="341.91" xlink:href="#linear-gradient"/><linearGradient id="linear-gradient-127" x1="356.29" y1="346.76" x2="905.05" y2="346.76" xlink:href="#linear-gradient"/><linearGradient id="linear-gradient-128" x1="370.2" y1="351.56" x2="909.35" y2="351.56" xlink:href="#linear-gradient"/><linearGradient id="linear-gradient-129" x1="384.02" y1="356.32" x2="913.64" y2="356.32" xlink:href="#linear-gradient"/><linearGradient id="linear-gradient-130" x1="397.75" y1="361.03" x2="917.93" y2="361.03" xlink:href="#linear-gradient"/><linearGradient id="linear-gradient-131" x1="411.39" y1="365.69" x2="922.23" y2="365.69" xlink:href="#linear-gradient"/><linearGradient id="linear-gradient-132" x1="424.93" y1="370.31" x2="926.52" y2="370.31" xlink:href="#linear-gradient"/><linearGradient id="linear-gradient-133" x1="438.38" y1="374.87" x2="930.82" y2="374.87" xlink:href="#linear-gradient"/><linearGradient id="linear-gradient-134" x1="451.73" y1="379.39" x2="935.11" y2="379.39" xlink:href="#linear-gradient"/><linearGradient id="linear-gradient-135" x1="464.98" y1="383.85" x2="939.41" y2="383.85" xlink:href="#linear-gradient"/><linearGradient id="linear-gradient-136" x1="478.13" y1="388.26" x2="943.7" y2="388.26" xlink:href="#linear-gradient"/><linearGradient id="linear-gradient-137" x1="491.17" y1="392.62" x2="947.99" y2="392.62" xlink:href="#linear-gradient"/><linearGradient id="linear-gradient-138" x1="504.11" y1="396.91" x2="952.29" y2="396.91" xlink:href="#linear-gradient"/><linearGradient id="linear-gradient-139" x1="516.94" y1="401.16" x2="956.58" y2="401.16" xlink:href="#linear-gradient"/><linearGradient id="linear-gradient-140" x1="529.67" y1="405.34" x2="960.88" y2="405.34" xlink:href="#linear-gradient"/><linearGradient id="linear-gradient-141" x1="542.28" y1="409.46" x2="965.17" y2="409.46" xlink:href="#linear-gradient"/><linearGradient id="linear-gradient-142" x1="554.79" y1="413.53" x2="969.47" y2="413.53" xlink:href="#linear-gradient"/><linearGradient id="linear-gradient-143" x1="567.18" y1="417.53" x2="973.76" y2="417.53" xlink:href="#linear-gradient"/><linearGradient id="linear-gradient-144" x1="579.45" y1="421.47" x2="978.05" y2="421.47" xlink:href="#linear-gradient"/><linearGradient id="linear-gradient-145" x1="591.61" y1="425.34" x2="982.35" y2="425.34" xlink:href="#linear-gradient"/><linearGradient id="linear-gradient-146" x1="603.66" y1="429.15" x2="986.64" y2="429.15" xlink:href="#linear-gradient"/><linearGradient id="linear-gradient-147" x1="615.58" y1="432.9" x2="990.94" y2="432.9" xlink:href="#linear-gradient"/><linearGradient id="linear-gradient-148" x1="627.38" y1="436.58" x2="995.23" y2="436.58" xlink:href="#linear-gradient"/><linearGradient id="linear-gradient-149" x1="639.07" y1="440.19" x2="999.53" y2="440.19" xlink:href="#linear-gradient"/><linearGradient id="linear-gradient-150" x1="650.63" y1="443.74" x2="1003.82" y2="443.74" xlink:href="#linear-gradient"/><linearGradient id="linear-gradient-151" x1="662.07" y1="447.22" x2="1008.11" y2="447.22" xlink:href="#linear-gradient"/><linearGradient id="linear-gradient-152" x1="673.39" y1="450.63" x2="1012.41" y2="450.63" xlink:href="#linear-gradient"/><linearGradient id="linear-gradient-153" x1="684.58" y1="453.97" x2="1016.7" y2="453.97" xlink:href="#linear-gradient"/><linearGradient id="linear-gradient-154" x1="695.65" y1="460.29" x2="1027.77" y2="460.29" xlink:href="#linear-gradient"/><linearGradient id="linear-gradient-155" x1="706.6" y1="469.57" x2="1045.62" y2="469.57" xlink:href="#linear-gradient"/><linearGradient id="linear-gradient-156" x1="717.42" y1="478.78" x2="1063.47" y2="478.78" xlink:href="#linear-gradient"/><linearGradient id="linear-gradient-157" x1="728.13" y1="487.93" x2="1081.32" y2="487.93" xlink:href="#linear-gradient"/><linearGradient id="linear-gradient-158" x1="738.71" y1="497.01" x2="1099.17" y2="497.01" xlink:href="#linear-gradient"/><linearGradient id="linear-gradient-159" x1="749.17" y1="506.02" x2="1117.02" y2="506.02" xlink:href="#linear-gradient"/><linearGradient id="linear-gradient-160" x1="759.51" y1="514.97" x2="1134.86" y2="514.97" xlink:href="#linear-gradient"/><linearGradient id="linear-gradient-161" x1="769.72" y1="523.85" x2="1152.71" y2="523.85" xlink:href="#linear-gradient"/><linearGradient id="linear-gradient-162" x1="779.82" y1="532.66" x2="1170.56" y2="532.66" xlink:href="#linear-gradient"/><linearGradient id="linear-gradient-163" x1="789.81" y1="541.41" x2="1188.41" y2="541.41" xlink:href="#linear-gradient"/><linearGradient id="linear-gradient-164" x1="799.67" y1="550.1" x2="1206.26" y2="550.1" xlink:href="#linear-gradient"/><linearGradient id="linear-gradient-165" x1="809.43" y1="558.73" x2="1224.11" y2="558.73" xlink:href="#linear-gradient"/><linearGradient id="linear-gradient-166" x1="819.07" y1="567.29" x2="1241.95" y2="567.29" xlink:href="#linear-gradient"/><linearGradient id="linear-gradient-167" x1="828.59" y1="575.79" x2="1259.8" y2="575.79" xlink:href="#linear-gradient"/><linearGradient id="linear-gradient-168" x1="838.01" y1="584.23" x2="1277.65" y2="584.23" xlink:href="#linear-gradient"/><linearGradient id="linear-gradient-169" x1="847.32" y1="592.62" x2="1295.5" y2="592.62" xlink:href="#linear-gradient"/><linearGradient id="linear-gradient-170" x1="856.52" y1="600.95" x2="1313.35" y2="600.95" xlink:href="#linear-gradient"/><linearGradient id="linear-gradient-171" x1="865.62" y1="609.22" x2="1331.19" y2="609.22" xlink:href="#linear-gradient"/><linearGradient id="linear-gradient-172" x1="874.61" y1="617.43" x2="1349.04" y2="617.43" xlink:href="#linear-gradient"/><linearGradient id="linear-gradient-173" x1="883.51" y1="625.6" x2="1366.89" y2="625.6" xlink:href="#linear-gradient"/><linearGradient id="linear-gradient-174" x1="892.3" y1="633.71" x2="1384.74" y2="633.71" xlink:href="#linear-gradient"/><linearGradient id="linear-gradient-175" x1="901" y1="641.77" x2="1402.59" y2="641.77" xlink:href="#linear-gradient"/><linearGradient id="linear-gradient-176" x1="909.6" y1="649.78" x2="1420.44" y2="649.78" xlink:href="#linear-gradient"/><linearGradient id="linear-gradient-177" x1="918.1" y1="657.74" x2="1438.28" y2="657.74" xlink:href="#linear-gradient"/><linearGradient id="linear-gradient-178" x1="926.51" y1="665.66" x2="1456.13" y2="665.66" xlink:href="#linear-gradient"/><linearGradient id="linear-gradient-179" x1="934.84" y1="673.53" x2="1473.98" y2="673.53" xlink:href="#linear-gradient"/><linearGradient id="linear-gradient-180" x1="943.07" y1="681.35" x2="1491.83" y2="681.35" xlink:href="#linear-gradient"/><linearGradient id="linear-gradient-181" x1="951.21" y1="689.13" x2="1509.68" y2="689.13" xlink:href="#linear-gradient"/><linearGradient id="linear-gradient-182" x1="959.27" y1="696.87" x2="1527.53" y2="696.87" xlink:href="#linear-gradient"/><linearGradient id="linear-gradient-183" x1="967.25" y1="704.57" x2="1545.37" y2="704.57" xlink:href="#linear-gradient"/><linearGradient id="linear-gradient-184" x1="975.14" y1="712.23" x2="1563.22" y2="712.23" xlink:href="#linear-gradient"/><linearGradient id="linear-gradient-185" x1="982.95" y1="719.85" x2="1581.07" y2="719.85" xlink:href="#linear-gradient"/><linearGradient id="linear-gradient-186" x1="990.68" y1="727.43" x2="1598.92" y2="727.43" xlink:href="#linear-gradient"/><linearGradient id="linear-gradient-187" x1="998.34" y1="734.98" x2="1616.77" y2="734.98" xlink:href="#linear-gradient"/><linearGradient id="linear-gradient-188" x1="1005.92" y1="742.49" x2="1634.61" y2="742.49" xlink:href="#linear-gradient"/><linearGradient id="linear-gradient-189" x1="1013.42" y1="749.97" x2="1652.46" y2="749.97" xlink:href="#linear-gradient"/><linearGradient id="linear-gradient-190" x1="1020.85" y1="757.42" x2="1670.31" y2="757.42" xlink:href="#linear-gradient"/><linearGradient id="linear-gradient-191" x1="1028.21" y1="764.83" x2="1688.16" y2="764.83" xlink:href="#linear-gradient"/><linearGradient id="linear-gradient-192" x1="1035.49" y1="772.22" x2="1706.01" y2="772.22" xlink:href="#linear-gradient"/><linearGradient id="linear-gradient-193" x1="1042.71" y1="779.57" x2="1723.86" y2="779.57" xlink:href="#linear-gradient"/><linearGradient id="linear-gradient-194" x1="1049.86" y1="786.9" x2="1741.7" y2="786.9" xlink:href="#linear-gradient"/><linearGradient id="linear-gradient-195" x1="1056.95" y1="794.2" x2="1759.55" y2="794.2" xlink:href="#linear-gradient"/><linearGradient id="linear-gradient-196" x1="1063.97" y1="801.47" x2="1777.4" y2="801.47" xlink:href="#linear-gradient"/><linearGradient id="linear-gradient-197" x1="1070.92" y1="808.71" x2="1795.25" y2="808.71" xlink:href="#linear-gradient"/><linearGradient id="linear-gradient-198" x1="1077.82" y1="815.93" x2="1813.1" y2="815.93" xlink:href="#linear-gradient"/><linearGradient id="linear-gradient-199" x1="1084.65" y1="823.13" x2="1830.94" y2="823.13" xlink:href="#linear-gradient"/><linearGradient id="linear-gradient-200" x1="1091.42" y1="830.3" x2="1848.79" y2="830.3" xlink:href="#linear-gradient"/><linearGradient id="linear-gradient-201" x1="1098.14" y1="837.45" x2="1866.64" y2="837.45" xlink:href="#linear-gradient"/><linearGradient id="linear-gradient-202" x1="1104.81" y1="844.57" x2="1884.49" y2="844.57" xlink:href="#linear-gradient"/><linearGradient id="linear-gradient-203" x1="1111.4" y1="851.68" x2="1902.34" y2="851.68" xlink:href="#linear-gradient"/><linearGradient id="linear-gradient-204" x1="1117.95" y1="858.77" x2="1920.19" y2="858.77" xlink:href="#linear-gradient"/></defs><g class="cls-1" fill="none" stroke-miterlimit="10" stroke-width=".5"><path d="M1769.77 720.48A586.29 586.29 0 0 0 1920 327.74c0-325-263.46-588.46-588.45-588.46-174.07 0-330.48 75.58-438.22 195.71" stroke="url(#linear-gradient)" opacity=".36"/><path d="M894.06-52c107.69-120.07 263.18-196.41 435.52-198 321.77-3.55 579.75 254.42 576.2 576.2-1.9 149.43-59.87 286.55-153.54 391" stroke="url(#linear-gradient-2)" opacity=".36"/><path d="M894.79-39c107.64-120 262.2-197.12 432.82-200.41 318.56-7.1 571 245.38 563.94 563.94-3.8 147.94-62.91 284.52-156.83 389.24" stroke="url(#linear-gradient-3)" opacity=".36"/><path d="M895.52-25.94c107.59-120 261.23-197.44 430.12-202.76C1641-238.65 1888.79 7.68 1877.33 323c-5.33 146.46-66 282.49-160.13 387.49" stroke="url(#linear-gradient-4)" opacity=".36"/><path d="M896.24-12.92c107.56-119.92 260.28-198 427.43-205.11 312.16-13.26 554.72 227.36 539.44 539.44-7.1 145-69 280.45-163.43 385.74" stroke="url(#linear-gradient-5)" opacity=".36"/><path d="M897 .1c107.51-119.87 259.31-198.59 424.73-207.46C1630.67-223.94 1868 11 1848.88 319.82c-8.87 143.5-72.05 278.43-166.73 384" stroke="url(#linear-gradient-6)" opacity=".36"/><path d="M897.7 13.13c107.46-119.82 258.35-199.18 422-209.82 305.78-19.89 537.85 209.36 514.93 514.93-10.65 142-75.1 276.39-170 382.24" stroke="url(#linear-gradient-7)" opacity=".36"/><path d="M898.43 26.15C1005.84-93.62 1155.82-173.6 1317.76-186c302.6-23.21 529.42 200.37 502.68 502.68C1808 457.2 1742.29 591 1647.11 697.14" stroke="url(#linear-gradient-8)" opacity=".36"/><path d="M899.16 39.17c107.36-119.71 256.44-200.33 416.63-214.52 299.42-26.53 521 191.38 490.42 490.42C1792 454.15 1725 587.4 1629.59 693.81" stroke="url(#linear-gradient-9)" opacity=".36"/><path d="M899.89 52.2c107.32-119.67 255.49-200.92 413.93-216.88 296.26-29.85 512.53 182.41 478.18 478.17-16 137.61-84.24 270.3-179.93 377" stroke="url(#linear-gradient-10)" opacity=".36"/><path d="M900.61 65.22c107.28-119.61 254.55-201.5 411.24-219.22 293.09-33.17 504.09 173.44 465.92 465.92-17.77 136.15-87.29 268.26-183.23 375.23" stroke="url(#linear-gradient-11)" opacity=".36"/><path d="M901.34 78.24c107.23-119.56 253.6-202.08 408.54-221.58 289.93-36.49 495.64 164.47 453.66 453.66C1744 445 1673.2 576.56 1577 683.81" stroke="url(#linear-gradient-12)" opacity=".36"/><path d="M902.07 91.26c107.18-119.5 252.66-202.66 405.84-223.93 286.78-39.82 487.19 155.52 441.41 441.41C1728 442 1655.93 572.94 1559.5 680.47" stroke="url(#linear-gradient-13)" opacity=".36"/><path d="M902.8 104.29C1009.93-15.17 1154.52-99 1305.94-122c283.64-43.15 478.73 146.57 429.16 429.16C1712 439 1638.66 569.33 1542 677.14" stroke="url(#linear-gradient-14)" opacity=".36"/><path d="M903.53 117.31C1010.62-2.1 1154.31-86.53 1304-111.33c280.5-46.48 470.27 137.63 416.9 416.9-24.9 130.35-99.51 260.14-196.45 368.23" stroke="url(#linear-gradient-15)" opacity=".36"/><path d="M904.26 130.33C1011.3 11 1154.11-74.09 1302-100.66 1579.37-150.47 1763.81 28 1706.65 304c-26.7 128.9-102.53 258.11-199.72 366.48" stroke="url(#linear-gradient-16)" opacity=".36"/><path d="M905 143.36C1012 24.05 1153.91-61.66 1300-90c274.24-53.16 453.32 119.77 392.39 392.39-28.49 127.46-105.58 256.07-203 364.73" stroke="url(#linear-gradient-17)" opacity=".36"/><path d="M905.71 156.38c106.95-119.25 248-205.61 392.36-235.69 271.12-56.5 444.85 110.85 380.13 380.13-30.28 126-108.62 254.05-206.32 363" stroke="url(#linear-gradient-18)" opacity=".36"/><path d="M906.44 169.4c106.9-119.2 247.08-206.21 389.66-238 268-59.85 436.36 101.94 367.88 367.88-32.09 124.6-111.67 252-209.62 361.23" stroke="url(#linear-gradient-19)" opacity=".36"/><path d="M907.17 182.42C1014 63.28 1153.33-24.38 1294.13-58c264.9-63.2 427.87 93 355.63 355.63-33.89 123.17-114.72 250-212.92 359.47" stroke="url(#linear-gradient-20)" opacity=".36"/><path d="M907.9 195.45C1014.71 76.35 1153.14-12 1292.16-47.3c261.81-66.56 419.37 84.15 343.37 343.37-35.69 121.75-117.76 248-216.21 357.73" stroke="url(#linear-gradient-21)" opacity=".36"/><path d="M908.63 208.47c106.76-119 244.33-208 381.56-245.1 258.72-69.92 410.86 75.26 331.12 331.12-37.5 120.33-120.81 245.92-219.51 356" stroke="url(#linear-gradient-22)" opacity=".36"/><path d="M909.36 221.49C1016.07 102.5 1152.78 12.87 1288.22-26c255.63-73.29 402.34 66.38 318.87 318.87-39.32 118.91-123.86 243.88-222.82 354.22" stroke="url(#linear-gradient-23)" opacity=".36"/><path d="M910.08 234.52c106.68-118.94 242.52-209.24 376.17-249.81 252.55-76.66 393.82 57.5 306.61 306.61-41.13 117.5-126.9 241.86-226.11 352.48" stroke="url(#linear-gradient-24)" opacity=".36"/><path d="M910.81 247.54c106.63-118.89 241.62-209.85 373.47-252.16 249.48-80 385.28 48.63 294.36 294.36-43 116.09-130 239.82-229.41 350.72" stroke="url(#linear-gradient-25)" opacity=".36"/><path d="M911.54 260.56c106.58-118.84 240.71-210.47 370.77-254.51 246.41-83.44 376.69 39.77 282.11 282.11-44.78 114.68-133 237.79-232.71 349" stroke="url(#linear-gradient-26)" opacity=".36"/><path d="M912.27 273.58C1018.8 154.8 1152.09 62.49 1280.34 16.72c243.35-86.83 368.17 30.91 269.85 269.85-46.61 113.28-136 235.76-236 347.22" stroke="url(#linear-gradient-27)" opacity=".36"/><path d="M913 286.61c106.48-118.74 238.92-211.73 365.37-259.22C1518.67-62.85 1638 49.45 1536 285c-48.45 111.88-139.09 233.73-239.31 345.47" stroke="url(#linear-gradient-28)" opacity=".36"/><path d="M913.73 299.63C1020.17 181 1151.75 87.27 1276.4 38.06c237.25-93.65 351 13.2 245.35 245.35-50.29 110.47-142.14 231.69-242.61 343.72" stroke="url(#linear-gradient-29)" opacity=".36"/><path d="M914.45 312.65c106.4-118.63 237.14-213 360-263.92 234.2-97.07 342.42 4.36 233.09 233.09-52.13 109.08-145.18 229.67-245.9 342" stroke="url(#linear-gradient-30)" opacity=".36"/><path d="M915.18 325.68C1021.53 207.1 1151.43 112 1272.46 59.4c231.16-100.51 333.81-4.49 220.84 220.84-54 107.68-148.24 227.63-249.21 340.22" stroke="url(#linear-gradient-31)" opacity=".36"/><path d="M915.91 338.7c106.3-118.53 235.36-214.3 354.59-268.62 228.11-104 325.18-13.34 208.58 208.58-55.85 106.28-151.29 225.6-252.51 338.46" stroke="url(#linear-gradient-32)" opacity=".36"/><path d="M916.64 351.72c106.25-118.47 234.48-214.95 351.89-271 225.08-107.41 316.55-22.18 196.32 196.32-57.71 104.9-154.33 223.57-255.8 336.72" stroke="url(#linear-gradient-33)" opacity=".36"/><path d="M917.37 364.75C1023.58 246.32 1151 149.13 1266.56 91.42c222-110.87 307.9-31 184.07 184.07-59.58 103.5-157.38 221.54-259.1 335" stroke="url(#linear-gradient-34)" opacity=".36"/><path d="M918.1 377.77c106.16-118.37 232.71-216.28 346.49-275.68 219-114.35 299.24-39.87 171.82 171.82C1375 376 1276 493.41 1174 607.12" stroke="url(#linear-gradient-35)" opacity=".36"/><path d="M918.82 390.79c106.12-118.32 231.83-216.95 343.8-278 216-117.83 290.56-48.71 159.56 159.56-63.34 100.65-163.47 217.45-265.7 331.44" stroke="url(#linear-gradient-36)" opacity=".36"/><path d="M919.55 403.81c106.07-118.27 231-217.63 341.1-280.38C1473.62 2.1 1542.53 65.88 1408 270.74c-65.23 99.32-166.52 215.44-269 329.71" stroke="url(#linear-gradient-37)" opacity=".36"/><path d="M920.28 416.84c106-118.22 230.06-218.32 338.4-282.74 210-124.84 273.17-66.4 135.06 135.06-67.13 97.92-169.57 213.41-272.3 328" stroke="url(#linear-gradient-38)" opacity=".36"/><path d="M921 429.86c106-118.17 229.18-219 335.7-285.09 206.92-128.36 264.46-75.25 122.8 122.8-69 96.53-172.61 211.38-275.6 326.21" stroke="url(#linear-gradient-39)" opacity=".36"/><path d="M921.74 442.88c105.93-118.11 228.29-219.71 333-287.44C1458.63 23.55 1510.47 71.33 1365.29 266c-70.94 95.13-175.66 209.35-278.9 324.46" stroke="url(#linear-gradient-40)" opacity=".36"/><path d="M922.47 455.91c105.88-118.07 227.41-220.42 330.3-289.8 200.87-135.44 247-93 98.3 98.3-72.86 93.72-178.71 207.31-282.2 322.71" stroke="url(#linear-gradient-41)" opacity=".36"/><path d="M923.19 468.93c105.84-118 226.53-221.13 327.61-292.15 197.84-139 238.23-101.83 86 86-74.78 92.33-181.75 205.29-285.49 321" stroke="url(#linear-gradient-42)" opacity=".36"/><path d="M923.92 482c105.79-118 225.64-221.85 324.91-294.5 194.8-142.56 229.46-110.7 73.79 73.79-76.71 90.92-184.8 203.25-288.8 319.21" stroke="url(#linear-gradient-43)" opacity=".36"/><path d="M924.65 495c105.75-117.9 224.75-222.57 322.21-296.85C1438.63 52 1467.54 78.54 1308.4 259.66c-78.65 89.5-187.85 201.22-292.1 317.45" stroke="url(#linear-gradient-44)" opacity=".36"/><path d="M925.38 508c105.7-117.86 223.85-223.31 319.51-299.21 188.72-149.74 211.89-128.47 49.28 49.28-80.58 88.1-190.89 199.19-295.39 315.71" stroke="url(#linear-gradient-45)" opacity=".36"/><path d="M926.11 521c105.65-117.8 223-224 316.81-301.56 185.68-153.34 203.09-137.37 37 37-82.53 86.67-193.94 197.16-298.69 314" stroke="url(#linear-gradient-46)" opacity=".36"/><path d="M926.84 534c105.6-117.71 222.06-224.74 314.16-303.87 182.62-157 194.27-146.27 24.78 24.78-84.48 85.25-197 195.12-302 312.2" stroke="url(#linear-gradient-47)" opacity=".36"/><path d="M927.57 547.07c105.55-117.71 221.15-225.54 311.43-306.26 179.55-160.59 185.44-155.19 12.51 12.52-86.43 83.82-200 193.09-305.29 310.45" stroke="url(#linear-gradient-48)" opacity=".36"/><path d="M928.29 560.09C1033.81 442.44 1148.54 333.8 1237 251.48q264.72-246.34.26.26c-88.39 82.39-203.08 191.06-308.59 308.7" stroke="url(#linear-gradient-49)" opacity=".36"/><path d="M929 573.11c105.47-117.6 219.34-227 306-311 173.41-167.88 167.77-173-12-12-90.36 81-206.14 189-311.89 307" stroke="url(#linear-gradient-50)" opacity=".36"/><path d="M929.75 586.13c105.42-117.54 218.42-227.81 303.33-313.31 170.32-171.54 158.92-182-24.25-24.24-92.32 79.51-209.18 187-315.19 305.19" stroke="url(#linear-gradient-51)" opacity=".36"/><path d="M930.48 599.16c105.37-117.5 217.5-228.58 300.63-315.67 167.23-175.21 150.07-190.95-36.5-36.5-94.29 78.07-212.23 185-318.49 303.45" stroke="url(#linear-gradient-52)" opacity=".36"/><path d="M931.21 612.18c105.32-117.44 216.58-229.35 297.93-318 164.12-178.88 141.2-199.92-48.75-48.75C1084.12 322 965.11 428.34 858.6 547.11" stroke="url(#linear-gradient-53)" opacity=".36"/><path d="M931.94 625.2c105.28-117.39 215.64-230.13 295.23-320.37 161-182.57 132.34-208.9-61-61-98.25 75.17-218.33 180.9-325.09 299.94" stroke="url(#linear-gradient-54)" opacity=".36"/><path d="M932.66 638.23c105.24-117.34 214.72-230.92 292.54-322.73 157.88-186.26 123.47-217.89-73.26-73.26-100.22 73.69-221.37 178.87-328.39 298.2" stroke="url(#linear-gradient-55)" opacity=".36"/><path d="M933.39 651.25c105.19-117.29 213.77-231.7 289.84-325.08 154.74-190 114.59-226.89-85.51-85.51C1035.51 312.87 913.3 417.5 806 537.1" stroke="url(#linear-gradient-56)" opacity=".36"/><path d="M934.12 664.27C1039.26 547 1147 431.79 1221.26 336.84c151.59-193.67 105.71-235.9-97.77-97.76-104.18 70.73-227.46 174.8-335 294.69" stroke="url(#linear-gradient-57)" opacity=".36"/><path d="M934.85 677.29c105.09-117.18 211.87-233.29 284.44-329.78 148.42-197.38 96.83-244.93-110-110C1003.1 306.74 878.76 410.27 771 530.44" stroke="url(#linear-gradient-58)" opacity=".36"/><path d="M935.58 690.32c105.05-117.14 210.91-234.07 281.74-332.14 145.25-201.09 88-254-122.27-122.27-108.16 67.76-233.56 170.74-341.59 291.19" stroke="url(#linear-gradient-59)" opacity=".36"/><path d="M936.31 703.34c105-117.08 209.94-234.86 279-334.49 142.06-204.81 79.07-263-134.53-134.52C970.68 300.59 844.22 403 735.94 523.77" stroke="url(#linear-gradient-60)" opacity=".36"/><path d="M937 716.36c105-117 209-235.65 276.35-336.84 138.89-208.52 70.21-272.07-146.75-146.78C954.47 297.5 827 399.42 718.42 520.43" stroke="url(#linear-gradient-61)" opacity=".36"/><path d="M937.76 729.39c104.91-117 208-236.46 273.65-339.2 135.65-212.27 61.3-281.14-159-159C938.26 294.41 809.68 395.81 700.9 517.1" stroke="url(#linear-gradient-62)" opacity=".36"/><path d="M938.49 742.41c104.87-116.93 207-237.25 271-341.54 132.42-216 52.42-290.23-171.28-171.29-116.16 61.73-245.8 162.61-354.84 284.19" stroke="url(#linear-gradient-63)" opacity=".36"/><path d="M939.22 755.43c104.82-116.87 206-238 268.26-343.89C1336.65 191.81 1251 112.21 1023.93 228c-118.09 60.21-248.79 160.58-358.08 282.43" stroke="url(#linear-gradient-64)" opacity=".36"/><path d="M940 768.46c104.77-116.83 205-238.85 265.56-346.25 125.92-223.46 34.65-308.43-195.8-195.8C889.63 285.1 757.87 385 648.33 507.1" stroke="url(#linear-gradient-65)" opacity=".36"/><path d="M940.68 781.48c104.72-116.77 204-239.65 262.86-348.6 122.66-227.19 25.77-317.54-208-208C873.42 282 740.6 381.35 630.81 503.76" stroke="url(#linear-gradient-66)" opacity=".36"/><path d="M941.4 794.5c104.68-116.72 203-240.44 260.17-350.95 119.38-230.92 16.9-326.66-220.31-220.31-124 55.62-257.93 154.49-368 277.19" stroke="url(#linear-gradient-67)" opacity=".36"/><path d="M942.13 807.52c104.64-116.66 202-241.23 257.47-353.3 116.09-234.65 8-335.79-232.56-232.56-126 54.08-261 152.46-371.28 275.43" stroke="url(#linear-gradient-68)" opacity=".36"/><path d="M942.86 820.55c104.59-116.62 201-242 254.77-355.66 112.79-238.38-.84-344.93-244.81-244.81-128 52.53-264 150.42-374.58 273.68" stroke="url(#linear-gradient-69)" opacity=".36"/><path d="M943.59 833.57c104.54-116.57 200-242.83 252.07-358 109.48-242.1-9.7-354.08-257.07-257.07-130 51-267.08 148.4-377.87 271.94" stroke="url(#linear-gradient-70)" opacity=".36"/><path d="M944.32 846.59c104.49-116.51 198.95-243.59 249.37-360.36 106.16-245.82-18.56-363.23-269.32-269.32-132 49.42-270.13 146.36-381.17 270.18" stroke="url(#linear-gradient-71)" opacity=".36"/><path d="M945.05 859.62C1049.49 743.15 1143 615.21 1191.72 496.9c102.83-249.54-27.42-372.39-281.57-281.57C776.2 263.19 637 359.66 525.67 483.76" stroke="url(#linear-gradient-72)" opacity=".36"/><path d="M945.78 872.64c104.4-116.41 196.88-245.19 244-365.07 99.48-253.25-36.27-381.56-293.83-293.83C760 260 619.7 356 508.15 480.42" stroke="url(#linear-gradient-73)" opacity=".36"/><path d="M946.5 885.66c104.36-116.36 195.85-246 241.28-367.42 96.13-257-45.11-390.74-306.08-306.08-137.89 44.73-279.27 140.27-391.07 264.93" stroke="url(#linear-gradient-74)" opacity=".36"/><path d="M947.23 898.68c104.31-116.3 194.81-246.76 238.58-369.77 92.77-260.67-54-399.92-318.33-318.33-139.86 43.16-282.32 138.23-394.37 263.18" stroke="url(#linear-gradient-75)" opacity=".36"/><path d="M948 911.71c104.26-116.26 193.76-247.54 235.88-372.13 89.4-264.37-62.79-409.11-330.59-330.59-141.86 41.59-285.4 136.21-397.71 261.43" stroke="url(#linear-gradient-76)" opacity=".36"/><path d="M948.69 924.73c104.21-116.2 192.7-248.32 233.18-374.48 86-268.06-71.62-418.31-342.84-342.84-143.79 40-288.41 134.17-401 259.68" stroke="url(#linear-gradient-77)" opacity=".36"/><path d="M949.42 937.75c104.17-116.15 191.65-249.09 230.48-376.82 82.63-271.76-80.44-427.52-355.09-355.1C679.06 244.26 533.35 338 420.54 463.75" stroke="url(#linear-gradient-78)" opacity=".36"/><path d="M950.15 950.78c104.12-116.1 190.59-249.87 227.78-379.18 79.24-275.45-89.26-436.72-367.35-367.36-147.7 36.85-294.5 130.11-407.58 256.18" stroke="url(#linear-gradient-79)" opacity=".36"/><path d="M950.87 963.8C1055 847.75 1140.4 713.17 1176 582.27c75.83-279.12-98.08-445.93-379.61-379.61-149.69 35.26-297.58 128.08-410.9 254.42" stroke="url(#linear-gradient-80)" opacity=".36"/><path d="M951.6 976.82c104-116 188.47-251.4 222.4-383.88 72.42-282.8-106.89-455.15-391.86-391.86-151.62 33.67-300.6 126-414.17 252.67" stroke="url(#linear-gradient-81)" opacity=".36"/><path d="M952.33 989.84c104-115.94 187.4-252.16 219.7-386.23 69-286.46-115.69-464.37-404.12-404.12-153.56 32.08-303.64 124-417.46 250.93" stroke="url(#linear-gradient-82)" opacity=".36"/><path d="M953.06 1002.87C1057 887 1139.39 750 1170.06 614.28c65.59-290.12-124.48-473.59-416.37-416.37C598.18 228.4 447 319.89 332.93 447.08" stroke="url(#linear-gradient-83)" opacity=".36"/><path d="M953.79 1015.89C1057.68 900.05 1139 762.21 1168.09 625c62.16-293.78-133.27-482.81-428.62-428.62C582 225.22 429.73 316.28 315.4 443.75" stroke="url(#linear-gradient-84)" opacity=".36"/><path d="M954.52 1028.91c103.84-115.79 184.18-254.43 211.6-393.29 58.73-297.42-142.06-492-440.88-440.88C565.85 222 412.46 312.66 297.88 440.41" stroke="url(#linear-gradient-85)" opacity=".36"/><path d="M955.24 1041.94C1059 926.2 1138.35 786.76 1164.15 646.29 1219.45 345.23 1013.31 145 711 193.16c-161.34 25.7-315.83 115.89-430.66 243.92" stroke="url(#linear-gradient-86)" opacity=".36"/><path d="M956 1055c103.72-115.73 182-256 206.18-398C1214 352.26 1002.57 146.45 696.8 191.58c-163.28 24.09-318.88 113.85-434 242.17" stroke="url(#linear-gradient-87)" opacity=".36"/><path d="M956.7 1068c103.71-115.63 181-256.67 203.51-400.35C1208.63 359.3 991.83 147.89 682.57 190c-165.2 22.5-321.93 111.83-437.26 240.42" stroke="url(#linear-gradient-88)" opacity=".36"/><path d="M957.43 1081c103.66-115.58 179.87-257.41 200.81-402.7 45-311.95-177.15-529-489.89-489.89-167.14 20.89-325 109.79-440.56 238.67" stroke="url(#linear-gradient-89)" opacity=".36"/><path d="M958.16 1094c103.61-115.5 178.78-258.12 198.11-405 41.52-315.57-185.9-538.22-502.14-502.14-169.07 19.29-328 107.76-443.86 236.91" stroke="url(#linear-gradient-90)" opacity=".36"/><path d="M958.89 1107.05c103.56-115.48 177.7-258.88 195.41-407.41 38.07-319.18-194.66-547.46-514.4-514.4C468.91 202.93 308.83 291 192.75 420.41" stroke="url(#linear-gradient-91)" opacity=".36"/><path d="M959.61 1120.07c103.52-115.43 176.62-259.61 192.72-409.76C1187 387.53 948.92 153.6 625.68 183.66c-172.92 16.08-334.12 103.7-450.46 233.42" stroke="url(#linear-gradient-92)" opacity=".36"/><path d="M960.34 1133.1c103.48-115.38 175.53-260.35 190-412.11 31.16-326.39-212.15-566-538.9-538.91-174.82 14.47-337.15 101.66-453.74 231.66" stroke="url(#linear-gradient-93)" opacity=".36"/><path d="M961.07 1146.12c103.43-115.33 174.45-261.07 187.32-414.46 27.7-330-220.89-575.2-551.16-551.17-176.75 12.87-340.21 99.64-457 229.92" stroke="url(#linear-gradient-94)" opacity=".36"/><path d="M961.8 1159.14c103.38-115.27 173.36-261.79 184.62-416.81C1170.67 408.76 916.8 157.88 583 178.91c-178.67 11.26-343.26 97.6-460.35 228.16" stroke="url(#linear-gradient-95)" opacity=".36"/><path d="M962.53 1172.17c103.33-115.23 172.27-262.52 181.92-419.17 20.79-337.15-238.35-593.7-575.66-575.67C388.2 187 222.48 272.9 105.13 403.74" stroke="url(#linear-gradient-96)" opacity=".36"/><path d="M963.26 1185.19C1066.54 1070 1134.44 922 1142.49 763.67c17.31-340.73-247.09-602.95-587.93-587.92-182.5 8-349.35 93.53-466.95 224.65" stroke="url(#linear-gradient-97)" opacity=".36"/><path d="M964 1198.21c103.25-115.12 170.1-263.94 176.54-423.87 13.83-344.34-255.83-612.19-600.2-600.18-184.41 6.44-352.4 91.51-470.25 222.91" stroke="url(#linear-gradient-98)" opacity=".36"/><path d="M964.71 1211.23c103.2-115.06 169-264.65 173.84-426.22C1148.94 437.14 874 162.93 526.12 172.58c-186.33 4.48-355.45 89.47-473.55 221.16" stroke="url(#linear-gradient-99)" opacity=".36"/><path d="M965.44 1224.26c103.15-115 167.69-265.37 171.14-428.58C1143 444.24 863.33 164.56 511.89 171 323.66 174 153.4 258.44 35 390.4" stroke="url(#linear-gradient-100)" opacity=".36"/><path d="M966.17 1237.28c103.1-115 166.71-266.07 168.44-430.93 3.22-355-281.95-640.16-636.94-636.94-190.13 1.5-361.54 85.41-480.15 217.66" stroke="url(#linear-gradient-101)" opacity=".36"/><path d="M966.9 1250.3A646.8 646.8 0 0 0 1132.64 817c0-358.54-290.65-649.19-649.19-649.19-192 0-364.59 83.38-483.45 215.9" stroke="url(#linear-gradient-102)" opacity=".36"/></g><g class="cls-1" fill="none" stroke-miterlimit="10" stroke-width=".5"><path d="M117.33 604.34A457.86 457.86 0 0 1 0 297.61C0 43.8 205.76-161.95 459.57-161.95c135.94 0 258.09 59 342.23 152.84" stroke="url(#linear-gradient-103)" opacity=".36"/><path d="M806.1 3.27c-84-93.69-205.42-153.19-340-154.36-251.3-2.51-453 199.17-450.47 450.47C17 416.08 62.11 523.1 135.18 604.58" stroke="url(#linear-gradient-104)" opacity=".36"/><path d="M810.39 15.66c-83.92-93.57-204.53-153.55-337.78-155.89-248.79-5-446.39 192.58-441.37 441.37C33.93 416.67 79.85 523.22 153 604.81" stroke="url(#linear-gradient-105)" opacity=".36"/><path d="M814.69 28.05C730.88-65.4 611-125.6 479.13-129.37c-246.29-7-440.38 186-432.27 432.27 3.77 114.38 50.73 220.44 124 302.15" stroke="url(#linear-gradient-106)" opacity=".36"/><path d="M819 40.43C735.28-52.89 616.2-113.48 485.65-118.5c-243.78-9.39-434 179.44-423.16 423.16 5 113.22 52.83 218.79 126.23 300.63" stroke="url(#linear-gradient-107)" opacity=".36"/><path d="M823.27 52.82c-83.58-93.2-201.91-154.18-331.1-160.46C250.88-119.37 64.58 65.23 78.11 306.43c6.28 112.06 55 217.14 128.46 299.1" stroke="url(#linear-gradient-108)" opacity=".36"/><path d="M827.57 65.21c-83.48-93.08-201-154.45-328.88-162-238.79-14.07-421.19 166.31-405 405 7.54 110.91 57.07 215.49 130.69 297.58" stroke="url(#linear-gradient-109)" opacity=".36"/><path d="M831.86 77.59C748.5-15.36 631.69-77.12 505.22-85.91 268.91-102.34 90.42 73.84 109.35 310c8.8 109.71 59.19 213.8 132.92 296" stroke="url(#linear-gradient-110)" opacity=".36"/><path d="M836.16 90C752.9-2.85 636.85-65 511.74-75 277.92-93.82 103.34 78.14 125 311.72c10.06 108.6 61.3 212.2 135.14 294.53" stroke="url(#linear-gradient-111)" opacity=".36"/><path d="M840.45 102.37C757.31 9.66 642-52.88 518.26-64.19c-231.34-21.12-402 146.65-377.67 377.67C151.91 420.93 204 524 278 606.49" stroke="url(#linear-gradient-112)" opacity=".36"/><path d="M844.75 114.75c-83-92.58-197.58-155.52-320-168.07C295.92-76.8 129.19 86.78 156.21 315.24c12.58 106.31 65.54 208.91 139.6 291.49" stroke="url(#linear-gradient-113)" opacity=".36"/><path d="M849 127.14C766.12 34.68 652.33-28.65 531.3-42.46 304.92-68.29 142.11 91.1 171.84 317c13.83 105.17 67.65 207.26 141.82 290" stroke="url(#linear-gradient-114)" opacity=".36"/><path d="M853.33 139.53C770.52 47.19 657.48-16.54 537.82-31.6 313.91-59.78 155 95.43 187.46 318.77c15.1 104 69.76 205.61 144 288.44" stroke="url(#linear-gradient-115)" opacity=".36"/><path d="M857.63 151.91c-82.7-92.21-195-156.33-313.29-172.64C322.89-51.27 168 99.76 203.08 320.53c16.36 102.89 71.88 204 146.28 286.92" stroke="url(#linear-gradient-116)" opacity=".36"/><path d="M861.92 164.3C779.33 72.21 667.78 7.69 550.86-9.87c-219-32.89-370 114-332.16 332.16 17.63 101.75 74 202.32 148.5 285.4" stroke="url(#linear-gradient-117)" opacity=".36"/><path d="M866.22 176.69C783.74 84.72 672.93 19.81 557.38 1 340.85-34.26 193.84 108.44 234.32 324.06c18.89 100.61 76.12 200.67 150.73 283.87" stroke="url(#linear-gradient-118)" opacity=".36"/><path d="M870.51 189.07C788.14 97.23 678.08 31.92 563.91 11.86c-214.08-37.62-357.13 100.93-314 314 20.16 99.49 78.23 199 153 282.34" stroke="url(#linear-gradient-119)" opacity=".36"/><path d="M874.81 201.46C792.55 109.74 683.22 44 570.43 22.72c-211.63-40-350.71 94.43-304.87 304.86C287 425.94 345.91 525 420.75 608.4" stroke="url(#linear-gradient-120)" opacity=".36"/><path d="M879.1 213.85C797 122.25 688.36 56.13 577 33.58 367.76-8.76 232.67 121.51 281.19 329.34c22.69 97.24 82.46 195.73 157.41 279.3" stroke="url(#linear-gradient-121)" opacity=".36"/><path d="M883.39 226.24c-82-91.48-189.89-158-299.92-181.79C376.72-.26 245.62 125.87 296.81 331.11c24 96.11 84.58 194.08 159.64 277.77" stroke="url(#linear-gradient-122)" opacity=".36"/><path d="M887.69 238.62C805.76 147.27 698.63 80.35 590 55.31 385.68 8.23 258.58 130.24 312.43 332.87c25.24 95 86.69 192.44 161.86 276.25" stroke="url(#linear-gradient-123)" opacity=".36"/><path d="M892 251C810.17 159.78 703.77 92.45 596.51 66.17c-201.88-49.45-325 68.44-268.46 268.46 26.52 93.88 88.81 190.79 164.09 274.73" stroke="url(#linear-gradient-124)" opacity=".36"/><path d="M896.28 263.4C814.57 172.29 708.9 104.55 603 77c-199.42-51.8-318.49 62-259.33 259.4 27.8 92.75 90.93 189.14 166.33 273.2" stroke="url(#linear-gradient-125)" opacity=".36"/><path d="M900.57 275.78C819 184.81 714 116.65 609.55 87.9c-197-54.22-312.07 55.47-250.26 250.26 29.08 91.64 93 187.49 168.55 271.68" stroke="url(#linear-gradient-126)" opacity=".36"/><path d="M904.87 288.17c-81.49-90.85-185.71-159.42-288.8-189.41-194.61-56.6-305.61 49-241.16 241.16 30.37 90.54 95.16 185.85 170.78 270.16" stroke="url(#linear-gradient-127)" opacity=".36"/><path d="M909.16 300.56c-81.37-90.73-184.88-159.72-286.57-190.93-192.2-59-299.14 42.52-232 232.06 31.65 89.42 97.27 184.19 173 268.63" stroke="url(#linear-gradient-128)" opacity=".36"/><path d="M913.45 312.94c-81.26-90.6-184-160-284.33-192.45-189.8-61.39-292.68 36.06-223 223C439.1 431.77 505.55 526 581.38 610.56" stroke="url(#linear-gradient-129)" opacity=".36"/><path d="M917.75 325.33C836.6 234.85 734.53 165 635.64 131.35 448.25 67.56 349.44 161 421.78 345.21 456 432.43 523.29 526.12 599.23 610.8" stroke="url(#linear-gradient-130)" opacity=".36"/><path d="M922 337.72c-81-90.36-182.39-160.62-279.88-195.5C457.17 76 362.45 165.35 437.4 347c35.54 86.09 103.6 179.23 179.68 264" stroke="url(#linear-gradient-131)" opacity=".36"/><path d="M926.34 350.1c-80.93-90.23-181.57-160.91-277.66-197C466.08 84.47 375.47 169.76 453 348.74c36.84 85 105.74 177.61 181.91 262.54" stroke="url(#linear-gradient-132)" opacity=".36"/><path d="M930.63 362.49c-80.82-90.11-180.75-161.23-275.43-198.55C475 92.91 388.49 174.16 468.64 350.5c38.14 83.91 107.86 176 184.14 261" stroke="url(#linear-gradient-133)" opacity=".36"/><path d="M934.93 374.88c-80.71-90-179.93-161.54-273.21-200.07-177.81-73.46-260.19 3.76-177.46 177.45 39.45 82.82 110 174.32 186.36 259.49" stroke="url(#linear-gradient-134)" opacity=".36"/><path d="M939.22 387.26c-80.6-89.86-179.11-161.85-271-201.59C492.82 109.78 414.57 183 499.89 354 540.65 435.74 612 526.7 688.47 612" stroke="url(#linear-gradient-135)" opacity=".36"/><path d="M943.51 399.65C863 309.91 765.22 237.48 674.76 196.53c-173-78.32-247.14-9.13-159.25 159.26 42.08 80.62 114.2 171 190.81 256.44" stroke="url(#linear-gradient-136)" opacity=".36"/><path d="M947.81 412c-80.38-89.62-177.47-162.5-266.53-204.64-170.66-80.78-240.6-15.58-150.15 150.15 43.4 79.53 116.32 169.38 193 254.92" stroke="url(#linear-gradient-137)" opacity=".36"/><path d="M952.1 424.42c-80.26-89.49-176.65-162.82-264.29-206.16-168.28-83.23-234.06-22-141.06 141.05C591.48 437.75 665.19 527 742 612.71" stroke="url(#linear-gradient-138)" opacity=".36"/><path d="M956.4 436.81c-80.16-89.37-175.84-163.15-262.07-207.69-165.91-85.68-227.5-28.47-132 132 46.1 77.29 120.59 166.04 197.53 251.88" stroke="url(#linear-gradient-139)" opacity=".36"/><path d="M960.69 449.2c-80-89.25-175-163.49-259.84-209.22C537.32 151.83 479.92 205.06 578 362.84c47.39 76.24 122.67 164.43 199.72 250.35" stroke="url(#linear-gradient-140)" opacity=".36"/><path d="M965 461.59c-79.94-89.13-174.22-163.83-257.62-210.74C546.22 160.22 493 209.47 593.61 364.6c48.73 75.15 124.79 162.79 201.95 248.83" stroke="url(#linear-gradient-141)" opacity=".36"/><path d="M969.28 474c-79.82-89-173.4-164.17-255.39-212.26-158.78-93.14-207.76-47.86-104.65 104.63 50.07 74.05 126.9 161.14 204.17 247.3" stroke="url(#linear-gradient-142)" opacity=".36"/><path d="M973.57 486.36C893.86 397.48 801 321.83 720.41 272.57 564 177 519.25 218.29 624.86 368.13c51.42 72.95 129 159.49 206.4 245.78" stroke="url(#linear-gradient-143)" opacity=".36"/><path d="M977.87 498.75C898.27 410 806.1 333.87 726.93 283.44c-154-98.11-194.55-60.74-86.45 86.45 52.77 71.86 131.13 157.85 208.63 244.26" stroke="url(#linear-gradient-144)" opacity=".36"/><path d="M982.16 511.13C902.67 422.5 811.21 345.9 733.45 294.3c-151.65-100.62-187.93-67.2-77.35 77.35 54.13 70.76 133.25 156.2 210.9 242.74" stroke="url(#linear-gradient-145)" opacity=".36"/><path d="M986.46 523.52C907.08 435 816.32 357.92 740 305.16 590.7 202 558.67 231.5 671.72 373.42 727.21 443.07 807.09 528 884.8 614.63" stroke="url(#linear-gradient-146)" opacity=".36"/><path d="M990.75 535.91C911.48 447.52 821.44 369.94 746.5 316c-146.9-105.67-174.68-80.13-59.16 59.15 56.86 68.55 137.48 152.91 215.31 239.68" stroke="url(#linear-gradient-147)" opacity=".36"/><path d="M995.05 548.29C915.89 460 826.55 382 753 326.89c-144.49-108.21-168-86.6-50 50.05 58.19 67.45 139.56 151.26 217.5 238.16" stroke="url(#linear-gradient-148)" opacity=".36"/><path d="M999.34 560.68C920.29 472.54 831.67 394 759.54 337.75c-142.13-110.75-161.37-93.08-40.95 41C778.19 445 860.3 528.32 938.35 615.34" stroke="url(#linear-gradient-149)" opacity=".36"/><path d="M1003.63 573.07c-78.93-88-166.85-167.1-237.57-224.45-139.74-113.31-154.71-99.57-31.85 31.85 61 65.23 143.83 148 222 235.11" stroke="url(#linear-gradient-150)" opacity=".36"/><path d="M1007.93 585.45c-78.83-87.89-166-167.48-235.35-226-137.34-115.87-148-106.06-22.75 22.75C812.19 446.35 895.77 528.55 974 615.82" stroke="url(#linear-gradient-151)" opacity=".36"/><path d="M1012.22 597.84C933.51 510.07 847 430 779.1 370.34 644.16 251.9 637.74 257.79 765.45 384c63.75 63 148.06 144.67 226.44 232.07" stroke="url(#linear-gradient-152)" opacity=".36"/><path d="M1016.52 610.23c-78.61-87.65-164.37-168.27-230.9-229-132.54-121-134.68-119.06-4.55 4.55 65.14 61.87 150.18 143 228.67 230.54" stroke="url(#linear-gradient-153)" opacity=".36"/><path d="M1020.81 622.61C942.32 535.09 857.28 454 792.14 392.07c-130.13-123.61-128-125.57 4.55-4.55 66.53 60.75 152.3 141.38 230.9 229" stroke="url(#linear-gradient-154)" opacity=".36"/><path d="M1025.11 635c-78.39-87.4-162.7-169.07-226.45-232.07-127.66-126.2-121.29-132.09 13.65-13.65 67.93 59.62 154.41 139.72 233.13 227.5" stroke="url(#linear-gradient-155)" opacity=".36"/><path d="M1029.4 647.39c-78.27-87.28-161.85-169.48-224.21-233.59-125.29-128.8-114.6-138.63 22.75-22.75 69.32 58.48 156.52 138.08 235.34 226" stroke="url(#linear-gradient-156)" opacity=".36"/><path d="M1033.69 659.77c-78.16-87.15-161-169.88-222-235.11-122.84-131.42-107.87-145.16 31.87-31.85 70.72 57.35 158.64 136.43 237.57 224.45" stroke="url(#linear-gradient-157)" opacity=".36"/><path d="M1038 672.16c-78-87-160.16-170.3-219.76-236.64-120.42-134-101.18-151.7 40.95-40.95 72.13 56.21 160.76 134.79 239.8 222.93" stroke="url(#linear-gradient-158)" opacity=".36"/><path d="M1042.28 684.55C964.34 597.64 883 513.83 824.75 446.39c-118-136.66-94.46-158.26 50-50.06 73.53 55.07 162.87 133.15 242 221.41" stroke="url(#linear-gradient-159)" opacity=".36"/><path d="M1046.58 696.93c-77.83-86.78-158.45-171.13-215.31-239.68C715.75 318 743.53 292.43 890.42 398.1c74.94 53.91 165 131.49 244.26 219.88" stroke="url(#linear-gradient-160)" opacity=".36"/><path d="M1050.87 709.32c-77.72-86.65-157.59-171.55-213.08-241.21-113-141.91-81-171.39 68.25-68.25 76.35 52.76 167.11 129.85 246.49 218.35" stroke="url(#linear-gradient-161)" opacity=".36"/><path d="M1055.17 721.71c-77.61-86.53-156.73-172-210.86-242.73C733.73 334.43 770 301 921.66 401.62c77.76 51.6 169.23 128.2 248.71 216.83" stroke="url(#linear-gradient-162)" opacity=".36"/><path d="M1059.46 734.1C982 647.69 903.6 561.7 850.83 489.84c-108.09-147.19-67.57-184.57 86.46-86.45 79.17 50.43 171.33 126.55 250.93 215.3" stroke="url(#linear-gradient-163)" opacity=".36"/><path d="M1063.75 746.48c-77.38-86.28-155-172.82-206.4-245.78-105.6-149.83-60.84-191.16 95.56-95.55 80.58 49.26 173.45 124.9 253.16 213.78" stroke="url(#linear-gradient-164)" opacity=".36"/><path d="M1068.05 758.87C990.78 672.71 914 585.62 863.87 511.57c-103.1-152.49-54.12-197.77 104.66-104.66 82 48.09 175.57 123.26 255.39 212.26" stroke="url(#linear-gradient-165)" opacity=".36"/><path d="M1072.34 771.26c-77.16-86-153.22-173.68-201.94-248.83C769.8 367.3 823 318 984.15 408.67c83.41 46.91 177.69 121.62 257.62 210.74" stroke="url(#linear-gradient-166)" opacity=".36"/><path d="M1076.64 783.64c-77.05-85.91-152.33-174.11-199.72-250.35-98.07-157.78-40.67-211 122.85-122.85 84.82 45.72 179.8 120 259.85 209.21" stroke="url(#linear-gradient-167)" opacity=".36"/><path d="M1080.93 796C1004 710.24 929.49 621.49 883.44 544.16c-95.54-160.44-34-217.65 131.95-132 86.23 44.54 181.92 118.32 262.07 207.69" stroke="url(#linear-gradient-168)" opacity=".36"/><path d="M1085.23 808.42C1008.4 722.75 934.68 633.45 890 555c-93-163.06-27.27-224.26 141-141 87.65 43.35 184 116.67 264.3 206.17" stroke="url(#linear-gradient-169)" opacity=".36"/><path d="M1089.52 820.8c-76.72-85.54-149.64-175.39-193-254.92C806 400.15 876 335 1046.64 415.73c89 42.14 186.15 115 266.52 204.64" stroke="url(#linear-gradient-170)" opacity=".36"/><path d="M1093.81 833.19c-76.6-85.42-148.73-175.82-190.81-256.44-87.88-168.39-13.78-237.59 159.26-159.26 90.46 40.95 188.26 113.37 268.75 203.12" stroke="url(#linear-gradient-171)" opacity=".36"/><path d="M1098.11 845.58c-76.5-85.3-147.83-176.25-188.59-258-85.31-171-7.07-244.25 168.36-168.36 91.87 39.74 190.38 111.73 271 201.6" stroke="url(#linear-gradient-172)" opacity=".36"/><path d="M1102.4 858C1026 772.79 955.49 681.29 916 598.47c-82.69-173.69-.31-250.91 177.5-177.47 93.28 38.54 192.5 110.09 273.2 200.08" stroke="url(#linear-gradient-173)" opacity=".36"/><path d="M1106.7 870.35c-76.28-85.05-146-177.1-184.14-261-80.14-176.35 6.36-257.6 186.56-186.57 94.68 37.32 194.62 108.43 275.43 198.55" stroke="url(#linear-gradient-174)" opacity=".36"/><path d="M1111 882.74c-76.16-84.93-145.07-177.53-181.9-262.54-77.56-179 13.06-264.27 195.65-195.66 96.09 36.11 196.73 106.79 277.66 197" stroke="url(#linear-gradient-175)" opacity=".36"/><path d="M1115.29 895.12c-76.06-84.8-144.15-178-179.68-264.06-75-181.62 19.76-271 204.75-204.76 97.5 34.89 198.85 105.14 279.89 195.5" stroke="url(#linear-gradient-176)" opacity=".36"/><path d="M1119.58 907.51c-75.94-84.68-143.21-178.37-177.45-265.59-72.34-184.26 26.46-277.65 213.87-213.85 98.89 33.66 201 103.49 282.11 194" stroke="url(#linear-gradient-177)" opacity=".36"/><path d="M1123.87 919.9C1048 835.34 981.59 741.11 948.65 652.79c-69.72-186.9 33.16-284.35 223-223 100.25 32.48 203.04 101.89 284.35 192.49" stroke="url(#linear-gradient-178)" opacity=".36"/><path d="M1128.17 932.28c-75.72-84.43-141.35-179.2-173-268.63-67.09-189.53 39.85-291 232.06-232.06 101.69 31.22 205.19 100.2 286.56 190.93" stroke="url(#linear-gradient-179)" opacity=".36"/><path d="M1132.46 944.67c-75.61-84.31-140.4-179.62-170.77-270.16-64.45-192.16 46.54-297.76 241.16-241.15 103.08 30 207.31 98.55 288.79 189.4" stroke="url(#linear-gradient-180)" opacity=".36"/><path d="M1136.76 957.06c-75.5-84.19-139.47-180-168.55-271.68-61.81-194.79 53.23-304.48 250.26-250.26C1323 463.87 1427.9 532 1509.49 623" stroke="url(#linear-gradient-181)" opacity=".36"/><path d="M1141.05 969.44c-75.39-84.06-138.52-180.44-166.32-273.2-59.16-197.4 59.91-311.2 259.36-259.36 105.87 27.51 211.55 95.26 293.25 186.36" stroke="url(#linear-gradient-182)" opacity=".36"/><path d="M1145.35 981.83c-75.28-83.94-137.58-180.83-164.1-274.73-56.5-200 66.58-317.91 268.46-268.46 107.26 26.28 213.66 93.61 295.48 184.84" stroke="url(#linear-gradient-183)" opacity=".36"/><path d="M1149.64 994.22C1074.47 910.4 1013 813 987.78 718c-53.85-202.66 73.22-324.68 277.56-277.59 108.64 25 215.77 92 297.7 183.31" stroke="url(#linear-gradient-184)" opacity=".36"/><path d="M1153.93 1006.61c-75-83.7-135.66-181.67-159.63-277.78-51.19-205.24 79.91-331.37 286.7-286.66C1391 466 1498.85 532.49 1580.88 624" stroke="url(#linear-gradient-185)" opacity=".36"/><path d="M1158.23 1019c-75-83.57-134.72-182.06-157.41-279.3-48.52-207.84 86.57-338.1 295.76-295.76 111.41 22.55 220 88.67 302.15 180.27" stroke="url(#linear-gradient-186)" opacity=".36"/><path d="M1162.52 1031.38c-74.83-83.45-133.75-182.46-155.18-280.82-45.84-210.44 93.23-344.84 304.86-304.86 112.79 21.3 222.12 87 304.38 178.74" stroke="url(#linear-gradient-187)" opacity=".36"/><path d="M1166.82 1043.77c-74.73-83.33-132.8-182.86-153-282.35-43.16-213 99.89-351.57 314-314 114.17 20.06 224.24 85.37 306.61 177.22" stroke="url(#linear-gradient-188)" opacity=".36"/><path d="M1171.11 1056.15C1096.5 973 1039.27 872.9 1020.38 772.28 979.9 556.67 1126.91 414 1343.44 449.22 1459 468 1569.8 533 1652.28 624.92" stroke="url(#linear-gradient-189)" opacity=".36"/><path d="M1175.41 1068.54c-74.51-83.08-130.88-183.64-148.51-285.39C989.1 565 1140.08 418.09 1359.06 451c116.92 17.57 228.48 82.09 311.06 174.17" stroke="url(#linear-gradient-190)" opacity=".36"/><path d="M1179.7 1080.93c-74.39-83-129.91-184-146.28-286.92-35.11-220.77 119.82-371.8 341.27-341.26C1493 469.06 1605.27 533.18 1688 625.39" stroke="url(#linear-gradient-191)" opacity=".36"/><path d="M1184 1093.31c-74.28-82.83-129-184.41-144-288.44-32.41-223.34 126.45-378.54 350.37-350.36C1510 469.57 1623 533.3 1705.82 625.63" stroke="url(#linear-gradient-192)" opacity=".36"/><path d="M1188.29 1105.7c-74.17-82.71-128-184.8-141.82-290-29.73-225.91 133.08-385.3 359.46-359.47 121 13.81 234.82 77.14 317.74 169.6" stroke="url(#linear-gradient-193)" opacity=".36"/><path d="M1192.58 1118.09c-74.06-82.59-127-185.18-139.59-291.49-27-228.47 139.7-392 368.56-368.56 122.39 12.55 236.94 75.49 320 168.07" stroke="url(#linear-gradient-194)" opacity=".36"/><path d="M1196.88 1130.47c-74-82.46-126.06-185.55-137.37-293-24.33-231 146.33-398.79 377.66-377.66 123.76 11.3 239 73.84 322.2 166.55" stroke="url(#linear-gradient-195)" opacity=".36"/><path d="M1201.17 1142.86c-73.84-82.33-125.08-185.93-135.14-294.53-21.63-233.58 152.97-405.54 386.76-386.77 125.12 10.05 241.17 72.2 324.42 165" stroke="url(#linear-gradient-196)" opacity=".36"/><path d="M1205.47 1155.25c-73.73-82.21-124.12-186.31-132.92-296.06-18.93-236.12 159.56-412.29 395.86-395.87 126.48 8.8 243.29 70.56 326.65 163.51" stroke="url(#linear-gradient-197)" opacity=".36"/><path d="M1209.76 1167.63c-73.62-82.08-123.15-186.67-130.69-297.58-16.23-238.66 166.17-419 405-405 127.83 7.53 245.39 68.9 328.87 162" stroke="url(#linear-gradient-198)" opacity=".36"/><path d="M1214.05 1180c-73.5-82-122.17-187-128.46-299.1-13.52-241.2 172.78-425.8 414.07-414.07 129.19 6.28 247.51 67.26 331.1 160.46" stroke="url(#linear-gradient-199)" opacity=".36"/><path d="M1218.35 1192.41c-73.4-81.84-121.21-187.41-126.24-300.63-10.82-243.73 179.38-432.55 423.17-423.17 130.54 5 249.63 65.61 333.33 158.94" stroke="url(#linear-gradient-200)" opacity=".36"/><path d="M1222.64 1204.79c-73.28-81.71-120.24-187.77-124-302.15-8.11-246.25 186-439.3 432.27-432.26 131.9 3.76 251.75 64 335.56 157.41" stroke="url(#linear-gradient-201)" opacity=".36"/><path d="M1226.94 1217.18c-73.18-81.59-119.09-188.14-121.79-303.67-5-248.79 192.59-446.4 441.37-441.37 133.25 2.33 253.86 62.32 337.78 155.89" stroke="url(#linear-gradient-202)" opacity=".36"/><path d="M1231.23 1229.57c-73.06-81.47-118.21-188.5-119.55-305.2-2.52-251.3 199.16-453 450.46-450.47 134.6 1.17 256 60.67 340 154.37" stroke="url(#linear-gradient-203)" opacity=".36"/><path d="M1235.53 1242a457.81 457.81 0 0 1-117.33-306.77c0-253.81 205.75-459.57 459.56-459.57 136 0 258.1 59 342.24 152.84" stroke="url(#linear-gradient-204)" opacity=".36"/></g></svg>