<svg xmlns="http://www.w3.org/2000/svg" viewBox="0 0 2377.28 894.45"><defs><linearGradient id="a" x1="913.11" y1="752.4" x2="1470.07" y2="-212.28" gradientUnits="userSpaceOnUse"><stop offset="0" stop-color="#ea334a"/><stop offset="1" stop-color="#f05d44"/></linearGradient><linearGradient id="b" x1="884.63" y1="782.25" x2="1486.03" y2="-227.03" gradientTransform="matrix(.97 0 0 1 36.5 0)" gradientUnits="userSpaceOnUse"><stop offset="0" stop-color="#ea364c"/><stop offset="1" stop-color="#f05c44"/></linearGradient><linearGradient id="c" x1="854.31" y1="812.86" x2="1503.11" y2="-242.61" gradientTransform="matrix(.95 0 0 1 73 0)" gradientUnits="userSpaceOnUse"><stop offset="0" stop-color="#eb384f"/><stop offset="1" stop-color="#f05b43"/></linearGradient><linearGradient id="d" x1="822.02" y1="844.3" x2="1521.39" y2="-259.08" gradientTransform="matrix(.92 0 0 1 109.5 0)" gradientUnits="userSpaceOnUse"><stop offset="0" stop-color="#eb3b51"/><stop offset="1" stop-color="#f05a43"/></linearGradient><linearGradient id="e" x1="787.6" y1="876.63" x2="1540.99" y2="-276.5" gradientTransform="matrix(.89 0 0 1 146 0)" gradientUnits="userSpaceOnUse"><stop offset="0" stop-color="#eb3e54"/><stop offset="1" stop-color="#f05a42"/></linearGradient><linearGradient id="f" x1="750.88" y1="909.94" x2="1561.99" y2="-294.97" gradientTransform="matrix(.87 0 0 1 182.5 0)" gradientUnits="userSpaceOnUse"><stop offset="0" stop-color="#eb4056"/><stop offset="1" stop-color="#f05942"/></linearGradient><linearGradient id="g" x1="711.65" y1="944.29" x2="1584.52" y2="-314.56" gradientTransform="matrix(.84 0 0 1 219 0)" gradientUnits="userSpaceOnUse"><stop offset="0" stop-color="#ec4358"/><stop offset="1" stop-color="#f05841"/></linearGradient><linearGradient id="h" x1="669.7" y1="979.81" x2="1608.72" y2="-335.37" gradientTransform="matrix(.82 0 0 1 255.51 0)" gradientUnits="userSpaceOnUse"><stop offset="0" stop-color="#ec465b"/><stop offset="1" stop-color="#f05741"/></linearGradient><linearGradient id="i" x1="624.76" y1="1016.59" x2="1634.74" y2="-357.53" gradientTransform="matrix(.79 0 0 1 292.01 0)" gradientUnits="userSpaceOnUse"><stop offset="0" stop-color="#ec485d"/><stop offset="1" stop-color="#f05641"/></linearGradient><linearGradient id="j" x1="576.56" y1="1054.76" x2="1662.75" y2="-381.15" gradientTransform="matrix(.76 0 0 1 328.51 0)" gradientUnits="userSpaceOnUse"><stop offset="0" stop-color="#ec4b5f"/><stop offset="1" stop-color="#f05540"/></linearGradient><linearGradient id="k" x1="524.77" y1="1094.48" x2="1692.95" y2="-406.4" gradientTransform="matrix(.74 0 0 1 365.01 0)" gradientUnits="userSpaceOnUse"><stop offset="0" stop-color="#ed4e62"/><stop offset="1" stop-color="#f05440"/></linearGradient><linearGradient id="l" x1="469" y1="1135.91" x2="1725.58" y2="-433.44" gradientTransform="matrix(.71 0 0 1 401.51 0)" gradientUnits="userSpaceOnUse"><stop offset="0" stop-color="#ed5164"/><stop offset="1" stop-color="#f0543f"/></linearGradient><linearGradient id="m" x1="408.82" y1="1179.25" x2="1760.89" y2="-462.48" gradientTransform="matrix(.68 0 0 1 438.01 0)" gradientUnits="userSpaceOnUse"><stop offset="0" stop-color="#ed5367"/><stop offset="1" stop-color="#f0533f"/></linearGradient><linearGradient id="n" x1="343.72" y1="1224.73" x2="1799.18" y2="-493.73" gradientTransform="matrix(.66 0 0 1 474.51 0)" gradientUnits="userSpaceOnUse"><stop offset="0" stop-color="#ee5669"/><stop offset="1" stop-color="#ef523f"/></linearGradient><linearGradient id="o" x1="273.12" y1="1272.62" x2="1840.83" y2="-527.48" gradientTransform="matrix(.63 0 0 1 511.01 0)" gradientUnits="userSpaceOnUse"><stop offset="0" stop-color="#ee596b"/><stop offset="1" stop-color="#ef513e"/></linearGradient><linearGradient id="p" x1="196.32" y1="1323.22" x2="1886.23" y2="-564.04" gradientTransform="matrix(.61 0 0 1 547.51 0)" gradientUnits="userSpaceOnUse"><stop offset="0" stop-color="#ee5b6e"/><stop offset="1" stop-color="#ef503e"/></linearGradient><linearGradient id="q" x1="112.51" y1="1376.93" x2="1935.88" y2="-603.78" gradientTransform="matrix(.58 0 0 1 584.01 0)" gradientUnits="userSpaceOnUse"><stop offset="0" stop-color="#ee5e70"/><stop offset="1" stop-color="#ef4f3d"/></linearGradient><linearGradient id="r" x1="20.7" y1="1434.17" x2="1990.37" y2="-647.16" gradientTransform="matrix(.55 0 0 1 620.51 0)" gradientUnits="userSpaceOnUse"><stop offset="0" stop-color="#ef6172"/><stop offset="1" stop-color="#ef4e3d"/></linearGradient><linearGradient id="s" x1="-80.26" y1="1495.5" x2="2050.4" y2="-694.71" gradientTransform="matrix(.53 0 0 1 657.01 0)" gradientUnits="userSpaceOnUse"><stop offset="0" stop-color="#ef6375"/><stop offset="1" stop-color="#ef4e3c"/></linearGradient><linearGradient id="t" x1="-191.81" y1="1561.55" x2="2116.82" y2="-747.08" gradientTransform="matrix(.5 0 0 1 693.52 0)" gradientUnits="userSpaceOnUse"><stop offset="0" stop-color="#ef6677"/><stop offset="1" stop-color="#ef4d3c"/></linearGradient><linearGradient id="u" x1="-315.66" y1="1633.12" x2="2190.67" y2="-805.08" gradientTransform="matrix(.47 0 0 1 730.02 0)" gradientUnits="userSpaceOnUse"><stop offset="0" stop-color="#f0697a"/><stop offset="1" stop-color="#ef4c3c"/></linearGradient><linearGradient id="v" x1="-453.97" y1="1711.2" x2="2273.24" y2="-869.69" gradientTransform="matrix(.45 0 0 1 766.52 0)" gradientUnits="userSpaceOnUse"><stop offset="0" stop-color="#f06b7c"/><stop offset="1" stop-color="#ef4b3b"/></linearGradient><linearGradient id="w" x1="-609.39" y1="1797.02" x2="2366.12" y2="-942.14" gradientTransform="matrix(.42 0 0 1 803.02 0)" gradientUnits="userSpaceOnUse"><stop offset="0" stop-color="#f06e7e"/><stop offset="1" stop-color="#ef4a3b"/></linearGradient><linearGradient id="x" x1="-785.33" y1="1892.13" x2="2471.36" y2="-1024" gradientTransform="matrix(.39 0 0 1 839.52 0)" gradientUnits="userSpaceOnUse"><stop offset="0" stop-color="#f07181"/><stop offset="1" stop-color="#ef493a"/></linearGradient><linearGradient id="y" x1="-986.15" y1="1998.54" x2="2591.56" y2="-1117.29" gradientTransform="matrix(.37 0 0 1 876.02 0)" gradientUnits="userSpaceOnUse"><stop offset="0" stop-color="#f17383"/><stop offset="1" stop-color="#ef483a"/></linearGradient><linearGradient id="z" x1="-1217.53" y1="2118.87" x2="2730.14" y2="-1224.63" gradientTransform="matrix(.34 0 0 1 912.52 0)" gradientUnits="userSpaceOnUse"><stop offset="0" stop-color="#f17686"/><stop offset="1" stop-color="#ef4839"/></linearGradient><linearGradient id="A" x1="-1487.08" y1="2256.64" x2="2891.66" y2="-1349.54" gradientTransform="matrix(.32 0 0 1 949.02 0)" gradientUnits="userSpaceOnUse"><stop offset="0" stop-color="#f17988"/><stop offset="1" stop-color="#ef4739"/></linearGradient><linearGradient id="B" x1="-1805.15" y1="2416.62" x2="3082.35" y2="-1496.8" gradientTransform="matrix(.29 0 0 1 985.52 0)" gradientUnits="userSpaceOnUse"><stop offset="0" stop-color="#f17b8a"/><stop offset="1" stop-color="#ef4639"/></linearGradient><linearGradient id="C" x1="-2186.18" y1="2605.6" x2="3310.99" y2="-1673.02" gradientTransform="matrix(.26 0 0 1 1022.02 0)" gradientUnits="userSpaceOnUse"><stop offset="0" stop-color="#f27e8d"/><stop offset="1" stop-color="#ef4538"/></linearGradient><linearGradient id="D" x1="-2651.11" y1="2833.25" x2="3590.15" y2="-1887.88" gradientTransform="matrix(.24 0 0 1 1058.52 0)" gradientUnits="userSpaceOnUse"><stop offset="0" stop-color="#f2818f"/><stop offset="1" stop-color="#ef4438"/></linearGradient><linearGradient id="E" x1="-3231.4" y1="3114.1" x2="3938.71" y2="-2155.91" gradientTransform="matrix(.21 0 0 1 1095.02 0)" gradientUnits="userSpaceOnUse"><stop offset="0" stop-color="#f28491"/><stop offset="1" stop-color="#ef4337"/></linearGradient><linearGradient id="F" x1="-3976.41" y1="3470.97" x2="4386.33" y2="-2499.91" gradientTransform="matrix(.18 0 0 1 1131.53 0)" gradientUnits="userSpaceOnUse"><stop offset="0" stop-color="#f38694"/><stop offset="1" stop-color="#ef4237"/></linearGradient><linearGradient id="G" x1="-4968.47" y1="3941.88" x2="4982.44" y2="-2957.93" gradientTransform="matrix(.16 0 0 1 1168.03 0)" gradientUnits="userSpaceOnUse"><stop offset="0" stop-color="#f38996"/><stop offset="1" stop-color="#ef4237"/></linearGradient><linearGradient id="H" x1="-6355.74" y1="4595.29" x2="5816.04" y2="-3598.43" gradientTransform="matrix(.13 0 0 1 1204.53 0)" gradientUnits="userSpaceOnUse"><stop offset="0" stop-color="#f38c99"/><stop offset="1" stop-color="#ef4136"/></linearGradient><linearGradient id="I" x1="-8434.56" y1="5568.13" x2="7065.12" y2="-4558.32" gradientTransform="matrix(.11 0 0 1 1241.03 0)" gradientUnits="userSpaceOnUse"><stop offset="0" stop-color="#f38e9b"/><stop offset="1" stop-color="#ef4036"/></linearGradient><linearGradient id="J" x1="-11896.38" y1="7179.89" x2="9145.01" y2="-6157.12" gradientTransform="matrix(.08 0 0 1 1277.53 0)" gradientUnits="userSpaceOnUse"><stop offset="0" stop-color="#f4919d"/><stop offset="1" stop-color="#ef3f35"/></linearGradient><linearGradient id="K" x1="-18799.33" y1="10415.39" x2="13402.58" y2="-9379.05" gradientTransform="matrix(.05 0 0 1 1314.03 0)" gradientUnits="userSpaceOnUse"><stop offset="0" stop-color="#f494a0"/><stop offset="1" stop-color="#ef3e35"/></linearGradient><linearGradient id="L" x1="-39531.71" y1="20041.66" x2="25974.58" y2="-18991.62" gradientTransform="matrix(.03 0 0 1 1350.53 0)" gradientUnits="userSpaceOnUse"><stop offset="0" stop-color="#f496a2"/><stop offset="1" stop-color="#ef3d34"/></linearGradient><linearGradient id="M" x1="3189.5" y1="-4257.96" x2="5213.18" y2="-5426.33" gradientTransform="matrix(0 0 0 1 1387.03 0)" gradientUnits="userSpaceOnUse"><stop offset="0" stop-color="#f599a5"/><stop offset="1" stop-color="#ef3c34"/></linearGradient><linearGradient id="N" x1="-24291.04" y1="19454.23" x2="43370.21" y2="-18376.68" gradientTransform="matrix(-.03 0 0 1 1423.53 0)" gradientUnits="userSpaceOnUse"><stop offset="0" stop-color="#f59ca7"/><stop offset="1" stop-color="#ee3c34"/></linearGradient><linearGradient id="O" x1="-11718.65" y1="9841.97" x2="22637.5" y2="-8750.64" gradientTransform="matrix(-.05 0 0 1 1460.03 0)" gradientUnits="userSpaceOnUse"><stop offset="0" stop-color="#f59ea9"/><stop offset="1" stop-color="#ee3b33"/></linearGradient><linearGradient id="P" x1="-7524.99" y1="6637.65" x2="15723.21" y2="-5532.54" gradientTransform="matrix(-.08 0 0 1 1496.53 0)" gradientUnits="userSpaceOnUse"><stop offset="0" stop-color="#f5a1ac"/><stop offset="1" stop-color="#ee3a33"/></linearGradient><linearGradient id="Q" x1="-5425.93" y1="5035.38" x2="12263.45" y2="-3916.49" gradientTransform="matrix(-.11 0 0 1 1533.03 0)" gradientUnits="userSpaceOnUse"><stop offset="0" stop-color="#f6a4ae"/><stop offset="1" stop-color="#ee3932"/></linearGradient><linearGradient id="R" x1="-4164.65" y1="4074.01" x2="10185.43" y2="-2941.32" gradientTransform="matrix(-.13 0 0 1 1569.54 0)" gradientUnits="userSpaceOnUse"><stop offset="0" stop-color="#f6a6b0"/><stop offset="1" stop-color="#ee3832"/></linearGradient><linearGradient id="S" x1="-3322.19" y1="3433.12" x2="8798.23" y2="-2286.65" gradientTransform="matrix(-.16 0 0 1 1606.04 0)" gradientUnits="userSpaceOnUse"><stop offset="0" stop-color="#f6a9b3"/><stop offset="1" stop-color="#ee3731"/></linearGradient><linearGradient id="T" x1="-2719.02" y1="2975.4" x2="7805.74" y2="-1815.16" gradientTransform="matrix(-.18 0 0 1 1642.54 0)" gradientUnits="userSpaceOnUse"><stop offset="0" stop-color="#f6acb5"/><stop offset="1" stop-color="#ee3731"/></linearGradient><linearGradient id="U" x1="-2265.36" y1="2632.21" x2="7059.89" y2="-1458.22" gradientTransform="matrix(-.21 0 0 1 1679.04 0)" gradientUnits="userSpaceOnUse"><stop offset="0" stop-color="#f7aeb8"/><stop offset="1" stop-color="#ee3631"/></linearGradient><linearGradient id="V" x1="-1911.35" y1="2365.4" x2="6478.44" y2="-1177.68" gradientTransform="matrix(-.24 0 0 1 1715.54 0)" gradientUnits="userSpaceOnUse"><stop offset="0" stop-color="#f7b1ba"/><stop offset="1" stop-color="#ee3530"/></linearGradient><linearGradient id="W" x1="-1627.07" y1="2152.07" x2="6012.04" y2="-950.67" gradientTransform="matrix(-.26 0 0 1 1752.04 0)" gradientUnits="userSpaceOnUse"><stop offset="0" stop-color="#f7b4bc"/><stop offset="1" stop-color="#ee3430"/></linearGradient><linearGradient id="X" x1="-1393.47" y1="1977.65" x2="5629.28" y2="-762.64" gradientTransform="matrix(-.29 0 0 1 1788.54 0)" gradientUnits="userSpaceOnUse"><stop offset="0" stop-color="#f8b7bf"/><stop offset="1" stop-color="#ee332f"/></linearGradient><linearGradient id="Y" x1="-1197.87" y1="1832.44" x2="5309.23" y2="-603.87" gradientTransform="matrix(-.32 0 0 1 1825.04 0)" gradientUnits="userSpaceOnUse"><stop offset="0" stop-color="#f8b9c1"/><stop offset="1" stop-color="#ee322f"/></linearGradient><linearGradient id="Z" x1="-1031.48" y1="1709.7" x2="5037.39" y2="-467.67" gradientTransform="matrix(-.34 0 0 1 1861.54 0)" gradientUnits="userSpaceOnUse"><stop offset="0" stop-color="#f8bcc3"/><stop offset="1" stop-color="#ee312f"/></linearGradient><linearGradient id="aa" x1="-888.02" y1="1604.62" x2="4803.4" y2="-349.25" gradientTransform="matrix(-.37 0 0 1 1898.04 0)" gradientUnits="userSpaceOnUse"><stop offset="0" stop-color="#f8bfc6"/><stop offset="1" stop-color="#ee312e"/></linearGradient><linearGradient id="ab" x1="-762.9" y1="1513.66" x2="4599.67" y2="-245.1" gradientTransform="matrix(-.39 0 0 1 1934.54 0)" gradientUnits="userSpaceOnUse"><stop offset="0" stop-color="#f9c1c8"/><stop offset="1" stop-color="#ee302e"/></linearGradient><linearGradient id="ac" x1="-652.64" y1="1434.27" x2="4420.58" y2="-152.51" gradientTransform="matrix(-.42 0 0 1 1971.04 0)" gradientUnits="userSpaceOnUse"><stop offset="0" stop-color="#f9c4cb"/><stop offset="1" stop-color="#ee2f2d"/></linearGradient><linearGradient id="ad" x1="-542.48" y1="1356.81" x2="4260.65" y2="-73.14" gradientTransform="matrix(-.45 0 0 1 2007.55 0)" gradientUnits="userSpaceOnUse"><stop offset="0" stop-color="#f9c7cd"/><stop offset="1" stop-color="#ee2e2d"/></linearGradient><linearGradient id="ae" x1="-455.7" y1="1295.69" x2="4118.79" y2="2.15" gradientTransform="matrix(-.47 0 0 1 2044.05 0)" gradientUnits="userSpaceOnUse"><stop offset="0" stop-color="#f9c9cf"/><stop offset="1" stop-color="#ee2d2c"/></linearGradient><linearGradient id="af" x1="-377.34" y1="1241.54" x2="3991.19" y2="71" gradientTransform="matrix(-.5 0 0 1 2080.55 0)" gradientUnits="userSpaceOnUse"><stop offset="0" stop-color="#faccd2"/><stop offset="1" stop-color="#ee2c2c"/></linearGradient><linearGradient id="ag" x1="-306.17" y1="1193.22" x2="3875.67" y2="134.24" gradientTransform="matrix(-.53 0 0 1 2117.05 0)" gradientUnits="userSpaceOnUse"><stop offset="0" stop-color="#facfd4"/><stop offset="1" stop-color="#ee2b2c"/></linearGradient><linearGradient id="ah" x1="-241.24" y1="1149.56" x2="3770.4" y2="192.29" gradientTransform="matrix(-.55 0 0 1 2153.55 0)" gradientUnits="userSpaceOnUse"><stop offset="0" stop-color="#fad1d7"/><stop offset="1" stop-color="#ee2b2b"/></linearGradient><linearGradient id="ai" x1="-182.88" y1="1104.58" x2="3672.78" y2="240.51" gradientTransform="matrix(-.58 0 0 1 2190.05 0)" gradientUnits="userSpaceOnUse"><stop offset="0" stop-color="#fbd4d9"/><stop offset="1" stop-color="#ee2a2b"/></linearGradient><linearGradient id="aj" x1="-128.82" y1="1063.98" x2="3583.19" y2="285.65" gradientTransform="matrix(-.61 0 0 1 2226.55 0)" gradientUnits="userSpaceOnUse"><stop offset="0" stop-color="#fbd7db"/><stop offset="1" stop-color="#ee292a"/></linearGradient><linearGradient id="ak" x1="-78.55" y1="1027.17" x2="3500.6" y2="328.04" gradientTransform="matrix(-.63 0 0 1 2263.05 0)" gradientUnits="userSpaceOnUse"><stop offset="0" stop-color="#fbd9de"/><stop offset="1" stop-color="#ee282a"/></linearGradient><linearGradient id="al" x1="-31.59" y1="993.69" x2="3424.15" y2="367.97" gradientTransform="matrix(-.66 0 0 1 2299.55 0)" gradientUnits="userSpaceOnUse"><stop offset="0" stop-color="#fbdce0"/><stop offset="1" stop-color="#ee2729"/></linearGradient><linearGradient id="am" x1="12.42" y1="963.13" x2="3353.13" y2="405.66" gradientTransform="matrix(-.68 0 0 1 2336.05 0)" gradientUnits="userSpaceOnUse"><stop offset="0" stop-color="#fcdfe2"/><stop offset="1" stop-color="#ed2629"/></linearGradient><linearGradient id="an" x1="53.82" y1="935.15" x2="3286.91" y2="441.33" gradientTransform="matrix(-.71 0 0 1 2372.55 0)" gradientUnits="userSpaceOnUse"><stop offset="0" stop-color="#fce1e5"/><stop offset="1" stop-color="#ed2529"/></linearGradient><linearGradient id="ao" x1="92.9" y1="909.48" x2="3224.97" y2="475.16" gradientTransform="matrix(-.74 0 0 1 2409.05 0)" gradientUnits="userSpaceOnUse"><stop offset="0" stop-color="#fce4e7"/><stop offset="1" stop-color="#ed2528"/></linearGradient><linearGradient id="ap" x1="129.89" y1="885.87" x2="3166.87" y2="507.31" gradientTransform="matrix(-.76 0 0 1 2445.56 0)" gradientUnits="userSpaceOnUse"><stop offset="0" stop-color="#fde7ea"/><stop offset="1" stop-color="#ed2428"/></linearGradient><linearGradient id="aq" x1="165.02" y1="864.11" x2="3112.22" y2="537.91" gradientTransform="matrix(-.79 0 0 1 2482.06 0)" gradientUnits="userSpaceOnUse"><stop offset="0" stop-color="#fdeaec"/><stop offset="1" stop-color="#ed2327"/></linearGradient><linearGradient id="ar" x1="198.46" y1="844.03" x2="3060.68" y2="567.1" gradientTransform="matrix(-.82 0 0 1 2518.56 0)" gradientUnits="userSpaceOnUse"><stop offset="0" stop-color="#fdecee"/><stop offset="1" stop-color="#ed2227"/></linearGradient><linearGradient id="as" x1="230.39" y1="825.47" x2="3011.98" y2="594.98" gradientTransform="matrix(-.84 0 0 1 2555.06 0)" gradientUnits="userSpaceOnUse"><stop offset="0" stop-color="#fdeff1"/><stop offset="1" stop-color="#ed2127"/></linearGradient><linearGradient id="at" x1="260.93" y1="808.31" x2="2965.91" y2="621.65" gradientTransform="matrix(-.87 0 0 1 2591.56 0)" gradientUnits="userSpaceOnUse"><stop offset="0" stop-color="#fef2f3"/><stop offset="1" stop-color="#ed2026"/></linearGradient><linearGradient id="au" x1="290.22" y1="792.42" x2="2922.25" y2="647.21" gradientTransform="matrix(-.89 0 0 1 2628.06 0)" gradientUnits="userSpaceOnUse"><stop offset="0" stop-color="#fef4f5"/><stop offset="1" stop-color="#ed1f26"/></linearGradient><linearGradient id="av" x1="318.36" y1="777.71" x2="2880.83" y2="671.73" gradientTransform="matrix(-.92 0 0 1 2664.56 0)" gradientUnits="userSpaceOnUse"><stop offset="0" stop-color="#fef7f8"/><stop offset="1" stop-color="#ed1f25"/></linearGradient><linearGradient id="aw" x1="345.45" y1="764.09" x2="2841.48" y2="695.29" gradientTransform="matrix(-.95 0 0 1 2701.06 0)" gradientUnits="userSpaceOnUse"><stop offset="0" stop-color="#fefafa"/><stop offset="1" stop-color="#ed1e25"/></linearGradient><linearGradient id="ax" x1="371.56" y1="751.48" x2="2804.06" y2="717.96" gradientTransform="matrix(-.97 0 0 1 2737.56 0)" gradientUnits="userSpaceOnUse"><stop offset="0" stop-color="#fffcfd"/><stop offset="1" stop-color="#ed1d24"/></linearGradient><linearGradient id="ay" x1="396.78" y1="733.84" x2="2768.42" y2="733.84" gradientTransform="matrix(-1 0 0 1 2774.06 0)" gradientUnits="userSpaceOnUse"><stop offset="0" stop-color="#fff"/><stop offset="1" stop-color="#ed1c24"/></linearGradient></defs><g data-name="Layer 2"><g data-name="Layer 1" fill="none"><path d="M0 225.2S231.65 82 435.56 253c174.78 146.57 4 139.19-114 121.62-70.84-10.57-122.56-73.79-117.07-145.23 3.35-43.43 27.62-76.81 103.3-58.18 173 42.59 236.3 281.09 474.24 183 554.22-228.5 126.66-384.94 17-349-268.59 88-174.45 383.08 229 394 271.44 7.36 395.71-208.2 430.6-124.1 104.2 251.1-338.33-82.12-349.43-136.27-15.93-77.75 565.87-107.31 590.21 60.47s-182.54 257.21-173 187.37 213-46.84 359-3.41 469.38 108.84 469.38-42.58c0-241.75-548.48 329.35-548.48 116.68" stroke-linejoin="round" stroke-width=".12" opacity=".47" stroke="url(#a)"/><path d="M1811.85 459.07c0 209.87 544.31-350.63 542-112-1.4 149.38-320.85 84.12-465.85 40.55-144.79-43.41-346.16-66.64-356.13 2.1-6 41.48 65.75 25.88 118.29-29.19 34.51-36.17 60.66-89.43 50.86-154.82-24.75-164.81-599.89-134.65-585.51-57.36 10.08 53.79 445.77 382.82 341.76 134.85-12.79-30.44-37.45-21.16-76.76 2.45-68.35 40.7-180.45 124.09-350.82 119.15C630.23 393.37 536.38 102.21 800 13.79c107-35.89 527.51 117.59-20.64 343.37-60.6 24.93-109.82 28-152.43 18.1C503.55 346.67 436 209.17 308.8 178.43c-74.85-18.13-98.93 15-102.36 58.14-5.65 70.88 45.24 133.6 114.87 144.28 116 17.63 284.05 25.12 110.63-119.46-30.68-25.55-62-44-93.09-56.9C164.37 132.22.14 232.84.14 232.84" stroke-width=".13" opacity=".47" stroke="url(#b)" stroke-miterlimit="10"/><path d="M1817.37 460.76c0 207.07 540.13-342.84 535.57-107.41-2.86 147.43-318.49 82.32-462.42 38.61-143.55-43.39-342.87-66.86-353.26.8-6.26 40.81 64.25 25.45 115.86-28.65 33.84-35.49 59.41-87.78 49.46-152-25.15-161.84-593.64-131.11-580.82-54.26 9.06 53.44 437.92 378.27 334.1 133.44-12.8-30.06-37.22-20.8-76.28 2.31-68 40.25-179.49 122-348.27 116.78-395.44-11.93-489-299.18-230.41-388 104.33-35.84 517.82 114.69-24.27 337.74-60.08 24.66-109 27.8-151.28 18.21-122.58-27.71-189.73-162.85-315.55-192.69-74-17.63-97.9 15.35-101.41 58.1C202.62 314.07 252.65 376.3 321 387.1c114.13 17.7 279.35 25.29 107.3-117.3-30.47-25.2-61.6-43.39-92.51-56.12C161.94 142.37.24 240.47.24 240.47" stroke-width=".13" opacity=".47" stroke="url(#c)" stroke-miterlimit="10"/><path d="M1822.89 462.44c0 204.28 536-335.06 529.11-102.76-4.29 145.41-316 80.46-458.93 36.63-142.31-43.38-339.6-67.08-350.4-.52-6.51 40.16 62.76 25 113.42-28.11 33.19-34.81 58.16-86.13 48.08-149.2C1678.6 59.63 1116.62 91 1128 167.34c7.94 53.11 430.07 373.72 326.45 132-12.81-29.68-37-20.5-75.8 2.19-67.78 39.66-178.53 119.89-345.74 114.4C641.51 403.54 548.31 120.21 801.84 31 903.5-4.82 1310 142.76 773.93 363.08c-59.57 24.39-108.07 27.6-150.12 18.31-121.81-26.81-188.55-159.59-313-188.53-73.19-17.14-96.88 15.65-100.46 58.06-5.9 69.76 43.24 131.65 110.38 142.43 112.18 18 274.66 25.46 104-115.14-30.27-24.84-61.2-42.78-91.94-55.34C159.51 152.53.35 248.11.35 248.11" stroke-width=".14" opacity=".47" stroke="url(#d)" stroke-miterlimit="10"/><path d="M1828.41 464.13c0 201.48 531.78-327.32 522.65-98.12-5.71 143.38-313.62 78.6-455.45 34.64-141.07-43.35-336.32-67.29-347.54-1.83-6.75 39.5 61.27 24.6 111-27.56 32.52-34.13 56.91-84.48 46.68-146.4-26-155.86-581.35-123.89-571.44-48 6.89 52.76 422.21 369.17 318.78 130.62-12.82-29.3-36.86-20.21-75.32 2.05-67.52 39.09-177.57 117.8-343.2 112-387.41-12.91-480.28-292.31-231.8-382 99-35.73 498.43 108.89-31.54 326.47-59.06 24.14-107.19 27.42-149 18.42-121-25.92-187.36-156.34-310.44-184.38-72.37-16.64-95.86 16-99.52 58-6 69.21 42.25 130.65 108.15 141.51 110.25 18.16 270 25.64 100.62-113a355.78 355.78 0 0 0-91.35-54.56C157.08 162.68.45 255.75.45 255.75" stroke-width=".14" opacity=".47" stroke="url(#e)" stroke-miterlimit="10"/><path d="M1833.94 465.82c0 198.68 527.6-319.59 516.18-93.48-7.14 141.35-311.18 76.75-452 32.65-139.82-43.33-333-67.51-344.67-3.14-7 38.84 59.78 24.18 108.57-27 31.85-33.45 55.66-82.83 45.29-143.58-26.31-152.91-575.13-120.34-566.73-44.93 5.84 52.41 414.36 364.61 311.12 129.2-12.82-28.92-36.68-19.91-74.83 1.93-67.28 38.5-176.61 115.7-340.66 109.66C652.8 413.71 560.3 138.27 803.7 48.15c96.38-35.68 488.73 106-35.17 320.84-58.53 23.87-106.32 27.22-147.81 18.53-120.29-25-186.18-153.1-307.89-180.24-71.54-16.14-94.85 16.26-98.58 58-6.15 68.66 41.25 129.66 105.91 140.59 108.32 18.29 265.27 25.79 97.29-110.87a353.54 353.54 0 0 0-90.78-53.78C154.65 172.83.56 263.38.56 263.38" stroke-width=".15" opacity=".47" stroke="url(#f)" stroke-miterlimit="10"/><path d="M1839.46 467.51c0 195.88 523.43-311.9 509.72-88.84-8.56 139.3-308.75 74.89-448.48 30.66-138.59-43.31-329.77-67.72-341.81-4.44-7.24 38.18 58.29 23.75 106.13-26.48 31.19-32.77 54.41-81.18 43.9-140.77-26.8-149.91-569-116.74-562.07-41.8 4.79 52.06 407.07 359.81 303.46 127.79-12.76-28.57-36.49-19.62-74.35 1.79-67 37.93-175.65 113.61-338.12 107.29-379.39-13.91-471.51-285.39-233.2-376 93.75-35.63 479 103.08-38.82 315.21-58 23.6-105.43 27-146.64 18.63-119.53-24.14-185-149.85-305.35-176.08-70.71-15.65-93.82 16.56-97.63 57.94-6.28 68.09 40.26 128.65 103.68 139.66 106.39 18.46 260.57 26 93.95-108.66-29.65-23.78-60-41-90.2-53C152.37 182.62.66 271 .66 271" stroke-width=".15" opacity=".47" stroke="url(#g)" stroke-miterlimit="10"/><path d="M1845 469.2c0 193.08 519.25-304.2 503.25-84.2-10 137.26-306.23 72.74-445 28.68-137.25-43.58-326.49-67.94-338.94-5.75-7.49 37.52 56.79 23.32 103.7-25.94 30.52-32.09 53.16-79.53 42.5-138-27.2-146.92-562.76-113.17-557.37-38.68 3.74 51.7 399.3 355.22 295.79 126.37-12.75-28.19-36.31-19.32-73.86 1.67-66.8 37.34-174.69 111.5-335.59 104.91-375.38-14.41-467.09-281.9-233.9-373 91.13-35.58 469.34 100.18-42.45 309.58-57.51 23.34-104.55 26.83-145.49 18.74C498.87 370.39 433.81 247 314.84 221.71c-69.88-15.14-92.8 16.86-96.68 57.9-6.41 67.54 39.25 127.65 101.43 138.73 104.47 18.66 256.15 25.81 90.62-106.49a344.59 344.59 0 0 0-89.62-52.22C150 192.71.77 278.66.77 278.66" stroke-miterlimit="10" stroke-width=".16" opacity=".47" stroke="url(#h)"/><path d="M1850.5 470.89c0 190.28 515.11-296.57 496.81-79.57-11.4 135.19-303.78 70.85-441.52 26.69-136-43.6-323.22-68.15-336.08-7.06-7.74 36.87 55.3 22.9 101.26-25.39 29.87-31.42 51.92-77.88 41.12-135.15-27.62-143.95-556.57-109.6-552.69-35.57 2.69 51.35 391.53 350.62 288.13 125-12.75-27.82-36.14-19-73.38 1.53-66.56 36.77-173.72 109.41-333 102.54C669.73 429 578.45 165.47 806.51 73.92c88.52-35.53 459.64 97.28-46.09 304-57 23.07-103.67 26.64-144.33 18.84-118-22.36-182.69-143.11-300.24-167.79-69.09-14.5-91.78 17.17-95.74 57.87-6.54 67 38.25 126.65 99.19 137.8 102.54 18.77 251.5 25.94 87.28-104.33a342.06 342.06 0 0 0-89-51.44C147.55 202.8.87 286.29.87 286.29" stroke-width=".16" opacity=".47" stroke="url(#i)" stroke-miterlimit="10"/><path d="M1856 472.57c0 187.49 510.95-288.94 490.35-74.92-12.81 133.11-301.33 69-438 24.7-134.76-43.62-319.96-68.35-333.23-8.35-8 36.21 53.81 22.48 98.83-24.85 29.2-30.73 50.67-76.23 39.72-132.34-28-141-550.37-106-548-32.46 1.65 51 383.77 346 280.47 123.55-12.74-27.44-36-18.74-72.89 1.41-66.33 36.18-172.77 107.31-330.51 100.16-367.36-15.4-458.19-274.88-235.3-366.94 85.92-35.48 450 94.38-49.72 298.32-56.49 22.8-102.8 26.44-143.18 18.94C497.31 378.3 433 259.94 316.86 236.14c-68.26-14-90.76 17.47-94.8 57.82-6.66 66.42 37.26 125.65 97 136.88C419.62 449.76 565.85 456.9 403 328.67A339.72 339.72 0 0 0 314.5 278C145.15 212.9 1 293.93 1 293.93" stroke-width=".17" opacity=".47" stroke="url(#j)" stroke-miterlimit="10"/><path d="M1861.54 474.26c0 184.69 506.8-281.35 483.89-70.28-14.22 131-298.88 67-434.55 22.71-133.5-43.63-316.66-68.58-330.36-9.67-8.22 35.54 52.32 22.05 96.4-24.32 28.54-30.05 49.53-74.6 38.33-129.52-28.15-138-544.16-102.46-543.3-29.35.59 50.64 376 341.43 272.8 122.14-12.73-27.07-35.78-18.46-72.41 1.27-66.09 35.61-171.8 105.22-328 97.79C681 439.14 590.68 183.69 808.38 91.1c83.33-35.44 440.68 92.54-53.36 292.69-55.93 22.66-101.92 26.25-142 19-116.49-20.54-180.35-136.51-295.15-159.44-67.44-13.47-89.75 17.77-93.86 57.78-6.79 65.87 36.26 124.66 94.72 136 98.68 19.08 242.18 26.18 80.61-100a337.18 337.18 0 0 0-87.89-49.88C142.74 223 1.08 301.57 1.08 301.57" stroke-width=".17" opacity=".48" stroke="url(#k)" stroke-miterlimit="10"/><path d="M1867.06 476c0 181.89 502.65-273.78 477.43-65.65-15.62 128.93-296.43 65.17-431.07 20.73-132.24-43.65-313.38-68.79-327.49-11-8.47 34.89 50.83 21.62 94-23.77 27.87-29.37 48.29-73 36.94-126.71-28.53-135.08-538-98.9-538.62-26.24-.45 50.28 368.23 336.83 265.14 120.72-12.73-26.69-35.61-18.16-71.92 1.15-65.86 35-170.83 102.79-325.43 95.42-359.34-17.18-449.2-267.83-236.73-360.96 80.77-35.39 431 89.74-57 287.06-55.41 22.4-101 26.05-140.86 19.15-115.7-19.69-179.14-133.27-292.58-155.33-66.61-13-88.72 18.07-92.9 57.74-6.92 65.3 35.25 123.65 92.47 135 96.75 19.23 237.52 26.3 77.28-97.85a334.63 334.63 0 0 0-87.31-49.1C140.33 233.09 1.19 309.2 1.19 309.2" stroke-width=".18" opacity=".48" stroke="url(#l)" stroke-miterlimit="10"/><path d="M1872.58 477.64c0 179.09 498.51-266.25 471-61-17 126.82-294 63.27-427.59 18.74-131-43.66-310.11-69-324.63-12.29-8.72 34.23 49.34 21.2 91.53-23.23 27.22-28.69 47.06-71.31 35.55-123.9-28.91-132.1-531.76-95.33-533.93-23.12C1183 302.74 1545 585.06 1442 372.14c-12.72-26.32-35.43-17.88-71.44 1-65.62 34.45-169.86 100.67-322.89 93.05C692.35 448.49 603 202 810.25 108.29c78.2-35.36 421.36 86.93-60.63 281.42-54.89 22.15-100.17 25.86-139.71 19.29-114.94-18.81-178-130-290-151.19-65.78-12.44-87.7 18.38-92 57.7-7 64.75 34.25 122.66 90.24 134.11C413 469 551 476 392.09 353.91a331.71 331.71 0 0 0-86.73-48.33C137.91 243.19 1.29 316.84 1.29 316.84" stroke-width=".18" opacity=".48" stroke="url(#m)" stroke-miterlimit="10"/><path d="M1878.1 479.33c0 176.29 494.39-258.74 464.52-56.37-18.4 124.69-291.54 61.38-424.11 16.75-129.73-43.67-306.83-69.22-321.76-13.6-9 33.58 47.84 20.78 89.1-22.68 26.55-28 45.82-69.67 34.15-121.09-29.29-129.14-525.56-91.78-529.23-20-2.55 49.55 352.69 327.63 249.82 117.89-12.73-25.94-35.27-17.59-71 .89-65.4 33.86-168.91 98.54-320.36 90.67-351.28-18.27-440-260.64-238.09-354.9 75.67-35.33 411.71 84.12-64.26 275.79-54.38 21.89-99.29 25.66-138.55 19.36C494.19 394.11 431.58 285.31 320.89 265c-65-11.92-86.68 18.68-91 57.67-7.17 64.19 33.25 121.65 88 133.17 92.88 19.55 228.2 26.56 70.6-93.51a329.51 329.51 0 0 0-86.15-47.55C135.5 253.29 1.4 324.48 1.4 324.48" stroke-width=".19" opacity=".48" stroke="url(#n)" stroke-miterlimit="10"/><path d="M1883.62 481c0 173.5 490.27-251.25 458.06-51.72-19.78 122.56-289.09 59.49-420.62 14.76-128.48-43.69-303.56-69.43-318.9-14.9-9.21 32.91 46.35 20.35 86.67-22.15 25.88-27.33 44.58-68 32.76-118.27-29.67-126.17-519.36-88.22-524.55-16.9-3.59 49.19 344.92 323 242.16 116.48-12.72-25.57-35.1-17.31-70.48.75-65.17 33.28-167.94 96.42-317.82 88.3-347.26-18.82-435.39-257-238.78-351.89 73.14-35.29 402 81.32-67.91 270.16-53.85 21.64-98.4 25.47-137.39 19.46-113.41-17-175.61-123.44-284.92-142.88-64.14-11.41-85.66 19-90.08 57.62-7.29 63.63 32.25 120.66 85.77 132.25 90.93 19.71 223.53 26.68 67.26-91.35A327.85 327.85 0 0 0 299.28 324C133.09 263.39 1.5 332.11 1.5 332.11" stroke-width=".19" opacity=".48" stroke="url(#o)" stroke-miterlimit="10"/><path d="M1889.14 482.7c0 170.7 486.16-243.81 451.6-47.08-21.15 120.41-286.64 57.6-417.14 12.77-127.22-43.7-300.28-69.65-316-16.21-9.45 32.25 44.86 19.93 84.24-21.6 25.22-26.65 43.35-66.37 31.37-115.47-30.05-123.2-513.14-84.66-519.86-13.79-4.62 48.83 337.15 318.44 234.5 115.07-12.72-25.19-34.93-17-70 .63-65 32.7-167 94.3-315.28 85.92-343.28-19.38-430.76-253.42-239.52-348.88 70.64-35.27 392.39 78.51-71.54 264.53C688.18 420 644 423.78 605.28 418.16 492.66 401.79 430.85 298 322.91 279.42c-63.31-10.89-84.65 19.29-89.13 57.58-7.43 63.08 31.22 119.66 83.52 131.33 89 19.87 218.87 26.81 63.93-89.19a325.34 325.34 0 0 0-85-46c-165.56-59.65-294.62 6.61-294.62 6.61" stroke-width=".2" opacity=".48" stroke="url(#p)" stroke-miterlimit="10"/><path d="M1894.66 484.39c0 167.9 482.06-236.39 445.14-42.45-22.5 118.25-284.19 55.72-413.66 10.79-126-43.71-297-69.86-313.17-17.52-9.7 31.6 43.37 19.5 81.81-21.06 24.55-26 42.11-64.72 30-112.65-30.44-120.23-506.94-81.11-515.18-10.68-5.66 48.46 329.38 313.83 226.84 113.66-12.71-24.82-34.76-16.74-69.51.49-64.73 32.12-166 92.18-312.74 83.55C714.94 468.59 628.16 238.73 814 142.65c68.15-35.24 382.72 75.7-75.18 258.9-52.82 21.13-96.64 25-135.07 19.67-111.87-15.49-173.26-116.89-279.84-134.59-62.48-10.37-83.62 19.6-88.18 57.55-7.55 62.51 30.27 118.66 81.27 130.4 87.06 20 214.2 26.93 60.59-87a323.22 323.22 0 0 0-84.41-45.22C128.26 283.6 1.71 347.39 1.71 347.39" stroke-width=".2" opacity=".48" stroke="url(#q)" stroke-miterlimit="10"/><path d="M1900.18 486.08c0 165.1 478-229 438.69-37.81-23.86 116.08-281.75 53.82-410.18 8.8C1804 413.35 1635 387 1618.38 438.24c-9.94 30.94 41.88 19.08 79.37-20.51 23.9-25.3 40.88-63.08 28.59-109.85-30.81-117.26-500.72-77.55-510.48-7.56-6.71 48.09 321.59 309.23 219.17 112.24-12.71-24.44-34.6-16.46-69 .37C1301.5 444.46 1201 503 1055.8 494.1 720.59 473.61 634.55 248 814.92 151.24 880.62 116 1188 224.13 736.11 404.5c-52.3 20.88-95.76 24.81-133.92 19.78-111.09-14.61-172.07-113.61-277.27-130.43-61.66-9.86-82.6 19.89-87.24 57.5-7.68 62 29.23 117.66 79.05 129.48C401.84 501 526.26 507.89 374 396a320.8 320.8 0 0 0-83.84-44.44C125.84 293.7 1.82 355 1.82 355" stroke-width=".21" opacity=".48" stroke="url(#r)" stroke-miterlimit="10"/><path d="M1905.7 487.77c0 162.3 473.91-221.67 432.23-33.17-25.19 113.89-279.3 51.94-406.7 6.81-123.46-43.73-290.44-70.29-307.44-20.13-10.19 30.28 40.38 18.65 76.94-20 23.23-24.61 39.64-61.44 27.19-107-31.19-114.3-494.51-74-505.79-4.45-7.74 47.73 313.82 304.63 211.51 110.83-12.7-24.07-34.43-16.18-68.54.23-64.29 30.95-164.08 87.93-307.66 78.81C726.24 478.64 641 257.2 815.85 159.83c63.26-35.23 363.41 70.08-82.44 247.63-51.78 20.63-94.88 24.61-132.76 19.89C490.32 413.61 429.76 317 325.93 301.06c-60.83-9.35-81.58 20.2-86.29 57.47-7.81 61.4 28.21 116.66 76.8 128.55 83.18 20.34 204.87 27.18 53.92-82.71a319 319 0 0 0-83.26-43.66c-163.67-56.91-285.18 2-285.18 2" stroke-width=".21" opacity=".48" stroke="url(#s)" stroke-miterlimit="10"/><path d="M1911.23 489.45c0 159.51 469.85-214.34 425.76-28.52-26.5 111.69-276.85 50.05-403.21 4.82-122.21-43.73-287.17-70.5-304.58-21.44-10.44 29.62 38.89 18.23 74.5-19.43 22.57-23.94 38.4-59.8 25.81-104.22-31.57-111.34-488.3-70.45-501.11-1.34-8.77 47.36 306 300 203.85 109.41-12.7-23.69-34.27-15.9-68 .11-64.08 30.36-163.13 85.8-305.13 76.43-327.18-21.6-411.58-238.83-242.28-336.85 60.85-35.23 353.74 67.26-86.08 242-51.27 20.37-94 24.41-131.6 20-109.57-12.86-169.71-107-272.17-122.14-60-8.83-80.56 20.51-85.35 57.43-7.94 60.84 27.21 115.67 74.57 127.63 81.22 20.5 200.2 27.31 50.58-80.55a316.64 316.64 0 0 0-82.69-42.88c-163-56-282 .4-282 .4" stroke-width=".22" opacity=".48" stroke="url(#t)" stroke-miterlimit="10"/><path d="M1916.75 491.14c0 156.71 465.82-207.06 419.3-23.89-27.8 109.49-274.4 48.17-399.73 2.84-121-43.74-283.89-70.72-301.71-22.75-10.69 29 37.4 17.8 72.07-18.89 21.9-23.25 37.16-58.15 24.41-101.41-31.95-108.37-482.07-66.9-496.41 1.78-9.81 47 298.25 295.42 196.18 108-12.69-23.32-34.11-15.62-67.57 0-63.87 29.78-162.16 83.69-302.59 74.06C737.54 488.7 654 275.7 817.72 177c58.47-35.25 344.08 64.45-89.71 236.37-50.75 20.11-93.13 24.21-130.45 20.1-108.8-12-168.52-103.78-269.62-118-59.17-8.32-79.54 20.8-84.4 57.38-8.06 60.29 26.2 114.67 72.33 126.7 79.28 20.68 195.53 27.44 47.24-78.38a314.41 314.41 0 0 0-82.1-42.1C118.59 324 2.13 377.94 2.13 377.94" stroke-width=".22" opacity=".48" stroke="url(#u)" stroke-miterlimit="10"/><path d="M1922.27 492.83c0 153.91 461.81-199.82 412.84-19.25-29.08 107.26-272 46.28-396.24.85-119.71-43.75-280.62-70.93-298.86-24.06-10.92 28.31 35.91 17.38 69.65-18.34 21.23-22.58 35.92-56.51 23-98.6-32.31-105.43-475.84-63.35-491.66 4.88-10.84 46.62 290.47 290.82 188.52 106.59-12.69-22.94-34-15.34-67.08-.15-63.67 29.19-161.2 81.56-300.05 71.68C743.19 493.73 660.66 285 818.66 185.6c56.11-35.28 334.41 61.63-93.35 230.74-50.23 19.86-92.25 24-129.29 20.2C488 425.43 428.68 336 329 322.7c-58.34-7.8-78.52 21.11-83.46 57.35-8.19 59.72 25.19 113.67 70.09 125.77 77.33 20.84 190.86 27.57 43.91-76.22A312.74 312.74 0 0 0 278 388.28c-161.8-54.15-275.73-2.71-275.73-2.71" stroke-width=".23" opacity=".48" stroke="url(#v)" stroke-miterlimit="10"/><path d="M1927.79 494.52c0 151.11 457.82-192.61 406.39-14.61-30.35 105-269.51 44.4-392.77-1.13-118.45-43.76-277.34-71.15-296-25.37-11.17 27.64 34.42 16.95 67.21-17.81 20.58-21.89 34.69-54.86 21.63-95.79-32.71-102.44-469.63-59.8-487 8-11.9 46.25 282.66 286.19 180.83 105.19-12.69-22.57-33.79-15.07-66.6-.29C1298 481.3 1201.25 532.14 1064 522c-315.16-23.24-396.66-227.8-244.41-327.81 53.79-35.33 324.75 58.81-97 225.11-49.71 19.6-91.36 23.81-128.13 20.3C487.2 429.37 428.32 342.38 330 329.92c-57.52-7.29-77.5 21.41-82.51 57.3-8.32 59.17 24.17 112.68 67.85 124.85 75.37 21 186.19 27.7 40.57-74.06a311.18 311.18 0 0 0-80.95-40.54c-161.21-53.23-272.62-4.26-272.62-4.26" stroke-width=".23" opacity=".48" stroke="url(#w)" stroke-miterlimit="10"/><path d="M1933.31 496.21c0 148.31 453.86-185.43 399.93-10-31.59 102.79-267.06 42.54-389.24-3.09-117.2-43.76-274.07-71.37-293.13-26.68-11.42 27 32.93 16.53 64.78-17.26 19.91-21.22 33.45-53.23 20.23-93-33.08-99.48-463.4-56.26-482.34 11.11-12.9 45.88 274.89 281.61 173.2 103.76-12.69-22.19-33.64-14.79-66.12-.41-63.26 28-159.27 77.32-295 66.93-311.11-23.8-391.51-224.15-245.07-324.81 51.5-35.4 315.08 56-100.63 219.48-49.19 19.35-90.49 23.61-127 20.41-106.52-9.35-165-93.95-262-105.54-56.69-6.77-76.48 21.71-81.57 57.27C241 453 272.55 506.08 315 518.32c73.42 21.17 181.52 27.82 37.23-71.9a309.1 309.1 0 0 0-80.36-39.76c-160.54-52.31-269.42-5.81-269.42-5.81" stroke-width=".24" opacity=".48" stroke="url(#x)" stroke-miterlimit="10"/><path d="M1938.83 497.89c0 145.52 449.92-178.28 393.47-5.32-32.81 100.52-264.61 40.63-385.8-5.11-115.94-43.77-270.79-71.58-290.26-28-11.67 26.33 31.43 16.11 62.34-16.72 19.25-20.54 32.22-51.58 18.85-90.16-33.47-96.53-457.18-52.71-477.66 14.22-13.93 45.51 267.1 277 165.54 102.35-12.69-21.82-33.48-14.53-65.64-.55-63.05 27.43-158.3 75.2-292.44 64.57-307.09-24.35-386.33-220.51-245.77-321.8 49.26-35.49 305.41 53.17-104.26 213.85-48.67 19.09-89.61 23.41-125.81 20.51C485.63 437.26 427.6 355.06 332 344.34c-55.87-6.26-75.46 22-80.63 57.23-8.57 58.05 22.14 110.68 63.37 123 71.47 21.34 176.85 27.95 33.9-69.74a307.51 307.51 0 0 0-79.79-39c-159.94-51.37-266.3-7.35-266.3-7.35" stroke-width=".24" opacity=".48" stroke="url(#y)" stroke-miterlimit="10"/><path d="M1944.35 499.58c0 142.72 446-171.17 387-.69-34 98.26-262.17 38.75-382.32-7.09-114.69-43.77-267.5-71.8-287.39-29.3-11.91 25.67 29.94 15.68 59.91-16.17 18.58-19.86 31-49.94 17.45-87.36-33.84-93.57-450.94-49.16-473 17.34-15 45.13 259.31 272.39 157.88 100.93-12.69-21.44-33.33-14.25-65.15-.67-62.86 26.83-157.34 73.08-289.9 62.19C765.8 513.86 671.67 296 822.4 220c39.88-43.49 295.74 50.35-107.9 208.22-48.16 18.78-88.73 23.17-124.66 20.58-105-7.6-162.6-87.4-256.86-97.24-55-5.75-74.44 22.32-79.68 57.18-8.69 57.5 21.12 109.69 61.14 122.08 69.5 21.5 172.17 28.08 30.56-67.57A305.8 305.8 0 0 0 265.79 425c-159.3-50.47-263.13-8.92-263.13-8.92" stroke-width=".25" opacity=".48" stroke="url(#z)" stroke-miterlimit="10"/><path d="M1949.87 501.27c0 139.92 442.14-164.1 380.55 4-35.17 96-259.72 36.87-378.83-9.08-113.44-43.77-264.23-72-284.54-30.6-12.15 25 28.45 15.25 57.48-15.64 17.93-19.18 29.75-48.3 16.06-84.54-34.22-90.61-444.7-45.62-468.27 20.44-16 44.77 251.51 267.8 150.21 99.53-12.68-21.07-33.18-14-64.67-.81-62.66 26.24-156.37 71-287.36 59.82-299-25.45-393.18-240.23-247.17-315.79 37.09-43.79 286.07 47.52-111.53 202.59-47.64 18.58-87.86 23-123.5 20.72-104.23-6.76-161.41-84.17-254.3-93.14-54.2-5.23-73.42 22.62-78.73 57.15-8.83 56.94 20.09 108.69 58.89 121.14 67.54 21.68 167.5 28.22 27.23-65.4a304 304 0 0 0-78.64-37.43c-158.67-49.54-260-10.47-260-10.47" stroke-width=".25" opacity=".48" stroke="url(#A)" stroke-miterlimit="10"/><path d="M1955.39 503c0 137.12 438.3-157 374.1 8.59-36.32 93.69-257.28 35-375.36-11.07-112.18-43.77-261-72.22-281.67-31.91-12.4 24.35 27 14.83 55-15.09 17.26-18.5 28.51-46.66 14.67-81.74-34.6-87.65-438.47-42.07-463.59 23.56-17 44.4 243.72 263.19 142.55 98.11-12.68-20.69-33-13.72-64.18-.93-62.48 25.64-155.41 68.84-284.83 57.44-295-26-389.16-237.7-247.86-312.78 34.29-44.09 276.4 44.69-115.17 197-47.13 18.32-87 22.82-122.35 20.82-103.42-5.91-160.17-80.93-251.7-89-53.37-4.71-72.4 22.93-77.79 57.11-8.95 56.38 19.06 107.7 56.66 120.22 65.56 21.85 162.81 28.35 23.88-63.24a302.5 302.5 0 0 0-78.05-36.65c-158.06-48.62-256.83-12-256.83-12" stroke-width=".26" opacity=".48" stroke="url(#B)" stroke-miterlimit="10"/><path d="M1960.91 504.65c0 134.32 434.5-150 367.64 13.23-37.43 91.4-254.83 33.11-371.87-13.06-110.94-43.76-257.68-72.44-278.81-33.22-12.65 23.69 25.47 14.41 52.61-14.55 16.6-17.82 27.28-45 13.28-78.92-35-84.71-432.22-38.52-458.9 26.67-18 44 235.92 258.58 134.89 96.7-12.68-20.32-32.88-13.46-63.7-1.06-62.28 25-154.44 66.72-282.28 55.06C782.75 529 688.62 320.33 825.2 245.74c31.51-44.4 266.73 41.85-118.8 191.32-46.61 18.06-86.11 22.62-121.19 20.93-102.71-5-159-77.58-249.2-84.79-52.55-4.21-71.38 23.23-76.85 57.07-9.08 55.82 18 106.69 54.42 119.29 63.59 22 158.14 28.48 20.55-61.08a301.12 301.12 0 0 0-77.47-35.87C99.22 404.92 3 439 3 439" stroke-width=".26" opacity=".48" stroke="url(#C)" stroke-miterlimit="10"/><path d="M1966.43 506.33c0 131.53 430.74-143 361.18 17.87-38.51 89.11-252.38 31.24-368.39-15-109.68-43.76-254.48-72.7-275.94-34.53-12.94 23 24 14 50.18-14 15.93-17.14 26-43.39 11.88-76.11-35.36-81.76-426-35-454.2 29.78-19 43.65 228.11 254 127.22 95.28-12.68-19.94-32.73-13.19-63.21-1.19-62.1 24.45-153.48 64.6-279.75 52.69C788.41 534 694.27 328.44 826.14 254.33c28.71-44.7 257.05 39-122.44 185.68-46.09 17.82-85.23 22.43-120 21-101.98-4.01-157.88-74.26-246.7-80.6-51.71-3.69-70.35 23.53-75.9 57-9.2 55.26 17 105.7 52.18 118.37 61.62 22.19 153.46 28.61 17.22-58.92a299.88 299.88 0 0 0-76.9-35.09C96.79 415 3.08 446.67 3.08 446.67" stroke-width=".27" opacity=".49" stroke="url(#D)" stroke-miterlimit="10"/><path d="M1972 508c0 128.73 427-136.09 354.72 22.51-39.56 86.8-249.93 29.36-364.9-17-108.43-43.76-251.21-72.91-273.08-35.83-13.19 22.34 22.54 13.6 47.75-13.47 15.3-16.43 24.8-41.74 10.49-73.3-35.74-78.81-419.74-31.43-449.52 32.9-20 43.28 220.31 249.36 119.56 93.87-12.68-19.57-32.58-12.94-62.73-1.32-61.91 23.84-152.51 62.48-277.21 50.31-283-27.61-377.11-230.11-250-303.74C853 217.92 1074.45 299.1 701 443c-45.57 17.56-84.34 22.23-118.87 21.15-101.18-3.2-156.66-71-244.1-76.49-50.88-3.18-69.34 23.83-74.95 57-9.34 54.71 16 104.71 49.94 117.45 59.63 22.36 148.78 28.74 13.88-56.76A299 299 0 0 0 250.57 471C94.36 425.16 3.18 454.3 3.18 454.3" stroke-width=".27" opacity=".49" stroke="url(#E)" stroke-miterlimit="10"/><path d="M1977.47 509.71c0 125.93 423.34-129.16 348.26 27.15-40.58 84.49-247.48 27.49-361.42-19-107.18-43.75-247.93-73.13-270.21-37.14-13.44 21.69 21 13.18 45.31-12.92 14.64-15.75 23.56-40.11 9.1-70.49-36.12-75.87-413.48-27.88-444.83 36-21 42.91 212.5 244.75 111.9 92.45-12.68-19.19-32.44-12.67-62.24-1.45-61.74 23.24-151.55 60.37-274.67 48C799.71 544.1 705.57 344.66 828 271.51c23.14-45.3 237.71 33.34-129.71 174.42-45 17.3-83.47 22-117.71 21.25-100.43-2.31-155.47-67.76-241.58-72.34-50-2.67-68.32 24.14-74 57-9.46 54.15 14.93 103.7 47.7 116.52 57.65 22.53 144.1 28.87 10.54-54.6a298.08 298.08 0 0 0-75.74-33.54C91.94 435.28 3.29 461.94 3.29 461.94" stroke-width=".28" opacity=".49" stroke="url(#F)" stroke-miterlimit="10"/><path d="M1983 511.4c0 123.12 419.72-122.24 341.81 31.79-41.57 82.18-245 25.61-357.94-21-105.93-43.74-244.66-73.35-267.36-38.45-13.67 21 19.56 12.76 42.89-12.38 14-15.07 22.32-38.47 7.7-67.67-36.5-72.93-407.23-24.34-440.13 39.11-22.07 42.55 204.68 240.15 104.23 91.05-12.67-18.83-32.29-12.42-61.76-1.58-61.56 22.63-150.58 58.25-272.13 45.57-274.94-28.7-369.09-225.07-251.37-297.74 20.34-45.6 228 30.5-133.35 168.79C651.05 465.94 613 470.73 579 470.24c-99.66-1.42-154.27-64.48-239-68.19-49.18-2.15-67.26 24.45-73 56.95-9.59 53.59 13.89 102.71 45.47 115.6 55.65 22.71 139.41 29 7.2-52.44a297.57 297.57 0 0 0-75.16-32.76c-155-43.99-241.12-19.82-241.12-19.82" stroke-width=".28" opacity=".49" stroke="url(#G)" stroke-miterlimit="10"/><path d="M1988.52 513.09c0 120.32 416.13-115.35 335.34 36.43-42.51 79.86-242.6 23.74-354.46-23-104.68-43.74-241.4-73.52-264.49-39.76-13.92 20.37 18.07 12.34 40.45-11.83 13.32-14.39 21.09-36.84 6.32-64.87-36.89-70-401-20.78-435.45 42.23-23.08 42.18 196.87 235.54 96.58 89.63-12.68-18.45-32.16-12.16-61.28-1.71-61.39 22-149.62 56.14-269.6 43.2C811 554.19 716.87 360.88 829.87 288.69c17.56-45.91 218.36 27.66-137 163.16-44 16.79-81.72 21.64-115.4 21.46-98.91-.55-153.08-61.21-236.44-64-48.39-1.65-66.28 24.74-72.13 56.87-9.71 53 12.85 101.7 43.23 114.66C365.8 603.69 446.87 610 316 530.53a296.35 296.35 0 0 0-74.59-32C87.08 455.53 3.5 477.21 3.5 477.21" stroke-width=".29" opacity=".49" stroke="url(#H)" stroke-miterlimit="10"/><path d="M1994 514.77c0 117.53 412.6-108.46 328.88 41.07-43.42 77.56-240.15 21.88-351-25-103.43-43.73-238.1-73.78-261.63-41.06-14.17 19.7 16.58 11.92 38-11.3 12.65-13.7 19.85-35.21 4.92-62.05-37.27-67.05-394.72-17.23-430.76 45.34-24.08 41.81 189 230.93 88.92 88.22-12.68-18.08-32-11.91-60.8-1.84-61.21 21.42-148.65 54-267.06 40.82-266.89-29.75-361-220-252.75-291.71 14.76-46.21 208.68 24.82-140.62 157.53-43.51 16.53-80.84 21.45-114.24 21.56-98.15.34-151.9-57.94-233.9-59.89-47.55-1.13-65.25 25-71.17 56.83-9.85 52.47 11.79 100.71 41 113.74 51.65 23.06 130 29.29.54-48.11a295.69 295.69 0 0 0-74-31.2C84.65 465.66 3.6 484.85 3.6 484.85" stroke-width=".29" opacity=".49" stroke="url(#I)" stroke-miterlimit="10"/><path d="M1999.56 516.46c0 114.73 409.13-101.6 322.42 45.71-44.29 75.25-237.7 20-347.49-27-102.18-43.71-234.82-74-258.76-42.37-14.42 19.05 15.09 11.5 35.58-10.75 12-13 18.61-33.58 3.54-59.25-37.67-64.11-388.46-13.67-426.07 48.46-25.09 41.44 181.22 226.32 81.25 86.8-12.68-17.7-31.88-11.66-60.31-2-61 20.81-147.69 51.91-264.52 38.45-262.87-30.28-357-217.47-253.46-288.7 12-46.51 199 22-144.25 151.9-43 16.27-80 21.25-113.09 21.67-97.38 1.22-150.7-54.67-231.34-55.75-46.72-.62-64.24 25.36-70.23 56.79-10 51.92 10.73 99.71 38.75 112.82 49.62 23.23 125.35 29.42-2.81-45.95a295.45 295.45 0 0 0-73.42-30.42C82.22 475.79 3.71 492.49 3.71 492.49" stroke-width=".3" opacity=".49" stroke="url(#J)" stroke-miterlimit="10"/><path d="M2005.08 518.15c0 111.93 429.62-76.89 316 50.35-31.73 79.7-235.25 18.13-344-29-100.92-43.7-231.54-74.22-255.89-43.68-14.66 18.39 13.61 11.08 33.15-10.21 11.33-12.34 17.37-31.94 2.14-56.43-38-61.18-382.2-10.12-421.38 51.57-26.09 41.08 173.4 221.72 73.59 85.39-12.69-17.33-31.75-11.42-59.83-2.1-60.88 20.19-146.72 49.79-262 36.07C828 569.34 733.82 385.22 832.68 314.46c9.18-46.81 189.31 19.12-147.89 146.27a329.21 329.21 0 0 1-111.93 21.77c-96.63 2.11-149.51-51.4-228.79-51.59-45.89-.11-63.22 25.65-69.29 56.75-10.09 51.36 9.67 98.7 36.51 111.89 47.6 23.4 120.66 29.56-6.14-43.79a295 295 0 0 0-72.85-29.64c-152.51-40.2-228.49-26-228.49-26" stroke-width=".3" opacity=".49" stroke="url(#K)" stroke-miterlimit="10"/><path d="M2010.6 519.84c0 109.13 426.32-69.07 309.51 55-32.62 77.7-232.82 16.26-340.53-31-99.68-43.69-228.27-74.43-253-45-14.9 17.73 12.13 10.66 30.72-9.66 10.68-11.67 16.13-30.32.75-53.62-38.44-58.26-375.93-6.57-416.69 54.68-27.09 40.71 165.57 217.11 65.93 84-12.69-17-31.61-11.17-59.34-2.23-60.73 19.57-145.76 47.69-259.45 33.71-254.82-31.34-349-212.41-254.85-282.69 6.39-47.11 179.63 16.26-151.52 140.64a336.17 336.17 0 0 1-110.77 21.87c-95.87 3-148.31-48.13-226.24-47.44-45.06.4-62.2 26-68.35 56.71-10.22 50.8 8.61 97.7 34.27 111 45.58 23.56 116 29.7-9.47-41.63a295.05 295.05 0 0 0-72.27-28.86C77.35 496.06 3.92 507.76 3.92 507.76" stroke-width=".31" opacity=".49" stroke="url(#L)" stroke-miterlimit="10"/><path d="M2016.12 521.53c0 106.33 423-61.25 303.05 59.62-33.5 75.72-230.37 14.41-337.05-32.93-98.43-43.67-225-74.65-250.17-46.29-15.15 17.06 10.64 10.23 28.29-9.13 10-11 14.89-28.69-.64-50.81-38.84-55.33-369.67-3-412 57.79-28.1 40.36 157.73 212.51 58.26 82.57-12.69-16.58-31.48-10.93-58.86-2.36-60.56 18.94-144.78 45.57-256.9 31.33-250.81-31.86-345-209.88-255.55-279.68 3.59-47.41 169.94 13.4-155.17 135a344.37 344.37 0 0 1-109.61 22c-95.11 3.87-147.11-44.87-223.69-43.29-44.21.9-61.17 26.26-67.39 56.67-10.35 50.24 7.53 96.68 32 110 43.53 23.72 111.27 29.84-12.81-39.46a294.21 294.21 0 0 0-71.7-28.09C74.92 506.19 4 515.4 4 515.4" stroke-width=".31" opacity=".49" stroke="url(#M)" stroke-miterlimit="10"/><path d="M2021.64 523.22c0 103.53 419.72-53.43 296.59 64.26-34.38 73.72-227.93 12.54-333.56-34.92-97.18-43.66-221.67-74.87-247.31-47.56-15.4 16.4 9.15 9.82 25.86-8.58 9.35-10.3 13.64-27.06-2-48-39.24-52.41-363.4.56-407.31 60.9-29.1 40 149.89 207.9 50.6 81.15-12.69-16.2-31.35-10.69-58.38-2.49-60.4 18.32-143.81 43.46-254.36 29C845 584.52 750.76 409.55 835.48 340.23c.81-47.71 160.26 10.54-158.8 129.38-40.92 15.24-76.45 20.46-108.45 22.08-94.35 4.76-145.92-41.6-221.14-39.14-43.38 1.42-60.15 26.56-66.45 56.63-10.48 49.69 6.45 95.67 29.79 109.11 41.48 23.89 106.58 30-16.15-37.29a294.39 294.39 0 0 0-71.11-27.31C72.49 516.33 4.13 523 4.13 523" stroke-width=".31" opacity=".49" stroke="url(#N)" stroke-miterlimit="10"/><path d="M2027.16 524.9c0 100.74 416.41-45.6 290.13 68.91-35.26 71.73-225.48 10.68-330.08-36.91-95.93-43.64-218.43-75.08-244.44-48.91-15.64 15.75 7.66 9.4 23.42-8 8.69-9.62 12.4-25.43-3.43-45.19-39.64-49.49-357.13 4.13-402.62 64-30.1 39.63 142 203.3 42.94 79.73-12.7-15.83-31.22-10.44-57.89-2.61-60.26 17.68-142.85 41.35-251.83 26.58-242.76-32.92-336.95-204.84-256.94-273.68-2-48 150.57 7.68-162.44 123.75-40.41 15-75.58 20.27-107.3 22.18-93.59 5.66-144.72-38.33-218.58-35-42.55 1.93-59.14 26.87-65.51 56.59C272 565.48 288 611 310.15 624.54c39.41 24 101.88 30.14-19.49-35.13a294.56 294.56 0 0 0-70.53-26.53C70.05 526.47 4.23 530.67 4.23 530.67" stroke-width=".32" opacity=".49" stroke="url(#O)" stroke-miterlimit="10"/><path d="M2032.68 526.59c0 97.94 413.11-37.79 283.67 73.55-36.14 69.73-223 8.81-326.59-38.9-94.69-43.62-215.16-75.3-241.58-50.22-15.89 15.09 6.18 9 21-7.49 8-8.94 11.14-23.81-4.82-42.38-40.06-46.58-350.87 7.69-397.94 67.13-31.09 39.27 134.21 198.69 35.28 78.32-12.7-15.46-31.09-10.21-57.41-2.75-60.1 17-141.88 39.25-249.28 24.21-238.75-33.42-332.95-202.29-257.66-270.65-4.78-48.32 140.89 4.81-166.07 118.11-39.9 14.73-74.7 20.08-106.14 22.3-92.83 6.54-143.52-35.07-216-30.84-41.71 2.43-58.12 27.17-64.57 56.55-10.73 48.57 4.26 93.63 25.32 107.26C347.2 655 407 661.07 287 597.82a295.42 295.42 0 0 0-70-25.75C67.62 536.61 4.34 538.31 4.34 538.31" stroke-width=".32" opacity=".49" stroke="url(#P)" stroke-miterlimit="10"/><path d="M2038.2 528.28c0 95.14 409.81-30 277.22 78.19-37 67.74-220.6 6.95-323.12-40.88-93.44-43.61-211.88-75.53-238.71-51.53-16.14 14.42 4.69 8.56 18.55-7 7.37-8.25 9.9-22.19-6.21-39.56-40.47-43.67-344.59 11.25-393.24 70.24-32.1 38.91 126.35 194.09 27.62 76.9-12.71-15.08-31-10-56.93-2.87-60 16.41-140.92 37.13-246.75 21.83C861.91 599.71 767.71 433.88 838.29 366c-7.57-48.62 131.19 1.94-169.71 112.48-39.38 14.47-73.83 19.89-105 22.4-92.08 7.43-142.32-31.8-213.48-26.69-40.88 2.94-57.1 27.47-63.62 56.51-10.86 48 3.15 92.6 23.07 106.34 35.26 24.31 92.48 30.43-26.15-30.81a296.42 296.42 0 0 0-69.38-25C65.18 546.76 4.44 546 4.44 546" stroke-width=".33" opacity=".49" stroke="url(#Q)" stroke-miterlimit="10"/><path d="M2043.72 530c0 92.34 406.51-22.15 270.76 82.82-37.91 65.75-218.16 5.1-319.63-42.86-92.2-43.58-208.6-75.75-235.86-52.84-16.37 13.76 3.22 8.15 16.13-6.41 6.71-7.57 8.64-20.57-7.61-36.76-40.89-40.75-338.32 14.83-388.55 73.36-33.09 38.56 118.49 189.49 20 75.49-12.72-14.71-30.84-9.76-56.45-3-59.81 15.77-140 35-244.21 19.46-230.69-34.44-324.9-197.23-259-264.63-10.36-48.92 121.5-.93-173.34 106.85-38.87 14.21-73 19.69-103.83 22.51-91.31 8.31-141.12-28.55-210.93-22.55-40 3.45-56.07 27.78-62.67 56.48-11 47.45 2 91.55 20.84 105.41 33.16 24.43 87.78 30.58-29.5-28.65-21.81-11-44.94-18.79-68.8-24.19C62.74 556.91 4.55 553.58 4.55 553.58" stroke-width=".33" opacity=".49" stroke="url(#R)" stroke-miterlimit="10"/><path d="M2049.24 531.66c0 89.54 403.21-14.33 264.3 87.46-38.79 63.76-215.71 3.25-316.15-44.85-91-43.56-205.32-76-233-54.15-16.62 13.1 1.74 7.73 13.69-5.87 6.06-6.89 7.39-18.94-9-33.94-41.33-37.85-332 18.39-383.87 76.46-34.09 38.21 110.63 184.89 12.3 74.08-12.72-14.33-30.72-9.53-56-3.13-59.68 15.11-139 32.92-241.68 17.09C873.23 609.85 779 450.1 840.15 383.19 827 334 952 379.37 663.18 484.4c-38.35 14-72.07 19.5-102.67 22.61-90.56 9.21-139.92-25.28-208.38-18.39-39.2 3.94-55.05 28.08-61.73 56.43-11.11 46.9.91 90.51 18.6 104.49 31.05 24.53 83.07 30.73-32.83-26.49-21.61-10.67-44.54-18.19-68.22-23.41C60.3 567.06 4.65 561.22 4.65 561.22" stroke-width=".34" opacity=".49" stroke="url(#S)" stroke-miterlimit="10"/><path d="M2054.76 533.34c0 86.75 399.91-6.5 257.84 92.11-39.67 61.76-213.27 1.39-312.66-46.84-89.71-43.53-202-76.18-230.13-55.46-16.86 12.45.26 7.32 11.26-5.32 5.39-6.21 6.12-17.32-10.39-31.14-41.77-34.94-325.77 22-379.17 79.58-35.09 37.85 102.76 180.3 4.63 72.67-12.73-14-30.59-9.31-55.48-3.27-59.54 14.46-138 30.82-239.13 14.72-222.65-35.46-316.87-192.18-260.44-258.61-15.94-49.53 102.11-6.71-180.61 95.58-37.84 13.69-71.2 19.3-101.52 22.71-89.79 10.1-138.71-22-205.82-14.24-38.36 4.45-54 28.38-60.78 56.39-11.25 46.34-.23 89.45 16.36 103.56 28.93 24.62 78.36 30.9-36.17-24.32-21.4-10.32-44.14-17.58-67.65-22.63-147-31.62-200.14-40-200.14-40" stroke-width=".34" opacity=".49" stroke="url(#T)" stroke-miterlimit="10"/><path d="M2060.28 535c0 84 396.61 1.32 251.38 96.75-40.55 59.77-210.83-.46-309.18-48.83-88.46-43.5-198.76-76.39-227.26-56.76-17.11 11.78-1.21 6.91 8.83-4.79 4.73-5.52 4.85-15.7-11.78-28.32-42.22-32-319.5 25.55-374.49 82.69-36.08 37.5 94.89 175.7-3 71.25-12.74-13.58-30.47-9.08-55-3.39-59.41 13.79-137 28.72-236.6 12.34C884.54 620 790.31 466.32 842 400.37c-18.73-49.83 92.42-9.6-184.25 89.95-37.32 13.43-70.31 19.11-100.35 22.82-89 11-137.51-18.77-203.27-10.09-37.52 4.95-53 28.68-59.84 56.35-11.37 45.78-1.38 88.37 14.12 102.63 26.81 24.68 73.66 31.05-39.5-22.16-21.2-10-43.74-17-67.07-21.85-146.43-30.66-197-41.53-197-41.53" stroke-width=".35" opacity=".49" stroke="url(#U)" stroke-miterlimit="10"/><path d="M2065.81 536.72c0 81.15 393.3 9.14 244.92 101.38-41.44 57.78-208.4-2.31-305.71-50.81-87.21-43.48-195.48-76.61-224.39-58.07-17.35 11.12-2.68 6.5 6.39-4.24 4.08-4.84 3.59-14.08-13.17-25.51-42.68-29.13-313.22 29.12-369.8 85.8-37.08 37.15 87 171.11-10.69 69.84-12.74-13.21-30.35-8.87-54.51-3.53-59.27 13.12-136.08 26.62-234.06 10C890.19 625.08 796 474.44 843 409c-21.53-50.14 82.71-12.49-187.89 84.32-36.8 13.17-69.44 18.92-99.19 22.92-88.28 11.88-136.31-15.51-200.73-5.94-36.68 5.45-52 29-58.89 56.31-11.49 45.22-2.53 87.28 11.88 101.71 24.68 24.7 68.95 31.21-42.84-20-21-9.61-43.33-16.36-66.48-21.07C53 597.52 5 584.13 5 584.13" stroke-width=".35" opacity=".49" stroke="url(#V)" stroke-miterlimit="10"/><path d="M2071.33 538.41c0 78.35 390 17 238.46 106-42.32 55.79-206-4.16-302.22-52.8-86-43.44-192.2-76.82-221.54-59.38-17.59 10.47-4.13 6.11 4-3.7 3.42-4.15 2.31-12.45-14.57-22.7-43.15-26.21-307 32.7-365.1 88.92-38.08 36.8 79.12 166.52-18.36 68.42-12.75-12.83-30.23-8.66-54-3.65-59.15 12.44-135.12 24.52-231.52 7.59-210.58-37-304.82-184.58-262.54-249.58-24.31-50.44 73-15.39-191.52 78.69-36.29 12.91-68.56 18.72-98 23C466.81 532 419.23 507 356.16 517.47c-35.84 5.95-51 29.29-58 56.28-11.62 44.66-3.69 86.17 9.65 100.78 22.54 24.7 64.23 31.37-46.18-17.84-20.79-9.26-42.93-15.75-65.91-20.3C50.55 607.68 5.07 591.77 5.07 591.77" stroke-width=".36" opacity=".5" stroke="url(#W)" stroke-miterlimit="10"/><path d="M2076.85 540.1c0 75.55 386.7 24.77 232 110.66-43.2 53.8-203.52-6-298.74-54.79-84.72-43.41-188.92-77-218.67-60.69-17.83 9.81-5.58 5.72 1.53-3.15 2.78-3.47 1-10.82-16-19.89-43.64-23.29-300.68 36.28-360.42 92-39.07 36.46 71.23 161.94-26 67-12.76-12.46-30.11-8.45-53.54-3.79-59 11.76-134.14 22.42-229 5.22-206.56-37.45-300.8-182-263.23-246.57-27.11-50.74 63.3-18.29-195.16 73.06-35.78 12.64-67.69 18.53-96.88 23.13-86.76 13.67-133.9-9-195.62 2.36-35 6.45-49.95 29.59-57 56.23-11.75 44.11-4.86 85 7.4 99.86 20.41 24.65 59.52 31.54-49.51-15.68-20.59-8.91-42.53-15.14-65.33-19.52C48.11 617.84 5.18 599.4 5.18 599.4" stroke-width=".36" opacity=".5" stroke="url(#X)" stroke-miterlimit="10"/><path d="M2082.37 541.78c0 72.76 383.39 32.6 225.54 115.31-44.08 51.8-201.08-7.85-295.25-56.78-83.49-43.38-185.64-77.25-215.81-62-18.08 9.14-7 5.34-.9-2.62 2.13-2.78-.25-9.18-17.35-17.07-44.13-20.36-294.4 39.86-355.73 95.13-40.06 36.11 63.34 157.36-33.68 65.6-12.77-12.08-30-8.24-53-3.91-58.9 11.06-133.18 20.32-226.45 2.85-202.58-37.94-296.83-179.52-263.98-243.56-29.9-51 53.6-21.2-198.79 67.43-35.27 12.38-66.81 18.34-95.73 23.23-86 14.57-132.69-5.76-193.06 6.51-34.17 7-48.94 29.9-56.06 56.19-11.88 43.55-3.15 82.13 5.17 98.94 22.38 20.9 54.8 31.7-52.85-13.52-20.39-8.51-42.13-14.51-64.76-18.74C45.66 628 5.28 607 5.28 607" stroke-width=".37" opacity=".5" stroke="url(#Y)" stroke-miterlimit="10"/><path d="M2087.89 543.47c0 70 380.09 40.42 219.08 119.95-45 49.81-198.64-9.7-291.77-58.77-82.24-43.34-182.36-77.47-212.94-63.3-18.32 8.49-8.36 5-3.34-2.07 1.49-2.1-1.53-7.55-18.74-14.27-44.63-17.42-288.12 43.45-351 98.25-41.09 35.74 55.4 152.74-41.38 64.19-12.78-11.7-29.88-8.05-52.57-4.05-58.77 10.36-132.21 18.23-223.9.48-198.52-38.44-292.77-177-264.63-240.56-32.7-51.32 43.89-24.11-202.43 61.8-34.75 12.12-65.94 18.14-94.57 23.34-85.24 15.46-131.49-2.52-190.51 10.65-33.33 7.44-47.92 30.21-55.12 56.16-12 43-4.14 81.07 2.93 98 20.47 21 50.08 31.87-56.19-11.35-20.18-8.21-41.72-13.93-64.17-18C43.22 638.18 5.39 614.68 5.39 614.68" stroke-width=".37" opacity=".5" stroke="url(#Z)" stroke-miterlimit="10"/><path d="M2093.41 545.16c0 67.16 376.79 48.24 212.63 124.58-45.85 47.82-196.22-11.53-288.29-60.75-81-43.3-179.08-77.68-210.08-64.61-18.57 7.83-9.58 4.74-5.77-1.53.86-1.42-2.82-5.91-20.13-11.45-45.15-14.47-281.85 47-346.35 101.36-42.06 35.42 47.53 148.2-49 62.77-12.8-11.32-29.77-7.84-52.09-4.17-58.65 9.64-131.25 16.13-221.37-1.9C918.47 650.54 824.21 515 847.63 451.91c-35.48-51.64 34.18-27-206.06 56.17-34.24 11.85-65.06 17.95-93.41 23.44-84.48 16.36-130.28.72-188 14.81-32.48 7.93-46.89 30.5-54.17 56.11-12.13 42.44-5.12 80 .69 97.08 18.56 21 45.36 32.06-59.52-9.18-20-7.86-41.32-13.32-63.6-17.19C40.78 648.35 5.49 622.32 5.49 622.32" stroke-width=".38" opacity=".5" stroke="url(#aa)" stroke-miterlimit="10"/><path d="M2098.93 546.85c0 64.36 373.49 56.06 206.17 129.22-46.73 45.83-193.78-13.37-284.81-62.74-79.77-43.26-175.79-77.89-207.21-65.92-18.81 7.18-11.83 3.79-8.21-1 0-.84-4.1-4.26-21.52-8.65-45.66-11.49-275.57 50.63-341.66 104.48-43 35.07 39.61 143.63-56.66 61.36-12.81-11-29.65-7.66-51.61-4.31-58.53 8.93-130.28 14-218.83-4.27-190.47-39.39-284.73-171.94-266-234.54-38.28-51.94 24.46-30-209.7 50.54-33.73 11.59-64.18 17.76-92.26 23.55-83.72 17.25-129.07 3.95-185.41 18.95-31.66 8.48-45.89 30.83-53.22 56.1a183.82 183.82 0 0 0-1.55 96.15c16.65 21.1 40.63 32.24-62.86-7-19.78-7.5-40.92-12.71-63-16.41C38.34 658.53 5.6 630 5.6 630" stroke-width=".38" opacity=".5" stroke="url(#ab)" stroke-miterlimit="10"/><path d="M2104.45 548.54c0 61.56 370.19 63.88 199.71 133.86-47.6 43.83-191.35-15.21-281.32-64.73-78.54-43.22-172.52-78.11-204.36-67.22-19 6.51-13.32 3.36-10.63-.45-.65-.15-5.4-2.6-22.92-5.83-46.18-8.51-269.29 54.22-337 107.59-44 34.73 31.69 139.07-64.33 59.94-12.83-10.56-29.54-7.46-51.12-4.43-58.42 8.19-129.32 12-216.29-6.65C929.78 660.76 835.5 531.21 849.5 469.09c-41.06-52.24 14.75-32.89-213.33 44.9-33.22 11.33-63.31 17.58-91.1 23.66-83 18.15-127.87 7.19-182.86 23.11-30.8 8.91-44.85 31.11-52.28 56-12.39 41.32-7.1 77.92-3.79 95.23 14.74 21.17 35.91 32.42-66.19-4.86-19.58-7.15-40.52-12.1-62.44-15.63C35.9 668.71 5.7 637.59 5.7 637.59" stroke-width=".39" opacity=".5" stroke="url(#ac)" stroke-miterlimit="10"/><path d="M2110 550.22c0 58.77 352.86 42.92 193.25 138.51-54.94 32.9-188.91-17.05-277.84-66.72-77.29-43.17-169.23-78.32-201.49-68.53-19.29 5.86-14.81 2.93-13.06.1-1.32.52-6.69-1-24.31-3-46.7-5.51-263 57.81-332.28 110.69-45 34.4 23.76 134.52-72 58.54-12.84-10.19-29.42-7.28-50.64-4.57-58.29 7.45-128.35 9.87-213.75-9-182.45-40.37-276.73-166.92-267.44-228.56-43.86-52.55 5-35.83-217 39.27-32.68 11.05-62.44 17.39-89.92 23.76-82.19 19-126.66 10.43-180.3 27.26-30 9.4-43.84 31.41-51.34 56-12.51 40.76-8.09 76.87-6 94.31 12.83 21.23 31.19 32.6-69.53-2.7-19.37-6.79-40.11-11.48-61.86-14.85-141.04-21.84-168.68-55.5-168.68-55.5" stroke-width=".39" opacity=".5" stroke="url(#ad)" stroke-miterlimit="10"/><path d="M2115.49 551.91c0 56 350.57 51.05 186.79 143.14-55.3 31.1-186.48-18.87-274.35-68.7-76.07-43.13-166-78.53-198.63-69.84-19.54 5.2-16.3 2.51-15.5.64-2 1.2-8 .72-25.7-.21-47.21-2.48-256.74 61.41-327.59 113.81-46 34.06 15.83 130-79.65 57.12-12.85-9.8-29.31-7.09-50.15-4.69-58.18 6.69-127.39 7.78-211.22-11.4C941.08 671 846.8 547.43 851.37 486.27c-46.65-52.85-4.69-38.77-220.61 33.64-32.19 10.8-61.55 17.2-88.78 23.87-81.44 20-125.45 13.65-177.76 31.4-29.12 9.89-42.81 31.72-50.39 56-12.64 40.2-9.07 75.82-8.26 93.38 10.91 21.3 26.45 32.79-72.87-.54-19.17-6.43-39.71-10.87-61.28-14.07C31 689.07 5.91 652.86 5.91 652.86" stroke-width=".4" opacity=".5" stroke="url(#ae)" stroke-miterlimit="10"/><path d="M2121 553.6c0 53.17 348.29 59.31 180.34 147.78-55.67 29.32-184.06-20.7-270.88-70.69-74.83-43.08-162.67-78.74-195.76-71.15-19.78 4.55-17.8 2.09-17.93 1.19-2.65 1.88-9.27 2.39-27.09 2.6-47.72.55-250.47 65-322.9 116.92-47 33.72 7.89 125.43-87.32 55.71-12.87-9.43-29.19-6.92-49.67-4.83-58.06 5.93-126.42 5.7-208.68-13.76-174.38-41.26-268.66-161.83-268.81-222.51-49.43-53.15-14.41-41.73-224.24 28-31.68 10.53-60.67 17-87.62 24-80.68 20.85-124.25 16.88-175.21 35.56-28.28 10.37-41.79 32-49.44 55.91-12.79 39.67-10.07 74.75-10.51 92.44 9 21.36 21.73 33-76.2 1.62-19-6.08-39.31-10.26-60.71-13.29C28.56 699.26 6 660.5 6 660.5" stroke-width=".4" opacity=".5" stroke="url(#af)" stroke-miterlimit="10"/><path d="M2126.53 555.29c0 50.37 346 67.7 173.88 152.42-56 27.58-181.64-22.53-267.4-72.68-73.59-43-159.39-78.95-192.89-72.45-20 3.88-19.29 1.66-20.37 1.72-3.31 2.56-10.55 4.07-28.48 5.41-48.22 3.61-244.19 68.61-318.21 120-48 33.38 0 120.9-95 54.29-12.88-9-29.08-6.74-49.18-4.95-58 5.14-125.46 3.61-206.14-16.14-170.36-41.67-264.64-159.25-269.5-219.46C801 450 829.1 458.76 625.36 525.83c-31.17 10.26-59.79 16.81-86.47 24.07-79.91 21.76-123 20.1-172.65 39.71-27.44 10.85-40.77 32.32-48.5 55.88C304.85 684.57 306.69 719.2 305 737c7.09 21.44 17 33.2-79.55 3.79-18.76-5.72-38.9-9.64-60.12-12.51C26.12 709.46 6.12 668.14 6.12 668.14" stroke-width=".41" opacity=".5" stroke="url(#ag)" stroke-miterlimit="10"/><path d="M2132.05 557c0 47.57 343.73 76.22 167.42 157.06-56.42 25.87-179.21-24.36-263.91-74.67-72.37-43-156.11-79.16-190-73.76-20.26 3.23-20.9 1-22.79 2.26-4.3 2.81-11.83 5.76-29.88 8.23-48.7 6.67-237.91 72.2-313.52 123.15-49 33-8 116.37-102.64 52.88-12.9-8.66-29-6.57-48.7-5.09-57.83 4.35-124.49 1.54-203.6-18.51C958 686.37 863.75 571.77 854.17 512c-55-53.75-33.87-47.66-231.51 16.75-30.66 10-58.92 16.62-85.31 24.18-79.15 22.66-121.85 23.31-170.1 43.85-26.61 11.33-39.75 32.63-47.56 55.84-13 38.53-12 72.67-15 90.6 5.18 21.5 12.26 33.4-82.88 6-18.57-5.36-38.5-9-59.55-11.73-138.6-17.83-156-61.71-156-61.71" stroke-width=".41" opacity=".5" stroke="url(#ah)" stroke-miterlimit="10"/><path d="M2137.57 558.66c0 44.78 341.43 84.89 161 161.71-56.82 24.18-176.79-26.18-260.43-76.66-71.13-42.92-152.83-79.37-187.17-75.07-20.51 2.57-22.38.66-25.23 2.81-4.84 3.67-13.1 7.44-31.26 11-49.17 9.74-231.64 75.8-308.83 126.26-50 32.7-16 111.86-110.31 51.46-12.92-8.27-28.85-6.4-48.21-5.21-57.72 3.54-123.53-.54-201.07-20.89-162.38-42.56-256.66-154.19-270.95-213.43C797.3 466.58 811.51 470 620 531.75c-30.15 9.72-58 16.43-84.15 24.28-78.39 23.56-120.65 26.52-167.55 48-25.77 11.8-38.74 32.93-46.62 55.79-13.14 38-13 71.62-17.22 89.68 3.27 21.57 7.53 33.61-86.21 8.11-18.37-5-38.1-8.41-59-11-138.02-16.75-152.92-63.2-152.92-63.2" stroke-width=".42" opacity=".5" stroke="url(#ai)" stroke-miterlimit="10"/><path d="M2143.1 560.35c0 42 339.1 93.66 154.49 166.34-57.24 22.54-174.36-28-256.94-78.63-69.91-42.88-149.55-79.59-184.31-76.39-20.75 1.92-23.86.27-27.66 3.35-5.45 4.43-14.37 9.13-32.66 13.85-49.63 12.82-225.37 79.4-304.14 129.37-51 32.37-23.91 107.36-118 50.06-12.94-7.89-28.73-6.24-47.73-5.35-57.59 2.72-122.56-2.61-198.52-23.26C969.33 696.65 875.05 588 856 529.23c-60.6-54.36-53.34-53.63-238.78 5.48-29.64 9.45-57.16 16.24-83 24.39-77.62 24.46-119.45 29.72-165 52.15-24.93 12.28-37.71 33.23-45.66 55.76-13.28 37.41-14 70.56-19.46 88.75 1.36 21.63 2.79 33.83-89.55 10.27-18.17-4.63-37.7-7.79-58.39-10.17C18.79 740.06 6.44 691.05 6.44 691.05" stroke-width=".42" opacity=".5" stroke="url(#aj)" stroke-miterlimit="10"/><path d="M2148.62 562c0 39.18 336.76 102.56 148 171-57.69 20.92-171.95-29.81-253.47-80.62-68.68-42.82-146.27-79.8-181.44-77.69-21 1.26-25.34-.14-30.1 3.89-6.07 5.15-15.62 10.81-34.05 16.66-50.06 15.89-219.09 83-299.45 132.48-52 32-31.87 102.87-125.62 48.64-13-7.49-28.62-6.08-47.25-5.47-57.48 1.87-121.61-4.68-196-25.64C975 701.8 880.7 596.1 857 537.82c-63.4-54.67-63.08-56.63-242.42-.15-29.13 9.17-56.29 16.05-81.84 24.49-76.86 25.37-118.26 32.93-162.45 56.31-24.1 12.75-36.69 33.53-44.72 55.71-13.4 36.86-18.06 68.67-21.7 87.83-4.05 21.32-1.94 34.06-92.89 12.43-18-4.27-37.3-7.18-57.81-9.39C16.35 750.27 6.54 698.68 6.54 698.68" stroke-width=".43" opacity=".5" stroke="url(#ak)" stroke-miterlimit="10"/><path d="M2154.14 563.73c0 36.38 334.37 111.58 141.58 175.62-58.16 19.32-169.54-31.62-250-82.61-67.46-42.76-143-80-178.58-79-21.25.64-26.82-.55-32.53 4.43-6.71 5.87-16.89 12.5-35.44 19.47-50.5 19-212.83 86.61-294.76 135.6-53 31.7-39.84 98.39-133.29 47.23-13-7.11-28.5-5.93-46.77-5.61-57.35 1-120.64-6.74-193.45-28-150.31-43.9-244.57-146.65-273-204.45-66.18-55-72.82-59.64-246.06-5.78-28.61 8.89-55.4 15.86-80.68 24.59-76.09 26.28-117.06 36.13-159.89 60.46-23.27 13.22-35.66 33.84-43.77 55.68-13.53 36.29-18.78 67.49-23.93 86.9-5.63 21.17-6.69 34.29-96.23 14.59a505.11 505.11 0 0 0-57.23-8.61C13.9 760.48 6.65 706.32 6.65 706.32" stroke-width=".43" opacity=".5" stroke="url(#al)" stroke-miterlimit="10"/><path d="M2159.66 565.42c0 33.58 331.94 120.72 135.12 180.26-58.65 17.74-167.12-33.44-246.5-84.6-66.23-42.7-139.71-80.16-175.71-80.31-21.49 0-28.31-1-35 5-7.36 6.56-18.14 14.18-36.84 22.28-50.92 22.05-206.55 90.21-290.07 138.71-54 31.37-47.8 93.92-141 45.81-13-6.71-28.38-5.78-46.28-5.73-57.22.14-119.69-8.81-190.91-30.38C986.25 712.13 892 612.32 858.85 555c-69-55.27-82.57-62.66-249.7-11.41-28.11 8.62-54.52 15.68-79.52 24.7-75.33 27.18-115.88 39.32-157.34 64.6-22.45 13.69-34.65 34.14-42.84 55.64-13.65 35.74-19.48 66.37-26.17 86-7.19 21.07-11.42 34.52-99.56 16.76a545.35 545.35 0 0 0-56.66-7.84C11.46 770.7 6.75 714 6.75 714" stroke-width=".44" opacity=".5" stroke="url(#am)" stroke-miterlimit="10"/><path d="M2165.18 567.11c0 30.78 329.45 129.95 128.66 184.89-59.17 16.2-164.71-35.24-243-86.58-65-42.63-136.44-80.37-172.86-81.61-21.73-.68-29.78-1.38-37.39 5.51-8 7.26-19.39 15.87-38.23 25.1-51.36 25.13-200.29 93.82-285.36 141.82-55 31-55.76 89.46-148.61 44.4-13-6.32-28.26-5.63-45.8-5.87-57.08-.75-118.73-10.86-188.37-32.75-142.34-44.72-227.89-148.45-274.44-198.43-61.85-66.43-92.32-65.69-253.33-17-27.6 8.33-53.64 15.49-78.36 24.8-74.57 28.09-114.7 42.51-154.79 68.76-21.62 14.15-33.64 34.44-41.89 55.6-13.79 35.18-20.19 65.28-28.42 85-8.76 21-16.15 34.78-102.89 18.93-17.37-3.18-36.1-5.33-56.08-7.07-135-11.69-137.16-71-137.16-71" stroke-width=".44" opacity=".5" stroke="url(#an)" stroke-miterlimit="10"/><path d="M2170.7 568.79c0 28 326.91 139.3 122.2 189.54-59.72 14.66-162.3-37-239.53-88.57-63.8-42.57-133.16-80.59-170-82.92-22-1.33-31.27-1.79-39.82 6.06s-20.64 17.55-39.62 27.9c-51.73 28.2-194 97.43-280.7 144.94-56 30.7-63.73 85-156.27 43-13-5.92-28.14-5.49-45.31-6-57-1.67-117.78-12.92-185.84-35.13C997.52 722.48 910.76 622 860.72 572.18c-66-65.75-102.07-68.74-257-22.68-27.1 8.06-52.76 15.31-77.21 24.92-73.79 29-113.52 45.69-152.24 72.9-20.79 14.61-32.61 34.75-40.94 55.56-13.91 34.62-20.88 64.24-30.65 84.12-10.34 21-20.89 35-106.24 21.09-17.17-2.81-35.69-4.72-55.5-6.29C6.57 791.15 7 729.23 7 729.23" stroke-width=".45" opacity=".5" stroke="url(#ao)" stroke-miterlimit="10"/><path d="M2176.22 570.48c0 25.19 324.3 148.72 115.75 194.18-60.32 13.15-159.9-38.85-236-90.56-62.59-42.5-129.89-80.8-167.13-84.23-22.23-2-32.75-2.21-42.26 6.6a237.7 237.7 0 0 1-41 30.72c-52.11 31.27-187.74 101-276 148-57 30.38-71.7 80.59-163.94 41.58-13.06-5.53-28-5.35-44.83-6.13-56.8-2.6-116.82-15-183.3-37.5-134.31-45.51-222.15-142.6-275.8-192.41-70.06-65-111.83-71.8-260.6-28.31-26.59 7.78-51.89 15.12-76 25-73 29.91-112.36 48.88-149.69 77-20 15.08-31.59 35.06-40 55.52-14 34.07-21.59 63.23-32.89 83.2-11.94 21.1-25.62 35.29-109.57 23.25-17-2.44-35.29-4.1-54.92-5.51C4.13 801.38 7.07 736.87 7.07 736.87" stroke-width=".45" opacity=".51" stroke="url(#ap)" stroke-miterlimit="10"/><path d="M2181.74 572.17c0 22.39 321.62 158.22 109.29 198.82-60.93 11.65-157.5-40.65-232.57-92.55-61.37-42.43-126.61-81-164.26-85.54-22.47-2.65-34.24-2.62-44.69 7.15a301 301 0 0 1-42.4 33.53c-52.5 34.32-181.48 104.64-271.32 151.15-58 30-79.66 76.18-171.6 40.16-13.08-5.12-27.88-5.21-44.34-6.25-56.65-3.57-115.87-17-180.76-39.88-130.32-45.9-219.15-139.55-276.5-189.4-74-64.31-121.59-74.87-264.24-33.94-26.09 7.49-51 14.93-74.9 25.12-72.25 30.83-111.19 52.06-147.13 81.21-19.16 15.53-30.57 35.35-39.05 55.48-14.17 33.5-22.32 62.25-35.14 82.27-13.55 21.19-30.35 35.56-112.9 25.41-16.77-2.06-34.89-3.48-54.34-4.73C1.69 811.62 7.17 744.51 7.17 744.51" stroke-width=".46" opacity=".51" stroke="url(#aq)" stroke-miterlimit="10"/><path d="M2187.26 573.86c0 19.59 318.88 167.79 102.83 203.46-61.57 10.16-155.1-42.45-229.09-94.54-60.15-42.35-123.33-81.23-161.39-86.84-22.72-3.31-35.73-3.05-47.13 7.68a386.5 386.5 0 0 1-43.79 36.38c-52.88 37.39-175.21 108.25-266.63 154.27C1483 823.94 1454.44 866 1362.8 833c-13.1-4.73-27.75-5.09-43.86-6.39-56.48-4.54-114.92-19.06-178.22-42.25-126.34-46.27-216-136.45-277.2-186.39-77.85-63.57-131.35-78-267.87-39.57-25.58 7.19-50.13 14.75-73.74 25.23-71.49 31.73-110 55.23-144.58 85.35-18.35 16-29.55 35.66-38.11 55.44-14.29 33-23.07 61.29-37.37 81.35-15.2 21.31-35.09 35.83-116.24 27.57-16.57-1.69-34.49-2.86-53.77-4-132.59-7.48-124.56-77.2-124.56-77.2" stroke-width=".46" opacity=".51" stroke="url(#ar)" stroke-miterlimit="10"/><path d="M2192.78 575.55c0 16.79 316.06 177.42 96.37 208.09-62.25 8.7-152.7-44.23-225.6-96.52-59-42.28-120.05-81.44-158.54-88.15-23-4-37.19-3.44-49.55 8.23-11.27 10.72-25.59 24.27-45.19 39.15-53.25 40.44-168.93 111.86-261.93 157.38-60 29.38-95.58 67.39-186.93 37.33-13.12-4.32-27.61-5-43.37-6.51-56.31-5.55-114-21.1-175.69-44.62-122.35-46.65-212.86-133.3-277.9-183.39-81.59-62.84-141.11-81.06-271.5-45.2-25.08 6.9-49.25 14.56-72.58 25.33-70.72 32.65-108.9 58.41-142 89.51-17.53 16.45-28.53 36-37.16 55.4-14.46 32.42-23.87 60.34-39.65 80.42-16.87 21.46-39.81 36.12-119.58 29.73-16.36-1.31-34.08-2.23-53.18-3.17-132-6.45-121.42-78.78-121.42-78.78" stroke-width=".47" opacity=".51" stroke="url(#as)" stroke-miterlimit="10"/><path d="M2198.3 577.23c0 14 313.16 187.1 89.91 212.74-63 7.23-150.31-46-222.12-98.51-57.74-42.2-116.77-81.66-155.67-89.46-23.2-4.62-38.68-3.86-52 8.77-11.94 11.4-26.83 26-46.58 42-53.63 43.49-162.59 115.66-257.25 160.5-61 29.17-103.53 63-194.59 35.92-13.14-3.91-27.47-4.84-42.89-6.65-56.12-6.58-113-23.12-173.14-47-118.39-47-209.6-130.1-278.6-180.38C780.14 553 714.5 531 590.24 564.3c-24.57 6.6-48.34 14.41-71.42 25.44-69.88 33.68-107.75 61.58-139.48 93.65-16.73 16.91-27.51 36.26-36.22 55.36-14.54 31.83-24.62 59.41-41.84 79.49-18.56 21.64-44.54 36.42-122.92 31.9-16.17-.93-33.67-1.61-52.61-2.39C-5.62 842.36 7.49 767.42 7.49 767.42" stroke-width=".47" opacity=".51" stroke="url(#at)" stroke-miterlimit="10"/><path d="M2203.82 578.92c0 11.2 310.19 196.82 83.46 217.38-63.71 5.77-147.93-47.81-218.64-100.5-56.54-42.12-113.5-81.87-152.81-90.77-23.45-5.28-40.17-4.28-54.42 9.32-12.6 12.08-28.06 27.62-48 44.77-54 46.52-156.34 119.23-252.56 163.61-62 28.81-111.47 58.66-202.24 34.5-13.16-3.5-27.34-4.71-42.41-6.77-55.93-7.63-112.1-25.15-170.61-49.37-114.42-47.35-206.27-126.87-279.3-177.37-88.83-61.42-160.65-87.32-278.78-56.46-24.07 6.29-47.46 14.22-70.26 25.54-69.12 34.57-106.63 64.76-136.93 97.8-15.93 17.37-26.49 36.57-35.27 55.32-14.65 31.28-25.4 58.49-44.05 78.57-20.27 21.82-49.25 36.72-126.25 34.06-16-.55-33.27-1-52-1.61C-8.06 852.61 7.59 775.05 7.59 775.05" stroke-width=".48" opacity=".51" stroke="url(#au)" stroke-miterlimit="10"/><path d="M2209.34 580.61c0 8.39 307.14 206.57 77 222-64.49 4.39-145.54-49.61-215.16-102.47-55.34-42-110.22-82.09-149.94-92.07-23.7-6-41.67-4.72-56.85 9.85-13.26 12.76-29.3 29.29-49.37 47.59-54.36 49.56-150.09 122.8-247.86 166.71-63 28.47-119.41 54.32-209.91 33.1-13.18-3.09-27.19-4.6-41.93-6.91-55.71-8.71-111.16-27.17-168.07-51.74-110.46-47.69-202.87-123.62-280-174.36-92.34-60.75-170.43-90.49-282.42-62.09-23.57 6-46.58 14-69.11 25.64-68.35 35.47-105.5 67.94-134.37 102-15.14 17.83-25.47 36.87-34.33 55.28-14.8 30.72-26.25 57.56-46.33 77.64-22 22-54 37-129.58 36.22-15.76-.17-32.87-.37-51.46-.83-130.16-3.25-112-83.44-112-83.44" stroke-width=".48" opacity=".51" stroke="url(#av)" stroke-miterlimit="10"/><path d="M2214.86 582.3c0 5.59 304 216.35 70.54 226.65-65.29 2.89-143.16-51.37-211.67-104.47-54.15-42-107-82.3-147.08-93.38-24-6.6-43.16-5.14-59.29 10.4-13.92 13.43-30.49 31-50.75 50.39-54.64 52.69-143.84 126.38-243.18 169.83-64 28.12-127.33 50-217.57 31.68-13.19-2.68-27-4.48-41.44-7-55.48-9.82-110.24-29.19-165.53-54.12-106.52-48-199.42-120.34-280.7-171.35-95.77-60.1-180.2-93.67-286.05-67.72a287 287 0 0 0-67.95 25.75C446.6 635.28 409.8 670.05 382.37 705 368 723.32 357.92 742.2 349 760.27c-14.93 30.16-27.1 56.65-48.56 76.72-23.76 22.22-58.67 37.35-132.93 38.38-15.55.22-32.46.29-50.87 0-129.55-1.93-108.82-85-108.82-85" stroke-width=".49" opacity=".51" stroke="url(#aw)" stroke-miterlimit="10"/><path d="M2220.38 584c0 2.79 300.83 226.14 64.08 231.29-66.13 1.44-140.85-53.07-208.19-106.46-53-41.81-103.67-82.51-144.21-94.69-24.19-7.26-44.65-5.56-61.72 10.94-14.59 14.12-31.75 32.64-52.15 53.21-55 55.66-137.59 130-238.49 172.94-65 27.76-135.23 45.67-225.23 30.27-13.2-2.26-26.87-4.37-41-7.17-55.23-10.94-109.36-31.09-163-56.49-102.67-48.15-195.91-117.06-281.39-168.34C770 590 679.15 552.61 579.44 576.14A257.91 257.91 0 0 0 512.65 602c-66.83 37.24-103.29 74.3-129.28 110.25-13.55 18.76-23.43 37.48-32.44 55.21-15.05 29.6-27.95 55.72-50.8 75.79-25.52 22.42-63.37 37.68-136.26 40.54-15.35.61-32.06.9-50.29.73C-15.36 883.55 7.91 798 7.91 798" stroke-width=".49" opacity=".51" stroke="url(#ax)" stroke-miterlimit="10"/><path d="M2225.91 585.67s297.55 235.94 57.61 235.94c-150.52 0-323.35-277.22-410.21-193s-254.55 321-560.7 253.63S747.6 468.55 511.1 605.05 421.84 893.7 110.53 893.7C-17.79 893.7 8 805.6 8 805.6" stroke-width=".5" opacity=".51" stroke="url(#ay)" stroke-miterlimit="10"/></g></g></svg>