<svg xmlns="http://www.w3.org/2000/svg" xmlns:xlink="http://www.w3.org/1999/xlink" viewBox="0 0 1920.25 1082.32"><defs><style>.cls-29{opacity:.3;mix-blend-mode:multiply}</style><linearGradient id="linear-gradient" y1="505.17" x2="1751.35" y2="505.17" gradientUnits="userSpaceOnUse"><stop offset="0" stop-color="#ea334a"/><stop offset="1" stop-color="#f05d44"/></linearGradient><linearGradient id="linear-gradient-2" y1="508.09" x2="1764.2" y2="508.09" xlink:href="#linear-gradient"/><linearGradient id="linear-gradient-3" y1="511.04" x2="1776.98" y2="511.04" xlink:href="#linear-gradient"/><linearGradient id="linear-gradient-4" y1="514.04" x2="1789.95" y2="514.04" xlink:href="#linear-gradient"/><linearGradient id="linear-gradient-5" y1="517.06" x2="1803.18" y2="517.06" xlink:href="#linear-gradient"/><linearGradient id="linear-gradient-6" y1="520.04" x2="1816.64" y2="520.04" xlink:href="#linear-gradient"/><linearGradient id="linear-gradient-7" y1="523.04" x2="1830.14" y2="523.04" xlink:href="#linear-gradient"/><linearGradient id="linear-gradient-8" y1="526.01" x2="1843.97" y2="526.01" xlink:href="#linear-gradient"/><linearGradient id="linear-gradient-9" y1="528.91" x2="1857.99" y2="528.91" xlink:href="#linear-gradient"/><linearGradient id="linear-gradient-10" y1="531.76" x2="1872.06" y2="531.76" xlink:href="#linear-gradient"/><linearGradient id="linear-gradient-11" y1="534.56" x2="1886.51" y2="534.56" xlink:href="#linear-gradient"/><linearGradient id="linear-gradient-12" y1="537.31" x2="1900.68" y2="537.31" xlink:href="#linear-gradient"/><linearGradient id="linear-gradient-13" y1="539.94" x2="1915.45" y2="539.94" xlink:href="#linear-gradient"/><linearGradient id="linear-gradient-14" y1="870.73" x2="1920.25" y2="870.73" xlink:href="#linear-gradient"/><linearGradient id="linear-gradient-15" y1="864.96" x2="1920.25" y2="864.96" xlink:href="#linear-gradient"/><linearGradient id="linear-gradient-16" y1="859.19" x2="1920.25" y2="859.19" xlink:href="#linear-gradient"/><linearGradient id="linear-gradient-17" y1="854.67" x2="1920.25" y2="854.67" xlink:href="#linear-gradient"/><linearGradient id="linear-gradient-18" y1="851.64" x2="1920.25" y2="851.64" xlink:href="#linear-gradient"/><linearGradient id="linear-gradient-19" y1="849.38" x2="1920.25" y2="849.38" xlink:href="#linear-gradient"/><linearGradient id="linear-gradient-20" y1="847.48" x2="1920.25" y2="847.48" xlink:href="#linear-gradient"/><linearGradient id="linear-gradient-21" y1="845.77" x2="1920.25" y2="845.77" xlink:href="#linear-gradient"/><linearGradient id="linear-gradient-22" y1="844.5" x2="1920.25" y2="844.5" xlink:href="#linear-gradient"/><linearGradient id="linear-gradient-23" y1="843.84" x2="1920.25" y2="843.84" xlink:href="#linear-gradient"/><linearGradient id="linear-gradient-24" y1="841.71" x2="1920.25" y2="841.71" xlink:href="#linear-gradient"/><linearGradient id="linear-gradient-25" y1="842.25" x2="1920.25" y2="842.25" xlink:href="#linear-gradient"/><linearGradient id="linear-gradient-26" y1="841.91" x2="1920.25" y2="841.91" xlink:href="#linear-gradient"/><linearGradient id="linear-gradient-27" y1="841.81" x2="1920.25" y2="841.81" xlink:href="#linear-gradient"/><linearGradient id="linear-gradient-28" y1="841.76" x2="1920.25" y2="841.76" xlink:href="#linear-gradient"/><linearGradient id="linear-gradient-29" y1="842.33" x2="1920.25" y2="842.33" xlink:href="#linear-gradient"/><linearGradient id="linear-gradient-30" y1="842.67" x2="1920.25" y2="842.67" xlink:href="#linear-gradient"/><linearGradient id="linear-gradient-31" y1="843.37" x2="1920.25" y2="843.37" xlink:href="#linear-gradient"/><linearGradient id="linear-gradient-32" y1="844.28" x2="1920.25" y2="844.28" xlink:href="#linear-gradient"/><linearGradient id="linear-gradient-33" y1="845.4" x2="1920.25" y2="845.4" xlink:href="#linear-gradient"/><linearGradient id="linear-gradient-34" y1="846.76" x2="1920.25" y2="846.76" xlink:href="#linear-gradient"/><linearGradient id="linear-gradient-35" y1="848.11" x2="1920.25" y2="848.11" xlink:href="#linear-gradient"/><linearGradient id="linear-gradient-36" y1="849.99" x2="1920.25" y2="849.99" xlink:href="#linear-gradient"/><linearGradient id="linear-gradient-37" y1="852.01" x2="1920.25" y2="852.01" xlink:href="#linear-gradient"/><linearGradient id="linear-gradient-38" y1="854.35" x2="1920.25" y2="854.35" xlink:href="#linear-gradient"/><linearGradient id="linear-gradient-39" y1="854.74" x2="1920.25" y2="854.74" xlink:href="#linear-gradient"/><linearGradient id="linear-gradient-40" y1="852.33" x2="1920.25" y2="852.33" xlink:href="#linear-gradient"/><linearGradient id="linear-gradient-41" y1="849.93" x2="1920.25" y2="849.93" xlink:href="#linear-gradient"/><linearGradient id="linear-gradient-42" y1="847.64" x2="1920.25" y2="847.64" xlink:href="#linear-gradient"/><linearGradient id="linear-gradient-43" y1="845.61" x2="1920.25" y2="845.61" xlink:href="#linear-gradient"/><linearGradient id="linear-gradient-44" y1="843.61" x2="1920.25" y2="843.61" xlink:href="#linear-gradient"/></defs><g style="isolation:isolate"><g id="Layer_2" data-name="Layer 2"><g id="Layer_1-2" data-name="Layer 1"><path d="M1660.54 322.7c-11.2-20.37-21.77-39.6-31.79-59.11-49.15-94.93-72.22-176.29-35.49-263.45l-5.14.53c-36.24 87.36-13 169 36.25 264.06 10 19.52 20.6 38.78 31.8 59.16 20.15 36.63 41 74.5 58.43 114.33 21.85 52 44.35 121.49 24 197.21-19.24 71.51-84.23 142.9-183.08 201.08-47.68 28.31-101.61 53.85-160.28 75.93-28.19 10.82-58.46 20.48-84.36 28.5-28.33 8.71-54.41 16.29-79.66 23.16-103.74 27-203 41.33-294.83 42.78-85.35.84-176.15-9.74-269.74-31.5-78.18-18.07-154.06-39-227.47-59.19-95.85-26.39-194.95-53.7-297.23-74Q70.57 828 .13 818.58v3.34q69.87 9.42 140.59 23.4c102.05 20.31 201.06 47.57 296.8 73.94 73.47 20.24 149.42 41.16 227.7 59.26 90.58 21.05 178.52 31.7 261.63 31.7 3.23 0 6.45 0 9.66-.05 92.41-1.42 192.1-15.9 296.37-43 25.35-6.89 51.5-14.5 79.9-23.23 26-8 56.35-17.74 84.68-28.63 59-22.17 113.14-47.86 161.06-76.29 99.67-58.65 165.24-130.75 184.65-203 20.53-76.42-2.11-146.37-24.13-198.79-17.47-39.93-38.32-77.85-58.5-114.53z" stroke="url(#linear-gradient)" opacity=".3" fill="none" stroke-miterlimit="10" stroke-width=".25"/><path d="M1728 432.78c-19.07-41.75-41.93-81.13-64-119.2-10.92-18.77-21.19-36.48-31-54.45C1589.24 180.19 1551.74 96 1589.05.57l-5.08.54c-36.78 95.7.82 180.1 44.67 259.22 9.85 18 20.15 35.73 31 54.5 22 38 44.86 77.34 63.87 119 16 35 26.21 66.45 31.38 96 6.66 36.46 5.86 71.16-2.29 103.14-17.48 72.93-80.69 145.69-178 204.83-47.54 29-101.67 55.32-160.93 78.21-13.8 5.17-28.16 10.37-42.62 15.47-12 4.15-23.86 7.85-36.37 11.78l-6.62 2.06c-28.06 8.63-53.61 16-80.49 23.35-105.48 27.75-205.49 42.44-297.24 43.64-86.39.84-177.63-10-271-32.08-78.73-18.55-155.26-40-229.27-60.84-95.95-26.93-195.14-54.83-297.5-75.6Q75.85 828.21.13 818.21v3.37q75.18 9.93 151.22 25.36c102.15 20.75 201.25 48.6 297.08 75.51 74.07 20.8 150.67 42.34 229.5 60.88 90.45 21.47 178.89 32.31 263.07 32.31h9.45c92.31-1.23 192.83-16 298.84-43.87 26.94-7.33 52.56-14.76 80.72-23.42l6.59-2.06c12-3.76 24.45-7.66 36.58-11.83 14.5-5.13 28.89-10.35 42.76-15.55 59.57-23 114-49.45 161.73-78.6 98.13-59.66 161.9-133.1 179.58-206.77 8.26-32.29 9-67.32 2.29-104.11-5.2-29.79-15.54-61.43-31.54-96.65z" stroke="url(#linear-gradient-2)" opacity=".3" fill="none" stroke-miterlimit="10" stroke-width=".25"/><path d="M1666.92 304c-10.5-17.07-20.38-33.2-30-49.5-45.78-77.8-85.64-160.68-52.12-253.5l-5 .55c-33 93.12 7 176.2 52.91 254.22 9.58 16.32 19.49 32.47 30 49.56 24.3 39.6 49.48 80.55 70 124 36.71 78.21 47.26 140.19 34.15 200.94-7.94 36.85-26.42 73.23-55 108.16-29.48 35.67-69.14 69.4-118 100.26-46.53 29.38-100.84 56.42-161.35 80.36-57.35 23-120.15 41-168.45 54.19-107.39 28.63-208.23 43.59-299.69 44.48-87.22 1-176.32-9.67-272.29-32.68-79.34-19-156.51-41.09-231.15-62.48-95.93-27.5-195.1-55.93-297.66-77.18Q81.11 828.4.13 817.92v3.34q80.46 10.52 161.87 27.3c102.33 21.2 201.4 49.6 297.21 77.08 74.69 21.39 151.93 43.54 231.41 62.52C787.06 1011.3 876.7 1022 964.46 1021c92-.88 193.35-15.89 301.26-44.69 48.48-13.2 111.49-31.33 169.08-54.39 60.83-24.06 115.37-51.22 162.15-80.75 49.2-31.11 89.18-65.11 118.9-101.1 28.85-35.27 47.54-72 55.55-109.28 13.21-61.32 2.64-123.76-34.33-202.51-20.56-43.55-45.77-84.58-70.15-124.28z" stroke="url(#linear-gradient-3)" opacity=".3" fill="none" stroke-miterlimit="10" stroke-width=".25"/><path d="M1746.23 423.76c-21.54-43.52-48.1-84.59-73.8-124.31-11.06-17.14-21.53-33.33-31.48-49.54-30.79-49.46-60.34-102.85-68.24-158.14a191.38 191.38 0 0 1 7.44-90.25l-5 .53a193.76 193.76 0 0 0-7.15 90.06c8 55.76 37.72 109.42 68.62 159.12 10 16.23 20.46 32.43 31.56 49.59 25.66 39.64 52.15 80.65 73.65 124 16.71 33.24 28.64 65.18 36.48 97.57 8 37.78 9 72.18 2.81 105.18-13 74.38-72.62 149.56-167.94 211.7-45.29 29.76-99.69 57.62-161.69 82.82-28.51 11.5-57.77 22.08-86.9 31.4-15.5 4.83-31.56 9.51-43.76 13.07q-20.34 5.6-40.3 11.24c-107 29-208.61 44.28-302.19 45.33-12 .17-23.9.15-35.41 0-10.54-.32-21.78-.81-34.33-1.52-23.92-1.42-47-3.53-68.59-6.23A1254.84 1254.84 0 0 1 704.74 990c-80.1-19.45-158-42.24-233.39-64.3-95.79-28-194.83-57-297.36-78.67Q86.42 828.51.13 817.53v3.36q85.76 11 172.53 29.29c102.3 21.64 201.23 50.58 296.91 78.55C545 950.8 623 973.62 703.2 993.1a1268.52 1268.52 0 0 0 136 25.56c21.74 2.72 44.95 4.83 69 6.28 12.64.73 23.95 1.22 34.63 1.52 11.58.15 23.57.17 35.57 0 94.11-1.08 196.34-16.41 303.83-45.55q20-5.67 40.33-11.26c12.28-3.58 28.37-8.29 43.94-13.13 29.26-9.39 58.67-20 87.31-31.57 62.31-25.31 117-53.3 162.56-83.26 96.09-62.65 156.25-138.55 169.36-213.68 6.24-33.31 5.3-68-2.85-106.12-7.88-32.6-19.88-64.71-36.65-98.13z" stroke="url(#linear-gradient-4)" opacity=".3" fill="none" stroke-miterlimit="10" stroke-width=".25"/><path d="M1674.83 289.91c-10.44-15.42-20.29-30-29.86-44.64-37.79-57.61-64.77-106.17-73.47-156-5.56-30.11-4.19-59.06 4.21-87.3-1.64.17-3.27.34-4.9.49-8.2 28.22-9.48 57.16-3.93 87.24 8.78 50.19 35.86 99.05 73.86 156.93 9.57 14.67 19.46 29.25 29.89 44.69 27.71 40.94 56.39 83.28 80.55 129 27.23 53.75 56.84 125.53 44.22 204.17-11.13 75.93-68.83 152.44-162.49 215.41-43.56 29.75-99.59 59.17-162.08 85.05-29.09 12-58.57 23-87.63 32.38-28.53 9.45-60.12 18.08-85.51 25l-.59.17c-106.45 29.29-209 44.84-304.8 46.19-44.45.81-88.63-1.72-139.1-7.87-20.54-2.63-42.1-6.09-67.79-10.94-22.82-4.35-45.72-9.38-68.09-14.92C636.58 975 558 951.59 482 928.9c-95.71-28.56-194.69-58.09-297.33-80.27Q92.66 828.8.13 817.28v3.34Q91.9 832.14 183.3 851.8c102.43 22.13 201.29 51.61 296.89 80.14 76.07 22.71 154.71 46.17 235.61 66.11 22.45 5.59 45.48 10.65 68.4 15 25.83 4.91 47.49 8.39 68.2 11 50.79 6.21 95.26 8.74 140 8 96.33-1.37 199.42-17 306.39-46.44l.59-.14c25.42-6.94 57.12-15.6 85.79-25.1 29.16-9.47 58.78-20.41 88-32.53 62.77-26 119.08-55.56 162.91-85.51 94.46-63.51 152.64-140.73 163.91-217.42 12.69-79.32-17.09-151.56-44.48-205.67-24.23-45.9-52.9-88.31-80.68-129.33z" stroke="url(#linear-gradient-5)" opacity=".3" fill="none" stroke-miterlimit="10" stroke-width=".25"/><path d="M1764.43 414.3c-26.63-48.49-58.18-92.85-88.7-135.74-9.15-12.83-18.13-25.47-26.77-37.91-39.67-57.38-68.24-105.5-78.78-153.81-6.45-29.18-6.12-57.17 1.08-84.39-1.62.16-3.24.31-4.86.44-7 27.25-7.28 55.26-.8 84.45 10.61 48.72 39.32 97.1 79.16 154.75 8.67 12.48 17.65 25.11 26.81 38 30.48 42.83 62 87.11 88.49 135.44 19.73 36.41 33.19 68.65 41.16 98.59 10.37 36.54 13.11 71.55 8.43 107.06-5.34 39.89-20.74 77.64-45.74 112.21-26.53 37.38-64 73.22-111.38 106.51-43.1 30.52-99.1 60.81-162.07 87.6-54.16 23.16-115.27 43.81-176.75 59.71-106.87 29.58-210.34 45.43-307.5 47.1-86.66 1.35-177.07-9.89-276.33-34.3-81.41-20.41-160.64-44.52-237.24-67.82C397 903 298.08 872.92 195.31 850.25Q98.05 828.8.13 816.77v3.33q97.13 12 193.8 33.29C296.46 876 395.26 906.06 490.8 935.15c76.69 23.33 156 47.5 237.52 67.93 99.81 24.56 190.76 35.77 278 34.46 97.72-1.66 201.71-17.58 309-47.31 61.73-16 123.14-36.68 177.54-60 63.26-26.93 119.6-57.37 162.95-88.09 47.75-33.53 85.51-69.67 112.24-107.32 25.25-35 40.82-73.13 46.23-113.43 4.71-35.82 1.94-71.15-8.5-108-8.03-30.06-21.55-62.5-41.35-99.09z" stroke="url(#linear-gradient-6)" opacity=".3" fill="none" stroke-miterlimit="10" stroke-width=".25"/><path d="M1678.36 270.23c-8.63-11.59-17.12-23-25.34-34.23-58.33-79.32-105-153.36-86.11-233.15-1.63.14-3.25.27-4.88.38-18.57 80.3 28.31 154.66 86.89 234.29 8.19 11.25 16.69 22.65 25.32 34.24 32.63 43.77 66.33 89 94.8 138.79 43.77 77.12 61.27 143 55.1 207.2-3.88 38.51-18.27 76.63-42.82 113.31-25.56 38.22-62.17 74.77-108.89 108.67-42.16 31.25-98.23 62.43-162.1 90.17a1202.58 1202.58 0 0 1-179.21 61.75c-112.56 30.88-214.29 46.63-311 48.18-87.23 1.35-178.1-10-277.7-34.81-82.18-20.9-162.18-45.73-239.54-69.77C407.41 905.64 308.7 875 206 851.85Q103.48 828.78.13 816.28v3.36A2064.83 2064.83 0 0 1 204.59 855c102.47 23.08 201 53.7 296.37 83.3 77.44 24 157.5 48.89 239.86 69.84 100.16 24.9 191.6 36.36 279.36 35 97.3-1.57 199.56-17.39 312.57-48.42a1210.29 1210.29 0 0 0 180-62c64.18-27.89 120.57-59.24 163-90.67 47.06-34.17 84-71 109.71-109.58 24.8-37 39.36-75.53 43.31-114.46 6.18-64.76-11.44-131.07-55.44-208.67-28.53-49.94-62.33-95.27-94.97-139.11z" stroke="url(#linear-gradient-7)" opacity=".3" fill="none" stroke-miterlimit="10" stroke-width=".25"/><path d="M1679 259.47q-11.13-14.25-21.84-28.12c-60.62-78.16-109.55-151-94.33-228.18-1.61.12-3.22.22-4.83.31-15 77.75 34.17 151 95.06 229.44q10.73 13.89 21.88 28.15c35.44 45.45 72.09 92.44 103.16 144.53 45.81 78.06 65 144.32 60.44 208.49-3.5 40.16-16.82 78.72-39.53 114.68-24.06 38.44-59.88 75.66-106.45 110.57-42.86 32.5-98.83 64.49-161.9 92.5a1214.88 1214.88 0 0 1-180.94 64l-5.48 1.42c-5.83 1.5-11.62 3-17.27 4.54-4 1-7.91 2-11.83 3l-9 2.25c-13.39 3.29-27.19 6.55-41 9.69l-3.92.86c-12.23 2.7-24.89 5.5-36.92 7.75-12.35 2.24-25.53 4.47-39.15 6.63-48.72 8-96.78 12.24-151.16 13.49-89.46 1.13-180.78-10.43-279-35.35-83.3-21.44-164.25-47.12-242.49-71.85-95.07-30.12-193.34-61.23-295.83-84.8A2053.72 2053.72 0 0 0 .13 815.71v3.34a2043.35 2043.35 0 0 1 215.12 37.56c102.25 23.5 200.39 54.6 295.34 84.65 78.33 24.83 159.35 50.49 242.76 72 98.74 25.07 190.57 36.68 280.67 35.57 54.75-1.28 103.06-5.59 152-13.59 13.7-2.16 26.91-4.39 39.33-6.65 12.13-2.28 24.86-5.07 37.13-7.8l3.92-.86c13.91-3.14 27.74-6.42 41.2-9.71l9-2.28c3.91-1 7.83-2 11.86-3 5.68-1.55 11.47-3 17.26-4.54l5.52-1.42a1222.51 1222.51 0 0 0 181.8-64.32c63.39-28.16 119.71-60.35 162.81-93 46.91-35.17 83-72.71 107.32-111.49 23-36.28 36.37-75.26 39.91-115.83 4.61-64.71-14.7-131.41-60.79-209.93-31.11-52.33-67.79-99.41-103.29-144.94z" stroke="url(#linear-gradient-8)" opacity=".3" fill="none" stroke-miterlimit="10" stroke-width=".25"/><path d="M1830.77 473.92c-3-6.82-6.25-13.66-9.44-20.27l-2.53-5.34c-6.83-14.67-15.67-29.53-24.27-43.92l-3-5.09c-33.26-53.72-72.48-101.73-110.38-148.14q-10.08-12.4-19.93-24.48c-65-79.68-115.06-149.7-103-223.22-1.6.09-3.2.16-4.79.2-11.9 74.16 38.39 144.59 103.74 224.66q9.78 12.09 19.94 24.48c37.83 46.35 76.95 94.27 110.1 147.8l3 5.07c8.53 14.32 17.34 29.14 24.1 43.67l2.57 5.36c3.15 6.6 6.41 13.42 9.36 20.14 3.3 8.58 6.56 17.19 9.68 25.82 13.42 39.18 18.93 75 16.81 109.48a243.79 243.79 0 0 1-36.16 115.91c-23.72 39.3-58.71 77.15-103.93 112.45-44.45 34.79-98.79 66.8-161.41 95.13a1224 1224 0 0 1-182.92 66.46c-14.8 4-30.2 7.92-45.67 11.67-12.3 3-25.79 6.21-41.19 9.69-23.2 5.18-53.4 11.68-81 15.7-23.79 3.66-51.63 7.68-77.78 9.87-25.31 2.08-50.41 3.43-74.62 4-90.09 1.15-184.4-10.89-280.49-35.79-84.78-22-167-48.6-246.53-74.28-94.28-30.45-191.77-61.94-293.7-85.86a2025.54 2025.54 0 0 0-227.21-40v3.34a2028.26 2028.26 0 0 1 225.75 39.79c101.7 23.78 199.07 55.27 293.23 85.72 79.6 25.7 161.9 52.27 246.87 74.35 96.63 25 191.64 37.16 282.2 36 24.37-.56 49.65-1.91 75-4 26.35-2.23 54.33-6.25 78.22-9.93 27.81-4 58.16-10.55 81.49-15.78 15.43-3.48 29-6.67 41.3-9.71 15.54-3.75 30.93-7.68 45.81-11.7a1231.51 1231.51 0 0 0 183.78-66.77c63-28.49 117.58-60.69 162.32-95.7 45.6-35.6 80.83-73.72 104.79-113.36a246.1 246.1 0 0 0 36.51-117.08c2.12-34.8-3.43-70.91-17-110.4-3.03-8.67-6.33-17.29-9.62-25.94z" stroke="url(#linear-gradient-9)" opacity=".3" fill="none" stroke-miterlimit="10" stroke-width=".25"/><path d="M1682.21 242q-8.58-10.14-17-20C1596 140.92 1545.08 73.6 1553.93 3.65q-2.39.08-4.77.09c-8.79 70.65 42.41 138.43 112 219.89q8.38 9.9 17 20c38.49 45.19 82.08 96.39 118.17 151.93 49.45 78.13 71.95 145.05 70.81 210.61-.35 38.71-11.44 78-33 116.89-22.47 39.94-56.45 78.48-101.08 114.54-44.39 36-98.52 68.78-160.86 97.58a1226.48 1226.48 0 0 1-184.86 68.74c-63.21 17.17-116.13 29-171.51 38.44-27.77 4.29-53.5 7.58-78.57 10.11-24.1 2.06-48.65 3.36-75 4-91.47 1.38-186.43-10.81-282.14-36.11-46.22-11.87-88.87-25.26-134-39.44l-1.75-.54c-38-12.34-77-25.2-114.62-37.63l-18.18-6C431.51 910.4 336.41 880.3 238 856.63A2022.28 2022.28 0 0 0 .13 814.31v3.34a2015.2 2015.2 0 0 1 236.41 42.1c98.17 23.62 193.13 53.69 273.06 80l18.2 6c37.65 12.44 76.6 25.29 114.68 37.63l1.77.57c45.23 14.2 88 27.59 134.31 39.52 96.23 25.43 191.72 37.67 283.89 36.3 26.53-.61 51.18-1.94 75.46-4 25.24-2.53 51.08-5.84 79-10.16 55.62-9.47 108.71-21.36 172.17-38.59a1231.24 1231.24 0 0 0 185.72-69c62.7-29 117.14-62 161.83-98.15 44.95-36.35 79.21-75.21 101.88-115.54 21.78-39.2 33-78.91 33.36-118 1.15-66-21.5-133.4-71.26-212-36.18-55.83-79.87-107.13-118.4-152.33z" stroke="url(#linear-gradient-10)" opacity=".3" fill="none" stroke-miterlimit="10" stroke-width=".25"/><path d="M1681.49 231.14l-12.52-14C1597.6 137.27 1544.74 71 1550.06 3.73h-4.75c-5.34 68.07 47.88 134.82 119.74 215.16l12.48 14c41.58 46.58 88.67 99.38 127.64 157.35 51.22 76.79 75.57 144.11 76.57 211.81a256.52 256.52 0 0 1-29.68 118c-20.5 39.3-53.68 78.35-98.55 116.16-44.39 37-98.1 70.64-159.68 100a1242.65 1242.65 0 0 1-187.15 71.46l-2.08.59c-14.77 4.24-30 8.61-44.66 12.07q-10.25 2.43-20.43 4.88l-2.88.69c-4.3.95-8.56 1.94-12.86 2.92l-9.26 2.11c-27.74 6.2-55.72 11.8-83.12 16.61-25.14 4-50.93 7.3-79 10.15-25.8 2.72-48.62 3.53-75.77 4.27-91.4 1.69-186.85-10.6-283.84-36.4-87.35-23.19-171.8-51.55-253.49-79-93.2-31.23-189.55-63.56-290.54-88.33A1998.86 1998.86 0 0 0 .13 813.6v3.34a1997.13 1997.13 0 0 1 247.08 44.4c100.77 24.7 197 57 290.06 88.26 81.78 27.45 166.32 55.83 253.84 79.07 97.57 25.95 193.64 38.29 285.63 36.6 27.32-.74 50.28-1.55 76.32-4.3 28.16-2.87 54.13-6.2 79.41-10.2 27.53-4.84 55.62-10.45 83.46-16.68l9.3-2.11c4.26-1 8.53-1.94 12.86-3l3-.68c6.76-1.62 13.52-3.27 20.35-4.86 14.81-3.48 30.14-7.9 44.94-12.14l2.12-.62a1249.09 1249.09 0 0 0 188-71.75c61.93-29.56 116-63.44 160.65-100.65 45.22-38.1 78.65-77.52 99.35-117.14a259.17 259.17 0 0 0 30-119.14c-1-68.22-25.46-135.95-77-213.21-39.24-58.09-86.4-110.98-128.01-157.65z" stroke="url(#linear-gradient-11)" opacity=".3" fill="none" stroke-miterlimit="10" stroke-width=".25"/><path d="M1818.18 383.42c-40.68-58.39-89.67-111.14-132.91-157.69l-12.52-13.48c-75.72-81-129.42-144.74-127-208.54q-2.19 0-4.38-.15c-2.7 71.2 61 139.33 127.54 210.51l12.51 13.48c43.17 46.46 92.1 99.11 132.64 157.31 52.91 76.94 79.68 146.53 81.8 212.7.87 43.66-7.67 82.59-26.11 119-20.57 41.19-52.74 80.88-95.6 118-42.76 37.31-96 71.82-158.37 102.58a1249.81 1249.81 0 0 1-189.57 74.16c-13.73 4-28.33 8.12-47.33 13.18-16.13 4.12-32.08 7.75-46.92 11.06-29.51 6.55-56.28 11.87-84.37 16.8-12.31 2.26-25.17 4.17-40.46 6.11-13.22 1.64-26.53 3.16-39.53 4.49l-1.7.15c-12.49 1.2-25.39 2.45-37.42 3-13.45.69-25.73 1.13-37.62 1.35-45.91 1.23-92.28-1.35-145.8-8a1152.23 1152.23 0 0 1-139.74-28.65c-88.39-23.72-173.9-53-256.58-81.27-92.84-31.76-188.74-64.6-289.41-89.82a1978.82 1978.82 0 0 0-259.2-47v3.34a1971.07 1971.07 0 0 1 257.63 46.73C358.15 888 454 920.75 546.67 952.47c82.77 28.34 168.38 57.65 257 81.42a1155.77 1155.77 0 0 0 140.54 28.8c53.9 6.77 100.57 9.3 146.8 8.1 12-.23 24.3-.67 37.83-1.33 12.17-.61 25.14-1.86 37.69-3.07l1.73-.17c13.08-1.32 26.43-2.84 39.71-4.54 15.39-1.91 28.4-3.85 40.78-6.1 28.15-4.94 55-10.31 84.57-16.9 14.91-3.29 31-6.92 47.2-11.07 19.07-5.1 33.74-9.17 47.5-13.25a1259.44 1259.44 0 0 0 190.44-74.47c62.7-30.94 116.3-65.67 159.3-103.23 43.21-37.41 75.63-77.44 96.37-119 18.62-36.82 27.25-76.12 26.42-120.18-2.2-66.64-29.14-136.68-82.37-214.06z" stroke="url(#linear-gradient-12)" opacity=".3" fill="none" stroke-miterlimit="10" stroke-width=".25"/><path d="M1827.09 378c-44.38-61.73-97.89-116.62-145.12-165l-5.41-5.55c-46.74-48.12-90.88-93.56-115.43-137.84-12.53-23.52-18.92-45.28-19.22-66-1.56-.07-3.12-.18-4.68-.31.25 21.18 6.76 43.42 19.56 67.46 24.76 44.66 69 90.25 116 138.53l5.37 5.57c47.16 48.34 100.6 103.13 144.81 164.65 55.17 77.83 83.67 147.68 87.21 213.59 2.71 40-5 80.3-22.78 119.85-19 41.48-51 82.94-92.48 119.88-42.55 38.12-95.43 73.4-157.12 104.82a1243.77 1243.77 0 0 1-191.58 76.83c-14.85 4.71-30.07 9.1-48 13.81-15.11 4.1-30.65 7.9-47.5 11.58q-11.91 2.54-23.72 5.13l-9.67 2c-3.82.79-7.7 1.57-11.52 2.38-13.62 2.72-27.74 5.37-42.27 7.9-13.8 2.35-28 4.81-41.12 6.5-15.09 1.89-27.67 3.31-39.7 4.49-30 3-55.31 4.61-77.64 4.83-92 2.26-186-9.84-287.3-37-89.3-24.28-175.7-54.38-259.26-83.5C466 920.34 370.39 887 270.06 861.32A1962.33 1962.33 0 0 0 .13 811.84v3.36a1959 1959 0 0 1 268.33 49.21c100.09 25.65 195.61 58.94 288 91.1 83.64 29.17 170.15 59.32 259.65 83.63 101.88 27.3 196.48 39.5 289.1 37.19 22.43-.22 48-1.79 78.12-4.86 12.1-1.17 24.76-2.62 39.91-4.51 13.21-1.69 27.53-4.15 41.75-6.6s28.4-5.13 42.1-7.87c3.85-.82 7.69-1.57 11.54-2.36l9.71-2q11.81-2.58 23.76-5.1c17-3.71 32.59-7.54 47.74-11.68 18-4.71 33.36-9.13 48.24-13.84a1253.79 1253.79 0 0 0 192.42-77.2c62-31.61 115.22-67.09 158.08-105.45 41.82-37.24 74.07-79 93.25-120.92 18-39.93 25.73-80.63 23-121-3.58-66.39-32.26-136.68-87.74-214.94z" stroke="url(#linear-gradient-13)" opacity=".3" fill="none" stroke-miterlimit="10" stroke-width=".25"/><path d="M1920.12 660.38a266.93 266.93 0 0 1-14.83 48.82c-17.45 41-47.65 81.81-89.71 121.26-41.51 38.68-93.87 74.81-155.63 107.37-27.46 14.59-59.67 29.46-95.67 44.15-31 12.71-63.91 24.68-97.85 35.55-32 10.16-64.61 19.13-96.85 26.61a1752.68 1752.68 0 0 1-47.3 9.94c-13.28 2.67-27.46 5.32-42.13 7.87-32.42 5.7-59.37 9.47-82.32 11.53-24.59 2.33-53 4.84-78.54 5.13-92.24 2.38-186.8-9.76-289.11-37.24-90.33-24.8-177.67-55.81-262.12-85.81-92-32.67-187.2-66.45-287.18-92.62A1950.62 1950.62 0 0 0 .13 810.83v3.36A1942.72 1942.72 0 0 1 279.26 866C379 892.15 474.05 925.88 566 958.53c84.56 30 172 61 262.55 85.93 102.9 27.62 198.09 39.84 290.91 37.44 25.73-.3 54.31-2.8 79-5.15 23.1-2.06 50.21-5.87 82.81-11.58 14.74-2.58 29-5.25 42.3-7.9 15.78-3.14 32.18-6.57 47.48-10 32.38-7.53 65.11-16.53 97.29-26.73 34.09-10.92 67.14-22.94 98.28-35.7 36.2-14.79 68.52-29.73 96.15-44.4 62.11-32.72 114.74-69.05 156.53-108 42.44-39.76 72.85-80.93 90.47-122.31a269.55 269.55 0 0 0 10.36-29.88z" stroke="url(#linear-gradient-14)" opacity=".3" fill="none" stroke-miterlimit="10" stroke-width=".25"/><path d="M1920.12 656.63a278.16 278.16 0 0 1-20.56 59.88c-19.62 41-51.32 81-94.35 118.63-42.68 37.68-95.7 72.56-157.57 103.67-58.15 29.17-124.59 55.39-192.07 75.9-51.08 15.92-112.8 29.88-183.47 41.53-15.88 2.6-29.19 4.59-41.82 6.3-12.44 1.52-25.45 2.85-39.7 4.1-24.41 2.09-52.81 4.24-78 4.27-92.83 1.52-184.76-10.72-289.41-38.69-87.71-24-172.74-53.18-255-81.44-95.64-32.85-194.5-66.85-298.11-92.7A1982.29 1982.29 0 0 0 .13 810.22v3.33a1976.53 1976.53 0 0 1 268.37 47.64c103.37 25.81 202.12 59.74 297.64 92.56 82.3 28.28 167.41 57.55 255.32 81.54 105.24 28.11 197.82 40.5 291.13 38.9 25.42 0 54-2.15 78.58-4.26 14.32-1.25 27.36-2.63 39.95-4.15 12.72-1.72 26.07-3.73 42.06-6.35 70.91-11.68 132.91-25.71 184.27-41.7 67.75-20.59 134.47-46.93 192.9-76.22 62.21-31.3 115.54-66.38 158.5-104.31 43.34-38 75.35-78.23 95.12-119.61a287.85 287.85 0 0 0 16.15-42.59z" stroke="url(#linear-gradient-15)" opacity=".3" fill="none" stroke-miterlimit="10" stroke-width=".25"/><path d="M1920.12 653a265.47 265.47 0 0 1-26.49 70.92c-22.12 40.38-55.41 79.38-98.89 115.91s-97.23 70.06-159.41 100a1254 1254 0 0 1-190.51 72.07c-16.67 5-33.28 9.18-47.54 12.71-15.74 4-31.55 7.51-47 10.55l-4.23.81c-6.45 1.27-12.9 2.52-19.28 3.8l-21 3.85c-15 2.68-28.61 4.93-41.68 6.92l-4.68.71c-12.24 1.84-24.87 3.75-36.55 5-12.73 1.35-26 2.58-39.57 3.66-30.27 2.45-55.58 3.55-77.5 3.38-91.33.64-186.19-12.51-289.75-40.11-85-23-167.55-50.46-247.41-77-99.38-33.18-202.1-67.37-309.48-92.86a2009.94 2009.94 0 0 0-259-43.86v3.33a2006 2006 0 0 1 257.53 43.64C364.79 881.87 467.4 916 566.62 949c79.93 26.59 162.6 54.09 247.74 77.15 104.14 27.75 199.38 40.9 291.4 40.31 22 .17 47.54-.93 78-3.41 13.6-1.06 27-2.28 39.71-3.66 11.86-1.25 24.58-3.16 36.86-5l4.71-.72c13.08-2 26.77-4.24 41.82-6.94l21.09-3.85c6.41-1.3 12.83-2.53 19.27-3.8l4.24-.84c15.57-3 31.52-6.62 47.33-10.59 14.32-3.56 31-7.73 47.78-12.79a1262.13 1262.13 0 0 0 191.35-72.36c62.55-30.1 116.5-64 160.37-100.6s77.36-76.1 99.69-116.84a271.34 271.34 0 0 0 22.12-53.63z" stroke="url(#linear-gradient-16)" opacity=".3" fill="none" stroke-miterlimit="10" stroke-width=".25"/><path d="M1920.12 651.5a254.22 254.22 0 0 1-32.52 79.8c-24.31 39.64-59.16 77.57-103.58 112.77-44.8 35.52-98.93 68-160.89 96.63a1265.67 1265.67 0 0 1-189 68.22c-32.66 8.85-64.11 16.14-93.55 21.63-16.06 3.1-28.51 5.23-43.1 7.73-15 2.5-28.61 4.61-41.48 6.45-27.67 4.25-52.6 6.26-80 8.27-13.52 1-26.77 1.69-39.28 2.21-12.25.34-23.83.34-37.7.32-24.48-.32-50.38-.79-74.62-3-23.51-2-48-4.71-72.73-8.21-26-3.83-50.68-8.76-71.38-13.08-22.51-4.63-45.84-10.28-71.4-17.19-81.75-22-161.4-47.62-238.43-72.44-103.56-33.39-210.66-67.91-322.32-93.08a2033.68 2033.68 0 0 0-248-40v3.31a2032.57 2032.57 0 0 1 246.56 39.83c111.4 25.12 218.36 59.59 321.81 92.93 77.09 24.85 156.81 50.53 238.7 72.51 25.65 7 49.13 12.64 71.74 17.29 20.79 4.35 45.56 9.28 71.76 13.16 24.88 3.5 49.5 6.27 73.08 8.26 24.48 2.21 50.52 2.7 75.18 3 13.94 0 25.55 0 37.93-.32 12.66-.51 25.94-1.25 39.57-2.2 27.56-2 52.6-4 80.48-8.34 12.9-1.84 26.49-4 41.61-6.45 14.64-2.51 27.12-4.67 43.24-7.76 29.55-5.54 61.17-12.85 94-21.73a1274.81 1274.81 0 0 0 189.85-68.52c62.31-28.8 116.79-61.49 161.83-97.24 44.77-35.44 79.89-73.66 104.37-113.62a256.32 256.32 0 0 0 28.26-63z" stroke="url(#linear-gradient-17)" opacity=".3" fill="none" stroke-miterlimit="10" stroke-width=".25"/><path d="M1920.12 652.75a287.37 287.37 0 0 1-38.69 86c-26.28 38.61-62.66 75.48-108.19 109.6-46 34.52-100.6 65.79-162.39 92.93a1254.52 1254.52 0 0 1-187.28 64.72c-16.27 4-31.45 7.63-46.47 11-16.61 3.51-32.63 6.5-46.08 9-28.68 5.12-55.07 9.27-83 13-13 1.81-26.15 3.23-40 4.37-14.11 1.17-27 2.1-39.26 2.86-12.13.69-25.9 1.48-38.93 1.72-13.43.17-25.7.15-37.63 0-45.39-.34-90.81-4.12-147.2-12.21a1428.81 1428.81 0 0 1-143.3-30.62c-78.21-20.83-154.6-44.67-228.47-67.75-108.07-33.71-219.78-68.59-336-93.39a2067.73 2067.73 0 0 0-237-36.41v3.36a2057.07 2057.07 0 0 1 235.65 36.21c115.94 24.73 227.53 59.56 335.45 93.27 73.95 23.06 150.39 46.93 228.73 67.8a1435.52 1435.52 0 0 0 144 30.74c56.74 8.14 102.41 11.95 148.08 12.29 12 .2 24.3.22 37.79.07 13.22-.27 27-1 39.26-1.74 12.38-.76 25.24-1.69 39.39-2.87s27.25-2.57 40.4-4.42c28.08-3.75 54.54-7.89 83.36-13 13.49-2.48 29.57-5.5 46.25-9 15.09-3.41 30.34-7 46.68-11.09a1258 1258 0 0 0 188.18-65c62.14-27.31 117.11-58.76 163.33-93.49 45.84-34.34 82.52-71.51 109-110.44a291.15 291.15 0 0 0 34.5-71.11z" stroke="url(#linear-gradient-18)" opacity=".3" fill="none" stroke-miterlimit="10" stroke-width=".25"/><path d="M1920.12 655.45c-9.11 30.89-24.3 61.23-45.56 90.47-26.67 37-64.39 72.91-112.14 106.74-47.19 33.43-102.29 63.43-163.81 89.19a1253.34 1253.34 0 0 1-185.41 61c-28.12 6.89-58 13-91.34 18.55-28 4.68-55.62 8.68-81.87 11.89-57.14 6.11-109.22 8.46-154.79 7-44.28-.71-89.64-4.8-147-13.27-50.21-8.34-98.64-18.72-143.91-30.88-74.24-19.58-146.92-41.58-217.22-62.83-113-34.17-229.78-69.49-351-93.93A2102.61 2102.61 0 0 0 .13 806.64V810a2091.21 2091.21 0 0 1 224.66 32.67c121 24.34 232.45 58.07 350.48 93.76 70.35 21.29 143.08 43.3 217.41 62.9 45.45 12.21 94.07 22.64 144.54 31 57.69 8.49 103.28 12.61 147.84 13.32 45.81 1.47 98.2-.93 155.7-7.06 26.39-3.24 54-7.24 82.18-12 33.49-5.6 63.52-11.7 91.78-18.65A1258.47 1258.47 0 0 0 1601 944.67c61.83-25.88 117.24-56.07 164.75-89.68 48.06-34.08 86.06-70.26 112.94-107.57 18.24-25.07 32-50.95 41.43-77.3z" stroke="url(#linear-gradient-19)" opacity=".3" fill="none" stroke-miterlimit="10" stroke-width=".25"/><path d="M1920.12 658.81c-22.53 69.79-81.69 139.61-168.48 198.16-48.24 32.31-103.79 61-165.17 85.42a1237.74 1237.74 0 0 1-183.57 57.28c-14.77 3.36-30.44 6.84-45.46 9.47-14.67 2.65-31.35 5.62-44.07 7.53-27.29 4.27-54.69 7.95-81.39 11-58.43 5.32-108.67 7-153.65 5.17-91.16-3-186.43-17.88-291.34-45.43-69.59-18.2-137.93-38.22-204-57.6C459 893.43 341.87 859.11 215 835A2132.76 2132.76 0 0 0 .13 805.6v3.32a2117.87 2117.87 0 0 1 213.63 29.31c126.6 24 243.58 58.29 367.44 94.59 66.13 19.38 134.49 39.42 204.16 57.65 105.36 27.65 201.15 42.59 292.73 45.63 45.25 1.84 95.78.15 154.59-5.2 26.83-3 54.34-6.75 81.66-11 12.79-1.94 29.54-4.93 44.21-7.56 15.16-2.65 30.93-6.18 45.77-9.56a1236.61 1236.61 0 0 0 184.44-57.56c61.69-24.48 117.59-53.37 166.1-85.85 82.08-55.42 139.75-120.87 165.26-186.9z" stroke="url(#linear-gradient-20)" opacity=".3" fill="none" stroke-miterlimit="10" stroke-width=".25"/><path d="M1920.12 662.37c-25 70.13-88.24 140.32-179.55 198.55-49 31.43-104.93 59-166.2 82a1234.47 1234.47 0 0 1-181.7 53.57c-16.64 3.73-32.77 6.6-44.94 8.66-6.52 1.06-13 2.16-19.45 3.26l-23.34 3.56c-24.24 3.41-52.78 7.26-80.72 9.89-26.29 2-52.4 3.48-77.57 4.29-26 .83-51.05 0-75.25-.81-91.16-3.95-186.61-19.21-291.82-46.68-64.7-16.76-128.4-34.86-190-52.38-130.09-37-252.94-71.92-385.73-95.55Q102.57 812.69.13 804.4v3.31q101.78 8.29 202.59 26.23c132.46 23.55 255.18 58.43 385.11 95.4 61.65 17.52 125.4 35.66 190.17 52.4 105.6 27.57 201.52 42.9 293.17 46.88 24.34.83 49.48 1.64 75.69.81 25.28-.81 51.5-2.26 77.92-4.32 28.16-2.63 56.8-6.48 81.11-9.94l20.35-3 3.12-.54c6.45-1.08 12.9-2.18 19.46-3.24 12.24-2.08 28.5-4.93 45.25-8.7a1240 1240 0 0 0 182.53-53.85c61.55-23.08 117.8-50.8 167.11-82.43 86.93-55.46 148.62-121.69 176.42-188.54z" stroke="url(#linear-gradient-21)" opacity=".3" fill="none" stroke-miterlimit="10" stroke-width=".25"/><path d="M1920.12 666.64c-15 35.66-37.45 69.67-66.92 101-32.77 34.61-74.45 67.29-123.79 97.17s-105.52 56.22-166.9 78.33a1202.47 1202.47 0 0 1-180 50.11c-26.28 5.18-56.83 10.13-86 13.94l-4.44.58c-25.1 3.22-51 6.53-75.49 8.2-26.49 1.76-52.53 2.92-77.25 3.48-27.64.3-54.55-.69-74.83-1.59-91.44-5-187.06-20.63-292.32-47.91-59-15.11-117.3-31.21-173.68-46.76-137-37.8-266.38-73.52-405.83-96.68Q97 810.59.13 803.23v3.33q96.21 7.4 191.46 23.18c139.12 23.11 268.37 58.8 405.2 96.56 56.39 15.57 114.71 31.64 173.76 46.78 105.66 27.4 201.69 43.12 293.57 48.1 20.46.91 47.43 1.89 75.28 1.62 24.86-.56 51-1.74 77.6-3.53 24.62-1.67 50.7-5 75.91-8.22l4.4-.56c29.34-3.85 60-8.83 86.45-14a1206.06 1206.06 0 0 0 180.87-50.39c61.69-22.2 118.17-48.69 167.83-78.72s91.62-63 124.62-97.82c26.92-28.68 48-59.47 63-91.75z" stroke="url(#linear-gradient-22)" opacity=".3" fill="none" stroke-miterlimit="10" stroke-width=".25"/><path d="M1920.12 671.94c-33.53 72.53-105.12 142.42-201.84 196.86-48.27 27.72-106.18 53.48-167.45 74.47a1222.77 1222.77 0 0 1-178.34 46.83c-15.88 2.7-30.31 5-44.14 7.12-14.11 2.08-26.63 3.65-40.3 5.35l-27.25 3.09-12.76 1.39c-6.69.69-13.39 1.35-19.94 2l-4.3.27c-5 .31-10 .63-14.91.9-26.56 1.5-52.47 2.41-76.91 2.7-25.38-.24-50.46-1-74.52-2.38-91-5.79-186.8-21.85-292.82-49.11-34.38-8.56-68.24-17.73-101-26.61q-22.62-6.15-45.25-12.2c-48.32-13.34-96.69-26.25-143.82-38.36-109.83-28.14-203-47.76-293.18-61.77Q91.29 808.48.13 802v3.31q90.57 6.56 180.27 20.36c90 14 183 33.56 292.6 61.67 47.07 12.1 95.44 25 143.75 38.32q22.68 6.08 45.23 12.19c32.77 8.91 66.67 18.08 101.08 26.67 106.39 27.35 202.54 43.47 294 49.26 24.17 1.35 49.38 2.18 74.9 2.4 24.62-.3 50.62-1.2 77.29-2.7 5-.27 10-.59 15-.91l4.4-.29c6.69-.61 13.39-1.28 20.11-2l12.8-1.43c9-1 18.13-2 27.32-3.06 13.73-1.72 26.25-3.29 40.47-5.37 13.87-2.09 28.33-4.45 44.28-7.14a1230.27 1230.27 0 0 0 179.24-47.08c61.65-21.1 119.84-47 168.39-74.87 93.34-52.57 163.46-119.51 198.89-189.42z" stroke="url(#linear-gradient-23)" opacity=".3" fill="none" stroke-miterlimit="10" stroke-width=".25"/><path d="M1920.12 676.43c-.72 1.42-1.38 2.84-2.14 4.26-36.38 69.94-111.24 138.16-210.83 192.06-48.9 26.47-107 50.87-168 70.62a1220.81 1220.81 0 0 1-176.61 43.35c-194.46 31.25-386.84 20.51-605.46-33.81-43.79-11-87.43-22.42-129.63-33.43-154.83-40.43-301-78.62-457.36-101Q85.66 806.29.13 800.63v3.31q85 5.73 169.06 17.73c156 22.38 302 60.52 456.68 100.9 42.22 11 85.85 22.42 129.69 33.46 219.47 54.53 412.69 65.3 608.05 33.88a1221.44 1221.44 0 0 0 177.51-43.54c61.27-19.85 119.66-44.38 168.87-71 98.38-53.25 172.72-120.42 210.13-189.52z" stroke="url(#linear-gradient-24)" opacity=".3" fill="none" stroke-miterlimit="10" stroke-width=".25"/><path d="M1920.12 681.75q-2.32 4.15-4.78 8.27c-39.49 67.8-117.48 134-219.5 186.33l-8.53 4.2c-10 5-20.49 10.08-31 14.89a3771.07 3771.07 0 0 1-41.55 17.66c-13 4.93-27.25 10.18-43.48 16-11.1 3.9-21.81 7.31-33.18 11l-10.48 3.33a1226.86 1226.86 0 0 1-174.9 39.84c-30.31 4.61-54.86 7.24-81.45 10l-7.7.68c-10.68 1-21.36 1.92-31.87 2.92-11 .76-21.5 1.16-32.59 1.57l-13.63.47c-22.54.66-45.88 1.35-67.79.61-24-.66-49-1.89-74.28-3.6-88.72-7.34-184.85-24.14-293.91-51.37q-51.68-12.91-102.26-25.9c-165.6-42.2-322-82.06-488.45-104.07Q79.92 804.12.13 799.18v3.28q79.3 5 157.79 15.34C324 839.73 480.21 879.54 645.63 921.71q50.67 12.91 102.28 25.91c109.4 27.3 205.87 44.15 295 51.51 25.34 1.74 50.45 3 74.55 3.63 22.12.76 45.56.07 68.21-.61l13.66-.44c11.13-.45 21.67-.84 32.87-1.62 10.58-1 21.26-1.94 31.94-2.9l7.7-.71c25.76-2.62 51.42-5.37 81.83-10a1233.93 1233.93 0 0 0 175.84-40l10.48-3.36c11.4-3.61 22.19-7 33.35-11 16.3-5.89 30.55-11.14 43.66-16.12q21.23-8.87 41.78-17.74c10.65-4.85 21.12-10 31.21-15l8.57-4.2c102.74-52.74 181.28-119.44 221.09-187.76a8.52 8.52 0 0 1 .48-.83z" stroke="url(#linear-gradient-25)" opacity=".3" fill="none" stroke-miterlimit="10" stroke-width=".25"/><path d="M1920.12 687.56c-2.42 4-4.95 8-7.55 11.88-23.89 34.61-54.69 67-91.45 96.4-39.52 31.06-85.51 59.34-136.72 84.09-48.62 23.8-106.8 45.78-168.35 63.56a1217.06 1217.06 0 0 1-173.17 36.36c-106.25 14.25-206.53 17.12-306.57 8.78-88.34-8.09-181.91-24.78-294.5-52.5q-31.08-7.68-61.8-15.33c-180.71-45-351.39-87.52-531.61-109.33Q74.69 802.53.13 798.35v3.31q74.11 4.26 147.47 13.05C327.45 836.49 498 879 678.47 923.92l61.81 15.33c112.91 27.79 206.77 44.52 295.44 52.64 100.56 8.39 201.33 5.52 308-8.8a1223.14 1223.14 0 0 0 174.08-36.55c61.83-17.86 120.32-40 169.18-63.88 51.53-24.9 97.79-53.36 137.59-84.61 37.07-29.58 68.07-62.28 92.14-97.19 1.18-1.74 2.25-3.51 3.39-5.25z" stroke="url(#linear-gradient-26)" opacity=".3" fill="none" stroke-miterlimit="10" stroke-width=".25"/><path d="M1920.12 693.4c-3.43 5.2-7 10.38-10.71 15.5C1857.88 776.34 1774 838.33 1673 883.47c-49.66 22.74-107.81 43.37-168.21 59.68a1187.42 1187.42 0 0 1-171.65 33.29c-103.23 12.51-202.61 14.1-303.76 4.83-86.67-8.49-177.73-25-295.26-53.4l-29.86-7.34C510.87 873 328.21 828.17 136 807Q68.5 799.64.13 796.18v3.29Q68 803 135.22 810.29c191.86 21.1 374.33 65.92 567.51 113.36l29.85 7.35c117.85 28.51 209.18 45 296.17 53.58 101.67 9.3 201.5 7.7 305.15-4.88a1194.22 1194.22 0 0 0 172.54-33.44c60.72-16.39 119.18-37.14 169-60 101.63-45.41 186.14-107.84 238-175.79q3.38-4.68 6.58-9.35z" stroke="url(#linear-gradient-27)" opacity=".3" fill="none" stroke-miterlimit="10" stroke-width=".25"/><path d="M1920.12 699.16c-4.64 6.34-9.46 12.64-14.7 19-54 65.3-138.32 123.69-243.84 168.83-50.45 21.61-108.57 40.91-168 55.83A1214.19 1214.19 0 0 1 1323.42 973a1459.48 1459.48 0 0 1-301 1c-105.61-11-208.94-33.65-296.08-54.35-194-47.08-394.56-95.75-601.89-116.23q-61.77-6.12-124.34-9v3.31q62.22 2.84 123.7 8.91c206.89 20.46 407.25 69 601 116.08 87.37 20.75 191 43.47 296.89 54.51a1468.1 1468.1 0 0 0 302.38-1 1223.12 1223.12 0 0 0 171-30.32c59.75-15 118.14-34.42 168.84-56.12 106.21-45.44 191.09-104.21 245.46-170 3.71-4.56 7.25-9 10.68-13.57z" stroke="url(#linear-gradient-28)" fill="none" stroke-miterlimit="10" stroke-width=".25"/><path d="M1920.12 705.72q-9 11.17-19 21.88c-56.52 62.87-143.38 119.12-251.12 162.71-103 41.36-219 68.69-335.45 79.07-97 9.46-194.85 8.6-299.15-2.6-100.27-11-201.92-33.07-296.81-55.27C516.31 863 317.77 818 113 799.94Q56.92 795 .13 792.73V796q56.44 2.28 112.24 7.16c204.39 18 402.69 63 604.74 111.45C812.22 936.9 914.07 959 1014.7 970c104.76 11.26 203.07 12.09 300.47 2.6 117-10.43 233.61-37.9 337.15-79.46 108.4-43.86 195.78-100.5 252.72-163.79 5.27-5.62 10.23-11.36 15.08-17.2z" stroke="url(#linear-gradient-29)" fill="none" stroke-miterlimit="10" stroke-width=".25"/><path d="M1920.12 711.7c-7.42 8.64-15.18 17.1-23.47 25.39-31.8 31.43-69.28 60.32-111.41 85.93-43.76 26.45-93.18 50.17-146.89 70.46-102.78 39-217.76 63.95-332.54 72.26-26.08 1.89-51.81 3.39-76.46 4.47-22.4.46-46.78.46-74.45 0-22.09-.08-42.72-1.5-64.57-3l-8.87-.61c-23.69-1.76-48.9-3.75-73-7-23.48-2.89-48.1-6.33-73.13-10.1-23.46-4-47.46-8.27-73.33-13.23-45.21-8.54-90-18.79-137.33-29.68l-13.83-3.16c-225.33-53.36-415.21-92-609.43-106.91Q51.08 792.66.13 790.94v3.31q50.65 1.77 100.75 5.57c193.8 14.91 383.39 53.47 608.47 106.76l13.85 3.16c47.44 10.89 92.24 21.17 137.58 29.73 25.9 5 49.93 9.3 73.5 13.25 25.12 3.8 49.81 7.21 73.28 10.13 24.34 3.26 49.62 5.25 73.45 7l8.91.59c21.91 1.52 42.65 2.94 64.91 3 27.74.44 52.15.44 74.73 0 24.79-1.1 50.59-2.6 76.73-4.49 115.37-8.36 230.94-33.48 334.24-72.66 54-20.41 103.72-44.23 147.73-70.85 42.4-25.78 80.17-54.89 112.2-86.52q10.3-10.31 19.66-20.92z" stroke="url(#linear-gradient-30)" fill="none" stroke-miterlimit="10" stroke-width=".25"/><path d="M1920.12 718.13q-13.3 14.54-28.29 28.5c-68.49 61.85-160.17 113.71-265.1 150a1212.54 1212.54 0 0 1-166.41 45c-14 2.45-28 4.92-41.71 7.43q-20.86 2.86-41.44 5.79c-28.85 3.45-57.28 6-80.17 7.23-92.41 6.67-189.12 3.51-295.68-9.64-98.6-12.21-197.39-34-298.33-57.06-191.35-44.67-398.08-88-613.21-102.17-29.69-2-59.59-3.34-89.65-4.24v3.31q44.87 1.35 89.22 4.22C304 810.71 510.43 854 701.53 898.53c101.11 23.16 200.08 44.94 299 57.18 107 13.22 204.1 16.39 296.9 9.69 22.95-1.23 51.56-3.8 80.62-7.29 13.73-2 27.57-3.87 41.57-5.81 13.88-2.53 27.78-5 41.86-7.46a1215.14 1215.14 0 0 0 167.28-45.28c105.58-36.48 197.82-88.66 266.76-150.91 8.66-8 16.81-16.22 24.61-24.51z" stroke="url(#linear-gradient-31)" fill="none" stroke-miterlimit="10" stroke-width=".25"/><path d="M1920.12 724.75c-10.29 10.23-21.49 20.58-33.87 31.18-68.9 58.51-162.67 108.26-271.17 143.83A1236.27 1236.27 0 0 1 1449.33 941c-30.1 5.47-59.81 9.15-82.28 11.72q-20.5 1.8-40.89 3.66c-11.3.83-21.64 1.35-32.59 1.86l-5.31.27c-92.38 5.25-188.56 1-294-13.12-96.83-12.78-192.78-33.81-299.14-57.92-178.79-41.19-391.93-85-617-97.46q-38.74-2.13-78-3.09v3.28q39.06 1 77.62 3.1c224.57 12.46 437.36 56.17 615.91 97.31 106.54 24.16 202.63 45.19 299.72 58 105.87 14.13 202.44 18.42 295.23 13.17l5.27-.27c11-.54 21.39-1 32.84-1.89 13.63-1.25 27.25-2.45 41-3.66 22.65-2.6 52.5-6.3 82.78-11.79a1244.18 1244.18 0 0 0 166.51-41.4C1726.15 867 1820.5 816.94 1889.85 758c11-9.39 21-18.57 30.27-27.65z" stroke="url(#linear-gradient-32)" fill="none" stroke-miterlimit="10" stroke-width=".25"/><path d="M1920.12 731.52c-12.34 11.34-25.1 23-39.73 33.78-70.81 56-166.62 103.55-277.06 137.42-52.5 16.07-106.42 28.36-164.85 37.63-14 2.34-27.74 4.27-40.85 5.72l-6.93.83c-11.14 1.33-22.61 2.7-33.71 3.51l-9 .74c-10.44.86-21.29 1.74-31 2.23l-10.16.42c-9 .37-18.13.73-27.25 1.15-50.73 2.43-98.86.71-147.65-1.4-44-3.33-95.08-7.55-144.7-15.18-94.53-13.23-187.84-33.56-300-58.73-245.87-55.88-437.3-84.49-620.73-92.73q-33-1.47-66.28-2v3.29c22.1.42 44.12 1 66 2 183 8.22 374.12 36.77 619.63 92.58C798 908 891.47 928.33 986.17 941.61c49.79 7.65 101 11.87 145.29 15.23 49.06 2.13 97.33 3.85 148.34 1.4q13.64-.59 27.22-1.16l10.2-.41c9.88-.49 20.77-1.4 31.24-2.24l9-.73c11.24-.84 22.82-2.21 34-3.56l6.9-.81c13.21-1.47 27.05-3.41 41.16-5.76a1205.27 1205.27 0 0 0 165.64-37.83c111.07-34.07 207.44-81.86 278.66-138.21 13.28-9.76 25-20.28 36.3-30.61z" stroke="url(#linear-gradient-33)" fill="none" stroke-miterlimit="10" stroke-width=".25"/><path d="M1920.12 738.39a582.18 582.18 0 0 1-45.87 36.33c-37.87 27.16-81 52.15-128.33 74.31a1067.19 1067.19 0 0 1-154.42 56.44 1194 1194 0 0 1-163.8 34.2c-62 8.66-119.53 11.13-156.88 11.7-22.33.59-48.51 1-73.69-.08l-4.61-.17c-22.43-.78-45.67-1.59-68.24-3.23-40-3.34-92.62-8.25-144.28-16.49-99.06-14.69-201.64-37.51-300.85-59.56-239.21-53.58-437.65-81.52-624.46-87.92-18.16-.61-36.35-1-54.56-1.23V786c18.15.22 36.25.58 54.31 1.22 186.44 6.38 384.47 34.27 623.3 87.75 99.33 22.08 202 44.91 301.25 59.63 51.84 8.3 104.58 13.2 144.77 16.56 22.75 1.65 46 2.45 68.56 3.24l4.54.17c25.38 1.13 51.7.69 74.1.07 37.49-.53 95.25-3 157.64-11.74a1200.21 1200.21 0 0 0 164.64-34.37 1073.35 1073.35 0 0 0 155.24-56.74c47.58-22.3 91-47.45 129.13-74.75q22.53-16.15 42.51-33.46z" stroke="url(#linear-gradient-34)" fill="none" stroke-miterlimit="10" stroke-width=".25"/><path d="M1920.12 745.23q-24.33 20-52.28 39c-82.29 54.33-181.92 97.21-288.16 124A1264.41 1264.41 0 0 1 1417 939c-24.14 2.62-52.22 5.51-80 6.77-12.38.85-23.55 1.1-34.37 1.34l-3.5.1c-6.52.08-13 .2-19.56.32l-17.4.27c-93.91.62-188.6-7.09-289.37-23.35-40.47-6-80-13.74-121.8-21.93l-25.35-5q-20.16-4.34-40.83-8.73c-36.91-7.88-75.09-16-113.68-24.68C434.87 812 235.26 785.56 42.91 781q-21.37-.53-42.78-.64v3.29c14.23.12 28.43.29 42.61.63 192 4.54 391.16 30.91 627 83C708.31 876 746.5 884.13 783.43 892q20.63 4.38 40.89 8.74 12.79 2.46 25.4 5c41.89 8.21 81.45 16 122 22 101.1 16.31 196.11 23.94 290.43 23.4l17.47-.27c6.49-.12 13-.22 19.52-.32l3.54-.1c10.89-.24 22.16-.49 34.61-1.35 27.91-1.27 56.1-4.17 80.41-6.79a1263.5 1263.5 0 0 0 163.5-31c106.87-26.94 207-70.06 289.82-124.69q26.06-17.73 49.06-36.38z" stroke="url(#linear-gradient-35)" fill="none" stroke-miterlimit="10" stroke-width=".25"/><path d="M1920.12 752.54c-17.37 13.23-37.1 26.74-59.43 40.85-81.87 51-183.16 91.7-292.84 117.55A1268 1268 0 0 1 1406.47 938l-11.27 1c-9.53.86-19.07 1.72-28.54 2.4-13.21.67-26.42 1.33-39.53 2-24.75.74-48 .76-72.57.81h-1.11c-93.59-1.15-190.44-10.13-287.92-26.71-22.71-3.51-46.51-7.73-72.81-12.93l-15.26-3c-19.51-3.8-39.31-7.62-59.19-11.7l-49-10.5c-34.47-7.36-70.14-14.93-106.2-23-230.47-50.09-437.19-75.7-631.95-78.25-10.3-.15-20.61-.2-30.94-.22v3.31c10.29 0 20.59 0 30.86.2 194.3 2.55 400.6 28.11 630.66 78.13 36.07 8 71.75 15.6 106.23 23q24.81 5.26 49.07 10.48c19.92 4.07 39.75 7.92 59.26 11.72l15.27 3c26.38 5.23 50.27 9.47 73 13 97.74 16.63 194.93 25.63 288.9 26.79h1.15c24.69 0 47.92-.05 72.82-.81 13.21-.69 26.42-1.38 39.7-2 9.57-.71 19.14-1.57 28.71-2.43l11.27-1a1280.14 1280.14 0 0 0 162.25-27.21c110.3-26 212.11-66.89 294.47-118.24 21-13.25 39.7-26 56.34-38.49z" stroke="url(#linear-gradient-36)" fill="none" stroke-miterlimit="10" stroke-width=".25"/><path d="M1920.12 759.73c-2.25 1.7-4.54 3.39-6.72 5l-9.64 6.4c-16 10.63-32.53 21.62-50.49 31.48-83.36 48.59-186.14 86.93-297.21 110.9a1255 1255 0 0 1-160.2 23.53c-26.87 2.38-53.5 3.31-78.26 4-26.53.15-50.35.05-72.82-.27a1991.8 1991.8 0 0 1-286.48-30c-83.46-14.41-169.53-33-260.64-52.6l-42.81-9.22c-228.11-48.87-436-72.88-635.65-73.42-6.35 0-12.73 0-19.07.07v3.31c6.34 0 12.72-.1 19.05-.07 199.16.51 406.66 24.5 634.31 73.27l42.82 9.23C787.47 881 873.61 899.53 957.2 914a2001.09 2001.09 0 0 0 287.41 30.1c22.57.32 46.46.42 73.06.29 25-.68 51.74-1.62 78.75-4a1258.15 1258.15 0 0 0 161-23.65c111.65-24.06 215-62.62 298.76-111.47 18.1-9.93 34.71-21 50.77-31.64l9.74-6.48c1.15-.86 2.29-1.69 3.43-2.55z" stroke="url(#linear-gradient-37)" fill="none" stroke-miterlimit="10" stroke-width=".25"/><path d="M1920.12 767a727.28 727.28 0 0 1-74.44 45 1048.42 1048.42 0 0 1-142.28 61.72 1183.36 1183.36 0 0 1-159 42.2 1202.46 1202.46 0 0 1-159.09 20.24c-12.87.95-25.28 1.39-39 1.79l-3.64.12c-11.69.34-23.76.69-34.26.47-24.62-.2-49-.62-72.37-1.21-173.55-7.8-343.26-43.71-539.75-85.29q-24.63-5.22-49.7-10.52C420.4 793.76 211.27 771.31 7.32 772.91L.13 773v3.32c2.4 0 4.83-.08 7.24-.1 203.6-1.57 412.16 20.8 638 68.39l49.63 10.5c196.77 41.65 366.73 77.62 540.84 85.44 23.47.59 47.89 1 72.54 1.23 10.57.19 22.78-.15 34.53-.49l3.61-.13c13.8-.41 26.29-.83 39.26-1.79A1204 1204 0 0 0 1545.66 919a1190.08 1190.08 0 0 0 159.79-42.39 1049.48 1049.48 0 0 0 143-62 726.79 726.79 0 0 0 71.7-43.05z" stroke="url(#linear-gradient-38)" fill="none" stroke-miterlimit="10" stroke-width=".25"/><path d="M1920.12 774.45c-25.41 16.19-53 31.84-82.49 46.73-93 45.9-198.38 79.43-304.8 97a1238.17 1238.17 0 0 1-157.88 17c-49.17 2.14-91.82.64-137.07-1l-10.4-.37c-162.18-10-320.89-43.37-504.69-82.06q-41.46-8.72-84.37-17.66C415.54 787.87 206.65 767 .13 770.35v3.32c206.11-3.34 414.53 17.44 637 63.56q42.95 8.89 84.35 17.66c184 38.73 343 72.17 505.71 82.18l10.51.37c45.32 1.59 88.18 3.11 137.56.95a1236.56 1236.56 0 0 0 158.68-17c107-17.61 212.91-51.32 306.43-97.46 28.4-14.37 55.1-29.41 79.78-45z" stroke="url(#linear-gradient-39)" fill="none" stroke-miterlimit="10" stroke-width=".25"/><path d="M1920.12 782.28c-26.45 15.94-56.55 31.76-91.12 47.91-44.59 20.94-94.43 39.46-148 55.09s-108.71 27.82-159.78 35.18A1291.4 1291.4 0 0 1 1364.69 934c-12.83.08-25.66.18-38.42.32-8.18 0-16-.29-23.55-.56-4.09-.12-8.18-.27-12.34-.39l-14.36-.54c-18.79-.69-38.18-1.4-57-2.75-84.92-6.38-174.77-18.94-282.64-39.5-56.63-11.16-114.41-23.42-175.6-36.4-42.19-9-85.77-18.23-130.66-27.47C413 782.45 206.77 763.12.13 767.66v3.28c206.21-4.49 412.05 14.77 628.72 59 44.85 9.19 88.46 18.47 130.62 27.42 61.19 13 119 25.29 175.71 36.43 108.17 20.63 198.19 33.22 283.38 39.59 18.94 1.38 38.39 2.09 57.22 2.8l14.39.54c4.16.1 8.25.25 12.35.39 7.59.25 15.42.52 23.75.57 12.83-.18 25.62-.25 38.49-.35a1300.12 1300.12 0 0 0 157.39-13.61 1190.34 1190.34 0 0 0 160.65-35.38c53.85-15.7 103.93-34.34 148.8-55.39 33.39-15.6 62.66-30.9 88.52-46.31z" stroke="url(#linear-gradient-40)" fill="none" stroke-miterlimit="10" stroke-width=".25"/><path d="M1920.12 789.88a913 913 0 0 1-99.89 49.36c-52.23 22.1-101.47 39.08-150.57 51.88a1284 1284 0 0 1-160 31.55 1288.86 1288.86 0 0 1-155.24 10.13h-6.8c-10.37 0-21.11 0-30.89-.35l-35.34-1.57c-6.79-.41-13.66-.73-20.56-1.07-16.65-.79-33.85-1.62-50.14-3.44-97.79-8.31-193.15-25.29-281.6-42.39-43.09-8.85-86.66-18.13-132.76-27.98-56-11.92-113.91-24.26-174.52-36.57C409.7 776.93 206 759.05.13 764.79v3.31c205.41-5.77 408.7 12.09 620.4 54.53C681.11 834.94 739 847.28 795 859.18c46.12 9.84 89.67 19.11 132.83 28 88.63 17.12 184.23 34.12 282.22 42.49 16.41 1.81 33.71 2.62 50.46 3.46 6.86.32 13.73.64 20.53 1l35.44 1.57c9.91.32 20.7.35 31.13.35h6.8a1302.07 1302.07 0 0 0 156.07-10.2 1291.78 1291.78 0 0 0 160.83-31.7c49.35-12.88 98.86-29.93 151.33-52.15a920.08 920.08 0 0 0 97.5-48z" stroke="url(#linear-gradient-41)" fill="none" stroke-miterlimit="10" stroke-width=".25"/><path d="M1920.12 797.63a1007.23 1007.23 0 0 1-109 50.73 1261.77 1261.77 0 0 1-153 48.48 1270.86 1270.86 0 0 1-160 27.72 1211 1211 0 0 1-154 7c-20.11 0-37.48-1.11-55.86-2.24-5.31-.31-10.58-.66-16-.95l-9.3-.59c-20.11-1.28-41-2.6-60.64-5.08-26.43-2.94-48.55-5.52-69.64-8.12-17.89-2.55-36.16-5.49-53.81-8.31l-15.5-2.48c-11.65-2-23.41-3.9-35.13-5.82l-7.14-1.34q-13.89-2.7-27.92-5.33l-10.33-2c-20-3.83-40.64-7.81-61.16-12-34-7.14-68-14.44-104-22.22-65.24-14-132.7-28.56-204.29-42.81C406.21 771.48 205.16 754.9.13 761.82v3.28c204.58-6.89 405.23 9.62 612 50.39 71.53 14.2 139 28.75 204.2 42.78 36 7.78 70.06 15.09 104.06 22.23 20.58 4.19 41.25 8.14 61.26 12l10.33 2c9.36 1.74 18.66 3.53 27.92 5.3l7.21 1.4q17.73 2.87 35.19 5.79l15.54 2.5c17.72 2.82 36 5.76 54 8.34 21.19 2.6 43.31 5.2 69.73 8.15 19.84 2.5 40.78 3.82 61 5.1l9.33.59c5.37.29 10.64.63 15.91 1 18.48 1.13 36 2.24 56.25 2.24a1225.8 1225.8 0 0 0 154.79-7c55.1-6 110.72-15.65 160.83-27.87a1259.6 1259.6 0 0 0 153.71-48.72 998.58 998.58 0 0 0 106.73-49.48z" stroke="url(#linear-gradient-42)" fill="none" stroke-miterlimit="10" stroke-width=".25"/><path d="M1920.12 805.8a1156.25 1156.25 0 0 1-118.55 51.49c-46.54 17.27-98.79 32.38-155.21 45-28.23 6.33-56.63 11.14-80.59 15-24.58 3.39-52.39 7.19-79.06 9.22a1247.71 1247.71 0 0 1-152.78 3.83c-17.93-.49-33.88-1.72-50.76-3-6.56-.49-13.15-1-19.87-1.47q-11.82-1-23.69-1.89l-11.34-.89c-8-.8-16-1.79-23.89-2.77-3.47-.42-6.93-.86-10.47-1.27-119.29-14.19-240.46-40.37-368.74-68.05C755 835.8 682.42 820.1 605 805.19 402.54 766 204.1 750.78.13 758.85v3.29c203.56-8 401.57 7.09 603.61 46.21 77.38 14.94 149.92 30.59 220.07 45.75 128.43 27.77 249.74 54 369.34 68.2 3.5.42 7 .83 10.43 1.27 8 1 16 2 24.07 2.78l11.44.9c7.91.62 15.78 1.23 23.72 1.89 6.73.47 13.32 1 19.83 1.48 17 1.27 33 2.5 51.08 3a1251.8 1251.8 0 0 0 153.51-3.85c26.81-2 54.76-5.87 79.48-9.25 24.13-3.88 52.67-8.73 81-15.09 56.69-12.66 109.19-27.87 156-45.21a1171.81 1171.81 0 0 0 116.37-50.36z" stroke="url(#linear-gradient-43)" fill="none" stroke-miterlimit="10" stroke-width=".25"/><path d="M1920.12 814c-38.14 18.54-81.27 36.06-128.5 52.1a1157.21 1157.21 0 0 1-157.12 41.6c-56.14 10.85-109.71 17.79-159.27 20.68a1332.69 1332.69 0 0 1-151.36.69c-7-.56-13.93-1.1-20.94-1.64-38.87-3-79-6.21-117.38-12-110-14.65-221.37-39.16-339.3-65.08-79.2-17.42-161.09-35.43-249.73-52.18C398.76 760.52 203 746.61.13 755.76v3.31c202.45-9.15 397.83 4.69 595.17 42.27 88.56 16.73 170.41 34.73 249.56 52.13 118.07 26 229.59 50.48 339.76 65.15 38.48 5.86 78.85 9 117.82 12.07l21 1.67a1336.32 1336.32 0 0 0 152.23-.71c49.8-2.87 103.65-9.87 160.07-20.76A1160.41 1160.41 0 0 0 1793.66 869c46.37-15.78 88.81-32.92 126.46-51.1z" stroke="url(#linear-gradient-44)" fill="none" stroke-miterlimit="10" stroke-width=".25"/></g></g></g></svg>