<svg xmlns="http://www.w3.org/2000/svg" xmlns:xlink="http://www.w3.org/1999/xlink" style="margin:auto;background:#f1f2f3;display:block;z-index:1;position:relative" width="1536" height="722" preserveAspectRatio="xMidYMid" viewBox="0 0 1536 722">
<g transform=""><path id="path0" d="M 1163.5749468345948 524.5178277537567
c 0 21.127737111005082 -5.169552697373583 6.068605340395076 -11.23815803776866 6.068605340395076
S 1141.0986307590574 545.6455648647618 1141.0986307590574 524.5178277537567
s 5.169552697373583 -6.068605340395076 11.23815803776866 -6.068605340395076
S 1163.5749468345948 503.3900906427516 1163.5749468345948 524.5178277537567
z" fill="none" stroke="none"></path>
<circle cx="0" cy="0" r="6.852414589989376" fill="#d8ebf9">
  <animateMotion begin="-7.978568352713333s" dur="20s" repeatCount="indefinite">
    <mpath xlink:href="#path0"></mpath>
  </animateMotion>
</circle><path id="path1" d="M 192.06911744940066 438.78939229825966
c 0 24.654695203909615 -6.032531805211926 7.0816677713357405 -13.114199576547668 7.0816677713357405
S 165.84071829630534 463.4440875021693 165.84071829630534 438.78939229825966
s 6.032531805211926 -7.0816677713357405 13.114199576547668 -7.0816677713357405
S 192.06911744940066 414.13469709435003 192.06911744940066 438.78939229825966
z" fill="none" stroke="none"></path>
<circle cx="0" cy="0" r="5.8179369857573695" fill="#4996a2">
  <animateMotion begin="-4.918228983270696s" dur="20s" repeatCount="indefinite">
    <mpath xlink:href="#path1"></mpath>
  </animateMotion>
</circle><path id="path2" d="M 34.702411255421936 175.8154569848455
c 0 31.513774465446993 -7.710817156439156 9.051828835819881 -16.76264599225904 9.051828835819881
S 1.1771192709038552 207.3292314502925 1.1771192709038552 175.8154569848455
s 7.710817156439156 -9.051828835819881 16.76264599225904 -9.051828835819881
S 34.702411255421936 144.3016825193985 34.702411255421936 175.8154569848455
z" fill="none" stroke="none"></path>
<circle cx="0" cy="0" r="7.280190046206418" fill="#e8cdc5">
  <animateMotion begin="-15.748407734919226s" dur="20s" repeatCount="indefinite">
    <mpath xlink:href="#path2"></mpath>
  </animateMotion>
</circle><path id="path3" d="M 1070.3962593712843 225.7659592589211
c 0 33.127680026151 -8.10570894256886 9.515397454319968 -17.621106396888827 9.515397454319968
S 1035.1540465775067 258.8936392850721 1035.1540465775067 225.7659592589211
s 8.10570894256886 -9.515397454319968 17.621106396888827 -9.515397454319968
S 1070.3962593712843 192.63827923277012 1070.3962593712843 225.7659592589211
z" fill="none" stroke="none"></path>
<circle cx="0" cy="0" r="6.627339246195902" fill="#eee7d8">
  <animateMotion begin="-5.444103827771438s" dur="20s" repeatCount="indefinite">
    <mpath xlink:href="#path3"></mpath>
  </animateMotion>
</circle><path id="path4" d="M 1059.6770267080972 165.0289513988177
c 0 22.5419923333187 -5.515593868790745 6.47482758510218 -11.990421453892925 6.47482758510218
S 1035.6961838003115 187.57094373213639 1035.6961838003115 165.0289513988177
s 5.515593868790745 -6.47482758510218 11.990421453892925 -6.47482758510218
S 1059.6770267080972 142.486959065499 1059.6770267080972 165.0289513988177
z" fill="none" stroke="none"></path>
<circle cx="0" cy="0" r="6.554838923037798" fill="#1d3f72">
  <animateMotion begin="-14.344091728718897s" dur="20s" repeatCount="indefinite">
    <mpath xlink:href="#path4"></mpath>
  </animateMotion>
</circle><path id="path5" d="M 809.8021015272777 211.96531421183516
c 0 36.563547034907224 -8.946399806413469 10.502295424920161 -19.44869523133363 10.502295424920161
S 770.9047110646104 248.5288612467424 770.9047110646104 211.96531421183516
s 8.946399806413469 -10.502295424920161 19.44869523133363 -10.502295424920161
S 809.8021015272777 175.40176717692793 809.8021015272777 211.96531421183516
z" fill="none" stroke="none"></path>
<circle cx="0" cy="0" r="6.905441533924968" fill="#71c2cc">
  <animateMotion begin="-12.246163684265344s" dur="20s" repeatCount="indefinite">
    <mpath xlink:href="#path5"></mpath>
  </animateMotion>
</circle><path id="path6" d="M 1185.4034515288806 159.97996459063543
c 0 22.866576273225018 -5.595013343448675 6.568059142309314 -12.163072485757988 6.568059142309314
S 1161.0773065573646 182.84654086386044 1161.0773065573646 159.97996459063543
s 5.595013343448675 -6.568059142309314 12.163072485757988 -6.568059142309314
S 1185.4034515288806 137.11338831741043 1185.4034515288806 159.97996459063543
z" fill="none" stroke="none"></path>
<circle cx="0" cy="0" r="6.417394183770625" fill="#785471">
  <animateMotion begin="-3.052830290075912s" dur="20s" repeatCount="indefinite">
    <mpath xlink:href="#path6"></mpath>
  </animateMotion>
</circle><path id="path7" d="M 1516.9694810285787 377.73639863913917
c 0 32.88586489042138 -8.046541409358422 9.4459399153338 -17.49248132469222 9.4459399153338
S 1481.9845183791945 410.62226352956054 1481.9845183791945 377.73639863913917
s 8.046541409358422 -9.4459399153338 17.49248132469222 -9.4459399153338
S 1516.9694810285787 344.8505337487178 1516.9694810285787 377.73639863913917
z" fill="none" stroke="none"></path>
<circle cx="0" cy="0" r="5.596580487672264" fill="#eee7d8">
  <animateMotion begin="-13.599037703559489s" dur="20s" repeatCount="indefinite">
    <mpath xlink:href="#path7"></mpath>
  </animateMotion>
</circle><path id="path8" d="M 956.3305629994794 202.54283091795946
c 0 24.39148920959538 -5.9681303385180176 7.00606604956463 -12.974196388082648 7.00606604956463
S 930.3821702233141 226.93432012755486 930.3821702233141 202.54283091795946
s 5.9681303385180176 -7.00606604956463 12.974196388082648 -7.00606604956463
S 956.3305629994794 178.15134170836407 956.3305629994794 202.54283091795946
z" fill="none" stroke="none"></path>
<circle cx="0" cy="0" r="6.938506101756923" fill="#eee7d8">
  <animateMotion begin="-9.44375905360193s" dur="20s" repeatCount="indefinite">
    <mpath xlink:href="#path8"></mpath>
  </animateMotion>
</circle><path id="path9" d="M 792.1550214587991 78.92957538690791
c 0 27.214588360407053 -6.658888641376193 7.8169562311807494 -14.475844872556943 7.8169562311807494
S 763.2033317136851 106.14416374731496 763.2033317136851 78.92957538690791
s 6.658888641376193 -7.8169562311807494 14.475844872556943 -7.8169562311807494
S 792.1550214587991 51.714987026500864 792.1550214587991 78.92957538690791
z" fill="none" stroke="none"></path>
<circle cx="0" cy="0" r="6.32752522634227" fill="#eee7d8">
  <animateMotion begin="-5.737723884042332s" dur="20s" repeatCount="indefinite">
    <mpath xlink:href="#path9"></mpath>
  </animateMotion>
</circle><path id="path10" d="M 1429.335930801863 580.9387219290854
c 0 28.692093861255383 -7.020405944775252 8.241346109083993 -15.261752053859245 8.241346109083993
S 1398.8124266941445 609.6308157903408 1398.8124266941445 580.9387219290854
s 7.020405944775252 -8.241346109083993 15.261752053859245 -8.241346109083993
S 1429.335930801863 552.2466280678301 1429.335930801863 580.9387219290854
z" fill="none" stroke="none"></path>
<circle cx="0" cy="0" r="5.00738180885191" fill="#e8cdc5">
  <animateMotion begin="-10.804576065653695s" dur="20s" repeatCount="indefinite">
    <mpath xlink:href="#path10"></mpath>
  </animateMotion>
</circle><path id="path11" d="M 294.47292086682086 570.5159846237424
c 0 19.086572946265683 -4.670118912384156 5.482313505842271 -10.152432418226427 5.482313505842271
S 274.16805603036795 589.6025575700081 274.16805603036795 570.5159846237424
s 4.670118912384156 -5.482313505842271 10.152432418226427 -5.482313505842271
S 294.47292086682086 551.4294116774767 294.47292086682086 570.5159846237424
z" fill="none" stroke="none"></path>
<circle cx="0" cy="0" r="4.291982308853889" fill="#785471">
  <animateMotion begin="-3.8434739872044865s" dur="20s" repeatCount="indefinite">
    <mpath xlink:href="#path11"></mpath>
  </animateMotion>
</circle><path id="path12" d="M 926.7832076317632 232.9890157579524
c 0 22.629124217506135 -5.536913372368522 6.499854828432614 -12.036768200801136 6.499854828432614
S 902.7096712301609 255.61813997545852 902.7096712301609 232.9890157579524
s 5.536913372368522 -6.499854828432614 12.036768200801136 -6.499854828432614
S 926.7832076317632 210.35989154044626 926.7832076317632 232.9890157579524
z" fill="none" stroke="none"></path>
<circle cx="0" cy="0" r="5.80297653167403" fill="#5699d2">
  <animateMotion begin="-1.989931613306859s" dur="20s" repeatCount="indefinite">
    <mpath xlink:href="#path12"></mpath>
  </animateMotion>
</circle><path id="path13" d="M 1043.4856795100084 264.5847914718801
c 0 22.9876149072696 -5.624629179438306 6.6028255584710545 -12.22745473790936 6.6028255584710545
S 1019.0307700341897 287.5724063791497 1019.0307700341897 264.5847914718801
s 5.624629179438306 -6.6028255584710545 12.22745473790936 -6.6028255584710545
S 1043.4856795100084 241.59717656461052 1043.4856795100084 264.5847914718801
z" fill="none" stroke="none"></path>
<circle cx="0" cy="0" r="7.427416687329403" fill="#e8cdc5">
  <animateMotion begin="-11.690557943271447s" dur="20s" repeatCount="indefinite">
    <mpath xlink:href="#path13"></mpath>
  </animateMotion>
</circle><path id="path14" d="M 1495.4402774636578 343.5655647760715
c 0 25.669204995248236 -6.280762924369248 7.373069519911727 -13.653832444280976 7.373069519911727
S 1468.1326125750957 369.23476977131975 1468.1326125750957 343.5655647760715
s 6.280762924369248 -7.373069519911727 13.653832444280976 -7.373069519911727
S 1495.4402774636578 317.8963597808232 1495.4402774636578 343.5655647760715
z" fill="none" stroke="none"></path>
<circle cx="0" cy="0" r="6.809844644438154" fill="#d8ebf9">
  <animateMotion begin="-15.707798681515444s" dur="20s" repeatCount="indefinite">
    <mpath xlink:href="#path14"></mpath>
  </animateMotion>
</circle><path id="path15" d="M 930.9514770157797 267.28053106940644
c 0 29.074641990561663 -7.114008146626789 8.351226954735797 -15.465235101362587 8.351226954735797
S 900.0210068130544 296.3551730599681 900.0210068130544 267.28053106940644
s 7.114008146626789 -8.351226954735797 15.465235101362587 -8.351226954735797
S 930.9514770157797 238.20588907884476 930.9514770157797 267.28053106940644
z" fill="none" stroke="none"></path>
<circle cx="0" cy="0" r="5.422105484913322" fill="#1d3f72">
  <animateMotion begin="-17.51694000056078s" dur="20s" repeatCount="indefinite">
    <mpath xlink:href="#path15"></mpath>
  </animateMotion>
</circle><path id="path16" d="M 539.3538508599285 38.251416341159434
c 0 21.885517949038828 -5.354967157743543 6.286265793872856 -11.641232951616399 6.286265793872856
S 516.0713849566956 60.13693429019826 516.0713849566956 38.251416341159434
s 5.354967157743543 -6.286265793872856 11.641232951616399 -6.286265793872856
S 539.3538508599285 16.365898392120606 539.3538508599285 38.251416341159434
z" fill="none" stroke="none"></path>
<circle cx="0" cy="0" r="7.2828709174562976" fill="#785471">
  <animateMotion begin="-7.811556452423525s" dur="20s" repeatCount="indefinite">
    <mpath xlink:href="#path16"></mpath>
  </animateMotion>
</circle><path id="path17" d="M 90.74012917959163 386.1091262419395
c 0 36.763636757083574 -8.995357929924703 10.559768004694218 -19.55512593461892 10.559768004694218
S 51.6298773103538 422.8727629990231 51.6298773103538 386.1091262419395
s 8.995357929924703 -10.559768004694218 19.55512593461892 -10.559768004694218
S 90.74012917959163 349.34548948485593 90.74012917959163 386.1091262419395
z" fill="none" stroke="none"></path>
<circle cx="0" cy="0" r="4.65085540483962" fill="#eee7d8">
  <animateMotion begin="-11.64466402615465s" dur="20s" repeatCount="indefinite">
    <mpath xlink:href="#path17"></mpath>
  </animateMotion>
</circle><path id="path18" d="M 1362.2594169932659 428.3468446134448
c 0 31.257935144873244 -7.6482181737455806 8.978343073527421 -16.626561247273003 8.978343073527421
S 1329.0062944987199 459.60477975831805 1329.0062944987199 428.3468446134448
s 7.6482181737455806 -8.978343073527421 16.626561247273003 -8.978343073527421
S 1362.2594169932659 397.0889094685715 1362.2594169932659 428.3468446134448
z" fill="none" stroke="none"></path>
<circle cx="0" cy="0" r="4.393947172571714" fill="#71c2cc">
  <animateMotion begin="-14.016379821986371s" dur="20s" repeatCount="indefinite">
    <mpath xlink:href="#path18"></mpath>
  </animateMotion>
</circle><path id="path19" d="M 873.1544265479314 651.5158820501782
c 0 35.019274752869805 -8.56854595017027 10.05872785454771 -18.62727380471798 10.05872785454771
S 835.8998789384954 686.535156803048 835.8998789384954 651.5158820501782
s 8.56854595017027 -10.05872785454771 18.62727380471798 -10.05872785454771
S 873.1544265479314 616.4966072973084 873.1544265479314 651.5158820501782
z" fill="none" stroke="none"></path>
<circle cx="0" cy="0" r="7.847093696293357" fill="#e8cdc5">
  <animateMotion begin="-16.95100485481023s" dur="20s" repeatCount="indefinite">
    <mpath xlink:href="#path19"></mpath>
  </animateMotion>
</circle><path id="path20" d="M 491.03469894939815 434.0344428877617
c 0 24.90272977885171 -6.093221116102014 7.152911744989321 -13.246132861091336 7.152911744989321
S 464.5424332272155 458.93717266661344 464.5424332272155 434.0344428877617
s 6.093221116102014 -7.152911744989321 13.246132861091336 -7.152911744989321
S 491.03469894939815 409.13171310891 491.03469894939815 434.0344428877617
z" fill="none" stroke="none"></path>
<circle cx="0" cy="0" r="7.022045537236481" fill="#4996a2">
  <animateMotion begin="-5.593389448466888s" dur="20s" repeatCount="indefinite">
    <mpath xlink:href="#path20"></mpath>
  </animateMotion>
</circle><path id="path21" d="M 1286.133205565628 653.3302339957672
c 0 31.74199716452247 -7.766658880681029 9.11738216427773 -16.88404104495876 9.11738216427773
S 1252.3651234757103 685.0722311602897 1252.3651234757103 653.3302339957672
s 7.766658880681029 -9.11738216427773 16.88404104495876 -9.11738216427773
S 1286.133205565628 621.5882368312448 1286.133205565628 653.3302339957672
z" fill="none" stroke="none"></path>
<circle cx="0" cy="0" r="5.383358249028579" fill="#5699d2">
  <animateMotion begin="-12.87912033356594s" dur="20s" repeatCount="indefinite">
    <mpath xlink:href="#path21"></mpath>
  </animateMotion>
</circle><path id="path22" d="M 319.4808396583274 661.6255185334427
c 0 18.929573224714524 -4.631704086898234 5.437217841141406 -10.06892192803964 5.437217841141406
S 299.34299580224814 680.5550917581572 299.34299580224814 661.6255185334427
s 4.631704086898234 -5.437217841141406 10.06892192803964 -5.437217841141406
S 319.4808396583274 642.6959453087281 319.4808396583274 661.6255185334427
z" fill="none" stroke="none"></path>
<circle cx="0" cy="0" r="7.814065213061322" fill="#5699d2">
  <animateMotion begin="-17.153790049856006s" dur="20s" repeatCount="indefinite">
    <mpath xlink:href="#path22"></mpath>
  </animateMotion>
</circle><path id="path23" d="M 468.56130139155863 81.75512450241662
c 0 27.63511344030129 -6.7617830758184 7.937745349873775 -14.699528425692174 7.937745349873775
S 439.1622445401743 109.3902379427179 439.1622445401743 81.75512450241662
s 6.7617830758184 -7.937745349873775 14.699528425692174 -7.937745349873775
S 468.56130139155863 54.12001106211533 468.56130139155863 81.75512450241662
z" fill="none" stroke="none"></path>
<circle cx="0" cy="0" r="5.660314721135963" fill="#1d3f72">
  <animateMotion begin="-5.69864057794093s" dur="20s" repeatCount="indefinite">
    <mpath xlink:href="#path23"></mpath>
  </animateMotion>
</circle><path id="path24" d="M 957.7746981693311 39.096621704172996
c 0 27.198903856181655 -6.6550509435338085 7.812451107626646 -14.467502051160455 7.812451107626646
S 928.8396940670103 66.29552556035465 928.8396940670103 39.096621704172996
s 6.6550509435338085 -7.812451107626646 14.467502051160455 -7.812451107626646
S 957.7746981693311 11.897717847991341 957.7746981693311 39.096621704172996
z" fill="none" stroke="none"></path>
<circle cx="0" cy="0" r="5.98886542586373" fill="#785471">
  <animateMotion begin="-11.03521849833038s" dur="20s" repeatCount="indefinite">
    <mpath xlink:href="#path24"></mpath>
  </animateMotion>
</circle><path id="path25" d="M 1433.5066378427211 466.27197344231666
c 0 37.54788050489438 -9.187247357580539 10.785029506724982 -19.97227686430552 10.785029506724982
S 1393.5620841141101 503.8198539472111 1393.5620841141101 466.27197344231666
s 9.187247357580539 -10.785029506724982 19.97227686430552 -10.785029506724982
S 1433.5066378427211 428.72409293742226 1433.5066378427211 466.27197344231666
z" fill="none" stroke="none"></path>
<circle cx="0" cy="0" r="6.629586929814612" fill="#5699d2">
  <animateMotion begin="-19.4329969794037s" dur="20s" repeatCount="indefinite">
    <mpath xlink:href="#path25"></mpath>
  </animateMotion>
</circle><path id="path26" d="M 1406.7009434592485 216.82325823713848
c 0 33.49737221798602 -8.196165542698706 9.621585637081091 -17.817751179779798 9.621585637081091
S 1371.0654410996888 250.3206304551245 1371.0654410996888 216.82325823713848
s 8.196165542698706 -9.621585637081091 17.817751179779798 -9.621585637081091
S 1406.7009434592485 183.32588601915245 1406.7009434592485 216.82325823713848
z" fill="none" stroke="none"></path>
<circle cx="0" cy="0" r="5.212040694178456" fill="#eee7d8">
  <animateMotion begin="-3.340448279085191s" dur="20s" repeatCount="indefinite">
    <mpath xlink:href="#path26"></mpath>
  </animateMotion>
</circle><path id="path27" d="M 1461.8831045565566 130.4239678283508
c 0 29.321130987732037 -7.174319284232306 8.422026985837926 -15.596346270070232 8.422026985837926
S 1430.6904120164163 159.74509881608284 1430.6904120164163 130.4239678283508
s 7.174319284232306 -8.422026985837926 15.596346270070232 -8.422026985837926
S 1461.8831045565566 101.10283684061878 1461.8831045565566 130.4239678283508
z" fill="none" stroke="none"></path>
<circle cx="0" cy="0" r="7.671883470414939" fill="#4996a2">
  <animateMotion begin="-10.755570753378304s" dur="20s" repeatCount="indefinite">
    <mpath xlink:href="#path27"></mpath>
  </animateMotion>
</circle><path id="path28" d="M 204.24652686657268 511.0470616211041
c 0 36.89181504305114 -9.02672070202315 10.596585171940221 -19.62330587396337 10.596585171940221
S 164.99991511864593 547.9388766641553 164.99991511864593 511.0470616211041
s 9.02672070202315 -10.596585171940221 19.62330587396337 -10.596585171940221
S 204.24652686657268 474.1552465780529 204.24652686657268 511.0470616211041
z" fill="none" stroke="none"></path>
<circle cx="0" cy="0" r="4.407629523247258" fill="#71c2cc">
  <animateMotion begin="-11.4239698073632s" dur="20s" repeatCount="indefinite">
    <mpath xlink:href="#path28"></mpath>
  </animateMotion>
</circle><path id="path29" d="M 859.3574562093518 694.6626289549628
c 0 29.376436696155558 -7.187851532038062 8.437912668044682 -15.625764200082743 8.437912668044682
S 828.1059278091864 724.0390656511183 828.1059278091864 694.6626289549628
s 7.187851532038062 -8.437912668044682 15.625764200082743 -8.437912668044682
S 859.3574562093518 665.2861922588072 859.3574562093518 694.6626289549628
z" fill="none" stroke="none"></path>
<circle cx="0" cy="0" r="7.102615484589509" fill="#71c2cc">
  <animateMotion begin="-18.602425102703123s" dur="20s" repeatCount="indefinite">
    <mpath xlink:href="#path29"></mpath>
  </animateMotion>
</circle></g>
</svg>